<?xml version="1.0" encoding="UTF-8" standalone="no"?>
<!-- Created with Inkscape (http://www.inkscape.org/) -->

<svg
   xmlns:dc="http://purl.org/dc/elements/1.1/"
   xmlns:cc="http://creativecommons.org/ns#"
   xmlns:rdf="http://www.w3.org/1999/02/22-rdf-syntax-ns#"
   xmlns:svg="http://www.w3.org/2000/svg"
   xmlns="http://www.w3.org/2000/svg"
   xmlns:sodipodi="http://sodipodi.sourceforge.net/DTD/sodipodi-0.dtd"
   xmlns:inkscape="http://www.inkscape.org/namespaces/inkscape"
   id="svg3055"
   version="1.1"
   inkscape:version="0.48.2 r9819"
   width="210"
   height="180"
   sodipodi:docname="arrastra.svg">
  <metadata
     id="metadata3061">
    <rdf:RDF>
      <cc:Work
         rdf:about="">
        <dc:format>image/svg+xml</dc:format>
        <dc:type
           rdf:resource="http://purl.org/dc/dcmitype/StillImage" />
        <dc:title />
      </cc:Work>
    </rdf:RDF>
  </metadata>
  <defs
     id="defs3059" />
  <sodipodi:namedview
     pagecolor="#ffffff"
     bordercolor="#666666"
     borderopacity="1"
     objecttolerance="10"
     gridtolerance="10"
     guidetolerance="10"
     inkscape:pageopacity="0"
     inkscape:pageshadow="2"
     inkscape:window-width="1920"
     inkscape:window-height="1018"
     id="namedview3057"
     showgrid="false"
     inkscape:zoom="2"
     inkscape:cx="30.52644"
     inkscape:cy="116.91696"
     inkscape:window-x="-8"
     inkscape:window-y="-8"
     inkscape:window-maximized="1"
     inkscape:current-layer="svg3055"
     showguides="true">
    <inkscape:grid
       type="xygrid"
       id="grid4709"
       empspacing="5"
       visible="true"
       enabled="true"
       snapvisiblegridlinesonly="true" />
  </sodipodi:namedview>
  <g
     inkscape:groupmode="layer"
     id="layer1"
     inkscape:label="Layer"
     style="display:inline"
     transform="translate(0,-8)" />
  <path
     style="fill:none;stroke:#e64b00;stroke-width:5.30000019000000040;stroke-linecap:round;stroke-linejoin:miter;stroke-miterlimit:4;stroke-opacity:1;stroke-dasharray:none;"
     d="m 113.61665,166.20041 c 0,0 39.96236,-77.19106 -6.43981,-103.03741 C 73.019368,44.137042 18.859443,51.203803 18.859443,51.203803"
     id="path3070"
     inkscape:connector-curvature="0"
     sodipodi:nodetypes="csc" />
  <path
     style="fill:none;stroke:#e64b00;stroke-width:4;stroke-linecap:round;stroke-linejoin:round;stroke-miterlimit:4;stroke-opacity:1;stroke-dasharray:none;"
     d="M 35.453288,66.809688 C 25.858132,51.685121 15.287197,51.197231 15.287197,51.197231 c 0.06096,0.01859 16.270669,-9.817217 20.443716,-17.504823"
     id="path4532"
     inkscape:connector-curvature="0"
     sodipodi:nodetypes="ccc" />
  <g
     transform="matrix(0.82451298,0.30297031,-0.28093443,1.0914976,42.104401,-8.114722)"
     style="font-size:24px;font-style:normal;font-variant:normal;font-weight:normal;font-stretch:normal;line-height:125%;letter-spacing:0px;word-spacing:0px;fill:#e64b00;fill-opacity:1;stroke:none;font-family:MV Boli;-inkscape-font-specification:MV Boli"
     id="text4556">
    <path
       d="m 29.72209,32.654858 c -0.164075,0 -0.308606,-0.03125 -0.433594,-0.09375 -0.125012,-0.0625 -0.228528,-0.144532 -0.310547,-0.246094 -0.08204,-0.101562 -0.144543,-0.21875 -0.1875,-0.351563 -0.04298,-0.132811 -0.06446,-0.265624 -0.06445,-0.398437 -1.2e-5,-0.117187 0.03124,-0.279296 0.09375,-0.486328 0.06249,-0.20703 0.142566,-0.439451 0.240234,-0.697266 0.09764,-0.25781 0.205066,-0.527341 0.322266,-0.808594 0.117175,-0.281246 0.230456,-0.550777 0.339844,-0.808593 0.109362,-0.257809 0.203112,-0.49609 0.28125,-0.714844 0.07811,-0.218745 0.132799,-0.39062 0.164062,-0.515625 0.03124,-0.14062 0.0703,-0.308589 0.117188,-0.503906 0.04686,-0.195307 0.0996,-0.408198 0.158203,-0.638672 0.05858,-0.230463 0.117174,-0.47265 0.175781,-0.726563 0.05858,-0.253899 0.119127,-0.509758 0.181641,-0.767578 -0.109389,0.02345 -0.244155,0.04493 -0.404297,0.06445 -0.16017,0.01954 -0.330091,0.03712 -0.509766,0.05274 -0.257825,0.02344 -0.511731,0.0586 -0.761718,0.105468 -0.250012,0.04688 -0.505872,0.09962 -0.767579,0.158204 -0.26173,0.0586 -0.533214,0.1211 -0.814453,0.1875 -0.28126,0.06641 -0.582041,0.134772 -0.902343,0.205078 -0.46876,0.101569 -0.937509,0.21485 -1.40625,0.339843 -0.468758,0.125007 -0.957039,0.187507 -1.464844,0.1875 -0.156257,7e-6 -0.300788,-0.04101 -0.433594,-0.123046 -0.132819,-0.08203 -0.281256,-0.142572 -0.445312,-0.181641 -0.156256,0.250006 -0.304694,0.517584 -0.445313,0.802734 -0.14063,0.285162 -0.269536,0.578131 -0.386719,0.878907 -0.117192,0.300785 -0.222661,0.59766 -0.316406,0.890625 -0.09375,0.292972 -0.175786,0.568362 -0.246094,0.826171 -0.03907,0.140628 -0.07227,0.322269 -0.09961,0.544922 -0.02735,0.222659 -0.05274,0.449221 -0.07617,0.679688 -0.02344,0.23047 -0.04688,0.451173 -0.07031,0.662109 -0.02344,0.210939 -0.04688,0.378907 -0.07031,0.503906 -0.02344,0.117189 -0.07032,0.232423 -0.140625,0.345704 -0.07032,0.113281 -0.156254,0.216797 -0.257812,0.310546 -0.101567,0.09375 -0.214848,0.169922 -0.339844,0.228516 -0.125004,0.05859 -0.250004,0.08789 -0.375,0.08789 -0.218753,0 -0.396487,-0.06445 -0.533203,-0.19336 -0.136722,-0.128906 -0.246096,-0.289062 -0.328125,-0.480468 -0.08203,-0.191406 -0.138674,-0.40039 -0.169922,-0.626954 -0.03125,-0.226561 -0.04688,-0.433592 -0.04687,-0.621093 -2e-6,-0.476561 0.05859,-0.970701 0.175781,-1.482422 0.117185,-0.511715 0.275388,-1.031246 0.474609,-1.558594 0.199216,-0.527338 0.433591,-1.058588 0.703125,-1.59375 0.269528,-0.535149 0.560543,-1.068352 0.873047,-1.599609 0.257808,-0.476554 0.57812,-1.027335 0.960938,-1.652344 0.382807,-0.62499 0.810541,-1.267567 1.283203,-1.927734 0.472649,-0.660144 0.984367,-1.306628 1.535156,-1.939454 0.550773,-0.632798 1.123038,-1.19725 1.716797,-1.693359 0.59374,-0.496078 1.203114,-0.896468 1.828125,-1.201172 0.624988,-0.304671 1.246081,-0.457014 1.863281,-0.457031 0.648424,1.7e-5 1.189439,0.117204 1.623047,0.351562 0.433578,0.234392 0.779281,0.550798 1.03711,0.949219 0.257796,0.398453 0.439436,0.863296 0.544921,1.394531 0.105452,0.531264 0.158187,1.093763 0.158204,1.6875 -1.7e-5,0.52345 -0.03322,1.062512 -0.09961,1.617188 -0.06642,0.554698 -0.148454,1.097666 -0.246094,1.628906 -0.09767,0.531259 -0.203141,1.042977 -0.316406,1.535156 -0.113297,0.492195 -0.216813,0.937507 -0.310547,1.335938 l -0.410156,1.59375 c -0.01564,0.04688 -0.04494,0.14063 -0.08789,0.28125 -0.04298,0.140629 -0.09767,0.310551 -0.164062,0.509766 -0.06642,0.199222 -0.14064,0.414066 -0.222656,0.644531 -0.08205,0.230472 -0.164078,0.457034 -0.246094,0.679687 -0.08205,0.222659 -0.160171,0.427737 -0.234375,0.615235 -0.07423,0.187502 -0.138686,0.339845 -0.193359,0.457031 l 0.01172,-0.01172 c -0.0547,0.203127 -0.113295,0.410158 -0.175781,0.621094 -0.06251,0.210938 -0.148451,0.400391 -0.257812,0.568359 -0.109389,0.167969 -0.250014,0.304688 -0.421875,0.410157 -0.171889,0.105468 -0.394545,0.158203 -0.667969,0.158203 z m 0.597656,-14.671875 c -0.351576,1.4e-5 -0.701185,0.07228 -1.048828,0.216797 -0.347668,0.144545 -0.689465,0.333998 -1.025391,0.568359 -0.335948,0.234388 -0.66212,0.507826 -0.978515,0.820312 -0.316417,0.312513 -0.617198,0.632825 -0.902344,0.960938 -0.285166,0.328137 -0.552743,0.658214 -0.802734,0.990234 -0.250009,0.332042 -0.476571,0.638682 -0.679688,0.919922 -0.03126,0.04689 -0.07227,0.107432 -0.123047,0.181641 -0.05079,0.07423 -0.10157,0.156259 -0.152344,0.246094 -0.05079,0.08985 -0.09962,0.183603 -0.146484,0.28125 -0.04688,0.09766 -0.08594,0.185556 -0.117187,0.263671 l 1.207031,0 c 0.437491,9e-6 0.93749,-0.03124 1.5,-0.09375 0.562489,-0.06249 1.119129,-0.136709 1.669922,-0.222656 0.550769,-0.08593 1.056627,-0.173818 1.517578,-0.263672 0.460923,-0.08983 0.808579,-0.158193 1.042969,-0.205078 0.03123,-0.101552 0.06053,-0.238271 0.08789,-0.410156 0.02733,-0.171865 0.05272,-0.363271 0.07617,-0.574219 0.02342,-0.210926 0.041,-0.435535 0.05273,-0.673828 0.0117,-0.238269 0.01756,-0.48241 0.01758,-0.732422 -1.5e-5,-0.203112 -0.0078,-0.435534 -0.02344,-0.697265 -0.01564,-0.261706 -0.06251,-0.509753 -0.140625,-0.744141 -0.07814,-0.234361 -0.19728,-0.431627 -0.357422,-0.591797 -0.16017,-0.160142 -0.384779,-0.24022 -0.673828,-0.240234 z"
       style=""
       id="path3018" />
    <path
       d="m 36.296309,31.049389 c 0.445309,-1.789059 0.906246,-3.556636 1.382812,-5.302734 0.476558,-1.746086 0.937495,-3.513662 1.382813,-5.302735 0.05468,-0.234363 0.109369,-0.457019 0.164062,-0.667969 0.05468,-0.210924 0.105463,-0.421861 0.152344,-0.632812 0.04687,-0.210924 0.08398,-0.423814 0.111328,-0.638672 0.02734,-0.21483 0.04101,-0.439439 0.04102,-0.673828 -7e-6,-0.179673 -0.01172,-0.343735 -0.03516,-0.492188 -0.02344,-0.148422 -0.03516,-0.31639 -0.03516,-0.503906 -6e-6,-0.179671 0.02343,-0.371078 0.07031,-0.574219 0.117181,-0.476545 0.283196,-0.832014 0.498046,-1.066406 0.214837,-0.234357 0.541009,-0.351545 0.978516,-0.351562 0.17968,1.7e-5 0.353508,0.0176 0.521484,0.05273 0.167961,0.03517 0.333976,0.07619 0.498047,0.123047 0.179679,0.05471 0.365226,0.10158 0.556641,0.140625 0.191397,0.03908 0.384756,0.05861 0.580078,0.05859 0.15624,1.7e-5 0.308584,-0.0078 0.457031,-0.02344 0.148428,-0.01561 0.318349,-0.03123 0.509766,-0.04687 0.191395,-0.01561 0.417958,-0.03123 0.679687,-0.04687 0.261708,-0.01561 0.591785,-0.02342 0.990235,-0.02344 0.218737,1.7e-5 0.476549,0.0078 0.773437,0.02344 0.296862,0.01564 0.605455,0.0508 0.925782,0.105469 0.320298,0.05471 0.644516,0.134783 0.972656,0.240234 0.328109,0.105486 0.63475,0.248064 0.919922,0.427735 0.28514,0.179704 0.537093,0.400407 0.755859,0.662109 0.218733,0.261734 0.382795,0.576187 0.492188,0.943359 0.05467,0.179703 0.09178,0.343765 0.111328,0.492188 0.01951,0.148452 0.02928,0.292983 0.0293,0.433594 -1.8e-5,0.476576 -0.121111,0.945325 -0.363282,1.40625 -0.273454,0.523449 -0.642594,1.013683 -1.107422,1.470703 -0.464859,0.457042 -1.005874,0.888682 -1.623046,1.294922 -0.242202,0.164072 -0.523452,0.333994 -0.84375,0.509765 -0.320326,0.175791 -0.634779,0.343759 -0.94336,0.503907 -0.308606,0.160165 -0.585949,0.306649 -0.832031,0.439453 -0.246105,0.13282 -0.416027,0.234383 -0.509766,0.304687 0.273426,0.132821 0.546864,0.271492 0.820313,0.416016 0.273425,0.144539 0.552722,0.318367 0.83789,0.521484 0.285144,0.203132 0.574206,0.449226 0.867188,0.738281 0.292955,0.289069 0.597642,0.642584 0.914062,1.060547 0.316392,0.417974 0.644517,0.912114 0.984375,1.482422 0.339828,0.570316 0.693344,1.24219 1.060547,2.015625 0.09373,0.187502 0.140609,0.38672 0.140625,0.597656 -1.6e-5,0.164064 -0.03322,0.328126 -0.09961,0.492188 -0.06642,0.164063 -0.156267,0.3125 -0.269531,0.445312 -0.113298,0.132813 -0.248063,0.240235 -0.404297,0.322266 -0.156266,0.08203 -0.324235,0.123047 -0.503906,0.123047 -0.273453,0 -0.500015,-0.101563 -0.679688,-0.304688 -0.179702,-0.203124 -0.351577,-0.468749 -0.515625,-0.796875 -0.164077,-0.328123 -0.333998,-0.699217 -0.509766,-1.113281 -0.175794,-0.41406 -0.392591,-0.832028 -0.65039,-1.253906 -0.281263,-0.453121 -0.59181,-0.882808 -0.931641,-1.289063 -0.339855,-0.406244 -0.701183,-0.757807 -1.083984,-1.054687 -0.382823,-0.296869 -0.777354,-0.533197 -1.183594,-0.708984 -0.406259,-0.175775 -0.812509,-0.263666 -1.21875,-0.263672 l -0.175781,0 c -0.242196,6e-6 -0.458993,0.02149 -0.650391,0.06445 -0.191414,0.04297 -0.37696,0.08009 -0.55664,0.111328 -0.242195,-0.08593 -0.417976,-0.226556 -0.527344,-0.421875 -0.109382,-0.195305 -0.164069,-0.414055 -0.164063,-0.65625 l 0,-0.164063 -0.9375,3.691407 c -0.03126,0.117191 -0.07422,0.277347 -0.128906,0.480468 -0.05469,0.203129 -0.117193,0.425785 -0.1875,0.667969 -0.07032,0.24219 -0.142583,0.496096 -0.216797,0.761719 -0.07422,0.265627 -0.144536,0.515627 -0.210937,0.75 -0.06641,0.234376 -0.125005,0.445313 -0.175782,0.632812 -0.05079,0.187501 -0.0879,0.328126 -0.111328,0.421875 -0.109379,0.195313 -0.248051,0.34961 -0.416015,0.462891 -0.167973,0.113281 -0.349614,0.169922 -0.544922,0.169922 -0.343754,0 -0.582035,-0.103516 -0.714844,-0.310547 -0.132815,-0.207031 -0.199221,-0.447265 -0.199219,-0.720703 -2e-6,-0.109374 0.0078,-0.220702 0.02344,-0.333984 0.01562,-0.11328 0.03515,-0.220702 0.05859,-0.322266 z m 5.753906,-13.21875 c -0.04688,0.156264 -0.115243,0.382827 -0.205078,0.679687 -0.08985,0.296889 -0.189462,0.632826 -0.298828,1.007813 -0.109383,0.375013 -0.226571,0.777356 -0.351563,1.207031 -0.125008,0.429699 -0.250007,0.861339 -0.375,1.294922 -0.125007,0.433604 -0.246101,0.853525 -0.363281,1.259766 -0.117195,0.406258 -0.222663,0.769539 -0.316406,1.089843 0.156243,-0.203116 0.390617,-0.384757 0.703125,-0.544921 0.312492,-0.160148 0.664054,-0.310538 1.054687,-0.451172 0.304679,-0.109366 0.679678,-0.263663 1.125,-0.462891 0.445303,-0.199209 0.912099,-0.427724 1.400391,-0.685547 0.488269,-0.257802 0.97655,-0.537098 1.464843,-0.83789 0.488269,-0.30077 0.925768,-0.609364 1.3125,-0.925782 0.386705,-0.316394 0.701158,-0.6328 0.94336,-0.949218 0.242172,-0.316393 0.363266,-0.623034 0.363281,-0.919922 -1.5e-5,-0.289049 -0.101577,-0.517564 -0.304687,-0.685547 -0.20314,-0.167954 -0.457046,-0.294907 -0.761719,-0.38086 -0.304701,-0.08592 -0.638685,-0.142563 -1.001953,-0.169921 -0.363294,-0.02733 -0.701184,-0.041 -1.013672,-0.04102 -0.562512,1.5e-5 -1.125011,0.03517 -1.6875,0.105469 -0.56251,0.07033 -1.125009,0.207046 -1.6875,0.410156 z"
       style=""
       id="path3020" />
    <path
       d="m 53.030684,31.049389 c 0.445309,-1.789059 0.906246,-3.556636 1.382812,-5.302734 0.476558,-1.746086 0.937495,-3.513662 1.382813,-5.302735 0.05468,-0.234363 0.109369,-0.457019 0.164062,-0.667969 0.05468,-0.210924 0.105463,-0.421861 0.152344,-0.632812 0.04687,-0.210924 0.08398,-0.423814 0.111328,-0.638672 0.02734,-0.21483 0.04101,-0.439439 0.04102,-0.673828 -7e-6,-0.179673 -0.01172,-0.343735 -0.03516,-0.492188 -0.02344,-0.148422 -0.03516,-0.31639 -0.03516,-0.503906 -6e-6,-0.179671 0.02343,-0.371078 0.07031,-0.574219 0.117181,-0.476545 0.283196,-0.832014 0.498046,-1.066406 0.214837,-0.234357 0.541009,-0.351545 0.978516,-0.351562 0.17968,1.7e-5 0.353508,0.0176 0.521484,0.05273 0.167961,0.03517 0.333976,0.07619 0.498047,0.123047 0.179679,0.05471 0.365226,0.10158 0.556641,0.140625 0.191397,0.03908 0.384756,0.05861 0.580078,0.05859 0.15624,1.7e-5 0.308584,-0.0078 0.457031,-0.02344 0.148428,-0.01561 0.318349,-0.03123 0.509766,-0.04687 0.191395,-0.01561 0.417958,-0.03123 0.679687,-0.04687 0.261708,-0.01561 0.591785,-0.02342 0.990235,-0.02344 0.218737,1.7e-5 0.476549,0.0078 0.773437,0.02344 0.296862,0.01564 0.605455,0.0508 0.925782,0.105469 0.320298,0.05471 0.644516,0.134783 0.972656,0.240234 0.328109,0.105486 0.63475,0.248064 0.919922,0.427735 0.28514,0.179704 0.537093,0.400407 0.755859,0.662109 0.218733,0.261734 0.382795,0.576187 0.492188,0.943359 0.05467,0.179703 0.09178,0.343765 0.111328,0.492188 0.01951,0.148452 0.02928,0.292983 0.0293,0.433594 -1.8e-5,0.476576 -0.121111,0.945325 -0.363282,1.40625 -0.273454,0.523449 -0.642594,1.013683 -1.107422,1.470703 -0.464859,0.457042 -1.005874,0.888682 -1.623046,1.294922 -0.242202,0.164072 -0.523452,0.333994 -0.84375,0.509765 -0.320326,0.175791 -0.634779,0.343759 -0.94336,0.503907 -0.308606,0.160165 -0.585949,0.306649 -0.832031,0.439453 -0.246105,0.13282 -0.416027,0.234383 -0.509766,0.304687 0.273426,0.132821 0.546864,0.271492 0.820313,0.416016 0.273425,0.144539 0.552722,0.318367 0.83789,0.521484 0.285144,0.203132 0.574206,0.449226 0.867188,0.738281 0.292955,0.289069 0.597642,0.642584 0.914062,1.060547 0.316392,0.417974 0.644517,0.912114 0.984375,1.482422 0.339828,0.570316 0.693344,1.24219 1.060547,2.015625 0.09373,0.187502 0.140609,0.38672 0.140625,0.597656 -1.6e-5,0.164064 -0.03322,0.328126 -0.09961,0.492188 -0.06642,0.164063 -0.156267,0.3125 -0.269531,0.445312 -0.113298,0.132813 -0.248063,0.240235 -0.404297,0.322266 -0.156266,0.08203 -0.324235,0.123047 -0.503906,0.123047 -0.273453,0 -0.500015,-0.101563 -0.679688,-0.304688 -0.179702,-0.203124 -0.351577,-0.468749 -0.515625,-0.796875 -0.164077,-0.328123 -0.333998,-0.699217 -0.509766,-1.113281 -0.175794,-0.41406 -0.392591,-0.832028 -0.65039,-1.253906 -0.281263,-0.453121 -0.59181,-0.882808 -0.931641,-1.289063 -0.339855,-0.406244 -0.701183,-0.757807 -1.083984,-1.054687 -0.382823,-0.296869 -0.777354,-0.533197 -1.183594,-0.708984 -0.406259,-0.175775 -0.812509,-0.263666 -1.21875,-0.263672 l -0.175781,0 c -0.242196,6e-6 -0.458993,0.02149 -0.650391,0.06445 -0.191414,0.04297 -0.37696,0.08009 -0.55664,0.111328 -0.242195,-0.08593 -0.417976,-0.226556 -0.527344,-0.421875 -0.109382,-0.195305 -0.164069,-0.414055 -0.164063,-0.65625 l 0,-0.164063 -0.9375,3.691407 c -0.03126,0.117191 -0.07422,0.277347 -0.128906,0.480468 -0.05469,0.203129 -0.117193,0.425785 -0.1875,0.667969 -0.07032,0.24219 -0.142583,0.496096 -0.216797,0.761719 -0.07422,0.265627 -0.144536,0.515627 -0.210937,0.75 -0.06641,0.234376 -0.125005,0.445313 -0.175782,0.632812 -0.05079,0.187501 -0.0879,0.328126 -0.111328,0.421875 -0.109379,0.195313 -0.248051,0.34961 -0.416015,0.462891 -0.167973,0.113281 -0.349614,0.169922 -0.544922,0.169922 -0.343754,0 -0.582035,-0.103516 -0.714844,-0.310547 -0.132815,-0.207031 -0.199221,-0.447265 -0.199219,-0.720703 -2e-6,-0.109374 0.0078,-0.220702 0.02344,-0.333984 0.01562,-0.11328 0.03515,-0.220702 0.05859,-0.322266 z m 5.753906,-13.21875 c -0.04688,0.156264 -0.115243,0.382827 -0.205078,0.679687 -0.08985,0.296889 -0.189462,0.632826 -0.298828,1.007813 -0.109383,0.375013 -0.226571,0.777356 -0.351563,1.207031 -0.125008,0.429699 -0.250007,0.861339 -0.375,1.294922 -0.125007,0.433604 -0.246101,0.853525 -0.363281,1.259766 -0.117195,0.406258 -0.222663,0.769539 -0.316406,1.089843 0.156243,-0.203116 0.390617,-0.384757 0.703125,-0.544921 0.312492,-0.160148 0.664054,-0.310538 1.054687,-0.451172 0.304679,-0.109366 0.679678,-0.263663 1.125,-0.462891 0.445303,-0.199209 0.912099,-0.427724 1.400391,-0.685547 0.488269,-0.257802 0.97655,-0.537098 1.464843,-0.83789 0.488269,-0.30077 0.925768,-0.609364 1.3125,-0.925782 0.386705,-0.316394 0.701158,-0.6328 0.94336,-0.949218 0.242172,-0.316393 0.363266,-0.623034 0.363281,-0.919922 -1.5e-5,-0.289049 -0.101577,-0.517564 -0.304687,-0.685547 -0.20314,-0.167954 -0.457046,-0.294907 -0.761719,-0.38086 -0.304701,-0.08592 -0.638685,-0.142563 -1.001953,-0.169921 -0.363294,-0.02733 -0.701184,-0.041 -1.013672,-0.04102 -0.562512,1.5e-5 -1.125011,0.03517 -1.6875,0.105469 -0.56251,0.07033 -1.125009,0.207046 -1.6875,0.410156 z"
       style=""
       id="path3022" />
    <path
       d="m 79.78459,32.654858 c -0.164075,0 -0.308606,-0.03125 -0.433594,-0.09375 -0.125012,-0.0625 -0.228528,-0.144532 -0.310547,-0.246094 -0.08204,-0.101562 -0.144543,-0.21875 -0.1875,-0.351563 -0.04298,-0.132811 -0.06446,-0.265624 -0.06445,-0.398437 -1.2e-5,-0.117187 0.03124,-0.279296 0.09375,-0.486328 0.06249,-0.20703 0.142566,-0.439451 0.240234,-0.697266 0.09764,-0.25781 0.205066,-0.527341 0.322266,-0.808594 0.117175,-0.281246 0.230456,-0.550777 0.339844,-0.808593 0.109362,-0.257809 0.203112,-0.49609 0.28125,-0.714844 0.07811,-0.218745 0.132799,-0.39062 0.164062,-0.515625 0.03124,-0.14062 0.0703,-0.308589 0.117188,-0.503906 0.04686,-0.195307 0.0996,-0.408198 0.158203,-0.638672 0.05858,-0.230463 0.117174,-0.47265 0.175781,-0.726563 0.05858,-0.253899 0.119127,-0.509758 0.181641,-0.767578 -0.109389,0.02345 -0.244155,0.04493 -0.404297,0.06445 -0.16017,0.01954 -0.330091,0.03712 -0.509766,0.05274 -0.257825,0.02344 -0.511731,0.0586 -0.761718,0.105468 -0.250012,0.04688 -0.505872,0.09962 -0.767579,0.158204 -0.26173,0.0586 -0.533214,0.1211 -0.814453,0.1875 -0.28126,0.06641 -0.582041,0.134772 -0.902343,0.205078 -0.46876,0.101569 -0.937509,0.21485 -1.40625,0.339843 -0.468758,0.125007 -0.957039,0.187507 -1.464844,0.1875 -0.156257,7e-6 -0.300788,-0.04101 -0.433594,-0.123046 -0.132819,-0.08203 -0.281256,-0.142572 -0.445312,-0.181641 -0.156256,0.250006 -0.304694,0.517584 -0.445313,0.802734 -0.14063,0.285162 -0.269536,0.578131 -0.386719,0.878907 -0.117192,0.300785 -0.222661,0.59766 -0.316406,0.890625 -0.09376,0.292972 -0.175786,0.568362 -0.246094,0.826171 -0.03907,0.140628 -0.07227,0.322269 -0.09961,0.544922 -0.02735,0.222659 -0.05274,0.449221 -0.07617,0.679688 -0.02344,0.23047 -0.04688,0.451173 -0.07031,0.662109 -0.02344,0.210939 -0.04688,0.378907 -0.07031,0.503906 -0.02344,0.117189 -0.07032,0.232423 -0.140625,0.345704 -0.07032,0.113281 -0.156254,0.216797 -0.257812,0.310546 -0.101567,0.09375 -0.214848,0.169922 -0.339844,0.228516 -0.125004,0.05859 -0.250004,0.08789 -0.375,0.08789 -0.218753,0 -0.396487,-0.06445 -0.533203,-0.19336 -0.136722,-0.128906 -0.246096,-0.289062 -0.328125,-0.480468 -0.08203,-0.191406 -0.138674,-0.40039 -0.169922,-0.626954 -0.03125,-0.226561 -0.04688,-0.433592 -0.04687,-0.621093 -2e-6,-0.476561 0.05859,-0.970701 0.175781,-1.482422 0.117185,-0.511715 0.275388,-1.031246 0.474609,-1.558594 0.199216,-0.527338 0.433591,-1.058588 0.703125,-1.59375 0.269528,-0.535149 0.560543,-1.068352 0.873047,-1.599609 0.257808,-0.476554 0.57812,-1.027335 0.960938,-1.652344 0.382807,-0.62499 0.810541,-1.267567 1.283203,-1.927734 0.472649,-0.660144 0.984367,-1.306628 1.535156,-1.939454 0.550773,-0.632798 1.123038,-1.19725 1.716797,-1.693359 0.59374,-0.496078 1.203114,-0.896468 1.828125,-1.201172 0.624988,-0.304671 1.246081,-0.457014 1.863281,-0.457031 0.648424,1.7e-5 1.189439,0.117204 1.623047,0.351562 0.433578,0.234392 0.779281,0.550798 1.03711,0.949219 0.257796,0.398453 0.439436,0.863296 0.544921,1.394531 0.105452,0.531264 0.158187,1.093763 0.158204,1.6875 -1.7e-5,0.52345 -0.03322,1.062512 -0.09961,1.617188 -0.06642,0.554698 -0.148454,1.097666 -0.246094,1.628906 -0.09767,0.531259 -0.203141,1.042977 -0.316406,1.535156 -0.113297,0.492195 -0.216813,0.937507 -0.310547,1.335938 l -0.410156,1.59375 c -0.01564,0.04688 -0.04494,0.14063 -0.08789,0.28125 -0.04298,0.140629 -0.09767,0.310551 -0.164062,0.509766 -0.06642,0.199222 -0.14064,0.414066 -0.222656,0.644531 -0.08205,0.230472 -0.164078,0.457034 -0.246094,0.679687 -0.08205,0.222659 -0.160171,0.427737 -0.234375,0.615235 -0.07423,0.187502 -0.138686,0.339845 -0.193359,0.457031 l 0.01172,-0.01172 c -0.0547,0.203127 -0.113295,0.410158 -0.175781,0.621094 -0.06251,0.210938 -0.148451,0.400391 -0.257812,0.568359 -0.109389,0.167969 -0.250014,0.304688 -0.421875,0.410157 -0.171889,0.105468 -0.394545,0.158203 -0.667969,0.158203 z m 0.597656,-14.671875 c -0.351576,1.4e-5 -0.701185,0.07228 -1.048828,0.216797 -0.347668,0.144545 -0.689465,0.333998 -1.025391,0.568359 -0.335948,0.234388 -0.66212,0.507826 -0.978515,0.820312 -0.316417,0.312513 -0.617198,0.632825 -0.902344,0.960938 -0.285166,0.328137 -0.552743,0.658214 -0.802734,0.990234 -0.250009,0.332042 -0.476571,0.638682 -0.679688,0.919922 -0.03126,0.04689 -0.07227,0.107432 -0.123047,0.181641 -0.05079,0.07423 -0.10157,0.156259 -0.152344,0.246094 -0.05079,0.08985 -0.09962,0.183603 -0.146484,0.28125 -0.04688,0.09766 -0.08594,0.185556 -0.117187,0.263671 l 1.207031,0 c 0.437491,9e-6 0.93749,-0.03124 1.5,-0.09375 0.562489,-0.06249 1.119129,-0.136709 1.669922,-0.222656 0.550769,-0.08593 1.056627,-0.173818 1.517578,-0.263672 0.460923,-0.08983 0.808579,-0.158193 1.042969,-0.205078 0.03124,-0.101552 0.06053,-0.238271 0.08789,-0.410156 0.02733,-0.171865 0.05272,-0.363271 0.07617,-0.574219 0.02342,-0.210926 0.041,-0.435535 0.05273,-0.673828 0.01171,-0.238269 0.01756,-0.48241 0.01758,-0.732422 -1.5e-5,-0.203112 -0.0078,-0.435534 -0.02344,-0.697265 -0.01564,-0.261706 -0.06251,-0.509753 -0.140625,-0.744141 -0.07814,-0.234361 -0.19728,-0.431627 -0.357422,-0.591797 -0.16017,-0.160142 -0.384779,-0.24022 -0.673828,-0.240234 z"
       style=""
       id="path3024" />
    <path
       d="m 85.97209,29.81892 c 0.265622,0.09375 0.537106,0.203128 0.814453,0.328125 0.27734,0.125002 0.564449,0.244143 0.861328,0.357422 0.296871,0.113283 0.607417,0.208986 0.931641,0.287109 0.324213,0.07813 0.669916,0.11719 1.037109,0.117188 0.429681,2e-6 0.863274,-0.05078 1.300781,-0.152344 0.437492,-0.10156 0.865226,-0.251951 1.283203,-0.451172 0.41796,-0.199216 0.81835,-0.441403 1.201172,-0.726562 0.382803,-0.285153 0.734365,-0.615231 1.054688,-0.990235 0.351551,-0.398433 0.644519,-0.759761 0.878906,-1.083984 0.234363,-0.324213 0.423816,-0.613276 0.568359,-0.867187 0.144519,-0.253901 0.248035,-0.47265 0.310547,-0.65625 0.06249,-0.183588 0.09374,-0.34179 0.09375,-0.47461 -1.2e-5,-0.195305 -0.06642,-0.365227 -0.199218,-0.509765 -0.132825,-0.144524 -0.31056,-0.263665 -0.533204,-0.357422 -0.222668,-0.09374 -0.474621,-0.162102 -0.755859,-0.205078 -0.281261,-0.04296 -0.574229,-0.06444 -0.878906,-0.06445 -0.179698,9e-6 -0.390635,0.0059 -0.632813,0.01758 -0.242197,0.01173 -0.48829,0.02344 -0.738281,0.03516 -0.250009,0.01173 -0.492196,0.02149 -0.726562,0.0293 -0.234384,0.0078 -0.437508,0.01173 -0.609375,0.01172 -0.25782,8e-6 -0.525398,-0.02929 -0.802735,-0.08789 -0.27735,-0.05859 -0.548834,-0.154289 -0.814453,-0.28711 -0.265631,-0.132804 -0.511724,-0.312491 -0.738281,-0.539062 -0.226568,-0.226553 -0.414068,-0.507803 -0.5625,-0.84375 -0.04688,-0.109365 -0.08985,-0.238271 -0.128906,-0.386719 -0.03907,-0.148427 -0.0586,-0.308583 -0.05859,-0.480469 -5e-6,-0.187489 0.01367,-0.365223 0.04102,-0.533203 0.02734,-0.167957 0.06054,-0.330066 0.09961,-0.486328 0.10937,-0.390613 0.29101,-0.787097 0.544922,-1.189453 0.2539,-0.40233 0.558588,-0.794908 0.914062,-1.177734 0.355462,-0.382798 0.742181,-0.753892 1.160156,-1.113282 0.417961,-0.359359 0.847648,-0.697249 1.289063,-1.013671 0.441397,-0.31639 0.87499,-0.601546 1.300781,-0.855469 0.425771,-0.253889 0.822255,-0.470686 1.189453,-0.650391 0.515614,-0.249982 1.041004,-0.431622 1.576172,-0.544922 0.535143,-0.113263 1.06444,-0.169903 1.587891,-0.169922 0.312485,1.9e-5 0.60936,0.04103 0.890625,0.123047 0.281234,0.08205 0.529281,0.20119 0.74414,0.357422 0.214828,0.156268 0.38475,0.349627 0.509766,0.580078 0.124984,0.230486 0.187484,0.494158 0.187504,0.791016 -2e-5,0.171891 -0.0195,0.316422 -0.0586,0.433594 -0.0391,0.117203 -0.0899,0.212906 -0.152341,0.287109 -0.06252,0.07423 -0.130876,0.126969 -0.205079,0.158203 -0.07423,0.03127 -0.150406,0.04689 -0.228515,0.04687 -0.210953,1.6e-5 -0.404313,-0.02342 -0.580078,-0.07031 -0.175797,-0.04686 -0.345719,-0.09959 -0.509766,-0.158203 -0.164077,-0.05858 -0.32814,-0.113266 -0.492187,-0.164063 -0.164077,-0.05077 -0.343765,-0.07616 -0.539063,-0.07617 -0.578138,1.6e-5 -1.166028,0.115251 -1.763672,0.345703 -0.597668,0.230485 -1.179698,0.523453 -1.746094,0.878907 -0.566416,0.355483 -1.101571,0.751967 -1.605468,1.189453 -0.503915,0.437513 -0.955086,0.863294 -1.353516,1.277343 -0.210945,0.218763 -0.365241,0.437512 -0.462891,0.65625 -0.09766,0.218762 -0.146491,0.425793 -0.146484,0.621094 -7e-6,0.289073 0.124993,0.515636 0.375,0.679688 0.249993,0.164072 0.55468,0.246104 0.914063,0.246093 0.210929,1.1e-5 0.44921,-0.0039 0.714843,-0.01172 0.265616,-0.0078 0.5371,-0.01757 0.814453,-0.0293 0.277334,-0.01171 0.546865,-0.02343 0.808594,-0.03516 0.261708,-0.01171 0.49413,-0.01757 0.697266,-0.01758 0.484363,1.1e-5 0.949206,0.06837 1.394531,0.205079 0.4453,0.136728 0.83983,0.3379 1.183594,0.603515 0.343736,0.265634 0.619126,0.595712 0.826172,0.990235 0.207016,0.394539 0.310532,0.84571 0.310547,1.353515 -1.5e-5,0.312507 -0.04689,0.628913 -0.140625,0.949219 -0.09376,0.320318 -0.222671,0.642584 -0.386719,0.966797 -0.164077,0.324223 -0.351577,0.644536 -0.5625,0.960937 -0.210951,0.31641 -0.433607,0.626957 -0.667969,0.931641 -0.421888,0.546878 -0.89259,1.062502 -1.412109,1.546875 -0.519543,0.484376 -1.072277,0.906251 -1.658203,1.265625 -0.585947,0.359375 -1.205087,0.644531 -1.857422,0.855469 -0.652352,0.210937 -1.322273,0.316405 -2.009766,0.316406 -0.296881,-10e-7 -0.601568,-0.02734 -0.914062,-0.08203 -0.312505,-0.05469 -0.621099,-0.134766 -0.925782,-0.240235 -0.304691,-0.105469 -0.5918,-0.238281 -0.861328,-0.398437 -0.269534,-0.160156 -0.505862,-0.341797 -0.708984,-0.544922 -0.203128,-0.203124 -0.365237,-0.427733 -0.486328,-0.673828 -0.121096,-0.246092 -0.181643,-0.51367 -0.181641,-0.802735 -2e-6,-0.140622 0.02148,-0.275388 0.06445,-0.404296 0.04297,-0.128904 0.150389,-0.193357 0.322266,-0.19336 z"
       style=""
       id="path3026" />
    <path
       d="m 105.7885,30.639233 c 0.29686,-1.296872 0.63085,-2.605465 1.00195,-3.925782 0.37108,-1.320305 0.73241,-2.628897 1.08398,-3.925781 0.14843,-0.539052 0.27929,-1.029286 0.39258,-1.470703 0.11327,-0.441395 0.20898,-0.841785 0.28711,-1.201172 0.0781,-0.359362 0.13671,-0.685534 0.17578,-0.978515 0.0391,-0.292956 0.0586,-0.56444 0.0586,-0.814454 -1e-5,-0.04686 -1e-5,-0.0996 0,-0.158203 -1e-5,-0.05858 -0.004,-0.130845 -0.0117,-0.216797 -0.0781,1.5e-5 -0.25197,0.04298 -0.52149,0.128907 -0.26954,0.08595 -0.58594,0.199233 -0.94922,0.339843 -0.36329,0.140639 -0.7461,0.298842 -1.14843,0.47461 -0.40235,0.175794 -0.7754,0.353529 -1.11914,0.533203 -0.27345,0.140638 -0.50196,0.257825 -0.68555,0.351562 -0.1836,0.09376 -0.3418,0.166029 -0.47461,0.216797 -0.13282,0.05079 -0.25391,0.08595 -0.36328,0.105469 -0.10938,0.01954 -0.22266,0.02931 -0.33985,0.0293 -0.24219,1.2e-5 -0.45117,-0.09374 -0.62695,-0.28125 -0.17578,-0.187487 -0.26367,-0.429675 -0.26367,-0.726563 0,-0.171861 0.0176,-0.322252 0.0527,-0.451171 0.0352,-0.128893 0.0898,-0.244127 0.16407,-0.345704 0.0742,-0.101548 0.17382,-0.197251 0.29882,-0.287109 0.125,-0.08983 0.27734,-0.181626 0.45704,-0.275391 1.97655,-1.031234 3.97655,-1.787092 6,-2.267578 2.02342,-0.480451 4.05467,-0.720685 6.09375,-0.720703 0.16404,1.8e-5 0.35935,0.0039 0.58593,0.01172 0.22655,0.0078 0.45897,0.0215 0.69727,0.04102 0.23826,0.01955 0.47068,0.04689 0.69726,0.08203 0.22655,0.03517 0.42577,0.07619 0.59766,0.123047 0.17967,0.0547 0.33592,0.167986 0.46875,0.339843 0.13279,0.171892 0.1992,0.355486 0.19922,0.550782 -2e-5,0.156266 -0.0137,0.30861 -0.041,0.457031 -0.0274,0.148453 -0.0762,0.27736 -0.14648,0.386719 -0.0703,0.10939 -0.16213,0.197281 -0.27539,0.263672 -0.1133,0.06642 -0.25197,0.09962 -0.41602,0.09961 -0.28127,-0.03124 -0.60353,-0.0703 -0.96679,-0.117188 -0.3633,-0.04686 -0.72854,-0.0703 -1.09571,-0.07031 -0.73439,1.5e-5 -1.46681,0.01759 -2.19726,0.05273 -0.73049,0.03517 -1.47853,0.138688 -2.24414,0.310547 -0.0391,0.01564 -0.0645,0.05666 -0.0762,0.123047 -0.0117,0.06642 -0.0215,0.150406 -0.0293,0.251953 -0.0235,0.42189 -0.0586,0.792983 -0.10547,1.113281 -0.0469,0.320326 -0.11134,0.640638 -0.19336,0.960938 -0.082,0.320325 -0.18165,0.666028 -0.29883,1.037109 -0.1172,0.371105 -0.25392,0.816417 -0.41015,1.335938 -0.15627,0.519541 -0.33791,1.140634 -0.54493,1.863281 -0.20704,0.722664 -0.43555,1.59571 -0.68554,2.619141 l -0.5625,2.273437 c -0.13283,0.523441 -0.23634,0.994143 -0.31055,1.41211 -0.0742,0.41797 -0.13868,0.830079 -0.19336,1.236328 -0.0313,0.132813 -0.1504,0.257813 -0.35742,0.375 -0.20704,0.117188 -0.45118,0.175781 -0.73242,0.175781 -0.16407,0 -0.31251,-0.04492 -0.44532,-0.134766 -0.13282,-0.08984 -0.24219,-0.205077 -0.32812,-0.345703 -0.0859,-0.140624 -0.14454,-0.294921 -0.17578,-0.46289 -0.0313,-0.167968 -0.0235,-0.333983 0.0234,-0.498047 z"
       style=""
       id="path3028" />
    <path
       d="m 116.40568,31.049389 c 0.44531,-1.789059 0.90625,-3.556636 1.38282,-5.302734 0.47655,-1.746086 0.93749,-3.513662 1.38281,-5.302735 0.0547,-0.234363 0.10937,-0.457019 0.16406,-0.667969 0.0547,-0.210924 0.10546,-0.421861 0.15234,-0.632812 0.0469,-0.210924 0.084,-0.423814 0.11133,-0.638672 0.0273,-0.21483 0.041,-0.439439 0.041,-0.673828 -1e-5,-0.179673 -0.0117,-0.343735 -0.0352,-0.492188 -0.0234,-0.148422 -0.0352,-0.31639 -0.0352,-0.503906 -1e-5,-0.179671 0.0234,-0.371078 0.0703,-0.574219 0.11718,-0.476545 0.2832,-0.832014 0.49805,-1.066406 0.21483,-0.234357 0.541,-0.351545 0.97851,-0.351562 0.17968,1.7e-5 0.35351,0.0176 0.52149,0.05273 0.16796,0.03517 0.33397,0.07619 0.49804,0.123047 0.17968,0.05471 0.36523,0.10158 0.55664,0.140625 0.1914,0.03908 0.38476,0.05861 0.58008,0.05859 0.15624,1.7e-5 0.30858,-0.0078 0.45703,-0.02344 0.14843,-0.01561 0.31835,-0.03123 0.50977,-0.04687 0.19139,-0.01561 0.41796,-0.03123 0.67969,-0.04687 0.2617,-0.01561 0.59178,-0.02342 0.99023,-0.02344 0.21874,1.7e-5 0.47655,0.0078 0.77344,0.02344 0.29686,0.01564 0.60545,0.0508 0.92578,0.105469 0.3203,0.05471 0.64452,0.134783 0.97265,0.240234 0.32811,0.105486 0.63475,0.248064 0.91993,0.427735 0.28514,0.179704 0.53709,0.400407 0.75586,0.662109 0.21873,0.261734 0.38279,0.576187 0.49218,0.943359 0.0547,0.179703 0.0918,0.343765 0.11133,0.492188 0.0195,0.148452 0.0293,0.292983 0.0293,0.433594 -2e-5,0.476576 -0.12111,0.945325 -0.36328,1.40625 -0.27346,0.523449 -0.6426,1.013683 -1.10742,1.470703 -0.46486,0.457042 -1.00588,0.888682 -1.62305,1.294922 -0.2422,0.164072 -0.52345,0.333994 -0.84375,0.509765 -0.32033,0.175791 -0.63478,0.343759 -0.94336,0.503907 -0.30861,0.160165 -0.58595,0.306649 -0.83203,0.439453 -0.24611,0.13282 -0.41603,0.234383 -0.50977,0.304687 0.27343,0.132821 0.54687,0.271492 0.82031,0.416016 0.27343,0.144539 0.55273,0.318367 0.8379,0.521484 0.28514,0.203132 0.5742,0.449226 0.86718,0.738281 0.29296,0.289069 0.59764,0.642584 0.91407,1.060547 0.31639,0.417974 0.64451,0.912114 0.98437,1.482422 0.33983,0.570316 0.69334,1.24219 1.06055,2.015625 0.0937,0.187502 0.14061,0.38672 0.14062,0.597656 -10e-6,0.164064 -0.0332,0.328126 -0.0996,0.492188 -0.0664,0.164063 -0.15626,0.3125 -0.26953,0.445312 -0.1133,0.132813 -0.24806,0.240235 -0.4043,0.322266 -0.15626,0.08203 -0.32423,0.123047 -0.5039,0.123047 -0.27345,0 -0.50002,-0.101563 -0.67969,-0.304688 -0.1797,-0.203124 -0.35158,-0.468749 -0.51562,-0.796875 -0.16408,-0.328123 -0.334,-0.699217 -0.50977,-1.113281 -0.17579,-0.41406 -0.39259,-0.832028 -0.65039,-1.253906 -0.28126,-0.453121 -0.59181,-0.882808 -0.93164,-1.289063 -0.33986,-0.406244 -0.70118,-0.757807 -1.08399,-1.054687 -0.38282,-0.296869 -0.77735,-0.533197 -1.18359,-0.708984 -0.40626,-0.175775 -0.81251,-0.263666 -1.21875,-0.263672 l -0.17578,0 c -0.2422,6e-6 -0.45899,0.02149 -0.65039,0.06445 -0.19141,0.04297 -0.37696,0.08009 -0.55664,0.111328 -0.2422,-0.08593 -0.41798,-0.226556 -0.52735,-0.421875 -0.10938,-0.195305 -0.16406,-0.414055 -0.16406,-0.65625 l 0,-0.164063 -0.9375,3.691407 c -0.0312,0.117191 -0.0742,0.277347 -0.1289,0.480468 -0.0547,0.203129 -0.1172,0.425785 -0.1875,0.667969 -0.0703,0.24219 -0.14259,0.496096 -0.2168,0.761719 -0.0742,0.265627 -0.14454,0.515627 -0.21094,0.75 -0.0664,0.234376 -0.125,0.445313 -0.17578,0.632812 -0.0508,0.187501 -0.0879,0.328126 -0.11133,0.421875 -0.10938,0.195313 -0.24805,0.34961 -0.41601,0.462891 -0.16798,0.113281 -0.34962,0.169922 -0.54493,0.169922 -0.34375,0 -0.58203,-0.103516 -0.71484,-0.310547 -0.13281,-0.207031 -0.19922,-0.447265 -0.19922,-0.720703 0,-0.109374 0.008,-0.220702 0.0234,-0.333984 0.0156,-0.11328 0.0352,-0.220702 0.0586,-0.322266 z m 5.75391,-13.21875 c -0.0469,0.156264 -0.11524,0.382827 -0.20508,0.679687 -0.0898,0.296889 -0.18946,0.632826 -0.29883,1.007813 -0.10938,0.375013 -0.22657,0.777356 -0.35156,1.207031 -0.12501,0.429699 -0.25001,0.861339 -0.375,1.294922 -0.12501,0.433604 -0.2461,0.853525 -0.36328,1.259766 -0.11719,0.406258 -0.22266,0.769539 -0.31641,1.089843 0.15625,-0.203116 0.39062,-0.384757 0.70313,-0.544921 0.31249,-0.160148 0.66405,-0.310538 1.05469,-0.451172 0.30467,-0.109366 0.67967,-0.263663 1.125,-0.462891 0.4453,-0.199209 0.91209,-0.427724 1.40039,-0.685547 0.48827,-0.257802 0.97655,-0.537098 1.46484,-0.83789 0.48827,-0.30077 0.92577,-0.609364 1.3125,-0.925782 0.38671,-0.316394 0.70116,-0.6328 0.94336,-0.949218 0.24217,-0.316393 0.36327,-0.623034 0.36328,-0.919922 -1e-5,-0.289049 -0.10158,-0.517564 -0.30469,-0.685547 -0.20314,-0.167954 -0.45704,-0.294907 -0.76172,-0.38086 -0.3047,-0.08592 -0.63868,-0.142563 -1.00195,-0.169921 -0.36329,-0.02733 -0.70118,-0.041 -1.01367,-0.04102 -0.56251,1.5e-5 -1.12501,0.03517 -1.6875,0.105469 -0.56251,0.07033 -1.12501,0.207046 -1.6875,0.410156 z"
       style=""
       id="path3030" />
    <path
       d="m 143.15959,32.654858 c -0.16408,0 -0.30861,-0.03125 -0.43359,-0.09375 -0.12502,-0.0625 -0.22853,-0.144532 -0.31055,-0.246094 -0.082,-0.101562 -0.14454,-0.21875 -0.1875,-0.351563 -0.043,-0.132811 -0.0645,-0.265624 -0.0644,-0.398437 -2e-5,-0.117187 0.0312,-0.279296 0.0937,-0.486328 0.0625,-0.20703 0.14256,-0.439451 0.24023,-0.697266 0.0976,-0.25781 0.20507,-0.527341 0.32227,-0.808594 0.11717,-0.281246 0.23045,-0.550777 0.33984,-0.808593 0.10936,-0.257809 0.20311,-0.49609 0.28125,-0.714844 0.0781,-0.218745 0.1328,-0.39062 0.16406,-0.515625 0.0312,-0.14062 0.0703,-0.308589 0.11719,-0.503906 0.0469,-0.195307 0.0996,-0.408198 0.1582,-0.638672 0.0586,-0.230463 0.11718,-0.47265 0.17578,-0.726563 0.0586,-0.253899 0.11913,-0.509758 0.18164,-0.767578 -0.10938,0.02345 -0.24415,0.04493 -0.40429,0.06445 -0.16017,0.01954 -0.33009,0.03712 -0.50977,0.05274 -0.25782,0.02344 -0.51173,0.0586 -0.76172,0.105468 -0.25001,0.04688 -0.50587,0.09962 -0.76757,0.158204 -0.26173,0.0586 -0.53322,0.1211 -0.81446,0.1875 -0.28126,0.06641 -0.58204,0.134772 -0.90234,0.205078 -0.46876,0.101569 -0.93751,0.21485 -1.40625,0.339843 -0.46876,0.125007 -0.95704,0.187507 -1.46485,0.1875 -0.15625,7e-6 -0.30078,-0.04101 -0.43359,-0.123046 -0.13282,-0.08203 -0.28126,-0.142572 -0.44531,-0.181641 -0.15626,0.250006 -0.30469,0.517584 -0.44531,0.802734 -0.14063,0.285162 -0.26954,0.578131 -0.38672,0.878907 -0.1172,0.300785 -0.22266,0.59766 -0.31641,0.890625 -0.0937,0.292972 -0.17578,0.568362 -0.24609,0.826171 -0.0391,0.140628 -0.0723,0.322269 -0.0996,0.544922 -0.0273,0.222659 -0.0527,0.449221 -0.0762,0.679688 -0.0234,0.23047 -0.0469,0.451173 -0.0703,0.662109 -0.0234,0.210939 -0.0469,0.378907 -0.0703,0.503906 -0.0234,0.117189 -0.0703,0.232423 -0.14062,0.345704 -0.0703,0.113281 -0.15626,0.216797 -0.25782,0.310546 -0.10156,0.09375 -0.21484,0.169922 -0.33984,0.228516 -0.125,0.05859 -0.25,0.08789 -0.375,0.08789 -0.21875,0 -0.39649,-0.06445 -0.5332,-0.19336 -0.13672,-0.128906 -0.2461,-0.289062 -0.32813,-0.480468 -0.082,-0.191406 -0.13867,-0.40039 -0.16992,-0.626954 -0.0312,-0.226561 -0.0469,-0.433592 -0.0469,-0.621093 0,-0.476561 0.0586,-0.970701 0.17579,-1.482422 0.11718,-0.511715 0.27538,-1.031246 0.47461,-1.558594 0.19921,-0.527338 0.43359,-1.058588 0.70312,-1.59375 0.26953,-0.535149 0.56054,-1.068352 0.87305,-1.599609 0.25781,-0.476554 0.57812,-1.027335 0.96093,-1.652344 0.38281,-0.62499 0.81055,-1.267567 1.28321,-1.927734 0.47265,-0.660144 0.98437,-1.306628 1.53515,-1.939454 0.55078,-0.632798 1.12304,-1.19725 1.7168,-1.693359 0.59374,-0.496078 1.20312,-0.896468 1.82813,-1.201172 0.62498,-0.304671 1.24608,-0.457014 1.86328,-0.457031 0.64842,1.7e-5 1.18944,0.117204 1.62304,0.351562 0.43358,0.234392 0.77929,0.550798 1.03711,0.949219 0.2578,0.398453 0.43944,0.863296 0.54493,1.394531 0.10545,0.531264 0.15818,1.093763 0.1582,1.6875 -2e-5,0.52345 -0.0332,1.062512 -0.0996,1.617188 -0.0664,0.554698 -0.14845,1.097666 -0.24609,1.628906 -0.0977,0.531259 -0.20315,1.042977 -0.31641,1.535156 -0.1133,0.492195 -0.21681,0.937507 -0.31055,1.335938 l -0.41015,1.59375 c -0.0156,0.04688 -0.0449,0.14063 -0.0879,0.28125 -0.043,0.140629 -0.0977,0.310551 -0.16407,0.509766 -0.0664,0.199222 -0.14064,0.414066 -0.22265,0.644531 -0.082,0.230472 -0.16408,0.457034 -0.2461,0.679687 -0.082,0.222659 -0.16017,0.427737 -0.23437,0.615235 -0.0742,0.187502 -0.13869,0.339845 -0.19336,0.457031 l 0.0117,-0.01172 c -0.0547,0.203127 -0.1133,0.410158 -0.17578,0.621094 -0.0625,0.210938 -0.14846,0.400391 -0.25782,0.568359 -0.10939,0.167969 -0.25001,0.304688 -0.42187,0.410157 -0.17189,0.105468 -0.39455,0.158203 -0.66797,0.158203 z m 0.59766,-14.671875 c -0.35158,1.4e-5 -0.70119,0.07228 -1.04883,0.216797 -0.34767,0.144545 -0.68947,0.333998 -1.02539,0.568359 -0.33595,0.234388 -0.66212,0.507826 -0.97852,0.820312 -0.31641,0.312513 -0.6172,0.632825 -0.90234,0.960938 -0.28517,0.328137 -0.55275,0.658214 -0.80274,0.990234 -0.25,0.332042 -0.47657,0.638682 -0.67968,0.919922 -0.0313,0.04689 -0.0723,0.107432 -0.12305,0.181641 -0.0508,0.07423 -0.10157,0.156259 -0.15234,0.246094 -0.0508,0.08985 -0.0996,0.183603 -0.14649,0.28125 -0.0469,0.09766 -0.0859,0.185556 -0.11719,0.263671 l 1.20703,0 c 0.4375,9e-6 0.9375,-0.03124 1.5,-0.09375 0.56249,-0.06249 1.11913,-0.136709 1.66993,-0.222656 0.55077,-0.08593 1.05662,-0.173818 1.51757,-0.263672 0.46093,-0.08983 0.80858,-0.158193 1.04297,-0.205078 0.0312,-0.101552 0.0605,-0.238271 0.0879,-0.410156 0.0273,-0.171865 0.0527,-0.363271 0.0762,-0.574219 0.0234,-0.210926 0.041,-0.435535 0.0527,-0.673828 0.0117,-0.238269 0.0176,-0.48241 0.0176,-0.732422 -2e-5,-0.203112 -0.008,-0.435534 -0.0234,-0.697265 -0.0156,-0.261706 -0.0625,-0.509753 -0.14062,-0.744141 -0.0781,-0.234361 -0.19728,-0.431627 -0.35743,-0.591797 -0.16017,-0.160142 -0.38478,-0.24022 -0.67382,-0.240234 z"
       style=""
       id="path3032" />
    <path
       d="m 154.33928,24.170483 c -1e-5,0.53907 -0.20704,1.005866 -0.6211,1.40039 -0.41407,0.394538 -0.88672,0.591803 -1.41797,0.591797 -0.40625,6e-6 -0.75195,-0.142571 -1.0371,-0.427734 -0.28516,-0.285149 -0.42774,-0.630852 -0.42774,-1.03711 0,-0.539054 0.21679,-1.013663 0.65039,-1.423828 0.43359,-0.410146 0.91211,-0.615224 1.43555,-0.615234 0.40624,10e-6 0.74413,0.144541 1.01367,0.433594 0.26952,0.289071 0.40429,0.648446 0.4043,1.078125 z"
       style=""
       id="path3034" />
    <path
       d="m 163.05803,24.170483 c -1e-5,0.53907 -0.20704,1.005866 -0.6211,1.40039 -0.41407,0.394538 -0.88672,0.591803 -1.41797,0.591797 -0.40625,6e-6 -0.75195,-0.142571 -1.0371,-0.427734 -0.28516,-0.285149 -0.42774,-0.630852 -0.42774,-1.03711 0,-0.539054 0.21679,-1.013663 0.65039,-1.423828 0.43359,-0.410146 0.91211,-0.615224 1.43555,-0.615234 0.40624,10e-6 0.74413,0.144541 1.01367,0.433594 0.26952,0.289071 0.40429,0.648446 0.4043,1.078125 z"
       style=""
       id="path3036" />
    <path
       d="m 171.77678,24.170483 c -1e-5,0.53907 -0.20704,1.005866 -0.6211,1.40039 -0.41407,0.394538 -0.88672,0.591803 -1.41797,0.591797 -0.40625,6e-6 -0.75195,-0.142571 -1.0371,-0.427734 -0.28516,-0.285149 -0.42774,-0.630852 -0.42774,-1.03711 0,-0.539054 0.21679,-1.013663 0.65039,-1.423828 0.43359,-0.410146 0.91211,-0.615224 1.43555,-0.615234 0.40624,10e-6 0.74413,0.144541 1.01367,0.433594 0.26952,0.289071 0.40429,0.648446 0.4043,1.078125 z"
       style=""
       id="path3038" />
  </g>
</svg>
