<?xml version="1.0" encoding="UTF-8" standalone="no"?>
<!-- Created with Inkscape (http://www.inkscape.org/) -->

<svg
   xmlns:dc="http://purl.org/dc/elements/1.1/"
   xmlns:cc="http://creativecommons.org/ns#"
   xmlns:rdf="http://www.w3.org/1999/02/22-rdf-syntax-ns#"
   xmlns:svg="http://www.w3.org/2000/svg"
   xmlns="http://www.w3.org/2000/svg"
   xmlns:sodipodi="http://sodipodi.sourceforge.net/DTD/sodipodi-0.dtd"
   xmlns:inkscape="http://www.inkscape.org/namespaces/inkscape"
   id="svg3055"
   version="1.1"
   inkscape:version="0.48.4 r9939"
   width="218"
   height="180"
   sodipodi:docname="crear.svg">
  <metadata
     id="metadata3061">
    <rdf:RDF>
      <cc:Work
         rdf:about="">
        <dc:format>image/svg+xml</dc:format>
        <dc:type
           rdf:resource="http://purl.org/dc/dcmitype/StillImage" />
        <dc:title />
      </cc:Work>
    </rdf:RDF>
  </metadata>
  <defs
     id="defs3059" />
  <sodipodi:namedview
     pagecolor="#ffffff"
     bordercolor="#666666"
     borderopacity="1"
     objecttolerance="10"
     gridtolerance="10"
     guidetolerance="10"
     inkscape:pageopacity="0"
     inkscape:pageshadow="2"
     inkscape:window-width="1920"
     inkscape:window-height="1018"
     id="namedview3057"
     showgrid="false"
     inkscape:zoom="2"
     inkscape:cx="-0.62259"
     inkscape:cy="74.31596"
     inkscape:window-x="-8"
     inkscape:window-y="-8"
     inkscape:window-maximized="1"
     inkscape:current-layer="svg3055"
     showguides="true">
    <inkscape:grid
       type="xygrid"
       id="grid4709"
       empspacing="5"
       visible="true"
       enabled="true"
       snapvisiblegridlinesonly="true" />
  </sodipodi:namedview>
  <g
     inkscape:groupmode="layer"
     id="layer1"
     inkscape:label="Layer"
     style="display:inline"
     transform="translate(0,-8)" />
  <path
     style="font-size:24px;font-style:normal;font-variant:normal;font-weight:normal;font-stretch:normal;line-height:125%;letter-spacing:0px;word-spacing:0px;fill:#e64b00;fill-opacity:1;stroke:none;font-family:MV Boli;-inkscape-font-specification:MV Boli;"
     inkscape:connector-curvature="0"
     id="path3094"
     d="m 76.651693,17.423698 c 0,-0.45312 0.0547,-0.966791 0.16406,-1.541016 0.10938,-0.574211 0.30078,-1.130851 0.57422,-1.669922 0.375,-0.749991 0.79297,-1.474599 1.25391,-2.173828 0.46093,-0.699207 0.93359,-1.343738 1.41797,-1.933593 0.48437,-0.589831 0.96874,-1.113268 1.45312,-1.570313 0.48437,-0.457017 0.94531,-0.814438 1.38281,-1.072266 l -0.0117,0.01172 c 0.27342,-0.1718597 0.56249,-0.3515467 0.86718,-0.5390617 0.30468,-0.187485 0.61718,-0.35936 0.9375,-0.515625 0.3203,-0.156234 0.64452,-0.28514 0.97266,-0.386719 0.32811,-0.101546 0.65233,-0.152327 0.97266,-0.152344 0.32811,1.7e-5 0.64061,0.06642 0.9375,0.199219 0.29686,0.132829 0.55662,0.314469 0.77929,0.544922 0.22264,0.230484 0.39843,0.498062 0.52735,0.8027337 0.12889,0.304702 0.19334,0.628921 0.19336,0.972656 -2e-5,0.242202 -0.0137,0.431655 -0.041,0.56836 -0.0274,0.136732 -0.0703,0.240247 -0.12891,0.310547 -0.0586,0.07033 -0.13282,0.113294 -0.22265,0.128906 -0.0899,0.01564 -0.19338,0.02345 -0.31055,0.02344 -0.17189,1.3e-5 -0.30665,-0.0371 -0.4043,-0.111328 -0.0977,-0.0742 -0.17579,-0.164049 -0.23437,-0.269531 -0.0586,-0.105455 -0.10353,-0.222643 -0.13477,-0.351562 -0.0313,-0.128893 -0.0684,-0.24608 -0.11132,-0.351563 -0.043,-0.105455 -0.0977,-0.195298 -0.16407,-0.269531 -0.0664,-0.07421 -0.15821,-0.111314 -0.27539,-0.111328 -0.31251,1.4e-5 -0.6504,0.07033 -1.01367,0.210937 -0.36329,0.140639 -0.73439,0.328139 -1.11328,0.5625 -0.37892,0.234389 -0.75782,0.501966 -1.13672,0.802735 -0.37892,0.300793 -0.74024,0.607434 -1.08398,0.919921 -0.34376,0.312512 -0.66212,0.621105 -0.95508,0.925782 -0.29298,0.304698 -0.54493,0.578135 -0.75586,0.820312 -0.31251,0.398447 -0.59766,0.802744 -0.85547,1.212891 -0.25782,0.410165 -0.48047,0.828133 -0.66797,1.253906 -0.1875,0.425789 -0.33204,0.863288 -0.43359,1.3125 -0.10157,0.449225 -0.15235,0.916021 -0.15235,1.400391 0,0.375004 0.0527,0.703129 0.15821,0.984375 0.10546,0.281253 0.22069,0.523441 0.3457,0.726562 0.14843,0.234378 0.33203,0.396487 0.55078,0.486328 0.21874,0.08985 0.48046,0.134769 0.78516,0.134766 0.66405,3e-6 1.27733,-0.0625 1.83984,-0.1875 0.56249,-0.124997 1.10155,-0.292966 1.61719,-0.503906 0.51561,-0.210934 1.01952,-0.460934 1.51172,-0.75 0.49217,-0.289058 0.99998,-0.597652 1.52343,-0.925782 l 0.30469,0 c 0.10155,5e-6 0.20507,0.02735 0.31055,0.08203 0.10545,0.05469 0.1992,0.125004 0.28125,0.210937 0.082,0.08594 0.14842,0.183598 0.19922,0.292969 0.0508,0.109379 0.0762,0.22266 0.0762,0.339844 -1e-5,0.257816 -0.10158,0.513675 -0.30469,0.767578 -0.20314,0.253909 -0.4629,0.496096 -0.77929,0.726562 -0.31642,0.230471 -0.67385,0.447268 -1.07227,0.650391 -0.39845,0.203127 -0.79103,0.382814 -1.17773,0.539062 -0.38673,0.156252 -0.74806,0.289064 -1.08399,0.398438 -0.33595,0.109376 -0.60548,0.183595 -0.80859,0.222656 -0.17189,0.03906 -0.3379,0.07617 -0.49805,0.111328 -0.16016,0.03516 -0.34962,0.07031 -0.56836,0.105469 -0.21876,0.03516 -0.48048,0.0625 -0.78516,0.08203 -0.30469,0.01953 -0.6875,0.0293 -1.14843,0.0293 -0.28126,1e-6 -0.53907,-0.04492 -0.77344,-0.134765 -0.23438,-0.08984 -0.44336,-0.195312 -0.62695,-0.316407 -0.1836,-0.121092 -0.33985,-0.248045 -0.46875,-0.380859 -0.12891,-0.132811 -0.23243,-0.246092 -0.31055,-0.339844 -0.46094,-0.53906 -0.79688,-1.07031 -1.00781,-1.59375 -0.21094,-0.523434 -0.31641,-1.097652 -0.31641,-1.722656 z"
     transform="matrix(1.0636257,0.05991165,0.08377267,1.137351,-15.422762,8.1566644)" />
  <path
     style="font-size:24px;font-style:normal;font-variant:normal;font-weight:normal;font-stretch:normal;line-height:125%;letter-spacing:0px;word-spacing:0px;fill:#e64b00;fill-opacity:1;stroke:none;font-family:MV Boli;-inkscape-font-specification:MV Boli;"
     inkscape:connector-curvature="0"
     id="path3096"
     d="m 90.972003,20.939323 c 0.44531,-1.789059 0.90625,-3.556636 1.38282,-5.302734 0.476553,-1.746086 0.937493,-3.513662 1.382813,-5.302735 0.0547,-0.234363 0.10937,-0.457019 0.16406,-0.667969 0.0547,-0.210924 0.10546,-0.421861 0.15234,-0.632812 0.0469,-0.210924 0.084,-0.423814 0.11133,-0.638672 0.0273,-0.21483 0.041,-0.439439 0.041,-0.673828 -1e-5,-0.179673 -0.0117,-0.343735 -0.0352,-0.4921877 -0.0234,-0.148422 -0.0352,-0.31639 -0.0352,-0.503906 -1e-5,-0.179671 0.0234,-0.371078 0.0703,-0.574219 0.11718,-0.476545 0.2832,-0.832014 0.49805,-1.066406 0.21483,-0.234357 0.541,-0.351545 0.97851,-0.351562 0.17968,1.7e-5 0.35351,0.0176 0.52149,0.05273 0.16796,0.03517 0.33397,0.07619 0.49804,0.123047 0.17968,0.05471 0.36523,0.10158 0.55664,0.140625 0.1914,0.03908 0.38476,0.05861 0.58008,0.05859 0.15624,1.7e-5 0.30858,-0.0078 0.45703,-0.02344 0.14843,-0.01561 0.31835,-0.03123 0.50977,-0.04687 0.19139,-0.01561 0.41796,-0.03123 0.67969,-0.04687 0.2617,-0.01561 0.591784,-0.02342 0.990234,-0.02344 0.21874,1.7e-5 0.47655,0.0078 0.77344,0.02344 0.29686,0.01564 0.60545,0.0508 0.92578,0.105469 0.3203,0.05471 0.64452,0.134783 0.97265,0.240234 0.32811,0.105486 0.63475,0.248064 0.91993,0.427735 0.28514,0.179704 0.53709,0.400407 0.75586,0.662109 0.21873,0.261734 0.38279,0.576187 0.49218,0.9433587 0.0547,0.179703 0.0918,0.343765 0.11133,0.492188 0.0195,0.148452 0.0293,0.292983 0.0293,0.433594 -2e-5,0.476576 -0.12111,0.945325 -0.36328,1.40625 -0.27346,0.523449 -0.6426,1.013683 -1.10742,1.470703 -0.46486,0.457042 -1.00588,0.888682 -1.62305,1.294922 -0.2422,0.164072 -0.52345,0.333994 -0.84375,0.509765 -0.32033,0.175791 -0.63478,0.343759 -0.94336,0.503907 -0.30861,0.160165 -0.585954,0.306649 -0.832034,0.439453 -0.24611,0.13282 -0.41603,0.234383 -0.50977,0.304687 0.27343,0.132821 0.54687,0.271492 0.820314,0.416016 0.27343,0.144539 0.55273,0.318367 0.8379,0.521484 0.28514,0.203132 0.5742,0.449226 0.86718,0.738281 0.29296,0.289069 0.59764,0.642584 0.91407,1.060547 0.31639,0.417974 0.64451,0.912114 0.98437,1.482422 0.33983,0.570316 0.69334,1.24219 1.06055,2.015625 0.0937,0.187502 0.14061,0.38672 0.14062,0.597656 -1e-5,0.164064 -0.0332,0.328126 -0.0996,0.492188 -0.0664,0.164063 -0.15626,0.3125 -0.26953,0.445312 -0.1133,0.132813 -0.24806,0.240235 -0.4043,0.322266 -0.15626,0.08203 -0.32423,0.123047 -0.5039,0.123047 -0.27345,0 -0.50002,-0.101563 -0.67969,-0.304688 -0.1797,-0.203124 -0.35158,-0.468749 -0.51562,-0.796875 -0.16408,-0.328123 -0.334,-0.699217 -0.50977,-1.113281 -0.17579,-0.41406 -0.39259,-0.832028 -0.65039,-1.253906 -0.28126,-0.453121 -0.59181,-0.882808 -0.93164,-1.289063 -0.339864,-0.406244 -0.701184,-0.757807 -1.083994,-1.054687 -0.38282,-0.296869 -0.77735,-0.533197 -1.18359,-0.708984 -0.40626,-0.175775 -0.81251,-0.263666 -1.21875,-0.263672 l -0.17578,0 c -0.2422,6e-6 -0.45899,0.02149 -0.65039,0.06445 -0.19141,0.04297 -0.37696,0.08009 -0.55664,0.111328 -0.2422,-0.08593 -0.41798,-0.226556 -0.52735,-0.421875 -0.10938,-0.195305 -0.16406,-0.414055 -0.16406,-0.65625 l 0,-0.164063 -0.9375,3.691407 c -0.0312,0.117191 -0.0742,0.277347 -0.1289,0.480468 -0.0547,0.203129 -0.1172,0.425785 -0.1875,0.667969 -0.0703,0.24219 -0.14259,0.496096 -0.2168,0.761719 -0.0742,0.265627 -0.14454,0.515627 -0.21094,0.75 -0.0664,0.234376 -0.125,0.445313 -0.17578,0.632812 -0.0508,0.187501 -0.0879,0.328126 -0.11133,0.421875 -0.109383,0.195313 -0.248053,0.34961 -0.416013,0.462891 -0.16798,0.113281 -0.34962,0.169922 -0.54493,0.169922 -0.34375,0 -0.58203,-0.103516 -0.71484,-0.310547 -0.13281,-0.207031 -0.19922,-0.447265 -0.19922,-0.720703 0,-0.109374 0.008,-0.220702 0.0234,-0.333984 0.0156,-0.11328 0.0352,-0.220702 0.0586,-0.322266 z m 5.753913,-13.21875 c -0.0469,0.156264 -0.11524,0.382827 -0.20508,0.679687 -0.0898,0.296889 -0.18946,0.632826 -0.29883,1.007813 -0.10938,0.375013 -0.22657,0.777356 -0.35156,1.207031 -0.12501,0.429699 -0.25001,0.861339 -0.375,1.294922 -0.12501,0.433604 -0.2461,0.853525 -0.36328,1.259766 -0.11719,0.406258 -0.22266,0.769539 -0.31641,1.089843 0.15625,-0.203116 0.39062,-0.384757 0.70313,-0.544921 0.31249,-0.160148 0.66405,-0.310538 1.05469,-0.451172 0.30467,-0.109366 0.67967,-0.263663 1.125,-0.462891 0.4453,-0.199209 0.91209,-0.427724 1.40039,-0.685547 0.48827,-0.257802 0.976554,-0.537098 1.464844,-0.83789 0.48827,-0.30077 0.92577,-0.609364 1.3125,-0.925782 0.38671,-0.316394 0.70116,-0.6328 0.94336,-0.949218 0.24217,-0.316393 0.36327,-0.623034 0.36328,-0.919922 -1e-5,-0.289049 -0.10158,-0.517564 -0.30469,-0.685547 -0.20314,-0.167954 -0.45704,-0.294907 -0.76172,-0.38086 -0.3047,-0.08592 -0.63868,-0.1425627 -1.00195,-0.1699207 -0.36329,-0.02733 -0.70118,-0.041 -1.01367,-0.04102 -0.562514,1.5e-5 -1.125014,0.03517 -1.687504,0.1054687 -0.56251,0.07033 -1.12501,0.207046 -1.6875,0.410156 z"
     transform="matrix(1.0636257,0.05991165,0.08377267,1.137351,-15.422762,8.1566644)" />
  <path
     style="font-size:24px;font-style:normal;font-variant:normal;font-weight:normal;font-stretch:normal;line-height:125%;letter-spacing:0px;word-spacing:0px;fill:#e64b00;fill-opacity:1;stroke:none;font-family:MV Boli;-inkscape-font-specification:MV Boli;"
     inkscape:connector-curvature="0"
     id="path3098"
     d="m 107.42514,21.548698 c 0,-0.273436 0.0391,-0.562499 0.11719,-0.867188 0.26562,-1.062497 0.57616,-2.103511 0.93164,-3.123046 0.35546,-1.019526 0.67773,-2.033197 0.96679,-3.041016 0.28906,-1.007804 0.5293,-1.857412 0.72071,-2.548828 0.1914,-0.691395 0.36132,-1.285145 0.50976,-1.78125 0.14843,-0.496081 0.28515,-0.923815 0.41016,-1.283203 0.12499,-0.359361 0.26171,-0.71483 0.41015,-1.066407 0.0937,-0.210922 0.19726,-0.429672 0.31055,-0.6562497 0.11328,-0.226547 0.23632,-0.435531 0.36914,-0.626953 0.13281,-0.19139 0.27148,-0.34764 0.41602,-0.46875 0.14452,-0.121077 0.29491,-0.181624 0.45117,-0.18164 0.3203,1.6e-5 0.56444,0.05275 0.73242,0.158203 0.16796,0.105485 0.27148,0.201188 0.31055,0.287109 l 0.10547,0.480469 c 0.11718,-0.0078 0.26952,-0.02928 0.45703,-0.06445 0.18749,-0.03514 0.37694,-0.07225 0.56836,-0.111328 0.19139,-0.03905 0.36913,-0.07811 0.5332,-0.117188 0.16405,-0.03905 0.28905,-0.0742 0.375,-0.105469 0.51561,-0.140608 0.99218,-0.261702 1.42969,-0.363281 0.43749,-0.101546 0.8535,-0.18553 1.24805,-0.251953 0.39451,-0.06639 0.77147,-0.115218 1.13085,-0.146484 0.35936,-0.03123 0.72265,-0.04686 1.08985,-0.04687 0.35936,1.6e-5 0.65233,0.01955 0.8789,0.05859 0.22655,0.03908 0.40624,0.09181 0.53907,0.158204 0.13279,0.06642 0.22459,0.144547 0.27539,0.234375 0.0508,0.08986 0.0762,0.185563 0.0762,0.287109 -2e-5,0.09377 -0.0254,0.193375 -0.0762,0.298828 -0.0508,0.105484 -0.13479,0.205094 -0.25196,0.298828 -0.1172,0.09377 -0.26954,0.175797 -0.45703,0.246094 -0.18751,0.07033 -0.42189,0.1172017 -0.70312,0.1406247 -0.0703,0.01564 -0.23244,0.04494 -0.48633,0.08789 -0.25392,0.04298 -0.52931,0.08986 -0.82617,0.140625 -0.29689,0.0508 -0.57814,0.09962 -0.84375,0.146484 -0.26564,0.04689 -0.44923,0.08205 -0.55078,0.105469 l 0.0117,0 c -0.0469,0.0078 -0.15822,0.03712 -0.33399,0.08789 -0.17579,0.0508 -0.38868,0.10939 -0.63867,0.175782 -0.25001,0.06642 -0.5215,0.142592 -0.81445,0.228515 -0.29298,0.08595 -0.58205,0.169936 -0.86719,0.251953 -0.28517,0.08205 -0.54884,0.16017 -0.79102,0.234375 -0.24219,0.07423 -0.43751,0.134779 -0.58593,0.181641 -0.47658,0.187513 -0.84962,0.43556 -1.11914,0.744141 -0.26954,0.308606 -0.48243,0.654308 -0.63868,1.037109 -0.0312,0.07032 -0.0781,0.189464 -0.14062,0.357422 -0.0625,0.16798 -0.13087,0.359386 -0.20508,0.574219 -0.0742,0.214854 -0.1543,0.443369 -0.24023,0.685546 -0.0859,0.242198 -0.16798,0.472666 -0.2461,0.691407 -0.0781,0.218759 -0.14649,0.417977 -0.20508,0.597656 -0.0586,0.179696 -0.0996,0.312508 -0.12304,0.398437 -0.0234,0.07813 -0.0391,0.148446 -0.0469,0.210938 -0.008,0.06251 -0.0117,0.109383 -0.0117,0.140625 0,0.04688 0.0117,0.07032 0.0352,0.07031 0.11718,8e-6 0.36132,-0.05273 0.73242,-0.158203 0.37109,-0.10546 0.80468,-0.23632 1.30078,-0.392578 0.49609,-0.156241 1.02734,-0.32421 1.59375,-0.503906 0.5664,-0.179678 1.10937,-0.347647 1.62891,-0.503906 0.51952,-0.156241 0.98241,-0.2871 1.38867,-0.392578 0.40624,-0.105459 0.69921,-0.158194 0.87891,-0.158204 0.27342,10e-6 0.45701,0.04493 0.55078,0.134766 0.0937,0.08985 0.14061,0.189463 0.14062,0.298828 -1e-5,0.281259 -0.0996,0.527353 -0.29882,0.738281 -0.19924,0.210947 -0.44728,0.39454 -0.74415,0.550782 -0.0938,0.04688 -0.26759,0.115242 -0.52148,0.205078 -0.25392,0.08985 -0.52736,0.181648 -0.82031,0.27539 -0.29298,0.09376 -0.57228,0.183602 -0.83789,0.269532 -0.26564,0.08594 -0.45705,0.148445 -0.57422,0.1875 -0.76564,0.296882 -1.38868,0.541022 -1.86914,0.732422 -0.48048,0.191412 -0.86915,0.347662 -1.16602,0.46875 -0.29688,0.121099 -0.5254,0.212896 -0.68554,0.27539 -0.16017,0.06251 -0.30861,0.11524 -0.44532,0.158203 -0.13672,0.04298 -0.28711,0.08399 -0.45117,0.123047 -0.16407,0.03907 -0.39063,0.09376 -0.67969,0.164063 -0.0703,0.164067 -0.15235,0.412114 -0.24609,0.74414 -0.0938,0.332036 -0.1836,0.675786 -0.26953,1.03125 -0.0859,0.355472 -0.15821,0.68555 -0.2168,0.990235 -0.0586,0.30469 -0.0879,0.515627 -0.0879,0.632812 0,0.140627 0.0195,0.244143 0.0586,0.310547 0.0391,0.06641 0.0859,0.11133 0.14063,0.134766 0.0547,0.02344 0.10937,0.03516 0.16406,0.03516 0.0547,1e-6 0.0977,1e-6 0.12891,0 0.37499,1e-6 0.82616,-0.05469 1.35351,-0.164063 0.52734,-0.109373 1.04882,-0.253904 1.56446,-0.433593 0.49218,-0.171873 0.92186,-0.359373 1.28906,-0.5625 0.36718,-0.203122 0.71288,-0.392575 1.03711,-0.56836 0.32421,-0.175778 0.64061,-0.324215 0.94922,-0.445312 0.30858,-0.12109 0.64647,-0.185543 1.01367,-0.19336 0.0781,4e-6 0.16991,0.0078 0.27539,0.02344 0.10546,0.01563 0.20507,0.04493 0.29883,0.08789 0.0937,0.04297 0.16991,0.09961 0.22851,0.169921 0.0586,0.07032 0.0801,0.16016 0.0645,0.269532 -0.0313,0.226565 -0.14455,0.449221 -0.33985,0.667968 -0.19532,0.218753 -0.44142,0.42969 -0.73828,0.632813 -0.29688,0.203127 -0.62892,0.398439 -0.99609,0.585937 -0.3672,0.187502 -0.7422,0.365236 -1.125,0.533204 -0.38282,0.167969 -0.75782,0.320313 -1.125,0.457031 -0.3672,0.136719 -0.69532,0.255859 -0.98438,0.357422 -0.71875,0.25 -1.41797,0.433593 -2.09765,0.550781 -0.6797,0.117187 -1.28907,0.175781 -1.82813,0.175781 -0.59375,0 -1.04883,-0.111328 -1.36523,-0.333984 -0.31641,-0.222657 -0.47461,-0.591797 -0.47461,-1.107422 z"
     transform="matrix(1.0636257,0.05991165,0.08377267,1.137351,-15.422762,8.1566644)" />
  <path
     style="font-size:24px;font-style:normal;font-variant:normal;font-weight:normal;font-stretch:normal;line-height:125%;letter-spacing:0px;word-spacing:0px;fill:#e64b00;fill-opacity:1;stroke:none;font-family:MV Boli;-inkscape-font-specification:MV Boli;"
     inkscape:connector-curvature="0"
     id="path3100"
     d="m 132.21029,22.544792 c -0.16407,0 -0.3086,-0.03125 -0.43359,-0.09375 -0.12501,-0.0625 -0.22853,-0.144532 -0.31055,-0.246094 -0.082,-0.101562 -0.14454,-0.21875 -0.1875,-0.351563 -0.043,-0.132811 -0.0645,-0.265624 -0.0644,-0.398437 -1e-5,-0.117187 0.0312,-0.279296 0.0937,-0.486328 0.0625,-0.20703 0.14257,-0.439451 0.24024,-0.697266 0.0976,-0.25781 0.20506,-0.527341 0.32226,-0.808594 0.11718,-0.281246 0.23046,-0.550777 0.33984,-0.808593 0.10937,-0.257809 0.20312,-0.49609 0.28125,-0.714844 0.0781,-0.218745 0.1328,-0.39062 0.16407,-0.515625 0.0312,-0.14062 0.0703,-0.308589 0.11718,-0.503906 0.0469,-0.195307 0.0996,-0.408198 0.15821,-0.638672 0.0586,-0.230463 0.11717,-0.47265 0.17578,-0.726563 0.0586,-0.253899 0.11913,-0.509758 0.18164,-0.767578 -0.10939,0.02345 -0.24415,0.04493 -0.4043,0.06445 -0.16017,0.01954 -0.33009,0.03712 -0.50976,0.05274 -0.25783,0.02344 -0.51173,0.0586 -0.76172,0.105468 -0.25001,0.04688 -0.50587,0.09962 -0.76758,0.158204 -0.26173,0.0586 -0.53321,0.1211 -0.81445,0.1875 -0.28126,0.06641 -0.58204,0.134772 -0.90235,0.205078 -0.46876,0.101569 -0.93751,0.21485 -1.40625,0.339843 -0.46875,0.125007 -0.95704,0.187507 -1.46484,0.1875 -0.15626,7e-6 -0.30079,-0.04101 -0.43359,-0.123046 -0.13282,-0.08203 -0.28126,-0.142572 -0.44532,-0.181641 -0.15625,0.250006 -0.30469,0.517584 -0.44531,0.802734 -0.14063,0.285162 -0.26954,0.578131 -0.38672,0.878907 -0.11719,0.300785 -0.22266,0.59766 -0.3164,0.890625 -0.0938,0.292972 -0.17579,0.568362 -0.2461,0.826171 -0.0391,0.140628 -0.0723,0.322269 -0.0996,0.544922 -0.0274,0.222659 -0.0527,0.449221 -0.0762,0.679688 -0.0234,0.23047 -0.0469,0.451173 -0.0703,0.662109 -0.0234,0.210939 -0.0469,0.378907 -0.0703,0.503906 -0.0234,0.117189 -0.0703,0.232423 -0.14063,0.345704 -0.0703,0.113281 -0.15625,0.216797 -0.25781,0.310546 -0.10157,0.09375 -0.21485,0.169922 -0.33985,0.228516 -0.125,0.05859 -0.25,0.08789 -0.375,0.08789 -0.21875,0 -0.39648,-0.06445 -0.5332,-0.19336 -0.13672,-0.128906 -0.24609,-0.289062 -0.32812,-0.480468 -0.082,-0.191406 -0.13868,-0.40039 -0.16993,-0.626954 -0.0312,-0.226561 -0.0469,-0.433592 -0.0469,-0.621093 0,-0.476561 0.0586,-0.970701 0.17578,-1.482422 0.11719,-0.511715 0.27539,-1.031246 0.47461,-1.558594 0.19922,-0.527338 0.43359,-1.058588 0.70313,-1.59375 0.26952,-0.535149 0.56054,-1.068352 0.87304,-1.599609 0.25781,-0.476554 0.57812,-1.027335 0.96094,-1.652344 0.38281,-0.62499 0.81054,-1.267567 1.2832,-1.927734 0.47265,-0.660144 0.98437,-1.306628 1.53516,-1.939454 0.55077,-0.632798 1.12304,-1.19725 1.7168,-1.6933587 0.59374,-0.496078 1.20311,-0.896468 1.82812,-1.201172 0.62499,-0.304671 1.24608,-0.457014 1.86328,-0.457031 0.64843,1.7e-5 1.18944,0.117204 1.62305,0.351562 0.43358,0.234392 0.77928,0.550798 1.03711,0.949219 0.25779,0.398453 0.43944,0.8632957 0.54492,1.3945307 0.10545,0.531264 0.15819,1.093763 0.1582,1.6875 -1e-5,0.52345 -0.0332,1.062512 -0.0996,1.617188 -0.0664,0.554698 -0.14845,1.097666 -0.24609,1.628906 -0.0977,0.531259 -0.20314,1.042977 -0.31641,1.535156 -0.11329,0.492195 -0.21681,0.937507 -0.31054,1.335938 l -0.41016,1.59375 c -0.0156,0.04688 -0.0449,0.14063 -0.0879,0.28125 -0.043,0.140629 -0.0977,0.310551 -0.16406,0.509766 -0.0664,0.199222 -0.14064,0.414066 -0.22266,0.644531 -0.082,0.230472 -0.16408,0.457034 -0.24609,0.679687 -0.082,0.222659 -0.16017,0.427737 -0.23438,0.615235 -0.0742,0.187502 -0.13868,0.339845 -0.19336,0.457031 l 0.0117,-0.01172 c -0.0547,0.203127 -0.11329,0.410158 -0.17578,0.621094 -0.0625,0.210938 -0.14845,0.400391 -0.25781,0.568359 -0.10939,0.167969 -0.25002,0.304688 -0.42188,0.410157 -0.17188,0.105468 -0.39454,0.158203 -0.66797,0.158203 z m 0.59766,-14.671875 c -0.35157,1.4e-5 -0.70118,0.07228 -1.04883,0.216797 -0.34767,0.144545 -0.68946,0.333998 -1.02539,0.568359 -0.33595,0.234388 -0.66212,0.507826 -0.97851,0.820312 -0.31642,0.312513 -0.6172,0.632825 -0.90235,0.960938 -0.28516,0.328137 -0.55274,0.658214 -0.80273,0.990234 -0.25001,0.332042 -0.47657,0.638682 -0.67969,0.919922 -0.0313,0.04689 -0.0723,0.107432 -0.12305,0.181641 -0.0508,0.07423 -0.10157,0.156259 -0.15234,0.246094 -0.0508,0.08985 -0.0996,0.183603 -0.14648,0.28125 -0.0469,0.09766 -0.0859,0.185556 -0.11719,0.263671 l 1.20703,0 c 0.43749,9e-6 0.93749,-0.03124 1.5,-0.09375 0.56249,-0.06249 1.11913,-0.136709 1.66992,-0.222656 0.55077,-0.08593 1.05663,-0.173818 1.51758,-0.263672 0.46092,-0.08983 0.80858,-0.158193 1.04297,-0.205078 0.0312,-0.101552 0.0605,-0.238271 0.0879,-0.410156 0.0273,-0.171865 0.0527,-0.363271 0.0762,-0.574219 0.0234,-0.210926 0.041,-0.435535 0.0527,-0.673828 0.0117,-0.238269 0.0176,-0.48241 0.0176,-0.732422 -1e-5,-0.203112 -0.008,-0.435534 -0.0234,-0.697265 -0.0156,-0.261706 -0.0625,-0.509753 -0.14063,-0.744141 -0.0781,-0.234361 -0.19728,-0.431627 -0.35742,-0.591797 -0.16017,-0.160142 -0.38478,-0.24022 -0.67383,-0.240234 z"
     transform="matrix(1.0636257,0.05991165,0.08377267,1.137351,-15.422762,8.1566644)" />
  <path
     style="font-size:24px;font-style:normal;font-variant:normal;font-weight:normal;font-stretch:normal;line-height:125%;letter-spacing:0px;word-spacing:0px;fill:#e64b00;fill-opacity:1;stroke:none;font-family:MV Boli;-inkscape-font-specification:MV Boli;"
     inkscape:connector-curvature="0"
     id="path3102"
     d="m 154.98248,25.825815 c 0.17187,-0.789056 0.35742,-1.494134 0.55664,-2.115235 0.19922,-0.621085 0.39648,-1.19921 0.5918,-1.734375 0.19531,-0.535146 0.38085,-1.046864 0.55664,-1.535156 0.17577,-0.48827 0.33007,-0.994129 0.46289,-1.517578 l 0.14062,-0.5625 c 0.0312,-0.140612 0.0586,-0.316393 0.082,-0.527344 0.0234,-0.210924 0.0488,-0.431626 0.0762,-0.662109 0.0273,-0.230454 0.0644,-0.45897 0.11133,-0.685547 0.0469,-0.226547 0.11522,-0.429672 0.20507,-0.609375 0.0898,-0.179672 0.20508,-0.326156 0.34571,-0.439453 0.14062,-0.113265 0.3203,-0.169906 0.53906,-0.169922 0.24218,1.6e-5 0.44726,0.04298 0.61523,0.128906 0.16796,0.08595 0.30273,0.199235 0.4043,0.339844 0.10155,0.14064 0.17577,0.30275 0.22266,0.486328 0.0469,0.183609 0.0703,0.373062 0.0703,0.568359 -1e-5,0.164077 -0.01,0.32814 -0.0293,0.492188 -0.0195,0.164076 -0.0488,0.31642 -0.0879,0.457031 -0.0859,0.351576 -0.22657,0.761732 -0.42187,1.230469 -0.19532,0.468762 -0.41017,0.98634 -0.64453,1.552734 -0.23439,0.566417 -0.47267,1.179698 -0.71485,1.839844 -0.24219,0.660165 -0.45704,1.35743 -0.64453,2.091797 -0.10938,0.414069 -0.20508,0.867194 -0.28711,1.359375 -0.082,0.492193 -0.12305,0.937505 -0.12305,1.335937 0,0.320317 0.0273,0.623051 0.082,0.908204 0.0547,0.285159 0.15233,0.535159 0.29296,0.75 0.14062,0.214846 0.33008,0.384767 0.56836,0.509765 0.23828,0.125002 0.54101,0.187502 0.90821,0.1875 0.28124,2e-6 0.57225,-0.02343 0.87304,-0.07031 0.30078,-0.04687 0.6582,-0.160154 1.07227,-0.339844 0.60936,-0.273435 1.18554,-0.62695 1.72852,-1.060547 0.54295,-0.43359 1.04686,-0.92773 1.51171,-1.482422 0.46483,-0.554682 0.89452,-1.152338 1.28907,-1.792969 0.39451,-0.640617 0.75193,-1.304679 1.07226,-1.992187 0.3203,-0.687491 0.6035,-1.382803 0.84961,-2.085938 0.24608,-0.703113 0.45506,-1.394519 0.62695,-2.074218 0.0703,-0.28905 0.12499,-0.560534 0.16407,-0.814453 0.039,-0.253893 0.0683,-0.513658 0.0879,-0.779297 0.0195,-0.265611 0.0351,-0.550767 0.0469,-0.855469 0.0117,-0.304672 0.0332,-0.652328 0.0645,-1.042969 0.0234,-0.312483 0.11131,-0.583967 0.26367,-0.814453 0.15232,-0.230451 0.38475,-0.345686 0.69726,-0.345703 0.1953,1.7e-5 0.36522,0.07814 0.50977,0.234375 0.14451,0.156267 0.26365,0.349626 0.35742,0.580078 0.0937,0.230485 0.16404,0.474626 0.21094,0.732422 0.0469,0.257828 0.0703,0.488297 0.0703,0.691406 -2e-5,0.39064 -0.0391,0.812515 -0.11719,1.265625 -0.0781,0.453139 -0.17189,0.886732 -0.28125,1.300781 -0.22658,0.89845 -0.49806,1.800793 -0.81445,2.707032 -0.31642,0.906259 -0.69338,1.792977 -1.13086,2.660156 -0.43752,0.867194 -0.94728,1.70899 -1.5293,2.525391 -0.58204,0.81641 -1.25196,1.580081 -2.00976,2.291015 -0.37501,0.351565 -0.78126,0.697268 -1.21875,1.03711 -0.43751,0.339844 -0.89454,0.646485 -1.3711,0.919921 -0.47657,0.273438 -0.96485,0.494141 -1.46484,0.66211 -0.50001,0.167968 -0.9961,0.251953 -1.48828,0.251953 -0.71094,0 -1.32813,-0.09961 -1.85156,-0.298828 -0.52345,-0.199219 -0.95899,-0.478515 -1.30664,-0.837891 -0.34766,-0.359374 -0.60743,-0.787108 -0.7793,-1.283203 -0.17188,-0.496091 -0.25782,-1.041013 -0.25781,-1.634766 -1e-5,-0.281246 0.0234,-0.591792 0.0703,-0.93164 0.0469,-0.339839 0.10546,-0.673823 0.17578,-1.001953 z"
     transform="matrix(1.0636257,0.05991165,0.08377267,1.137351,-15.422762,8.1566644)" />
  <path
     style="font-size:24px;font-style:normal;font-variant:normal;font-weight:normal;font-stretch:normal;line-height:125%;letter-spacing:0px;word-spacing:0px;fill:#e64b00;fill-opacity:1;stroke:none;font-family:MV Boli;-inkscape-font-specification:MV Boli;"
     inkscape:connector-curvature="0"
     id="path3104"
     d="m 174.29498,17.282846 c 0.0469,-0.203111 0.10546,-0.419907 0.17578,-0.650391 0.0703,-0.230453 0.16406,-0.441391 0.28125,-0.632812 0.11718,-0.191391 0.26953,-0.351547 0.45703,-0.480469 0.1875,-0.12889 0.42578,-0.193343 0.71485,-0.193359 0.27343,1.6e-5 0.51757,0.07619 0.73242,0.228515 0.21483,0.15236 0.40819,0.306656 0.58008,0.462891 0.20311,0.132828 0.39843,0.402359 0.58593,0.808594 0.18749,0.406264 0.38085,0.906263 0.58008,1.5 0.19921,0.593762 0.41405,1.265637 0.64453,2.015625 0.23046,0.75001 0.48437,1.535165 0.76172,2.355468 0.27733,0.820321 0.58788,1.658211 0.93164,2.513672 0.34374,0.855474 0.73437,1.689458 1.17188,2.501953 0.0703,0.125004 0.15233,0.271488 0.24609,0.439454 0.0937,0.167971 0.18944,0.326174 0.28711,0.474609 0.0976,0.14844 0.18749,0.27344 0.26953,0.375 0.082,0.101565 0.14257,0.152346 0.18164,0.152344 0.0234,2e-6 0.0508,-0.05859 0.082,-0.175782 0.0312,-0.117185 0.0664,-0.257809 0.10547,-0.421875 0.0391,-0.164059 0.0801,-0.332028 0.12305,-0.503906 0.0429,-0.171871 0.084,-0.312496 0.12305,-0.421875 0.14842,-0.359371 0.31053,-0.77148 0.48633,-1.236328 0.17576,-0.464838 0.37107,-1.027338 0.58593,-1.6875 0.21483,-0.660149 0.45116,-1.443351 0.70899,-2.349609 0.25779,-0.90624 0.54295,-1.980458 0.85547,-3.222657 0.0781,-0.304674 0.16209,-0.650377 0.25195,-1.037109 0.0898,-0.386705 0.17576,-0.781236 0.25781,-1.183594 0.082,-0.402329 0.15428,-0.794906 0.2168,-1.177734 0.0625,-0.382797 0.10545,-0.714827 0.1289,-0.996094 -1e-5,-0.04686 0.004,-0.128889 0.0117,-0.246094 0.008,-0.11717 0.0215,-0.249982 0.041,-0.398437 0.0195,-0.14842 0.0449,-0.302717 0.0762,-0.462891 0.0312,-0.160138 0.0722,-0.306622 0.12305,-0.439453 0.0508,-0.132794 0.11521,-0.242169 0.19336,-0.328125 0.0781,-0.08592 0.17185,-0.128887 0.28125,-0.128906 0.10935,1.9e-5 0.24412,0.01564 0.40429,0.04687 0.16014,0.03127 0.30662,0.07814 0.43946,0.140625 0.14841,0.203143 0.28318,0.447284 0.40429,0.732422 0.12108,0.285174 0.18162,0.669939 0.18164,1.154297 -2e-5,0.304703 -0.0313,0.669937 -0.0937,1.095703 -0.0625,0.425796 -0.14259,0.882827 -0.24023,1.371094 -0.0977,0.488294 -0.20705,0.990247 -0.32812,1.505859 -0.12112,0.515637 -0.24417,1.009777 -0.36915,1.482422 -0.12501,0.472667 -0.24416,0.90626 -0.35742,1.300781 -0.1133,0.394541 -0.209,0.720712 -0.28711,0.978516 -0.14064,0.453133 -0.28712,0.91993 -0.43945,1.40039 -0.15236,0.480476 -0.32033,0.984382 -0.50391,1.511719 -0.18361,0.527349 -0.38283,1.085942 -0.59765,1.675781 -0.21486,0.589848 -0.4551,1.220706 -0.72071,1.892578 -0.1172,0.30469 -0.25196,0.609377 -0.40429,0.914063 -0.15236,0.304689 -0.32619,0.580079 -0.52149,0.826172 -0.19532,0.246094 -0.41603,0.445313 -0.66211,0.597656 -0.2461,0.152344 -0.5215,0.228516 -0.82617,0.228516 -0.1797,0 -0.36525,-0.02539 -0.55664,-0.07617 -0.19142,-0.05078 -0.35353,-0.154297 -0.48633,-0.310547 -0.64063,-0.742187 -1.21095,-1.583983 -1.71093,-2.525391 -0.50002,-0.941402 -0.94728,-1.925776 -1.3418,-2.953125 -0.39454,-1.027337 -0.74415,-2.066398 -1.04883,-3.117187 -0.3047,-1.050772 -0.58204,-2.05663 -0.83203,-3.017578 l -0.0703,-0.269532 c -0.0313,-0.109362 -0.0606,-0.22069 -0.0879,-0.333984 -0.0274,-0.113269 -0.0547,-0.216784 -0.082,-0.310547 -0.0274,-0.09374 -0.0586,-0.169909 -0.0937,-0.228515 -0.0352,-0.05858 -0.0762,-0.08788 -0.12305,-0.08789 -0.0469,1.3e-5 -0.10548,0.08595 -0.17578,0.257812 -0.0703,0.171888 -0.14064,0.365247 -0.21094,0.580079 -0.0703,0.214855 -0.13477,0.423839 -0.19336,0.626953 -0.0586,0.203136 -0.0957,0.332042 -0.11133,0.386718 -0.0547,0.203136 -0.13672,0.494152 -0.24609,0.873047 -0.10938,0.378917 -0.23243,0.80665 -0.36914,1.283203 -0.13673,0.476572 -0.28516,0.980477 -0.44531,1.511719 -0.16017,0.531257 -0.31446,1.044929 -0.4629,1.541016 -0.14844,0.496099 -0.28906,0.955083 -0.42187,1.376953 -0.13282,0.421879 -0.24219,0.761723 -0.32813,1.019531 -0.0703,0.203129 -0.15625,0.464847 -0.25781,0.785156 -0.10156,0.320315 -0.20313,0.642581 -0.30469,0.966797 -0.10156,0.324221 -0.19531,0.619142 -0.28125,0.884766 -0.0859,0.265626 -0.14062,0.441407 -0.16406,0.527344 -0.0937,0.296875 -0.23242,0.521484 -0.41601,0.673828 -0.1836,0.152343 -0.36915,0.228515 -0.55664,0.228515 -0.11719,0 -0.23438,-0.04102 -0.35157,-0.123046 -0.11719,-0.08203 -0.2207,-0.181641 -0.31054,-0.298829 -0.0898,-0.117187 -0.16407,-0.24414 -0.22266,-0.380859 -0.0586,-0.136718 -0.0879,-0.259765 -0.0879,-0.369141 0,-0.0625 0.0195,-0.162108 0.0586,-0.298828 0.0391,-0.136717 0.10156,-0.369139 0.1875,-0.697265 l 0.30469,-1.207032 z"
     transform="matrix(1.0636257,0.05991165,0.08377267,1.137351,-15.422762,8.1566644)" />
  <path
     style="font-size:24px;font-style:normal;font-variant:normal;font-weight:normal;font-stretch:normal;line-height:125%;letter-spacing:0px;word-spacing:0px;fill:#e64b00;fill-opacity:1;stroke:none;font-family:MV Boli;-inkscape-font-specification:MV Boli;"
     inkscape:connector-curvature="0"
     id="path3106"
     d="m 199.90045,31.59144 c -0.16408,0 -0.30861,-0.03125 -0.43359,-0.09375 -0.12502,-0.0625 -0.22853,-0.144532 -0.31055,-0.246094 -0.082,-0.101562 -0.14454,-0.21875 -0.1875,-0.351563 -0.043,-0.132811 -0.0645,-0.265624 -0.0644,-0.398437 -2e-5,-0.117187 0.0312,-0.279296 0.0937,-0.486328 0.0625,-0.20703 0.14256,-0.439451 0.24023,-0.697266 0.0976,-0.25781 0.20507,-0.527341 0.32227,-0.808594 0.11717,-0.281246 0.23045,-0.550777 0.33984,-0.808593 0.10936,-0.257809 0.20311,-0.49609 0.28125,-0.714844 0.0781,-0.218745 0.1328,-0.39062 0.16406,-0.515625 0.0312,-0.14062 0.0703,-0.308589 0.11719,-0.503906 0.0469,-0.195307 0.0996,-0.408198 0.1582,-0.638672 0.0586,-0.230463 0.11718,-0.47265 0.17578,-0.726563 0.0586,-0.253899 0.11913,-0.509758 0.18164,-0.767578 -0.10938,0.02345 -0.24415,0.04493 -0.40429,0.06445 -0.16017,0.01954 -0.33009,0.03712 -0.50977,0.05274 -0.25782,0.02344 -0.51173,0.0586 -0.76172,0.105468 -0.25001,0.04688 -0.50587,0.09962 -0.76757,0.158204 -0.26173,0.0586 -0.53322,0.1211 -0.81446,0.1875 -0.28126,0.06641 -0.58204,0.134772 -0.90234,0.205078 -0.46876,0.101569 -0.93751,0.21485 -1.40625,0.339843 -0.46876,0.125007 -0.95704,0.187507 -1.46485,0.1875 -0.15625,7e-6 -0.30078,-0.04101 -0.43359,-0.123046 -0.13282,-0.08203 -0.28126,-0.142572 -0.44531,-0.181641 -0.15626,0.250006 -0.30469,0.517584 -0.44531,0.802734 -0.14063,0.285162 -0.26954,0.578131 -0.38672,0.878907 -0.1172,0.300785 -0.22266,0.59766 -0.31641,0.890625 -0.0937,0.292972 -0.17578,0.568362 -0.24609,0.826171 -0.0391,0.140628 -0.0723,0.322269 -0.0996,0.544922 -0.0273,0.222659 -0.0527,0.449221 -0.0762,0.679688 -0.0234,0.23047 -0.0469,0.451173 -0.0703,0.662109 -0.0234,0.210939 -0.0469,0.378907 -0.0703,0.503906 -0.0234,0.117189 -0.0703,0.232423 -0.14062,0.345704 -0.0703,0.113281 -0.15626,0.216797 -0.25782,0.310546 -0.10156,0.09375 -0.21484,0.169922 -0.33984,0.228516 -0.125,0.05859 -0.25,0.08789 -0.375,0.08789 -0.21875,0 -0.39649,-0.06445 -0.5332,-0.19336 -0.13672,-0.128906 -0.2461,-0.289062 -0.32813,-0.480468 -0.082,-0.191406 -0.13867,-0.40039 -0.16992,-0.626954 -0.0312,-0.226561 -0.0469,-0.433592 -0.0469,-0.621093 0,-0.476561 0.0586,-0.970701 0.17579,-1.482422 0.11718,-0.511715 0.27538,-1.031246 0.47461,-1.558594 0.19921,-0.527338 0.43359,-1.058588 0.70312,-1.59375 0.26953,-0.535149 0.56054,-1.068352 0.87305,-1.599609 0.25781,-0.476554 0.57812,-1.027335 0.96093,-1.652344 0.38281,-0.62499 0.81055,-1.267567 1.28321,-1.927734 0.47265,-0.660144 0.98437,-1.306628 1.53515,-1.939454 0.55078,-0.632798 1.12304,-1.19725 1.7168,-1.693359 0.59374,-0.496078 1.20312,-0.896468 1.82813,-1.201172 0.62498,-0.304671 1.24608,-0.457014 1.86328,-0.457031 0.64842,1.7e-5 1.18944,0.117204 1.62304,0.351562 0.43358,0.234392 0.77929,0.550798 1.03711,0.949219 0.2578,0.398453 0.43944,0.863296 0.54493,1.394531 0.10545,0.531264 0.15818,1.093763 0.1582,1.6875 -2e-5,0.52345 -0.0332,1.062512 -0.0996,1.617188 -0.0664,0.554698 -0.14845,1.097666 -0.24609,1.628906 -0.0977,0.531259 -0.20315,1.042977 -0.31641,1.535156 -0.1133,0.492195 -0.21681,0.937507 -0.31055,1.335938 l -0.41015,1.59375 c -0.0156,0.04688 -0.0449,0.14063 -0.0879,0.28125 -0.043,0.140629 -0.0977,0.310551 -0.16407,0.509766 -0.0664,0.199222 -0.14064,0.414066 -0.22265,0.644531 -0.082,0.230472 -0.16408,0.457034 -0.2461,0.679687 -0.082,0.222659 -0.16017,0.427737 -0.23437,0.615235 -0.0742,0.187502 -0.13869,0.339845 -0.19336,0.457031 l 0.0117,-0.01172 c -0.0547,0.203127 -0.1133,0.410158 -0.17578,0.621094 -0.0625,0.210938 -0.14846,0.400391 -0.25782,0.568359 -0.10939,0.167969 -0.25001,0.304688 -0.42187,0.410157 -0.17189,0.105468 -0.39455,0.158203 -0.66797,0.158203 z m 0.59766,-14.671875 c -0.35158,1.4e-5 -0.70119,0.07228 -1.04883,0.216797 -0.34767,0.144545 -0.68947,0.333998 -1.02539,0.568359 -0.33595,0.234388 -0.66212,0.507826 -0.97852,0.820312 -0.31641,0.312513 -0.6172,0.632825 -0.90234,0.960938 -0.28517,0.328137 -0.55275,0.658214 -0.80274,0.990234 -0.25,0.332042 -0.47657,0.638682 -0.67968,0.919922 -0.0313,0.04689 -0.0723,0.107432 -0.12305,0.181641 -0.0508,0.07423 -0.10157,0.156259 -0.15234,0.246094 -0.0508,0.08985 -0.0996,0.183603 -0.14649,0.28125 -0.0469,0.09766 -0.0859,0.185556 -0.11719,0.263671 l 1.20703,0 c 0.4375,9e-6 0.9375,-0.03124 1.5,-0.09375 0.56249,-0.06249 1.11913,-0.136709 1.66993,-0.222656 0.55077,-0.08593 1.05662,-0.173818 1.51757,-0.263672 0.46093,-0.08983 0.80858,-0.158193 1.04297,-0.205078 0.0312,-0.101552 0.0605,-0.238271 0.0879,-0.410156 0.0273,-0.171865 0.0527,-0.363271 0.0762,-0.574219 0.0234,-0.210926 0.041,-0.435535 0.0527,-0.673828 0.0117,-0.238269 0.0176,-0.48241 0.0176,-0.732422 -2e-5,-0.203112 -0.008,-0.435534 -0.0234,-0.697265 -0.0156,-0.261706 -0.0625,-0.509753 -0.14062,-0.744141 -0.0781,-0.234361 -0.19728,-0.431627 -0.35743,-0.591797 -0.16017,-0.160142 -0.38478,-0.24022 -0.67382,-0.240234 z"
     transform="matrix(1.0636257,0.05991165,0.08377267,1.137351,-15.422762,8.1566644)" />
  <path
     style="fill:none;stroke:#e64b00;stroke-width:5.30000019000000040;stroke-linecap:round;stroke-linejoin:miter;stroke-miterlimit:4;stroke-opacity:1;stroke-dasharray:none;"
     d="m 93.61665,54.200405 c 0,0 -14.566681,-5.508685 -31.43981,-6.53741 C 50.317734,46.939966 22.359443,44.703798 22.359443,44.703798"
     id="path3070"
     inkscape:connector-curvature="0"
     sodipodi:nodetypes="csc" />
  <path
     style="fill:none;stroke:#e64b00;stroke-width:4;stroke-linecap:round;stroke-linejoin:round;stroke-miterlimit:4;stroke-opacity:1;stroke-dasharray:none;"
     d="M 36.953288,60.309683 C 21.858132,51.685116 17.787197,45.197226 17.787197,45.197226 c 0.06096,0.01859 13.270669,-11.817217 20.443716,-17.504823"
     id="path4532"
     inkscape:connector-curvature="0"
     sodipodi:nodetypes="ccc" />
  <path
     style="fill:none;stroke:#e64b00;stroke-width:1px;stroke-linecap:butt;stroke-linejoin:miter;stroke-opacity:1;"
     d="m 11.5,80.499995 c 0.166667,0.66667 0.365232,1.32616 0.5,2 0.09988,0.49941 0,2.68651 0,3 0,2 0,4 0,6 0,0.66667 0,1.33333 0,2 0,0.16667 0,0.33333 0,0.5 0,0.16667 0.166667,0.5 0,0.5 -0.166667,0 0,-0.33333 0,-0.5 0,-0.33333 0,-0.66667 0,-1 0,-0.83333 0,-1.66667 0,-2.5 0,-1.5 0,-3 0,-4.5 0,-0.5 0.04527,-1.00205 0,-1.5 -0.121654,-1.33819 -0.5,-2.65629 -0.5,-4 0,-0.84984 0.360288,-1.66173 0.5,-2.5 0.104107,-0.62464 0,-1.36553 0,-2"
     id="path3014"
     inkscape:connector-curvature="0" />
  <path
     style="fill:none;stroke:#e64b00;stroke-width:5.30000019000000040;stroke-linecap:round;stroke-linejoin:miter;stroke-miterlimit:4;stroke-opacity:1;stroke-dasharray:none;"
     d="m 11.1286,105.74829 c 0,0 -0.492723,-3.81902 -0.726071,-10.525048 -0.144512,-4.153048 0.09375,-9.934161 0.41228,-16.181698 C 11.416875,67.23299 12.305731,53.75812 11.438793,46.460889 10.02731,34.580092 10.871397,11.751692 10.871397,11.751692"
     id="path3070-4"
     inkscape:connector-curvature="0"
     sodipodi:nodetypes="csssc" />
  <g
     style="font-size:40px;font-style:normal;font-variant:normal;font-weight:normal;font-stretch:normal;line-height:125%;letter-spacing:0px;word-spacing:0px;fill:#e64b00;fill-opacity:1;stroke:none;font-family:Calibri;-inkscape-font-specification:Calibri"
     id="text3005"
     transform="matrix(0.99873445,0.05029409,-0.05029409,0.99873445,13.655733,-15.183388)">
    <path
       d="m 46.384766,95.375 c -1.7e-5,0.656255 -0.193702,1.330734 -0.581055,2.023437 -0.387386,0.692712 -1.004898,1.339847 -1.852539,1.941407 -0.264337,0.182293 -0.585626,0.380535 -0.963867,0.594726 -0.378269,0.21419 -0.788424,0.43067 -1.230469,0.64941 -0.442069,0.21876 -0.906912,0.43067 -1.394531,0.63575 -0.487641,0.20507 -0.979828,0.38509 -1.476563,0.54004 -0.496753,0.15494 -0.982105,0.28027 -1.456055,0.37597 -0.473965,0.0957 -0.920579,0.14356 -1.339843,0.14356 -0.209642,0 -0.389655,-0.016 -0.540039,-0.0479 -0.150397,-0.0319 -0.289394,-0.0889 -0.416993,-0.1709 -0.127609,-0.082 -0.250656,-0.19597 -0.36914,-0.3418 -0.118495,-0.14583 -0.246099,-0.32812 -0.382813,-0.54687 -0.218754,0.16406 -0.448897,0.28483 -0.690429,0.3623 -0.241541,0.0775 -0.485356,0.11621 -0.731446,0.11621 l -0.382812,0 c -0.07292,0 -0.141279,-0.0251 -0.205078,-0.0752 -0.06381,-0.0501 -0.120771,-0.11166 -0.170899,-0.18457 -0.05013,-0.0729 -0.08887,-0.15267 -0.116211,-0.23926 -0.02735,-0.0866 -0.04102,-0.1709 -0.04102,-0.25293 -3e-6,-0.46485 0.06608,-0.909181 0.198242,-1.33301 0.132159,-0.423826 0.284828,-0.845375 0.458008,-1.264649 0.255205,-0.774735 0.51497,-1.588211 0.779297,-2.440429 0.264318,-0.852207 0.519526,-1.706699 0.765625,-2.563477 0.246088,-0.856762 0.480789,-1.702139 0.704101,-2.536133 0.223302,-0.833973 0.430658,-1.624662 0.62207,-2.37207 l 0.382813,-1.585938 c -6e-6,-0.02733 -0.0046,-0.104803 -0.01367,-0.232422 -0.0091,-0.127589 -0.02051,-0.266586 -0.03418,-0.416992 -0.01368,-0.150375 -0.02507,-0.289372 -0.03418,-0.416992 l -0.01367,-0.177734 0.06836,-0.232422 -0.01367,0.01367 c 0.04557,-0.164046 0.109369,-0.350895 0.191407,-0.560547 0.08202,-0.209619 0.182285,-0.405582 0.300781,-0.587891 0.118482,-0.182274 0.248365,-0.334943 0.389648,-0.458008 0.141269,-0.123029 0.293938,-0.184552 0.458008,-0.18457 0.15494,1.8e-5 0.353182,0.01141 0.594727,0.03418 0.241528,0.0228 0.457999,0.0342 0.649414,0.03418 0.09114,1.8e-5 0.180004,-0.0045 0.266601,-0.01367 0.08658,-0.0091 0.195954,-0.03188 0.328125,-0.06836 0.132152,-0.03644 0.305329,-0.08885 0.519532,-0.157226 0.214182,-0.06834 0.494455,-0.161766 0.84082,-0.280274 0.51952,-0.182273 0.995756,-0.334942 1.428711,-0.458008 0.43293,-0.123027 0.843086,-0.223288 1.230469,-0.300781 0.387355,-0.07745 0.763332,-0.134421 1.127929,-0.170898 0.364568,-0.03644 0.738266,-0.05467 1.121094,-0.05469 0.483057,2e-5 0.950179,0.04559 1.401367,0.136719 0.451154,0.09117 0.852196,0.239277 1.203125,0.444336 0.350893,0.205097 0.631166,0.473977 0.84082,0.806641 0.209616,0.3327 0.314434,0.736019 0.314454,1.20996 -2e-5,0.811214 -0.214212,1.54038 -0.642579,2.1875 -0.428403,0.64715 -1.034523,1.248712 -1.818359,1.804688 -0.78387,0.556002 -1.72495,1.073254 -2.823242,1.551758 -1.098321,0.478526 -2.321952,0.950205 -3.670899,1.415039 1.07551,0.164072 2.002918,0.357757 2.782227,0.581055 0.779283,0.223316 1.424139,0.48536 1.93457,0.786132 0.510401,0.30079 0.888656,0.642586 1.134766,1.025391 0.246077,0.38282 0.369124,0.820319 0.369141,1.3125 z m -4.648438,-1.257813 c -0.09116,-0.01822 -0.257499,-0.05012 -0.499023,-0.0957 -0.241548,-0.04556 -0.5241,-0.0957 -0.847657,-0.15039 -0.323578,-0.05468 -0.67221,-0.111646 -1.045898,-0.170899 -0.373707,-0.05924 -0.729176,-0.118481 -1.066406,-0.177734 -0.337248,-0.05924 -0.644865,-0.116203 -0.922852,-0.170899 -0.278002,-0.05468 -0.480801,-0.100252 -0.608398,-0.136718 -0.346361,1.121101 -0.649421,2.194342 -0.90918,3.219726 -0.259772,1.025395 -0.521816,2.057621 -0.786133,3.09668 l 0.902344,0.0957 c 0.209629,0.01823 0.394199,0.03418 0.553711,0.04785 0.159498,0.01367 0.252922,0.02051 0.280273,0.02051 0.364576,-0.03646 0.765617,-0.107094 1.203125,-0.211914 0.437491,-0.104815 0.890942,-0.236976 1.360352,-0.396484 0.469391,-0.159503 0.945627,-0.346351 1.428711,-0.560547 0.483061,-0.214189 0.957019,-0.444332 1.421875,-0.69043 0.173164,-0.109371 0.355456,-0.241532 0.546875,-0.396484 0.191393,-0.154944 0.36457,-0.325842 0.519531,-0.512695 0.154934,-0.186844 0.282538,-0.385086 0.382813,-0.594727 0.100246,-0.20963 0.150376,-0.423822 0.15039,-0.642578 -1.4e-5,-0.364577 -0.19142,-0.681308 -0.574219,-0.950195 -0.382825,-0.268873 -0.87957,-0.47623 -1.490234,-0.622071 z m -4.320312,-3.171875 c 0.510408,-0.164051 1.048168,-0.357736 1.613281,-0.581054 0.565094,-0.223296 1.146148,-0.467111 1.743164,-0.731446 0.596993,-0.26431 1.203112,-0.544583 1.818359,-0.84082 0.615221,-0.296211 1.228176,-0.594713 1.838867,-0.895508 l -0.01367,0 c 0.218734,-0.118475 0.435206,-0.26203 0.649414,-0.430664 0.214177,-0.168605 0.405583,-0.350897 0.574218,-0.546875 0.168604,-0.195948 0.305323,-0.401026 0.410157,-0.615234 0.104801,-0.214177 0.15721,-0.426091 0.157226,-0.635742 -1.6e-5,-0.136703 -0.03192,-0.273422 -0.0957,-0.410157 -0.06382,-0.136702 -0.164079,-0.259749 -0.300781,-0.36914 -0.136735,-0.109358 -0.316748,-0.195947 -0.540039,-0.259766 -0.223323,-0.06378 -0.499039,-0.09569 -0.827149,-0.0957 -0.455743,1.7e-5 -0.970717,0.05698 -1.544922,0.170899 -0.574231,0.113949 -1.13022,0.257503 -1.667968,0.430664 -0.537772,0.173193 -1.016287,0.364599 -1.435547,0.574218 -0.419281,0.209651 -0.697275,0.410172 -0.833985,0.601563 -0.02735,0.04559 -0.06609,0.145848 -0.11621,0.300781 -0.05014,0.154963 -0.107106,0.325861 -0.170899,0.512695 -0.06381,0.186864 -0.129892,0.366876 -0.198242,0.540039 -0.06837,0.173191 -0.134449,0.300795 -0.198242,0.382813 -0.01824,0.09116 -0.0547,0.230156 -0.109375,0.416992 -0.0547,0.186862 -0.120777,0.40789 -0.198242,0.663086 -0.07748,0.255221 -0.164071,0.537772 -0.259766,0.847656 -0.09571,0.309907 -0.193693,0.633475 -0.293945,0.970703 z"
       style="font-size:28px;fill:#e64b00;font-family:MV Boli;-inkscape-font-specification:MV Boli"
       id="path3784"
       inkscape:connector-curvature="0" />
    <path
       d="m 50.828125,94.923828 c 0.200516,-0.920565 0.416987,-1.743156 0.649414,-2.467773 0.232417,-0.7246 0.46256,-1.399078 0.69043,-2.023438 0.227858,-0.624337 0.44433,-1.221342 0.649414,-1.791015 0.205071,-0.569648 0.385084,-1.159817 0.540039,-1.770508 l 0.164062,-0.65625 c 0.03645,-0.164047 0.06835,-0.369125 0.0957,-0.615235 0.02734,-0.246077 0.05696,-0.503564 0.08887,-0.772461 0.03189,-0.268863 0.07519,-0.535464 0.129882,-0.799804 0.05468,-0.264305 0.134433,-0.501284 0.239258,-0.710938 0.10481,-0.209617 0.23925,-0.380515 0.403321,-0.512695 0.164054,-0.132143 0.373689,-0.198223 0.628906,-0.198242 0.282543,1.9e-5 0.521801,0.05015 0.717773,0.15039 0.195954,0.100279 0.353181,0.232441 0.47168,0.396485 0.11848,0.16408 0.205068,0.353208 0.259766,0.567383 0.05468,0.21421 0.08202,0.435238 0.08203,0.663085 -10e-6,0.191424 -0.0114,0.38283 -0.03418,0.574219 -0.0228,0.191423 -0.05698,0.369157 -0.102539,0.533203 -0.10027,0.410172 -0.264333,0.888687 -0.492187,1.435547 -0.227874,0.546889 -0.478525,1.15073 -0.751954,1.811524 -0.273446,0.660819 -0.55144,1.376313 -0.833984,2.146484 -0.28256,0.770192 -0.53321,1.583668 -0.751953,2.44043 -0.127611,0.48308 -0.239265,1.011726 -0.334961,1.585937 -0.09571,0.574225 -0.143561,1.093756 -0.143555,1.558594 -6e-6,0.373703 0.03189,0.726892 0.0957,1.05957 0.0638,0.332686 0.177728,0.624353 0.341797,0.875 0.164056,0.250654 0.385084,0.448896 0.663086,0.594727 0.277987,0.145836 0.631177,0.218752 1.059571,0.21875 0.328115,2e-6 0.667633,-0.02734 1.018554,-0.08203 0.350902,-0.05468 0.767893,-0.186847 1.250977,-0.396485 0.710925,-0.319007 1.383125,-0.731442 2.016601,-1.237304 0.63345,-0.505855 1.22134,-1.082352 1.763672,-1.729493 0.542303,-0.647129 1.043604,-1.344394 1.503907,-2.091797 0.460269,-0.747387 0.877261,-1.522126 1.250976,-2.324218 0.37368,-0.802073 0.704083,-1.61327 0.991211,-2.433594 0.28709,-0.820299 0.530905,-1.626939 0.731445,-2.419922 0.08201,-0.337224 0.145814,-0.653956 0.191407,-0.950195 0.04555,-0.296208 0.07973,-0.599267 0.102539,-0.90918 0.02277,-0.309879 0.041,-0.642561 0.05469,-0.998047 0.01365,-0.35545 0.03872,-0.761049 0.0752,-1.216797 0.02732,-0.364564 0.129863,-0.681295 0.307618,-0.950195 0.177714,-0.26886 0.448872,-0.4033 0.813476,-0.40332 0.227844,2e-5 0.426086,0.09117 0.594727,0.273437 0.168598,0.182312 0.307595,0.407898 0.416992,0.676758 0.109353,0.268899 0.191384,0.55373 0.246094,0.854492 0.05466,0.3008 0.08201,0.56968 0.08203,0.806641 -2.2e-5,0.455746 -0.0456,0.947933 -0.136719,1.476562 -0.09117,0.528662 -0.200543,1.034521 -0.328125,1.517578 -0.264344,1.048191 -0.581076,2.100925 -0.950195,3.158204 -0.369161,1.057302 -0.808939,2.091806 -1.319336,3.103515 -0.510436,1.011727 -1.105162,1.993822 -1.78418,2.946289 -0.679053,0.952479 -1.460628,1.843429 -2.344726,2.672852 -0.437515,0.410159 -0.911473,0.813479 -1.421875,1.209961 -0.51043,0.396481 -1.043633,0.754231 -1.59961,1.073241 -0.556001,0.31901 -1.125662,0.5765 -1.708984,0.77246 -0.583343,0.19596 -1.162119,0.29395 -1.736328,0.29395 -0.829435,0 -1.549487,-0.11621 -2.160156,-0.34864 -0.610684,-0.23242 -1.118821,-0.55826 -1.524414,-0.97754 -0.405604,-0.41927 -0.708664,-0.918287 -0.90918,-1.497065 -0.200525,-0.578773 -0.300785,-1.214515 -0.300781,-1.907227 -4e-6,-0.32812 0.02734,-0.690424 0.08203,-1.086914 0.05468,-0.396478 0.123042,-0.786126 0.205078,-1.168945 z M 67.097656,75.332031 c -0.100281,0.401068 -0.271179,0.724635 -0.512695,0.970703 -0.241556,0.246119 -0.540059,0.460312 -0.895508,0.642578 l -4.292969,2.132813 c -0.164077,0.09117 -0.382827,0.136741 -0.65625,0.136719 -0.209649,2.2e-5 -0.36004,-0.04783 -0.451172,-0.143555 -0.09116,-0.09568 -0.136732,-0.221006 -0.136718,-0.375977 -1.4e-5,-0.191383 0.03872,-0.36456 0.116211,-0.519531 0.07746,-0.154924 0.175441,-0.2962 0.293945,-0.423828 0.118475,-0.12758 0.246079,-0.239234 0.382812,-0.334961 0.136705,-0.09568 0.259751,-0.179989 0.369141,-0.25293 l 1.039063,-0.615234 c 0.437483,-0.255183 0.865868,-0.51267 1.285156,-0.772461 0.419253,-0.259739 0.81118,-0.492161 1.175781,-0.697265 0.364565,-0.205052 0.692689,-0.373672 0.984375,-0.50586 0.291647,-0.132134 0.519512,-0.198215 0.683594,-0.198242 0.182271,2.7e-5 0.33494,0.06383 0.458008,0.191406 0.123026,0.127631 0.184549,0.296251 0.18457,0.50586 -2.1e-5,0.0456 -2.1e-5,0.08889 0,0.129882 -2.1e-5,0.04104 -0.0091,0.08434 -0.02734,0.129883 z"
       style="font-size:28px;fill:#e64b00;font-family:MV Boli;-inkscape-font-specification:MV Boli"
       id="path3786"
       inkscape:connector-curvature="0" />
    <path
       d="m 68.998047,98.341797 c 0.309893,0.109378 0.626624,0.236982 0.950195,0.382812 0.323564,0.145836 0.658524,0.284834 1.004883,0.416993 0.346349,0.132163 0.708653,0.243817 1.086914,0.33496 0.378249,0.09115 0.781569,0.136721 1.209961,0.136719 0.501295,2e-6 1.007153,-0.05924 1.517578,-0.177734 0.510408,-0.118488 1.009431,-0.293943 1.49707,-0.526367 0.48762,-0.232419 0.954742,-0.514971 1.401368,-0.847657 0.446602,-0.332678 0.856758,-0.717769 1.230468,-1.155273 0.410144,-0.464839 0.75194,-0.886388 1.025391,-1.264648 0.273423,-0.378249 0.494452,-0.715489 0.663086,-1.011719 0.168605,-0.296217 0.289373,-0.551425 0.362305,-0.765625 0.0729,-0.214185 0.10936,-0.398755 0.109375,-0.553711 -1.5e-5,-0.227856 -0.07749,-0.426098 -0.232422,-0.594727 -0.154963,-0.168611 -0.362319,-0.307608 -0.622071,-0.416992 -0.259779,-0.109366 -0.553724,-0.189118 -0.881836,-0.239258 -0.328137,-0.05012 -0.669934,-0.07518 -1.02539,-0.07519 -0.209647,1e-5 -0.455741,0.0068 -0.738281,0.02051 -0.282564,0.01368 -0.569673,0.02735 -0.861329,0.04101 -0.291676,0.01368 -0.574228,0.02508 -0.847656,0.03418 -0.273447,0.0091 -0.510426,0.01368 -0.710937,0.01367 -0.30079,9e-6 -0.612964,-0.03417 -0.936524,-0.102539 C 73.87662,91.922861 73.559888,91.811208 73.25,91.65625 c -0.309903,-0.154938 -0.597012,-0.364573 -0.861328,-0.628906 -0.264329,-0.264312 -0.483079,-0.592437 -0.65625,-0.984375 -0.05469,-0.127593 -0.104823,-0.277983 -0.150391,-0.451172 -0.04558,-0.173165 -0.06836,-0.360014 -0.06836,-0.560547 -5e-6,-0.218737 0.01595,-0.426094 0.04785,-0.62207 0.0319,-0.195951 0.07063,-0.385078 0.116211,-0.567383 0.127599,-0.455715 0.339513,-0.91828 0.635743,-1.387695 0.296217,-0.469386 0.651686,-0.927393 1.066406,-1.374024 0.414706,-0.446598 0.865877,-0.87954 1.353515,-1.298828 0.487622,-0.419253 0.988923,-0.813458 1.503907,-1.182617 0.514963,-0.369122 1.020822,-0.701804 1.517578,-0.998047 0.496733,-0.296204 0.959297,-0.549133 1.387695,-0.758789 0.601549,-0.291646 1.214504,-0.50356 1.838867,-0.635742 0.624334,-0.13214 1.241846,-0.198221 1.852539,-0.198243 0.364567,2.2e-5 0.710921,0.04787 1.039063,0.143555 0.328107,0.09573 0.617495,0.234722 0.868164,0.416992 0.250632,0.182313 0.448874,0.407899 0.594726,0.676758 0.145815,0.2689 0.218731,0.576517 0.21875,0.922852 -1.9e-5,0.20054 -0.02281,0.369159 -0.06836,0.505859 -0.04559,0.136738 -0.104837,0.248391 -0.177734,0.334961 -0.07294,0.08661 -0.152688,0.14813 -0.239258,0.18457 -0.08661,0.03648 -0.175474,0.05471 -0.266602,0.05469 -0.246112,1.8e-5 -0.471697,-0.02733 -0.676757,-0.08203 -0.205096,-0.05467 -0.403338,-0.116193 -0.594727,-0.184571 -0.191423,-0.06834 -0.382829,-0.132142 -0.574219,-0.191406 -0.191423,-0.05923 -0.401058,-0.08885 -0.628906,-0.08887 -0.674495,1.9e-5 -1.360366,0.134459 -2.057617,0.40332 -0.697279,0.268899 -1.376315,0.610695 -2.03711,1.025391 -0.660818,0.41473 -1.285167,0.877295 -1.873046,1.387695 -0.587901,0.510432 -1.114267,1.007177 -1.579102,1.490234 -0.246102,0.255223 -0.426115,0.510431 -0.540039,0.765625 -0.11394,0.255222 -0.170906,0.496759 -0.170899,0.72461 -7e-6,0.337252 0.145826,0.601575 0.4375,0.792969 0.291659,0.191418 0.647127,0.287121 1.066407,0.287109 0.246084,1.2e-5 0.524078,-0.0045 0.833984,-0.01367 0.309885,-0.0091 0.626617,-0.0205 0.950195,-0.03418 0.323557,-0.01366 0.638009,-0.02733 0.94336,-0.04101 0.305326,-0.01366 0.576485,-0.0205 0.813476,-0.02051 0.565091,1.2e-5 1.107408,0.07976 1.626953,0.239258 0.519517,0.159517 0.979803,0.394217 1.38086,0.704101 0.401025,0.309907 0.722314,0.694998 0.963867,1.155274 0.241519,0.460296 0.362287,0.986662 0.362305,1.579101 -1.8e-5,0.364592 -0.0547,0.733732 -0.164063,1.107422 -0.109392,0.373705 -0.259782,0.749681 -0.451172,1.12793 -0.191422,0.378261 -0.410172,0.751958 -0.65625,1.121094 -0.246109,0.369145 -0.505874,0.731449 -0.779297,1.086914 -0.492202,0.638024 -1.041355,1.239586 -1.64746,1.804687 -0.606133,0.565106 -1.250989,1.057284 -1.934571,1.476554 -0.683604,0.41927 -1.405934,0.75196 -2.166992,0.99805 -0.761076,0.24609 -1.542651,0.36914 -2.344727,0.36914 -0.34636,0 -0.701829,-0.0319 -1.066406,-0.0957 -0.364589,-0.0638 -0.724614,-0.15722 -1.080078,-0.28028 -0.355473,-0.12304 -0.690434,-0.27799 -1.004883,-0.46484 -0.314456,-0.18685 -0.590172,-0.39875 -0.827148,-0.63573 -0.236982,-0.23699 -0.42611,-0.49903 -0.567383,-0.786139 -0.141278,-0.287108 -0.211916,-0.599282 -0.211914,-0.936524 -2e-6,-0.164059 0.02506,-0.321286 0.07519,-0.471679 0.05013,-0.150388 0.175453,-0.225583 0.375977,-0.225586 z"
       style="font-size:28px;fill:#e64b00;font-family:MV Boli;-inkscape-font-specification:MV Boli"
       id="path3788"
       inkscape:connector-curvature="0" />
    <path
       d="m 99.390625,103.45508 c 0.0729,0.0729 0.125309,0.1595 0.157227,0.25976 0.03188,0.10026 0.04783,0.20052 0.04785,0.30079 -1.6e-5,0.22786 -0.07521,0.43293 -0.225586,0.61523 -0.150406,0.18229 -0.328141,0.33496 -0.533203,0.45801 -0.205093,0.12304 -0.417007,0.21646 -0.635742,0.28027 -0.218765,0.0638 -0.396499,0.0957 -0.533203,0.0957 -0.145848,0 -0.287124,-0.0365 -0.423828,-0.10937 -0.136733,-0.0729 -0.25978,-0.15951 -0.369141,-0.25977 -0.109388,-0.10026 -0.205091,-0.20052 -0.287109,-0.30078 -0.08204,-0.10026 -0.14129,-0.17318 -0.177735,-0.21875 -0.236992,-0.32813 -0.453463,-0.66309 -0.649414,-1.00488 -0.195976,-0.3418 -0.375988,-0.69955 -0.540039,-1.07324 -0.164074,-0.3737 -0.321301,-0.76563 -0.47168,-1.17578 -0.150401,-0.41016 -0.298513,-0.84766 -0.444336,-1.3125 -0.136729,0.0182 -0.296234,0.0365 -0.478515,0.0547 -0.182302,0.0182 -0.369151,0.0342 -0.560547,0.0479 -0.191416,0.0137 -0.378265,0.0251 -0.560547,0.0342 -0.182301,0.009 -0.337249,0.0137 -0.464844,0.0137 -0.993497,0 -1.857103,-0.15951 -2.59082,-0.478519 -0.733729,-0.319009 -1.360356,-0.847654 -1.879883,-1.585938 -0.337243,-0.473954 -0.59473,-1.013993 -0.772461,-1.620117 -0.177738,-0.606114 -0.266605,-1.273757 -0.266601,-2.00293 -4e-6,-0.683586 0.100257,-1.389965 0.300781,-2.11914 0.200517,-0.729157 0.476233,-1.458323 0.827148,-2.1875 0.350907,-0.729155 0.770177,-1.444649 1.257813,-2.146485 0.487624,-0.701808 1.016269,-1.369451 1.585937,-2.002929 0.569654,-0.633448 1.171216,-1.219059 1.804688,-1.756836 0.633454,-0.537743 1.27831,-1.000308 1.93457,-1.387696 0.656238,-0.38735 1.307931,-0.69041 1.955078,-0.909179 0.647122,-0.218731 1.27147,-0.328106 1.873047,-0.328125 0.246079,1.9e-5 0.444321,0.02964 0.594727,0.08887 0.150375,0.05926 0.316716,0.125345 0.499023,0.198242 l 0.451172,0.191406 c 0.255188,0.04559 0.489888,0.09344 0.704098,0.143555 0.21418,0.05015 0.42154,0.109394 0.62208,0.177734 0.2005,0.06838 0.4033,0.152688 0.60839,0.25293 0.20506,0.100279 0.42609,0.223326 0.66309,0.369141 0.38279,0.236997 0.7132,0.565122 0.99121,0.984375 0.27797,0.419287 0.50584,0.884131 0.68359,1.394531 0.17772,0.510432 0.30988,1.050471 0.39649,1.620117 0.0866,0.569675 0.12986,1.123386 0.12988,1.661133 -2e-5,1.057303 -0.20054,2.075857 -0.60156,3.055664 -0.40106,0.979826 -0.9411,1.909513 -1.62012,2.789062 -0.67905,0.879564 -1.46974,1.699875 -2.37207,2.460938 -0.902359,0.761071 -1.850275,1.446943 -2.84375,2.057617 -0.09116,0.04557 -0.15724,0.08659 -0.198242,0.123047 -0.04103,0.03646 -0.06154,0.08659 -0.06152,0.150391 0.12759,0.483074 0.264309,0.906901 0.410156,1.271481 0.145819,0.36458 0.314439,0.70182 0.505859,1.01172 0.191392,0.30989 0.41242,0.6084 0.663086,0.89551 0.250636,0.2871 0.549138,0.59472 0.895508,0.92285 z M 89.164062,93.255859 c -0.06381,0.255217 -0.113938,0.505867 -0.15039,0.751953 -0.03646,0.246101 -0.05469,0.48308 -0.05469,0.710938 -5e-6,0.410163 0.05924,0.795253 0.177735,1.155273 0.118483,0.360032 0.298496,0.672206 0.540039,0.936524 0.24153,0.264327 0.549147,0.471684 0.922851,0.62207 0.373691,0.150395 0.820305,0.22559 1.339844,0.225586 0.200512,4e-6 0.380525,-0.0046 0.540039,-0.01367 0.159496,-0.0091 0.307608,-0.0205 0.444336,-0.03418 0.136709,-0.01367 0.271149,-0.03418 0.40332,-0.06152 0.132152,-0.02734 0.266592,-0.05468 0.403321,-0.08203 -0.02735,-0.164058 -0.06153,-0.3623 -0.102539,-0.594727 -0.04103,-0.232417 -0.07976,-0.469396 -0.116211,-0.710937 -0.03647,-0.241531 -0.06609,-0.464838 -0.08887,-0.669922 -0.0228,-0.205072 -0.03419,-0.362298 -0.03418,-0.47168 -1e-5,-0.109368 0.0091,-0.241529 0.02734,-0.396484 0.01822,-0.154941 0.07063,-0.303053 0.157226,-0.444336 0.08658,-0.141269 0.216461,-0.262037 0.389649,-0.362305 0.173166,-0.100252 0.414702,-0.150383 0.724609,-0.15039 0.346342,7e-6 0.606108,0.107104 0.779297,0.321289 0.173165,0.2142 0.307605,0.480801 0.40332,0.799804 0.09569,0.319017 0.170886,0.663092 0.225586,1.032227 0.05468,0.369146 0.136706,0.713221 0.246094,1.032226 0.610663,-0.364578 1.219061,-0.786127 1.825195,-1.264648 0.606105,-0.478509 1.173487,-1.01399 1.702149,-1.606445 0.528628,-0.59244 1.000308,-1.250968 1.415038,-1.975586 0.41469,-0.724599 0.73598,-1.524403 0.96387,-2.399414 0.0547,-0.227853 0.098,-0.455717 0.12988,-0.683594 0.0319,-0.227852 0.0478,-0.455716 0.0478,-0.683594 -2e-5,-0.46483 -0.0638,-0.931952 -0.1914,-1.401367 -0.12763,-0.469386 -0.32587,-0.890935 -0.59473,-1.264648 -0.2689,-0.373682 -0.61525,-0.67902 -1.03906,-0.916016 -0.42385,-0.236962 -0.927428,-0.355452 -1.510745,-0.355469 -0.410172,1.7e-5 -0.804377,0.02964 -1.182617,0.08887 -0.37827,0.05926 -0.758803,0.157244 -1.141602,0.293946 -0.382826,0.136735 -0.781588,0.316748 -1.196289,0.540039 -0.414725,0.223323 -0.859061,0.499039 -1.333008,0.827148 -0.583344,0.401057 -1.14389,0.877293 -1.681641,1.428711 -0.537769,0.551446 -1.027677,1.143893 -1.469726,1.777344 -0.442065,0.633475 -0.829434,1.292003 -1.162109,1.975586 -0.332689,0.683603 -0.585618,1.358082 -0.75879,2.023437 z"
       style="font-size:28px;fill:#e64b00;font-family:MV Boli;-inkscape-font-specification:MV Boli"
       id="path3790"
       inkscape:connector-curvature="0" />
    <path
       d="m 107.21094,94.923828 c 0.20051,-0.920565 0.41698,-1.743156 0.64941,-2.467773 0.23242,-0.7246 0.46256,-1.399078 0.69043,-2.023438 0.22786,-0.624337 0.44433,-1.221342 0.64942,-1.791015 0.20507,-0.569648 0.38508,-1.159817 0.54003,-1.770508 l 0.16407,-0.65625 c 0.0364,-0.164047 0.0683,-0.369125 0.0957,-0.615235 0.0273,-0.246077 0.057,-0.503564 0.0889,-0.772461 0.0319,-0.268863 0.0752,-0.535464 0.12988,-0.799804 0.0547,-0.264305 0.13443,-0.501284 0.23926,-0.710938 0.10481,-0.209617 0.23925,-0.380515 0.40332,-0.512695 0.16405,-0.132143 0.37369,-0.198223 0.6289,-0.198242 0.28255,1.9e-5 0.52181,0.05015 0.71778,0.15039 0.19595,0.100279 0.35318,0.232441 0.47168,0.396485 0.11848,0.16408 0.20507,0.353208 0.25976,0.567383 0.0547,0.21421 0.082,0.435238 0.082,0.663085 -1e-5,0.191424 -0.0114,0.38283 -0.0342,0.574219 -0.0228,0.191423 -0.057,0.369157 -0.10253,0.533203 -0.10027,0.410172 -0.26434,0.888687 -0.49219,1.435547 -0.22788,0.546889 -0.47853,1.15073 -0.75195,1.811524 -0.27345,0.660819 -0.55145,1.376313 -0.83399,2.146484 -0.28256,0.770192 -0.53321,1.583668 -0.75195,2.44043 -0.12761,0.48308 -0.23927,1.011726 -0.33496,1.585937 -0.0957,0.574225 -0.14356,1.093756 -0.14356,1.558594 0,0.373703 0.0319,0.726892 0.0957,1.05957 0.0638,0.332686 0.17772,0.624353 0.34179,0.875 0.16406,0.250654 0.38509,0.448896 0.66309,0.594727 0.27798,0.145836 0.63117,0.218752 1.05957,0.21875 0.32811,2e-6 0.66763,-0.02734 1.01855,-0.08203 0.3509,-0.05468 0.7679,-0.186847 1.25098,-0.396485 0.71092,-0.319007 1.38312,-0.731442 2.0166,-1.237304 0.63345,-0.505855 1.22134,-1.082352 1.76367,-1.729493 0.54231,-0.647129 1.04361,-1.344394 1.50391,-2.091797 0.46027,-0.747387 0.87726,-1.522126 1.25098,-2.324218 0.37368,-0.802073 0.70408,-1.61327 0.99121,-2.433594 0.28709,-0.820299 0.5309,-1.626939 0.73144,-2.419922 0.082,-0.337224 0.14582,-0.653956 0.19141,-0.950195 0.0456,-0.296208 0.0797,-0.599267 0.10254,-0.90918 0.0228,-0.309879 0.041,-0.642561 0.0547,-0.998047 0.0137,-0.35545 0.0387,-0.761049 0.0752,-1.216797 0.0273,-0.364564 0.12986,-0.681295 0.30762,-0.950195 0.17771,-0.26886 0.44887,-0.4033 0.81347,-0.40332 0.22785,2e-5 0.42609,0.09117 0.59473,0.273437 0.1686,0.182312 0.3076,0.407898 0.41699,0.676758 0.10936,0.268899 0.19139,0.55373 0.2461,0.854492 0.0547,0.3008 0.082,0.56968 0.082,0.806641 -2e-5,0.455746 -0.0456,0.947933 -0.13672,1.476562 -0.0912,0.528662 -0.20054,1.034521 -0.32813,1.517578 -0.26434,1.048191 -0.58107,2.100925 -0.95019,3.158204 -0.36916,1.057302 -0.80894,2.091806 -1.31934,3.103515 -0.51043,1.011727 -1.10516,1.993822 -1.78418,2.946289 -0.67905,0.952479 -1.46063,1.843429 -2.34472,2.672852 -0.43752,0.410159 -0.91148,0.813479 -1.42188,1.209961 -0.51043,0.396481 -1.04363,0.754231 -1.59961,1.073241 -0.556,0.31901 -1.12566,0.5765 -1.70898,0.77246 -0.58335,0.19596 -1.16212,0.29395 -1.73633,0.29395 -0.82944,0 -1.54949,-0.11621 -2.16016,-0.34864 -0.61068,-0.23242 -1.11882,-0.55826 -1.52441,-0.97754 -0.4056,-0.41927 -0.70866,-0.918287 -0.90918,-1.497065 -0.20053,-0.578773 -0.30079,-1.214515 -0.30078,-1.907227 -1e-5,-0.32812 0.0273,-0.690424 0.082,-1.086914 0.0547,-0.396478 0.12304,-0.786126 0.20508,-1.168945 z"
       style="font-size:28px;fill:#e64b00;font-family:MV Boli;-inkscape-font-specification:MV Boli"
       id="path3792"
       inkscape:connector-curvature="0" />
    <path
       d="m 125.50391,100.48828 c -1e-5,-0.31901 0.0456,-0.656247 0.13672,-1.011718 0.30989,-1.23958 0.67219,-2.454097 1.08691,-3.643554 0.41471,-1.189446 0.79068,-2.372062 1.12793,-3.547852 0.33723,-1.175771 0.61751,-2.166981 0.84082,-2.973633 0.2233,-0.806627 0.42154,-1.499335 0.59473,-2.078125 0.17317,-0.578761 0.33267,-1.077784 0.47851,-1.49707 0.14583,-0.419255 0.30533,-0.833968 0.47852,-1.244141 0.10936,-0.246076 0.23013,-0.501284 0.3623,-0.765625 0.13215,-0.264304 0.27571,-0.508119 0.43067,-0.731445 0.15493,-0.223288 0.31672,-0.40558 0.48535,-0.546875 0.16861,-0.141257 0.34406,-0.211895 0.52636,-0.211914 0.37369,1.9e-5 0.65852,0.06154 0.8545,0.18457 0.19595,0.123066 0.31672,0.23472 0.3623,0.334961 l 0.12305,0.560547 c 0.13671,-0.0091 0.31444,-0.03416 0.5332,-0.07519 0.21874,-0.041 0.43977,-0.08429 0.66309,-0.129883 0.22329,-0.04555 0.43065,-0.09113 0.62207,-0.136719 0.19139,-0.04555 0.33722,-0.08657 0.4375,-0.123047 0.60155,-0.164043 1.15754,-0.305319 1.66797,-0.423828 0.5104,-0.11847 0.99575,-0.216452 1.45605,-0.293945 0.46027,-0.07745 0.90005,-0.134421 1.31934,-0.170898 0.41925,-0.03644 0.84308,-0.05467 1.27148,-0.05469 0.41925,2e-5 0.76105,0.02281 1.02539,0.06836 0.2643,0.04559 0.47394,0.107116 0.62891,0.184571 0.15493,0.07749 0.26202,0.168639 0.32129,0.273437 0.0592,0.104837 0.0888,0.216491 0.0889,0.334961 -2e-5,0.109394 -0.0296,0.225605 -0.0889,0.348633 -0.0593,0.123065 -0.15725,0.239276 -0.29395,0.348633 -0.13674,0.109393 -0.31447,0.205096 -0.5332,0.287109 -0.21877,0.08205 -0.49221,0.136737 -0.82031,0.164063 -0.082,0.01825 -0.27118,0.05243 -0.56739,0.102539 -0.29624,0.05015 -0.61753,0.104835 -0.96386,0.164062 -0.34638,0.05926 -0.6745,0.116228 -0.98438,0.170899 -0.30991,0.0547 -0.5241,0.09572 -0.64258,0.123047 l 0.0137,0 c -0.0547,0.0091 -0.18458,0.04331 -0.38964,0.102539 -0.2051,0.05926 -0.45347,0.127621 -0.74512,0.205078 -0.29168,0.07749 -0.60841,0.166358 -0.9502,0.266601 -0.34181,0.100277 -0.67905,0.198259 -1.01171,0.293946 -0.3327,0.09572 -0.64032,0.186865 -0.92286,0.273437 -0.28256,0.08661 -0.51042,0.157242 -0.68359,0.211914 -0.556,0.218766 -0.99122,0.508153 -1.30566,0.868164 -0.31447,0.360041 -0.56284,0.763361 -0.74512,1.209961 -0.0365,0.08204 -0.0912,0.221042 -0.16406,0.416992 -0.0729,0.195977 -0.15268,0.419284 -0.23926,0.669922 -0.0866,0.250664 -0.18002,0.517265 -0.28028,0.799805 -0.10026,0.282564 -0.19597,0.551443 -0.2871,0.806641 -0.0912,0.255219 -0.17091,0.48764 -0.23926,0.697265 -0.0684,0.209646 -0.11622,0.364593 -0.14356,0.464844 -0.0273,0.09116 -0.0456,0.173187 -0.0547,0.246094 -0.009,0.07293 -0.0137,0.127613 -0.0137,0.164062 0,0.0547 0.0137,0.08204 0.041,0.08203 0.13671,1e-5 0.42154,-0.06151 0.85449,-0.18457 0.43294,-0.123037 0.93879,-0.275706 1.51758,-0.458008 0.57876,-0.182281 1.19856,-0.378245 1.85937,-0.58789 0.6608,-0.209625 1.29426,-0.405588 1.9004,-0.587891 0.6061,-0.18228 1.14614,-0.334949 1.62011,-0.458008 0.47394,-0.123035 0.81574,-0.184558 1.02539,-0.18457 0.319,1.2e-5 0.53319,0.05242 0.64258,0.157227 0.10936,0.104829 0.16405,0.22104 0.16406,0.348632 -1e-5,0.328136 -0.11622,0.615245 -0.34863,0.861328 -0.23244,0.246104 -0.52183,0.460297 -0.86816,0.642579 -0.10939,0.0547 -0.31219,0.134449 -0.6084,0.239257 -0.29624,0.104827 -0.61525,0.211924 -0.95703,0.321289 -0.34181,0.109385 -0.66766,0.214202 -0.97754,0.314454 -0.30991,0.100269 -0.53322,0.173185 -0.66992,0.21875 -0.89325,0.346362 -1.62013,0.631192 -2.18067,0.854492 -0.56055,0.223315 -1.01401,0.405606 -1.36035,0.546875 -0.34636,0.141283 -0.61296,0.248379 -0.7998,0.321289 -0.18686,0.07292 -0.36004,0.134447 -0.51954,0.18457 -0.15951,0.05014 -0.33496,0.09799 -0.52636,0.143555 -0.19142,0.04558 -0.45574,0.109381 -0.79297,0.191406 -0.082,0.191413 -0.17774,0.4808 -0.28711,0.868164 -0.10938,0.387375 -0.2142,0.788416 -0.31445,1.203125 -0.10027,0.414718 -0.18458,0.799808 -0.25293,1.155274 -0.0684,0.355471 -0.10255,0.601565 -0.10254,0.738281 -1e-5,0.164065 0.0228,0.284833 0.0684,0.362305 0.0456,0.07747 0.10025,0.129884 0.16406,0.157226 0.0638,0.02735 0.1276,0.04102 0.19141,0.04102 0.0638,2e-6 0.11392,2e-6 0.15039,0 0.43749,2e-6 0.96386,-0.0638 1.5791,-0.191407 0.61522,-0.127602 1.22362,-0.296221 1.82519,-0.505859 0.57421,-0.200518 1.07551,-0.419268 1.50391,-0.65625 0.42837,-0.236976 0.83169,-0.458004 1.20996,-0.663086 0.37824,-0.205074 0.74738,-0.378251 1.10742,-0.519531 0.36001,-0.141272 0.75422,-0.216467 1.18262,-0.225586 0.0911,5e-6 0.19823,0.0091 0.32129,0.02734 0.12303,0.01823 0.23924,0.05241 0.34863,0.102539 0.10936,0.05013 0.19823,0.116215 0.2666,0.198242 0.0683,0.08204 0.0934,0.186853 0.0752,0.314453 -0.0365,0.264327 -0.16864,0.524092 -0.39649,0.779297 -0.22788,0.255211 -0.51499,0.501305 -0.86132,0.738281 -0.34637,0.236982 -0.73374,0.464846 -1.16211,0.683594 -0.4284,0.218752 -0.8659,0.426107 -1.3125,0.622067 -0.44663,0.19596 -0.88413,0.3737 -1.3125,0.5332 -0.4284,0.15951 -0.81121,0.29851 -1.14844,0.417 -0.83855,0.29166 -1.65431,0.50585 -2.44727,0.64257 -0.79297,0.13672 -1.50391,0.20508 -2.13281,0.20508 -0.69271,0 -1.22364,-0.12988 -1.59277,-0.38965 -0.36915,-0.25976 -0.55372,-0.69043 -0.55371,-1.29199 z"
       style="font-size:28px;fill:#e64b00;font-family:MV Boli;-inkscape-font-specification:MV Boli"
       id="path3794"
       inkscape:connector-curvature="0" />
    <path
       d="m 141.5,99.449219 c 0.41927,-0.300779 0.84537,-0.489907 1.27832,-0.567383 0.43294,-0.07747 0.89095,-0.138995 1.37402,-0.18457 l 3.41797,-13.835938 c -0.0365,1.7e-5 -0.139,-0.0023 -0.30761,-0.0068 -0.16863,-0.0045 -0.35548,-0.01821 -0.56055,-0.04101 -0.20509,-0.02277 -0.40789,-0.06151 -0.6084,-0.116211 -0.20053,-0.05467 -0.35092,-0.132145 -0.45117,-0.232422 -0.0456,-0.06378 -0.10255,-0.148095 -0.1709,-0.25293 -0.0684,-0.1048 -0.13445,-0.218732 -0.19824,-0.341797 -0.0638,-0.123029 -0.1185,-0.248354 -0.16407,-0.375976 -0.0456,-0.127586 -0.0684,-0.25519 -0.0684,-0.382813 -10e-6,-0.209617 0.0889,-0.385072 0.2666,-0.526367 0.17773,-0.141257 0.39648,-0.255189 0.65625,-0.341797 0.25976,-0.08657 0.54003,-0.148093 0.84082,-0.18457 0.30077,-0.03644 0.57421,-0.05467 0.82031,-0.05469 1.14843,2e-5 2.21255,0.0342 3.19238,0.102539 0.97981,0.06838 1.89582,0.216491 2.74805,0.444336 0.8522,0.227884 1.65428,0.551451 2.40625,0.970703 0.75194,0.419289 1.46971,0.979835 2.15332,1.681641 0.25519,0.264339 0.499,0.560563 0.73145,0.888672 0.2324,0.32814 0.43748,0.685887 0.61523,1.073242 0.17771,0.387384 0.32127,0.802097 0.43066,1.244141 0.10936,0.44207 0.16405,0.909192 0.16407,1.401367 -2e-5,0.264334 -0.0137,0.542329 -0.041,0.833984 -0.0274,0.291677 -0.0638,0.542328 -0.10937,0.751953 -0.26435,1.057301 -0.63577,1.993824 -1.11426,2.809571 -0.47854,0.815761 -1.03453,1.54037 -1.66797,2.173828 -0.63348,0.633468 -1.32847,1.182621 -2.08496,1.647461 -0.75653,0.464847 -1.54038,0.870445 -2.35156,1.216797 -0.81121,0.346356 -1.63608,0.647137 -2.47461,0.90234 -0.83856,0.25521 -1.65431,0.48308 -2.44727,0.6836 l 0.0137,0 c -0.35547,0.10937 -0.73829,0.20508 -1.14844,0.28711 -0.41016,0.082 -0.82487,0.15039 -1.24414,0.20508 -0.41927,0.0547 -0.83626,0.098 -1.25097,0.12988 -0.41472,0.0319 -0.80437,0.0478 -1.16895,0.0478 -0.40104,0 -0.73828,-0.0251 -1.01172,-0.0752 -0.27344,-0.0501 -0.49446,-0.11848 -0.66308,-0.20507 -0.16862,-0.0866 -0.28939,-0.18457 -0.36231,-0.29395 -0.0729,-0.10937 -0.10937,-0.22786 -0.10937,-0.35547 0,-0.18229 0.0524,-0.37142 0.15722,-0.56738 0.10482,-0.195963 0.27572,-0.380533 0.5127,-0.553712 z m 6.01562,-3.923828 c -0.10938,0.464849 -0.22331,0.943364 -0.34179,1.435546 -0.1185,0.492192 -0.23243,0.975264 -0.3418,1.449219 l 0.31445,-0.06836 c 0.20052,-0.04557 0.47168,-0.113929 0.81348,-0.205078 0.34179,-0.09114 0.73599,-0.205075 1.18262,-0.341797 0.4466,-0.136715 0.916,-0.300777 1.4082,-0.492188 0.49218,-0.191401 1.01399,-0.421544 1.56543,-0.690429 0.55142,-0.268875 1.09602,-0.574214 1.63379,-0.916016 0.53775,-0.341791 1.05272,-0.71321 1.54492,-1.114258 0.49217,-0.401034 0.92512,-0.831698 1.29883,-1.291992 0.37368,-0.460278 0.67218,-0.94335 0.89551,-1.449219 0.22329,-0.505849 0.33494,-1.032216 0.33496,-1.579101 -2e-5,-0.555978 -0.10939,-1.082345 -0.32813,-1.579102 -0.21876,-0.496731 -0.51271,-0.957017 -0.88183,-1.380859 -0.36916,-0.423814 -0.79754,-0.802069 -1.28516,-1.134766 -0.48764,-0.332666 -0.99578,-0.617497 -1.52441,-0.854492 -0.52866,-0.236963 -1.06414,-0.416976 -1.60645,-0.540039 -0.54233,-0.12303 -1.05502,-0.184553 -1.53808,-0.18457 -0.68361,1.768244 -1.26694,3.563815 -1.75,5.386718 -0.48309,1.822927 -0.94793,3.673185 -1.39454,5.550782 z"
       style="font-size:28px;fill:#e64b00;font-family:MV Boli;-inkscape-font-specification:MV Boli"
       id="path3796"
       inkscape:connector-curvature="0" />
    <path
       d="m 173.88867,101.65039 c -0.19142,0 -0.36004,-0.0365 -0.50586,-0.10937 -0.14585,-0.0729 -0.26661,-0.16862 -0.3623,-0.28711 -0.0957,-0.11849 -0.16864,-0.25521 -0.21875,-0.41016 -0.0502,-0.15495 -0.0752,-0.30989 -0.0752,-0.46484 -1e-5,-0.13672 0.0365,-0.32585 0.10938,-0.567387 0.0729,-0.241534 0.16632,-0.512693 0.28027,-0.813476 0.11392,-0.300779 0.23924,-0.615231 0.37598,-0.94336 0.1367,-0.328121 0.26886,-0.642574 0.39648,-0.943359 0.12759,-0.300776 0.23697,-0.578771 0.32813,-0.833984 0.0911,-0.255203 0.15493,-0.455724 0.1914,-0.601563 0.0365,-0.164056 0.082,-0.36002 0.13672,-0.58789 0.0547,-0.227858 0.1162,-0.47623 0.18457,-0.745118 0.0684,-0.268872 0.13671,-0.551424 0.20508,-0.847656 0.0683,-0.296215 0.13898,-0.594718 0.21191,-0.895508 -0.12762,0.02735 -0.28484,0.05242 -0.47168,0.0752 -0.18686,0.02279 -0.3851,0.0433 -0.59472,0.06152 -0.3008,0.02735 -0.59702,0.06837 -0.88867,0.123047 -0.29168,0.0547 -0.59019,0.116219 -0.89551,0.18457 -0.30535,0.06837 -0.62208,0.141285 -0.9502,0.21875 -0.32813,0.07748 -0.67905,0.157235 -1.05273,0.239258 -0.54689,0.118498 -1.09376,0.250659 -1.64063,0.396484 -0.54688,0.145841 -1.11654,0.218758 -1.70898,0.21875 -0.1823,8e-6 -0.35092,-0.04784 -0.50586,-0.143554 -0.15496,-0.0957 -0.32813,-0.166334 -0.51953,-0.211914 -0.1823,0.291674 -0.35548,0.603848 -0.51953,0.936523 -0.16407,0.332689 -0.31446,0.674485 -0.45117,1.025391 -0.13673,0.350917 -0.25978,0.697271 -0.36915,1.039062 -0.10938,0.341802 -0.20508,0.66309 -0.2871,0.963867 -0.0456,0.164067 -0.0843,0.37598 -0.11622,0.635743 -0.0319,0.259768 -0.0615,0.524091 -0.0889,0.792968 -0.0273,0.268883 -0.0547,0.526369 -0.082,0.772461 -0.0273,0.246095 -0.0547,0.442055 -0.082,0.587895 -0.0273,0.13671 -0.082,0.27115 -0.16406,0.40332 -0.082,0.13216 -0.18229,0.25293 -0.30078,0.3623 -0.11849,0.10938 -0.25065,0.19824 -0.39648,0.2666 -0.14584,0.0684 -0.29167,0.10254 -0.4375,0.10254 -0.25521,0 -0.46257,-0.0752 -0.62207,-0.22559 -0.15951,-0.15039 -0.28712,-0.33723 -0.38282,-0.56054 -0.0957,-0.22331 -0.16178,-0.46712 -0.19824,-0.73145 -0.0365,-0.264318 -0.0547,-0.505854 -0.0547,-0.724606 0,-0.555987 0.0684,-1.132484 0.20508,-1.729492 0.13672,-0.597001 0.32129,-1.20312 0.55371,-1.818359 0.23242,-0.615229 0.50586,-1.23502 0.82032,-1.859375 0.31444,-0.624341 0.65396,-1.246411 1.01855,-1.866211 0.30078,-0.55598 0.67447,-1.198558 1.12109,-1.927735 0.44661,-0.729154 0.94564,-1.478828 1.49707,-2.249023 0.55143,-0.770168 1.14843,-1.524399 1.79102,-2.262696 0.64257,-0.738264 1.31021,-1.396792 2.00293,-1.975585 0.6927,-0.578758 1.40363,-1.04588 2.13281,-1.401368 0.72915,-0.355449 1.45376,-0.533183 2.17383,-0.533203 0.75649,2e-5 1.38768,0.136739 1.89356,0.410156 0.50584,0.273457 0.90916,0.642597 1.20996,1.107422 0.30076,0.464862 0.51267,1.007179 0.63574,1.626953 0.12303,0.619808 0.18455,1.276057 0.18457,1.96875 -2e-5,0.610692 -0.0388,1.239597 -0.11621,1.886719 -0.0775,0.647148 -0.1732,1.280611 -0.28711,1.900391 -0.11395,0.619802 -0.237,1.216806 -0.36914,1.791015 -0.13218,0.574228 -0.25295,1.093758 -0.36231,1.558594 l -0.47851,1.859375 c -0.0182,0.05469 -0.0524,0.164068 -0.10254,0.328125 -0.0502,0.164068 -0.11395,0.36231 -0.19141,0.594727 -0.0775,0.232426 -0.16408,0.483077 -0.25976,0.751953 -0.0957,0.268884 -0.19143,0.533206 -0.28711,0.792969 -0.0957,0.259768 -0.18687,0.499026 -0.27344,0.717773 -0.0866,0.218752 -0.1618,0.396487 -0.22559,0.533203 l 0.0137,-0.01367 c -0.0638,0.236981 -0.13218,0.478518 -0.20508,0.724608 -0.0729,0.24609 -0.1732,0.46712 -0.30078,0.66308 -0.12762,0.19597 -0.29169,0.35547 -0.49219,0.47852 -0.20054,0.12305 -0.4603,0.18457 -0.7793,0.18457 z m 0.69727,-17.117187 c -0.41017,1.7e-5 -0.81805,0.08433 -1.22364,0.25293 -0.40561,0.168636 -0.80437,0.389665 -1.19628,0.663086 -0.39194,0.273453 -0.77248,0.592463 -1.14161,0.957031 -0.36915,0.364598 -0.72006,0.738296 -1.05273,1.121094 -0.33269,0.382826 -0.64487,0.767917 -0.93652,1.155273 -0.29168,0.387382 -0.556,0.745129 -0.79297,1.073242 -0.0365,0.0547 -0.0843,0.125338 -0.14356,0.211914 -0.0593,0.0866 -0.1185,0.182303 -0.17773,0.28711 -0.0593,0.104829 -0.11622,0.214204 -0.1709,0.328125 -0.0547,0.113943 -0.10027,0.216482 -0.13672,0.307617 l 1.4082,0 c 0.51041,1.1e-5 1.09374,-0.03645 1.75,-0.109375 0.65624,-0.07291 1.30566,-0.159494 1.94825,-0.259766 0.64256,-0.100249 1.23273,-0.202788 1.7705,-0.307617 0.53775,-0.104806 0.94335,-0.184559 1.2168,-0.239258 0.0364,-0.118478 0.0706,-0.277983 0.10254,-0.478515 0.0319,-0.200509 0.0615,-0.423816 0.0889,-0.669922 0.0273,-0.246081 0.0478,-0.508125 0.0615,-0.786133 0.0137,-0.277981 0.0205,-0.562811 0.0205,-0.854492 -2e-5,-0.236965 -0.009,-0.508123 -0.0273,-0.813477 -0.0182,-0.305323 -0.0729,-0.594711 -0.16406,-0.868164 -0.0912,-0.273421 -0.23016,-0.503564 -0.41699,-0.690429 -0.18686,-0.186833 -0.44891,-0.280257 -0.78613,-0.280274 z"
       style="font-size:28px;fill:#e64b00;font-family:MV Boli;-inkscape-font-specification:MV Boli"
       id="path3798"
       inkscape:connector-curvature="0" />
  </g>
</svg>
