<?xml version="1.0" encoding="UTF-8" standalone="no"?>
<!-- Created with Inkscape (http://www.inkscape.org/) -->

<svg
   xmlns:dc="http://purl.org/dc/elements/1.1/"
   xmlns:cc="http://creativecommons.org/ns#"
   xmlns:rdf="http://www.w3.org/1999/02/22-rdf-syntax-ns#"
   xmlns:svg="http://www.w3.org/2000/svg"
   xmlns="http://www.w3.org/2000/svg"
   xmlns:sodipodi="http://sodipodi.sourceforge.net/DTD/sodipodi-0.dtd"
   xmlns:inkscape="http://www.inkscape.org/namespaces/inkscape"
   id="svg3055"
   version="1.1"
   inkscape:version="0.48.4 r9939"
   width="226"
   height="180"
   sodipodi:docname="create.svg">
  <metadata
     id="metadata3061">
    <rdf:RDF>
      <cc:Work
         rdf:about="">
        <dc:format>image/svg+xml</dc:format>
        <dc:type
           rdf:resource="http://purl.org/dc/dcmitype/StillImage" />
        <dc:title />
      </cc:Work>
    </rdf:RDF>
  </metadata>
  <defs
     id="defs3059" />
  <sodipodi:namedview
     pagecolor="#ffffff"
     bordercolor="#666666"
     borderopacity="1"
     objecttolerance="10"
     gridtolerance="10"
     guidetolerance="10"
     inkscape:pageopacity="0"
     inkscape:pageshadow="2"
     inkscape:window-width="1920"
     inkscape:window-height="1018"
     id="namedview3057"
     showgrid="false"
     inkscape:zoom="2"
     inkscape:cx="112.55643"
     inkscape:cy="111.29887"
     inkscape:window-x="-8"
     inkscape:window-y="-8"
     inkscape:window-maximized="1"
     inkscape:current-layer="svg3055"
     showguides="true">
    <inkscape:grid
       type="xygrid"
       id="grid4709"
       empspacing="5"
       visible="true"
       enabled="true"
       snapvisiblegridlinesonly="true" />
  </sodipodi:namedview>
  <g
     inkscape:groupmode="layer"
     id="layer1"
     inkscape:label="Layer"
     style="display:inline"
     transform="translate(0,-8)" />
  <path
     style="fill:none;stroke:#e64b00;stroke-width:5.30000019000000040;stroke-linecap:round;stroke-linejoin:miter;stroke-miterlimit:4;stroke-opacity:1;stroke-dasharray:none;"
     d="m 93.61665,54.20041 c 0,0 -14.566681,-5.508685 -31.43981,-6.53741 C 50.317734,46.939971 22.359443,44.703803 22.359443,44.703803"
     id="path3070"
     inkscape:connector-curvature="0"
     sodipodi:nodetypes="csc" />
  <path
     style="fill:none;stroke:#e64b00;stroke-width:4;stroke-linecap:round;stroke-linejoin:round;stroke-miterlimit:4;stroke-opacity:1;stroke-dasharray:none;"
     d="M 36.953288,60.309688 C 21.858132,51.685121 17.787197,45.197231 17.787197,45.197231 c 0.06096,0.01859 13.270669,-11.817217 20.443716,-17.504823"
     id="path4532"
     inkscape:connector-curvature="0"
     sodipodi:nodetypes="ccc" />
  <path
     style="font-size:24px;font-style:normal;font-variant:normal;font-weight:normal;font-stretch:normal;line-height:125%;letter-spacing:0px;word-spacing:0px;fill:#e64b00;fill-opacity:1;stroke:none;font-family:MV Boli;-inkscape-font-specification:MV Boli"
     inkscape:connector-curvature="0"
     id="path3131"
     d="m 48.683301,26.859647 c -0.0452,-0.51057 -0.03837,-1.086899 0.02046,-1.728994 0.05885,-0.642077 0.206532,-1.260655 0.443071,-1.855734 0.323326,-0.828157 0.694805,-1.625774 1.114438,-2.392856 0.419625,-0.767057 0.857157,-1.471976 1.312587,-2.114759 0.455422,-0.642756 0.917467,-1.2107 1.386146,-1.703833 0.46867,-0.493103 0.922401,-0.87504 1.361179,-1.145814 l -0.01125,0.01268 c 0.273149,-0.181311 0.562133,-0.370735 0.86692,-0.568275 0.304779,-0.197506 0.619418,-0.377071 0.943917,-0.538693 0.324481,-0.161588 0.65585,-0.292207 0.994106,-0.391857 0.338228,-0.09961 0.677391,-0.142202 1.017487,-0.127766 0.348359,0.01483 0.686768,0.10375 1.015227,0.266784 0.328429,0.163066 0.622339,0.379458 0.881739,0.649178 0.259371,0.269753 0.472702,0.57919 0.63997,0.928308 0.16724,0.349151 0.26801,0.717385 0.30232,1.104702 0.02414,0.272909 0.02851,0.485765 0.01317,0.638571 -0.01545,0.152831 -0.05067,0.267534 -0.105886,0.344103 -0.0552,0.0766 -0.129715,0.121664 -0.223531,0.135202 -0.09389,0.01357 -0.202974,0.0177 -0.327376,0.0124 -0.182496,-0.0077 -0.329274,-0.05564 -0.440355,-0.143688 -0.111131,-0.08802 -0.203003,-0.192781 -0.27572,-0.314281 -0.07274,-0.12147 -0.132129,-0.255543 -0.178157,-0.402217 -0.04609,-0.146648 -0.09717,-0.280367 -0.15326,-0.40116 -0.05617,-0.120766 -0.123211,-0.224468 -0.201082,-0.311108 -0.0779,-0.08662 -0.179078,-0.132567 -0.30349,-0.137871 -0.331794,-0.01409 -0.683521,0.0499 -1.055182,0.191937 -0.37168,0.142077 -0.746976,0.336603 -1.125869,0.583579 -0.378922,0.247007 -0.754512,0.531411 -1.12679,0.853215 -0.372298,0.32183 -0.725326,0.651044 -1.059106,0.987639 -0.333799,0.336621 -0.641021,0.669973 -0.921667,1.000059 -0.280665,0.330109 -0.520886,0.626844 -0.720674,0.890207 -0.292048,0.434862 -0.554464,0.877551 -0.787269,1.328065 -0.232814,0.450534 -0.427509,0.911448 -0.584106,1.382742 -0.156596,0.471313 -0.266413,0.957758 -0.329418,1.459342 -0.06303,0.501597 -0.07037,1.025285 -0.02206,1.571067 0.03741,0.42255 0.126093,0.794655 0.26617,1.116321 0.140025,0.321671 0.286525,0.599766 0.439512,0.834281 0.18097,0.270793 0.392071,0.46174 0.633283,0.572843 0.241201,0.111113 0.523553,0.173538 0.847056,0.187285 0.705029,0.02997 1.34992,-0.01278 1.934674,-0.128246 0.584732,-0.115462 1.140302,-0.280401 1.66672,-0.494816 0.526387,-0.21441 1.036454,-0.473367 1.530192,-0.776871 0.493707,-0.303497 1.002071,-0.628301 1.52509,-0.974412 l 0.323493,0.01375 c 0.107817,0.0046 0.220453,0.04007 0.337897,0.106444 0.117413,0.06638 0.223963,0.149842 0.319648,0.250373 0.09563,0.100537 0.175894,0.213574 0.24074,0.339104 0.06485,0.125539 0.103114,0.254329 0.114803,0.386371 0.02571,0.290503 -0.05661,0.574218 -0.246922,0.851147 -0.190347,0.276934 -0.441978,0.538105 -0.754902,0.783514 -0.312956,0.245413 -0.670816,0.473567 -1.07356,0.684464 -0.402776,0.2109 -0.801657,0.395653 -1.196634,0.554261 -0.395009,0.15861 -0.765388,0.291956 -1.111138,0.400037 -0.34577,0.108083 -0.624529,0.179549 -0.836277,0.214397 -0.178601,0.03626 -0.351154,0.07058 -0.517679,0.102968 -0.166536,0.03239 -0.364182,0.06345 -0.592913,0.09319 -0.228752,0.02975 -0.503896,0.04874 -0.82543,0.057 -0.321544,0.0083 -0.727003,0.002 -1.216377,-0.01881 -0.298617,-0.01269 -0.576818,-0.07494 -0.834613,-0.186755 -0.257806,-0.111807 -0.490204,-0.240082 -0.697203,-0.384816 -0.20701,-0.14473 -0.385566,-0.29483 -0.53567,-0.4503 C 50.633636,30.897775 50.512427,30.76546 50.420134,30.656296 49.876975,30.028089 49.467308,29.414324 49.191146,28.815 48.914973,28.215682 48.745713,27.563901 48.683365,26.859654 z" />
  <path
     style="font-size:24px;font-style:normal;font-variant:normal;font-weight:normal;font-stretch:normal;line-height:125%;letter-spacing:0px;word-spacing:0px;fill:#e64b00;fill-opacity:1;stroke:none;font-family:MV Boli;-inkscape-font-specification:MV Boli"
     inkscape:connector-curvature="0"
     id="path3133"
     d="m 64.238029,31.46724 c 0.294322,-1.995793 0.607381,-3.966676 0.939178,-5.91265 0.331776,-1.945962 0.644835,-3.916843 0.939166,-5.912652 0.0347,-0.261609 0.07053,-0.510027 0.107551,-0.745255 0.03704,-0.235198 0.06988,-0.470589 0.09862,-0.70617 0.02875,-0.23555 0.0469,-0.473758 0.05449,-0.714623 0.0076,-0.240836 -3.07e-4,-0.493305 -0.02369,-0.757411 -0.01793,-0.202454 -0.04671,-0.387844 -0.08647,-0.55618 -0.03965,-0.168296 -0.06893,-0.358092 -0.08764,-0.569383 -0.01793,-0.202451 -0.01217,-0.41707 0.01736,-0.64385 0.07687,-0.531677 0.217679,-0.924723 0.422405,-1.179137 0.204709,-0.254376 0.539317,-0.371703 1.003824,-0.351979 0.19077,0.0081 0.377081,0.03579 0.558932,0.08295 0.181833,0.04721 0.36218,0.100921 0.541049,0.161123 0.196226,0.06975 0.397902,0.130941 0.605019,0.183574 0.207109,0.05267 0.41435,0.0834 0.621721,0.0922 0.165884,0.0071 0.326845,0.0051 0.482896,-0.0058 0.156032,-0.01089 0.33488,-0.02082 0.536552,-0.02981 0.201644,-0.009 0.440638,-0.01633 0.716959,-0.02214 0.276292,-0.0058 0.625963,3.16e-4 1.048999,0.01827 0.232241,0.0099 0.506737,0.03029 0.823508,0.06132 0.31674,0.03102 0.64788,0.08456 0.993432,0.160618 0.345523,0.0761 0.697739,0.180957 1.056637,0.314586 0.358881,0.133667 0.698667,0.308159 1.019368,0.52348 0.320663,0.215355 0.610177,0.47541 0.868554,0.780165 0.258337,0.304789 0.46389,0.666515 0.616658,1.085176 0.076,0.204955 0.131758,0.391492 0.167299,0.559615 0.03551,0.168154 0.06033,0.331451 0.07436,0.48989 0.04752,0.536999 -0.03428,1.059715 -0.245417,1.568151 -0.238118,0.577475 -0.581134,1.113206 -1.029048,1.607195 -0.447955,0.494011 -0.979303,0.955963 -1.594034,1.385858 -0.240779,0.173944 -0.522435,0.352718 -0.844967,0.53632 -0.322561,0.183624 -0.63966,0.358698 -0.951307,0.525225 -0.311677,0.166546 -0.59152,0.319086 -0.839537,0.457623 -0.248049,0.138554 -0.418323,0.245326 -0.510834,0.320313 0.303553,0.162001 0.6077,0.330593 0.912431,0.50578 0.304722,0.175204 0.618598,0.383675 0.941629,0.625413 0.322999,0.241754 0.654447,0.532094 0.994341,0.871019 0.339875,0.33894 0.698622,0.751025 1.076274,1.23626 0.377609,0.485246 0.775271,1.056843 1.192996,1.714796 0.417693,0.65796 0.860041,1.430972 1.327067,2.31904 0.118186,0.215503 0.187864,0.442096 0.208917,0.679777 0.01636,0.184864 -0.0025,0.36823 -0.05665,0.550096 -0.05413,0.181868 -0.134729,0.34507 -0.241741,0.489609 -0.107043,0.144539 -0.239403,0.259499 -0.397101,0.34488 -0.15772,0.08538 -0.331964,0.124017 -0.522722,0.115909 C 77.484734,33.714099 77.23405,33.589434 77.02303,33.352448 76.811978,33.115461 76.602993,32.808402 76.396098,32.431271 76.18916,32.054142 75.971736,31.62833 75.743814,31.153836 75.515871,30.679345 75.243997,30.198601 74.928204,29.7116 74.584386,29.188337 74.211808,28.690157 73.81048,28.217059 73.409122,27.743971 72.990435,27.331529 72.554386,26.979734 72.118327,26.62795 71.675876,26.343855 71.227031,26.127448 70.778166,25.911053 70.338078,25.793686 69.906768,25.775347 l -0.186627,-0.0079 c -0.257146,-0.01092 -0.485171,0.0035 -0.684097,0.04327 -0.198936,0.03978 -0.392233,0.07323 -0.579885,0.100323 -0.265718,-0.107754 -0.466374,-0.274142 -0.601978,-0.499161 -0.135612,-0.225003 -0.215488,-0.473955 -0.239648,-0.746857 l -0.01637,-0.184864 -0.627115,4.117123 c -0.02143,0.130642 -0.05111,0.309163 -0.08893,0.535569 -0.03781,0.226414 -0.08196,0.47448 -0.132437,0.744197 -0.05048,0.269724 -0.101901,0.55256 -0.154193,0.848512 -0.05228,0.295957 -0.102023,0.574479 -0.149141,0.835571 -0.04712,0.261096 -0.08829,0.496132 -0.123501,0.705112 -0.03523,0.208982 -0.06059,0.365762 -0.07612,0.47034 -0.09665,0.21514 -0.228481,0.382742 -0.395506,0.502806 -0.167046,0.120063 -0.354244,0.175689 -0.561607,0.166875 -0.364963,-0.01551 -0.628274,-0.142906 -0.789932,-0.382179 -0.161658,-0.239273 -0.256131,-0.512963 -0.283408,-0.821069 -0.01091,-0.123241 -0.01352,-0.248323 -0.0085,-0.375273 0.0053,-0.126938 0.01536,-0.247096 0.03007,-0.360481 z m 4.790344,-14.635061 c -0.03421,0.173959 -0.08416,0.426164 -0.149933,0.756608 -0.06573,0.330478 -0.138024,0.70451 -0.216736,1.122105 -0.07872,0.417624 -0.163007,0.86569 -0.252847,1.344202 -0.08986,0.478538 -0.179515,0.959264 -0.268966,1.442179 -0.08947,0.482938 -0.176143,0.950635 -0.26003,1.403094 -0.08389,0.452478 -0.159634,0.857059 -0.227218,1.213743 0.145631,-0.221818 0.376344,-0.415912 0.692162,-0.58228 0.315798,-0.166351 0.674051,-0.319944 1.074769,-0.46078 0.312561,-0.109483 0.695311,-0.266421 1.148248,-0.470812 0.452908,-0.204371 0.925708,-0.440794 1.418422,-0.70927 0.492684,-0.268454 0.983235,-0.561126 1.471652,-0.87802 0.488398,-0.316869 0.922112,-0.644846 1.301143,-0.98393 0.379012,-0.339058 0.681304,-0.68139 0.906886,-1.026996 0.225552,-0.345579 0.323536,-0.685633 0.293931,-1.020162 -0.02885,-0.325697 -0.159479,-0.587769 -0.39188,-0.786216 -0.23243,-0.198415 -0.514663,-0.352922 -0.846719,-0.463522 -0.332074,-0.110564 -0.692315,-0.18946 -1.080732,-0.23668 -0.388435,-0.04719 -0.74854,-0.07784 -1.080316,-0.09196 -0.597221,-0.02537 -1.190927,-0.01114 -1.781115,0.04269 -0.590207,0.05386 -1.173781,0.182529 -1.750722,0.386007 z" />
  <path
     style="font-size:24px;font-style:normal;font-variant:normal;font-weight:normal;font-stretch:normal;line-height:125%;letter-spacing:0px;word-spacing:0px;fill:#e64b00;fill-opacity:1;stroke:none;font-family:MV Boli;-inkscape-font-specification:MV Boli"
     inkscape:connector-curvature="0"
     id="path3135"
     d="m 81.76728,32.896355 c -0.02728,-0.308104 -0.0146,-0.632052 0.03791,-0.971848 0.176022,-1.185221 0.401879,-2.344208 0.677591,-3.476966 0.275693,-1.132748 0.516731,-2.260396 0.723093,-3.382949 0.206364,-1.122537 0.376676,-2.069023 0.510926,-2.839463 0.134241,-0.770418 0.255417,-1.43178 0.363528,-1.984086 0.108103,-0.55228 0.210591,-1.028075 0.307469,-1.427387 0.09686,-0.399283 0.206552,-0.793651 0.32908,-1.183105 0.07844,-0.233436 0.166571,-0.475247 0.26425,-0.72544 0.09767,-0.250158 0.207457,-0.480086 0.329378,-0.689784 0.121913,-0.209663 0.253554,-0.379466 0.394932,-0.509408 0.14136,-0.129907 0.294991,-0.191343 0.460892,-0.18431 0.340068,0.01447 0.604535,0.08491 0.7934,0.211313 0.188848,0.126439 0.308303,0.238947 0.358355,0.337525 l 0.159908,0.546146 c 0.123633,-0.0035 0.283232,-0.02083 0.478805,-0.052 0.195554,-0.03114 0.392993,-0.0644 0.592328,-0.0998 0.199305,-0.03536 0.384117,-0.07136 0.554414,-0.107984 0.170278,-0.0366 0.299485,-0.07056 0.38762,-0.101919 0.533402,-0.135167 1.027302,-0.250108 1.481678,-0.344823 0.454358,-0.09468 0.887662,-0.170537 1.299934,-0.227576 0.412233,-0.05701 0.807584,-0.09501 1.186023,-0.114025 0.378421,-0.01897 0.76257,-0.02019 1.15243,-0.0036 0.381538,0.01624 0.694536,0.05147 0.938982,0.105681 0.244429,0.05426 0.440468,0.121783 0.588118,0.202589 0.14761,0.08083 0.252869,0.173008 0.315764,0.276518 0.0629,0.103545 0.09941,0.212529 0.109544,0.326949 0.0093,0.105658 -0.0077,0.216747 -0.05109,0.333277 -0.04341,0.116566 -0.122649,0.225015 -0.237699,0.325346 -0.115078,0.10037 -0.268637,0.185922 -0.460684,0.256671 -0.192066,0.07078 -0.436234,0.113023 -0.732482,0.126725 -0.07308,0.01445 -0.242301,0.04015 -0.507574,0.07709 -0.265302,0.03697 -0.55301,0.07737 -0.863126,0.121172 -0.310143,0.04384 -0.603879,0.08616 -0.881205,0.126981 -0.277356,0.04085 -0.468768,0.07218 -0.574248,0.09399 l 0.01242,5.28e-4 c -0.04902,0.0067 -0.164281,0.03469 -0.345833,0.08396 -0.181571,0.04931 -0.401754,0.105719 -0.660548,0.169248 -0.258812,0.06356 -0.539458,0.137137 -0.841914,0.220734 -0.302486,0.08363 -0.601017,0.165215 -0.895571,0.244764 -0.294584,0.07958 -0.566732,0.15571 -0.816455,0.228394 -0.24973,0.07271 -0.451064,0.132124 -0.603968,0.17823 -0.487285,0.18978 -0.858601,0.452442 -1.113971,0.787985 -0.255388,0.33557 -0.44693,0.715495 -0.574635,1.139779 -0.02611,0.07783 -0.06402,0.209962 -0.113643,0.396393 -0.0496,0.186457 -0.103096,0.399046 -0.160454,0.637768 -0.05735,0.238746 -0.119594,0.49262 -0.186668,0.761623 -0.06704,0.269029 -0.131195,0.525014 -0.192315,0.767963 -0.0611,0.24297 -0.113835,0.464361 -0.158117,0.664177 -0.04429,0.199834 -0.07457,0.347635 -0.09089,0.443401 -0.01705,0.08698 -0.0267,0.165502 -0.02875,0.235566 -0.0023,0.07007 -0.0015,0.122723 0.0016,0.157926 0.0047,0.05282 0.01944,0.07976 0.04439,0.08081 0.124412,0.0053 0.378357,-0.04311 0.761836,-0.145209 0.38347,-0.102085 0.830764,-0.22997 1.341891,-0.383652 0.511118,-0.153663 1.058396,-0.318955 1.641833,-0.495874 0.583429,-0.176899 1.143151,-0.341661 1.679164,-0.494287 0.535994,-0.152606 1.014395,-0.279167 1.435204,-0.379685 0.420789,-0.100498 0.726578,-0.146698 0.917366,-0.1386 0.290294,0.01235 0.489694,0.07125 0.598213,0.176708 0.108445,0.10547 0.168187,0.219829 0.179107,0.343061 0.02805,0.316919 -0.05314,0.58972 -0.243612,0.818401 -0.190493,0.228701 -0.435525,0.424378 -0.735129,0.587033 -0.09491,0.04859 -0.272607,0.117777 -0.533203,0.207546 -0.260627,0.08978 -0.541783,0.180881 -0.84346,0.273288 -0.301707,0.09243 -0.589281,0.181055 -0.86271,0.265894 -0.273459,0.08485 -0.470446,0.14664 -0.590951,0.18536 -0.783272,0.299971 -1.420406,0.546949 -1.911422,0.740935 -0.491037,0.193998 -0.888105,0.352519 -1.191216,0.475562 -0.30312,0.123056 -0.536585,0.216179 -0.700373,0.27937 -0.163819,0.06321 -0.316159,0.115924 -0.45702,0.158165 -0.140869,0.04226 -0.296449,0.08168 -0.466737,0.118288 -0.170297,0.03662 -0.405383,0.08802 -0.705272,0.154192 -0.05827,0.181696 -0.120641,0.457489 -0.187044,0.827382 -0.06647,0.369901 -0.127517,0.753181 -0.18329,1.149836 -0.05574,0.396665 -0.09959,0.765329 -0.131398,1.106001 -0.03182,0.340676 -0.04189,0.577035 -0.0302,0.709077 0.01403,0.158457 0.04506,0.275978 0.09319,0.352565 0.04814,0.0766 0.102306,0.129322 0.162752,0.158199 0.06041,0.02888 0.119626,0.04455 0.177691,0.04702 0.05808,0.0025 0.10373,0.0044 0.136865,0.0058 0.398131,0.01692 0.871692,-0.02434 1.420674,-0.123785 0.548972,-0.09944 1.088215,-0.238765 1.617751,-0.417967 0.505407,-0.171454 0.942899,-0.363336 1.312496,-0.575647 0.369576,-0.212305 0.717711,-0.410178 1.044414,-0.593619 0.326682,-0.183434 0.6478,-0.336412 0.963374,-0.458936 0.315543,-0.122518 0.667855,-0.179895 1.056936,-0.172132 0.08292,0.0035 0.181173,0.01646 0.294722,0.03884 0.113528,0.02237 0.222207,0.05988 0.326039,0.112519 0.103769,0.05265 0.190332,0.119907 0.259562,0.201777 0.06923,0.08188 0.10102,0.184081 0.09537,0.306616 -0.01063,0.253878 -0.108658,0.499653 -0.294189,0.737321 -0.185552,0.237674 -0.425797,0.464249 -0.720713,0.679729 -0.294938,0.215484 -0.627985,0.420575 -0.999109,0.615276 -0.371156,0.194704 -0.751567,0.37805 -1.141235,0.55004 -0.389688,0.17199 -0.772632,0.326726 -1.148833,0.464209 -0.376221,0.137482 -0.712705,0.256921 -1.009471,0.358316 -0.738166,0.249262 -1.462221,0.424578 -2.172154,0.525952 -0.709959,0.101372 -1.351089,0.139896 -1.923414,0.11557 -0.630391,-0.02679 -1.12466,-0.172773 -1.482796,-0.437937 -0.358147,-0.265166 -0.562934,-0.688247 -0.61437,-1.269247 z" />
  <path
     style="font-size:24px;font-style:normal;font-variant:normal;font-weight:normal;font-stretch:normal;line-height:125%;letter-spacing:0px;word-spacing:0px;fill:#e64b00;fill-opacity:1;stroke:none;font-family:MV Boli;-inkscape-font-specification:MV Boli"
     inkscape:connector-curvature="0"
     id="path3137"
     d="m 108.18131,35.13722 c -0.1742,-0.0074 -0.33076,-0.04914 -0.4697,-0.125203 -0.13896,-0.07607 -0.25705,-0.17317 -0.35427,-0.29131 -0.0972,-0.118139 -0.17528,-0.253007 -0.23414,-0.404598 -0.0589,-0.15159 -0.095,-0.302213 -0.10812,-0.45186 -0.0117,-0.132045 0.005,-0.313299 0.051,-0.54376 0.0457,-0.230458 0.10753,-0.488734 0.18551,-0.774829 0.0779,-0.286092 0.16511,-0.584947 0.26149,-0.896571 0.0963,-0.311616 0.18973,-0.610208 0.28015,-0.895776 0.0904,-0.28556 0.16616,-0.549822 0.22729,-0.792785 0.0611,-0.242955 0.10203,-0.434153 0.12276,-0.573596 0.0191,-0.157041 0.0439,-0.344541 0.0741,-0.562507 0.0303,-0.217953 0.065,-0.455457 0.10427,-0.712507 0.0392,-0.257039 0.0773,-0.527289 0.11415,-0.81075 0.0369,-0.283446 0.0756,-0.569013 0.11627,-0.8567 -0.1138,0.02149 -0.25473,0.03961 -0.42282,0.05438 -0.1681,0.01479 -0.34675,0.02693 -0.53595,0.03642 -0.27141,0.01478 -0.53747,0.04294 -0.79821,0.08447 -0.26076,0.04154 -0.52715,0.08942 -0.79916,0.143624 -0.27204,0.05422 -0.55404,0.112392 -0.84601,0.174519 -0.29199,0.06214 -0.60451,0.125594 -0.93758,0.190359 -0.48755,0.09329 -0.97393,0.199783 -1.45913,0.319471 -0.4852,0.119703 -0.99739,0.168092 -1.53653,0.145169 -0.1659,-0.007 -0.32344,-0.05978 -0.47262,-0.158214 -0.1492,-0.09842 -0.31284,-0.17334 -0.49092,-0.224766 -0.14095,0.274652 -0.271861,0.569457 -0.392714,0.884415 -0.120862,0.31497 -0.228501,0.639267 -0.322909,0.972889 -0.09442,0.333633 -0.17678,0.663388 -0.24708,0.989267 -0.07036,0.325884 -0.129941,0.63249 -0.178872,0.919813 -0.02748,0.156694 -0.04461,0.359866 -0.05139,0.609517 -0.0069,0.249653 -0.01114,0.503798 -0.0131,0.762425 -0.0019,0.258634 -0.0048,0.506259 -0.0086,0.742883 -0.0038,0.236628 -0.012,0.424831 -0.02437,0.564623 -0.01315,0.130991 -0.05145,0.258719 -0.114822,0.383188 -0.06334,0.124471 -0.144266,0.237233 -0.242741,0.338285 -0.09849,0.101053 -0.211158,0.181771 -0.338027,0.242153 -0.126869,0.06038 -0.25666,0.08775 -0.389374,0.08211 -0.232249,-0.0099 -0.427376,-0.09051 -0.585393,-0.241938 -0.158016,-0.151419 -0.290112,-0.336816 -0.396297,-0.556192 -0.106155,-0.219374 -0.18718,-0.457412 -0.242959,-0.714112 -0.05573,-0.256694 -0.09305,-0.490682 -0.111752,-0.701956 -0.04754,-0.536983 -0.03462,-1.091129 0.03875,-1.662442 0.07337,-0.571305 0.189512,-1.149567 0.34842,-1.734786 0.158909,-0.585207 0.354747,-1.173237 0.587535,-1.764087 0.232768,-0.590836 0.488557,-1.17851 0.767346,-1.763021 0.226181,-0.525341 0.511314,-1.131499 0.85541,-1.818476 0.344087,-0.686955 0.734112,-1.391701 1.170088,-2.114239 0.43596,-0.722512 0.91477,-1.42787 1.43642,-2.116075 0.52163,-0.688174 1.07291,-1.298366 1.65382,-1.830581 0.5809,-0.53218 1.18793,-0.955836 1.82111,-1.270968 0.63317,-0.315095 1.27739,-0.458725 1.93268,-0.430892 0.68844,0.02928 1.27453,0.18574 1.75828,0.469379 0.48372,0.283676 0.88231,0.655798 1.1958,1.116369 0.31344,0.460605 0.55267,0.992582 0.71766,1.59593 0.16495,0.60338 0.27706,1.239577 0.3363,1.908593 0.0522,0.589816 0.0707,1.195727 0.0556,1.817732 -0.0152,0.62203 -0.0481,1.230136 -0.0988,1.824325 -0.0507,0.594207 -0.11163,1.166046 -0.1828,1.715515 -0.0712,0.549487 -0.13666,1.046587 -0.19643,1.491304 l -0.27649,1.777308 c -0.0119,0.05212 -0.0336,0.156434 -0.0653,0.312942 -0.0316,0.156519 -0.0727,0.345516 -0.12333,0.566995 -0.0506,0.221484 -0.10801,0.460217 -0.1721,0.716201 -0.0641,0.255992 -0.12862,0.507576 -0.19348,0.754757 -0.0649,0.247189 -0.12738,0.474741 -0.18747,0.682662 -0.0601,0.207927 -0.11333,0.376675 -0.1597,0.506251 l 0.0113,-0.01268 c -0.0378,0.226413 -0.0794,0.457049 -0.12467,0.691909 -0.0453,0.234861 -0.11766,0.444456 -0.21702,0.628785 -0.0994,0.184329 -0.23505,0.332036 -0.407,0.443122 -0.17196,0.111083 -0.4031,0.160456 -0.69341,0.148117 z m -0.82906,-16.50511 c -0.37327,-0.01585 -0.73724,0.0498 -1.09193,0.196953 -0.35471,0.147182 -0.69869,0.345232 -1.03197,0.594147 -0.3333,0.248945 -0.65232,0.542333 -0.95706,0.88016 -0.30478,0.337857 -0.59216,0.685207 -0.86218,1.042052 -0.27002,0.356873 -0.52119,0.716724 -0.75348,1.079559 -0.23232,0.362858 -0.44227,0.698152 -0.62987,1.005883 -0.0286,0.05142 -0.0661,0.11779 -0.11253,0.199118 -0.0465,0.08135 -0.0922,0.171487 -0.13719,0.270421 -0.045,0.09895 -0.0874,0.202387 -0.12746,0.310299 -0.04,0.107925 -0.0727,0.205205 -0.0981,0.291812 l 1.28152,0.05447 c 0.46449,0.01975 0.99222,0.0071 1.58321,-0.03795 0.59097,-0.04503 1.17456,-0.103539 1.75076,-0.175528 0.57619,-0.07197 1.1045,-0.148173 1.58493,-0.228618 0.4804,-0.08042 0.8427,-0.141761 1.08687,-0.184013 0.023,-0.11302 0.0405,-0.265751 0.0524,-0.458192 0.0118,-0.192423 0.0197,-0.406951 0.0236,-0.643584 0.004,-0.236612 9e-5,-0.488905 -0.0113,-0.756882 -0.0113,-0.267951 -0.0294,-0.542779 -0.0544,-0.82449 -0.0203,-0.228864 -0.0519,-0.491115 -0.0944,-0.786725 -0.0427,-0.295591 -0.11721,-0.577203 -0.22354,-0.844835 -0.1063,-0.267599 -0.25251,-0.495254 -0.43851,-0.682958 -0.18603,-0.187674 -0.43249,-0.288041 -0.73938,-0.301101 z" />
  <path
     style="font-size:24px;font-style:normal;font-variant:normal;font-weight:normal;font-stretch:normal;line-height:125%;letter-spacing:0px;word-spacing:0px;fill:#e64b00;fill-opacity:1;stroke:none;font-family:MV Boli;-inkscape-font-specification:MV Boli"
     inkscape:connector-curvature="0"
     id="path3139"
     d="m 120.01158,33.377419 c 0.18581,-1.447902 0.40987,-2.907336 0.67217,-4.378306 0.26227,-1.470957 0.51536,-2.929156 0.75925,-4.374603 0.10382,-0.600698 0.19385,-1.147182 0.2701,-1.639453 0.0762,-0.492246 0.1379,-0.939082 0.185,-1.340508 0.0471,-0.401401 0.0768,-0.766282 0.089,-1.094646 0.0123,-0.328335 0.006,-0.63336 -0.019,-0.915072 -0.005,-0.0528 -0.01,-0.112229 -0.0158,-0.178261 -0.006,-0.06601 -0.0173,-0.147615 -0.034,-0.244812 -0.0829,-0.0035 -0.26324,0.03706 -0.54082,0.121717 -0.2776,0.08468 -0.60222,0.198052 -0.97389,0.340096 -0.37168,0.142076 -0.76233,0.303062 -1.17196,0.482959 -0.40964,0.179925 -0.78798,0.36336 -1.13501,0.550303 -0.2763,0.146129 -0.50722,0.267862 -0.69279,0.365199 -0.18557,0.09736 -0.34633,0.171655 -0.48227,0.222866 -0.13595,0.05124 -0.261,0.08539 -0.37517,0.102447 -0.11419,0.01708 -0.23348,0.02298 -0.3579,0.01768 -0.25714,-0.01092 -0.48837,-0.125985 -0.6937,-0.345201 -0.20533,-0.219191 -0.3228,-0.496051 -0.35242,-0.830581 -0.0171,-0.193651 -0.0135,-0.362315 0.0109,-0.505995 0.0245,-0.143647 0.071,-0.271027 0.1397,-0.382131 0.0687,-0.111075 0.16487,-0.214416 0.28862,-0.310026 0.12376,-0.09558 0.27634,-0.192138 0.45778,-0.289682 1.99565,-1.072786 4.04367,-1.834223 6.14406,-2.284316 2.10036,-0.450056 4.23299,-0.629084 6.3979,-0.537087 0.17417,0.0074 0.38192,0.02061 0.62326,0.03965 0.24131,0.01901 0.48944,0.04494 0.74439,0.07769 0.25491,0.03278 0.5044,0.07408 0.74847,0.123895 0.24404,0.04985 0.45965,0.105064 0.64682,0.165618 0.19621,0.06974 0.3734,0.204444 0.53158,0.404084 0.15813,0.199679 0.24695,0.409547 0.26645,0.629605 0.0156,0.176077 0.0162,0.347119 0.002,0.513126 -0.0143,0.166039 -0.0532,0.309087 -0.11694,0.42914 -0.0637,0.120087 -0.15245,0.214977 -0.26608,0.284675 -0.11367,0.06973 -0.25758,0.10088 -0.43176,0.09347 -0.30174,-0.04789 -0.64778,-0.106448 -1.03814,-0.175674 -0.39039,-0.0692 -0.78051,-0.11209 -1.17034,-0.12867 -0.77971,-0.03312 -1.55557,-0.04637 -2.32759,-0.03974 -0.77206,0.0067 -1.55594,0.08955 -2.35165,0.248649 -0.0399,0.01586 -0.0628,0.06093 -0.0686,0.135209 -0.006,0.07431 -0.008,0.168505 -0.006,0.282575 0.0172,0.474324 0.0169,0.890879 -9.3e-4,1.249671 -0.0178,0.358823 -0.0543,0.716838 -0.10943,1.074047 -0.0551,0.357238 -0.12642,0.742275 -0.21381,1.155116 -0.0874,0.412867 -0.18815,0.90847 -0.3022,1.486809 -0.11408,0.57836 -0.24497,1.270002 -0.39268,2.07493 -0.14773,0.804945 -0.30325,1.77837 -0.46657,2.920278 l -0.37043,2.536296 c -0.0888,0.583812 -0.15175,1.109522 -0.18884,1.577133 -0.0371,0.467615 -0.0644,0.929064 -0.082,1.384353 -0.02,0.148239 -0.13396,0.283713 -0.34206,0.406416 -0.20813,0.122703 -0.46149,0.177707 -0.76009,0.165016 -0.17419,-0.0074 -0.33627,-0.06472 -0.48624,-0.171949 -0.14998,-0.107224 -0.2776,-0.242007 -0.38286,-0.404341 -0.10523,-0.162329 -0.18288,-0.338835 -0.2328,-0.529511 -0.05,-0.190676 -0.0582,-0.377383 -0.0248,-0.560137 z" />
  <path
     style="font-size:24px;font-style:normal;font-variant:normal;font-weight:normal;font-stretch:normal;line-height:125%;letter-spacing:0px;word-spacing:0px;fill:#e64b00;fill-opacity:1;stroke:none;font-family:MV Boli;-inkscape-font-specification:MV Boli"
     inkscape:connector-curvature="0"
     id="path3141"
     d="m 131.08705,34.992643 c -0.0273,-0.308104 -0.0146,-0.632052 0.0379,-0.971848 0.17602,-1.185222 0.40189,-2.344209 0.67759,-3.476966 0.2757,-1.132748 0.51673,-2.260397 0.7231,-3.38295 0.20637,-1.122536 0.37667,-2.069022 0.51092,-2.839463 0.13424,-0.770418 0.25542,-1.43178 0.36354,-1.984085 0.1081,-0.55228 0.21059,-1.028075 0.30745,-1.427388 0.0969,-0.399283 0.20656,-0.793651 0.32909,-1.183105 0.0784,-0.233435 0.16657,-0.475247 0.26425,-0.72544 0.0977,-0.250158 0.20746,-0.480086 0.32938,-0.689784 0.1219,-0.209663 0.25354,-0.379466 0.39492,-0.509408 0.14137,-0.129906 0.295,-0.191343 0.46089,-0.18431 0.34008,0.01447 0.60455,0.08491 0.79341,0.211314 0.18885,0.126438 0.3083,0.238946 0.35835,0.337524 l 0.15991,0.546146 c 0.12363,-0.0035 0.28323,-0.02083 0.4788,-0.052 0.19556,-0.03113 0.39301,-0.0644 0.59233,-0.09979 0.19932,-0.03536 0.38412,-0.07136 0.55442,-0.107984 0.17028,-0.0366 0.29949,-0.07056 0.38762,-0.101918 0.53341,-0.135167 1.0273,-0.250109 1.48167,-0.344823 0.45436,-0.09468 0.88767,-0.170537 1.29994,-0.227577 0.41224,-0.057 0.80758,-0.09501 1.18603,-0.114024 0.37842,-0.01897 0.76256,-0.02019 1.15242,-0.0036 0.38154,0.01624 0.69453,0.05147 0.93899,0.105681 0.24443,0.05426 0.44046,0.121783 0.58811,0.202589 0.14762,0.08083 0.25287,0.173009 0.31576,0.276518 0.0629,0.103546 0.0994,0.212529 0.10955,0.32695 0.009,0.105658 -0.008,0.216746 -0.0511,0.333276 -0.0434,0.116566 -0.12263,0.225015 -0.23768,0.325346 -0.11509,0.10037 -0.26865,0.185922 -0.46069,0.256671 -0.19207,0.07078 -0.43623,0.113023 -0.73249,0.126725 -0.0731,0.01445 -0.24229,0.04015 -0.50756,0.07709 -0.26532,0.03697 -0.55303,0.07737 -0.86314,0.121171 -0.31014,0.04384 -0.60388,0.08616 -0.88121,0.126981 -0.27735,0.04085 -0.46876,0.07218 -0.57424,0.09399 l 0.0124,5.28e-4 c -0.049,0.0067 -0.16428,0.03469 -0.34582,0.08396 -0.18159,0.04931 -0.40177,0.105719 -0.66056,0.169247 -0.25882,0.06356 -0.53945,0.137138 -0.84192,0.220734 -0.30248,0.08363 -0.601,0.165216 -0.89557,0.244764 -0.29457,0.07958 -0.56672,0.15571 -0.81644,0.228395 -0.24974,0.07271 -0.45107,0.132124 -0.60398,0.178229 -0.48728,0.189781 -0.8586,0.452442 -1.11397,0.787985 -0.25539,0.33557 -0.44693,0.715495 -0.57463,1.13978 -0.0262,0.07782 -0.064,0.209961 -0.11365,0.396392 -0.0496,0.186458 -0.10309,0.399046 -0.16044,0.637769 -0.0573,0.238746 -0.11961,0.492619 -0.18668,0.761622 -0.067,0.26903 -0.13119,0.525014 -0.19231,0.767964 -0.0611,0.24297 -0.11383,0.46436 -0.15811,0.664176 -0.0443,0.199835 -0.0746,0.347636 -0.0909,0.443401 -0.0171,0.08698 -0.0267,0.165503 -0.0288,0.235566 -0.002,0.07007 -0.002,0.122723 0.002,0.157926 0.005,0.05282 0.0194,0.07976 0.0443,0.08081 0.12443,0.0053 0.37837,-0.04311 0.76185,-0.145209 0.38346,-0.102085 0.83076,-0.22997 1.34189,-0.383652 0.51111,-0.153664 1.05839,-0.318955 1.64183,-0.495874 0.58342,-0.176899 1.14314,-0.341662 1.67916,-0.494287 0.53599,-0.152606 1.01439,-0.279168 1.43521,-0.379685 0.42078,-0.100498 0.72657,-0.146698 0.91736,-0.1386 0.2903,0.01235 0.4897,0.07125 0.59821,0.176707 0.10845,0.105471 0.16819,0.21983 0.17912,0.343062 0.028,0.316918 -0.0531,0.58972 -0.24362,0.8184 -0.19049,0.228702 -0.43553,0.424379 -0.73512,0.587034 -0.0949,0.04859 -0.27261,0.117777 -0.53321,0.207546 -0.26062,0.08978 -0.54178,0.180881 -0.84347,0.273288 -0.3017,0.09243 -0.58927,0.181055 -0.86271,0.265893 -0.27344,0.08485 -0.47043,0.146642 -0.59095,0.18536 -0.78326,0.299973 -1.4204,0.54695 -1.91142,0.740935 -0.49103,0.193999 -0.8881,0.352519 -1.1912,0.475563 -0.30314,0.123055 -0.53659,0.216179 -0.70039,0.27937 -0.16381,0.06321 -0.31615,0.115924 -0.45701,0.158165 -0.14088,0.04226 -0.29646,0.08168 -0.46673,0.118288 -0.1703,0.03662 -0.4054,0.08802 -0.70527,0.154192 -0.0583,0.181696 -0.12064,0.45749 -0.18706,0.827382 -0.0664,0.369905 -0.1275,0.753182 -0.18329,1.149836 -0.0557,0.396665 -0.0996,0.76533 -0.13138,1.106001 -0.0318,0.340676 -0.0419,0.577035 -0.0302,0.709078 0.014,0.158456 0.0451,0.275977 0.0932,0.352564 0.0481,0.0766 0.10231,0.129322 0.16274,0.158199 0.0604,0.02888 0.11963,0.04455 0.17771,0.04702 0.0581,0.0025 0.10362,0.0044 0.13685,0.0058 0.39814,0.01692 0.8717,-0.02434 1.42068,-0.123783 0.54897,-0.09944 1.08822,-0.238766 1.61774,-0.417969 0.50541,-0.171453 0.94291,-0.363335 1.3125,-0.575646 0.36957,-0.212306 0.71771,-0.410178 1.04441,-0.593619 0.32668,-0.183434 0.64781,-0.336412 0.96338,-0.458937 0.31554,-0.122517 0.66785,-0.179894 1.05693,-0.172131 0.0829,0.0035 0.18117,0.01646 0.29473,0.03884 0.11352,0.02237 0.2222,0.05988 0.32603,0.112519 0.10377,0.05265 0.19033,0.119906 0.25958,0.201777 0.0692,0.08188 0.10102,0.184081 0.0953,0.306611 -0.0106,0.253878 -0.10865,0.499654 -0.29418,0.737322 -0.18556,0.237673 -0.4258,0.464249 -0.72071,0.679729 -0.29495,0.215483 -0.62799,0.420575 -0.99912,0.615276 -0.37116,0.194704 -0.75156,0.37805 -1.14124,0.550039 -0.38969,0.17199 -0.77263,0.326727 -1.14883,0.464209 -0.37621,0.137483 -0.71271,0.256921 -1.00946,0.358317 -0.73818,0.249261 -1.46223,0.424578 -2.17217,0.525952 -0.70994,0.101373 -1.35108,0.139896 -1.9234,0.11557 -0.6304,-0.02679 -1.12466,-0.172773 -1.4828,-0.437938 -0.35815,-0.265165 -0.56294,-0.688247 -0.61437,-1.269246 z" />
  <path
     style="fill:none;stroke:#e64b00;stroke-width:1px;stroke-linecap:butt;stroke-linejoin:miter;stroke-opacity:1;"
     d="m 11.5,80.5 c 0.166667,0.66667 0.365232,1.32616 0.5,2 0.09988,0.49941 0,2.68651 0,3 0,2 0,4 0,6 0,0.66667 0,1.33333 0,2 0,0.16667 0,0.33333 0,0.5 0,0.16667 0.166667,0.5 0,0.5 -0.166667,0 0,-0.33333 0,-0.5 0,-0.33333 0,-0.66667 0,-1 0,-0.83333 0,-1.66667 0,-2.5 0,-1.5 0,-3 0,-4.5 0,-0.5 0.04527,-1.00205 0,-1.5 -0.121654,-1.33819 -0.5,-2.65629 -0.5,-4 0,-0.84984 0.360288,-1.66173 0.5,-2.5 0.104107,-0.62464 0,-1.36553 0,-2"
     id="path3014"
     inkscape:connector-curvature="0" />
  <path
     style="fill:none;stroke:#e64b00;stroke-width:5.30000019000000040;stroke-linecap:round;stroke-linejoin:miter;stroke-miterlimit:4;stroke-opacity:1;stroke-dasharray:none;"
     d="m 11.1286,105.74829 c 0,0 -0.492724,-3.81902 -0.726071,-10.525048 C 9.984872,83.220463 12.764401,57.618857 11.438793,46.460889 10.02731,34.580092 10.871397,11.751692 10.871397,11.751692"
     id="path3070-4"
     inkscape:connector-curvature="0"
     sodipodi:nodetypes="cssc" />
  <g
     transform="matrix(0.99721055,0.07463995,-0.07463995,0.99721055,0,4)"
     style="font-size:40px;font-style:normal;font-variant:normal;font-weight:normal;font-stretch:normal;line-height:125%;letter-spacing:0px;word-spacing:0px;fill:#e64b00;fill-opacity:1;stroke:none;font-family:Calibri;-inkscape-font-specification:Calibri"
     id="text3005">
    <path
       d="m 67.540237,77.007706 c 0.309893,0.109378 0.626625,0.236982 0.950196,0.382812 0.323563,0.145836 0.658524,0.284833 1.004883,0.416992 0.346349,0.132164 0.708653,0.243818 1.086914,0.334961 0.378249,0.09115 0.781569,0.136721 1.209961,0.136719 0.501294,2e-6 1.007153,-0.05924 1.517578,-0.177734 0.510407,-0.118488 1.00943,-0.293943 1.49707,-0.526367 0.48762,-0.23242 0.954742,-0.514971 1.401367,-0.847657 0.446603,-0.332678 0.856759,-0.717769 1.230469,-1.155273 0.410143,-0.464839 0.75194,-0.886388 1.025391,-1.264649 0.273423,-0.378249 0.494451,-0.715488 0.663085,-1.011718 0.168606,-0.296217 0.289374,-0.551425 0.362305,-0.765625 0.0729,-0.214185 0.10936,-0.398755 0.109375,-0.553711 -1.5e-5,-0.227856 -0.07749,-0.426098 -0.232422,-0.594727 -0.154962,-0.168611 -0.362319,-0.307608 -0.62207,-0.416992 -0.259779,-0.109366 -0.553724,-0.189118 -0.881836,-0.239258 -0.328138,-0.05012 -0.669934,-0.07519 -1.025391,-0.0752 -0.209647,9e-6 -0.45574,0.0068 -0.738281,0.02051 -0.282563,0.01368 -0.569672,0.02735 -0.861328,0.04101 -0.291677,0.01368 -0.574229,0.02508 -0.847656,0.03418 -0.273447,0.0091 -0.510426,0.01368 -0.710938,0.01367 -0.30079,9e-6 -0.612964,-0.03417 -0.936523,-0.102539 -0.323576,-0.06835 -0.640307,-0.180004 -0.950195,-0.334961 -0.309903,-0.154938 -0.597012,-0.364573 -0.861329,-0.628906 -0.264328,-0.264313 -0.483078,-0.592437 -0.65625,-0.984375 -0.05469,-0.127593 -0.104823,-0.277983 -0.15039,-0.451172 -0.04558,-0.173165 -0.06837,-0.360014 -0.06836,-0.560547 -5e-6,-0.218737 0.01595,-0.426094 0.04785,-0.62207 0.0319,-0.195951 0.07063,-0.385078 0.116211,-0.567383 0.127598,-0.455715 0.339512,-0.91828 0.635742,-1.387696 0.296218,-0.469385 0.651686,-0.927393 1.066406,-1.374023 0.414706,-0.446598 0.865878,-0.87954 1.353516,-1.298828 0.487621,-0.419253 0.988923,-0.813458 1.503906,-1.182617 0.514964,-0.369122 1.020823,-0.701804 1.517578,-0.998047 0.496733,-0.296204 0.959298,-0.549133 1.387696,-0.758789 0.601549,-0.291646 1.214504,-0.50356 1.838867,-0.635742 0.624333,-0.132141 1.241846,-0.198221 1.852539,-0.198243 0.364566,2.2e-5 0.71092,0.04787 1.039062,0.143555 0.328107,0.09572 0.617495,0.234722 0.868164,0.416992 0.250633,0.182313 0.448875,0.407898 0.594727,0.676758 0.145814,0.2689 0.218731,0.576517 0.21875,0.922852 -1.9e-5,0.20054 -0.02281,0.369159 -0.06836,0.505859 -0.04559,0.136737 -0.104837,0.248391 -0.177735,0.334961 -0.07294,0.08661 -0.152688,0.14813 -0.239258,0.18457 -0.08661,0.03648 -0.175474,0.05471 -0.266601,0.05469 -0.246112,1.8e-5 -0.471698,-0.02733 -0.676758,-0.08203 -0.205096,-0.05467 -0.403338,-0.116192 -0.594726,-0.18457 -0.191424,-0.06834 -0.38283,-0.132143 -0.574219,-0.191406 -0.191423,-0.05923 -0.401058,-0.08885 -0.628906,-0.08887 -0.674495,1.8e-5 -1.360367,0.134458 -2.057618,0.40332 -0.697279,0.268898 -1.376314,0.610695 -2.037109,1.025391 -0.660819,0.41473 -1.285167,0.877295 -1.873047,1.387695 -0.5879,0.510432 -1.114267,1.007176 -1.579101,1.490234 -0.246103,0.255223 -0.426115,0.510431 -0.54004,0.765625 -0.11394,0.255222 -0.170906,0.496758 -0.170898,0.72461 -8e-6,0.337252 0.145825,0.601575 0.4375,0.792968 0.291658,0.191419 0.647127,0.287122 1.066406,0.28711 0.246084,1.2e-5 0.524079,-0.0045 0.833985,-0.01367 0.309885,-0.0091 0.626616,-0.0205 0.950195,-0.03418 0.323556,-0.01366 0.638009,-0.02733 0.943359,-0.04101 0.305326,-0.01366 0.576485,-0.0205 0.813477,-0.02051 0.565091,1.2e-5 1.107408,0.07976 1.626953,0.239258 0.519516,0.159516 0.979802,0.394217 1.380859,0.704101 0.401026,0.309907 0.722315,0.694998 0.963868,1.155274 0.241519,0.460296 0.362287,0.986662 0.362304,1.579101 -1.7e-5,0.364592 -0.0547,0.733732 -0.164062,1.107422 -0.109392,0.373705 -0.259783,0.749681 -0.451172,1.12793 -0.191423,0.378261 -0.410173,0.751958 -0.65625,1.121094 -0.24611,0.369145 -0.505875,0.731449 -0.779297,1.086914 -0.492202,0.638024 -1.041355,1.239586 -1.647461,1.804687 -0.606133,0.565106 -1.250989,1.057293 -1.93457,1.476563 -0.683605,0.419271 -1.405935,0.751953 -2.166992,0.998046 -0.761077,0.246094 -1.542652,0.36914 -2.344727,0.369141 -0.346361,-10e-7 -0.701829,-0.0319 -1.066406,-0.0957 -0.364589,-0.0638 -0.724615,-0.157227 -1.080078,-0.280273 -0.355471,-0.123047 -0.690431,-0.277994 -1.00488,-0.464843 -0.314457,-0.186849 -0.590173,-0.398763 -0.827149,-0.635742 -0.236982,-0.236979 -0.426109,-0.499023 -0.567382,-0.786133 -0.141279,-0.287108 -0.211917,-0.599282 -0.211914,-0.936524 -3e-6,-0.16406 0.02506,-0.321286 0.07519,-0.471679 0.05013,-0.150388 0.175453,-0.225583 0.375976,-0.225586 z"
       style="font-size:28px;fill:#e64b00;font-family:MV Boli;-inkscape-font-specification:MV Boli"
       id="path3032"
       inkscape:connector-curvature="0" />
    <path
       d="m 84.780472,79.15419 c -3e-6,-0.319009 0.04557,-0.656248 0.136719,-1.011719 0.309892,-1.23958 0.672196,-2.454097 1.086914,-3.643554 0.414709,-1.189447 0.790685,-2.372063 1.127929,-3.547852 0.337234,-1.175771 0.617507,-2.166981 0.840821,-2.973633 0.223301,-0.806627 0.421543,-1.499335 0.594726,-2.078125 0.17317,-0.578761 0.332675,-1.077784 0.478516,-1.49707 0.145826,-0.419255 0.305331,-0.833968 0.478515,-1.244141 0.109368,-0.246076 0.230136,-0.501284 0.362305,-0.765625 0.132153,-0.264305 0.275708,-0.508119 0.430664,-0.731445 0.154939,-0.223289 0.316723,-0.40558 0.485352,-0.546875 0.16861,-0.141257 0.344066,-0.211895 0.526367,-0.211914 0.373688,1.9e-5 0.658518,0.06154 0.854492,0.18457 0.195953,0.123066 0.316721,0.23472 0.362305,0.334961 l 0.123047,0.560547 c 0.136707,-0.0091 0.314442,-0.03416 0.533203,-0.0752 0.218738,-0.041 0.439767,-0.08429 0.663086,-0.129883 0.223295,-0.04556 0.430651,-0.09113 0.62207,-0.136719 0.191393,-0.04555 0.337227,-0.08657 0.4375,-0.123047 0.601549,-0.164043 1.157538,-0.305319 1.667969,-0.423828 0.510401,-0.11847 0.995752,-0.216452 1.456054,-0.293945 0.46027,-0.07746 0.900048,-0.134421 1.319336,-0.170899 0.419253,-0.03644 0.843078,-0.05467 1.271488,-0.05469 0.41925,2e-5 0.76104,0.02281 1.02539,0.06836 0.2643,0.04559 0.47394,0.107116 0.6289,0.184571 0.15493,0.07749 0.26203,0.168639 0.32129,0.273437 0.0592,0.104837 0.0888,0.21649 0.0889,0.334961 -2e-5,0.109394 -0.0296,0.225605 -0.0889,0.348633 -0.0593,0.123065 -0.15724,0.239276 -0.29394,0.348633 -0.13674,0.109393 -0.31448,0.205096 -0.53321,0.287109 -0.21877,0.08205 -0.4922,0.136736 -0.82031,0.164063 -0.082,0.01825 -0.27118,0.05243 -0.56738,0.102539 -0.29624,0.05015 -0.617532,0.104835 -0.963868,0.164062 -0.346372,0.05926 -0.674496,0.116228 -0.984375,0.170899 -0.309912,0.0547 -0.524105,0.09572 -0.642578,0.123046 l 0.01367,0 c -0.0547,0.0091 -0.184587,0.04331 -0.389649,0.10254 -0.205093,0.05926 -0.453466,0.12762 -0.745117,0.205078 -0.291681,0.07749 -0.608413,0.166357 -0.950195,0.266601 -0.341811,0.100277 -0.67905,0.198259 -1.011719,0.293946 -0.332695,0.09572 -0.640312,0.186864 -0.922852,0.273437 -0.282563,0.0866 -0.510428,0.157242 -0.683593,0.211914 -0.556001,0.218766 -0.991222,0.508153 -1.305665,0.868164 -0.314462,0.360041 -0.562834,0.763361 -0.745117,1.209961 -0.03647,0.08204 -0.09116,0.221042 -0.164062,0.416992 -0.07293,0.195977 -0.152678,0.419284 -0.239258,0.669922 -0.0866,0.250663 -0.180022,0.517265 -0.280273,0.799805 -0.100269,0.282563 -0.195972,0.551443 -0.28711,0.80664 -0.09115,0.255219 -0.170906,0.487641 -0.239258,0.697266 -0.06837,0.209645 -0.116218,0.364593 -0.143554,0.464844 -0.02735,0.09116 -0.04558,0.173186 -0.05469,0.246094 -0.0091,0.07293 -0.01368,0.127613 -0.01367,0.164062 -7e-6,0.0547 0.01366,0.08204 0.04102,0.08203 0.136711,10e-6 0.421541,-0.06151 0.854492,-0.18457 0.432934,-0.123037 0.938793,-0.275706 1.517578,-0.458008 0.578765,-0.182281 1.198557,-0.378245 1.859375,-0.58789 0.660795,-0.209625 1.294258,-0.405589 1.900391,-0.587891 0.606105,-0.18228 1.146144,-0.33495 1.620117,-0.458008 0.473942,-0.123035 0.815739,-0.184558 1.025391,-0.18457 0.318993,1.2e-5 0.533186,0.05242 0.642578,0.157226 0.109357,0.10483 0.164045,0.22104 0.164062,0.348633 -1.7e-5,0.328136 -0.116228,0.615245 -0.348633,0.861328 -0.232438,0.246104 -0.521826,0.460297 -0.868164,0.642578 -0.109391,0.0547 -0.31219,0.13445 -0.608398,0.239258 -0.296239,0.104827 -0.615249,0.211924 -0.957031,0.321289 -0.341811,0.109384 -0.667657,0.214202 -0.977539,0.314453 -0.30991,0.10027 -0.533217,0.173186 -0.669922,0.21875 -0.893241,0.346363 -1.620129,0.631193 -2.180664,0.854493 -0.560557,0.223314 -1.014007,0.405606 -1.360352,0.546875 -0.346363,0.141283 -0.612964,0.248379 -0.799805,0.321289 -0.186857,0.07292 -0.360034,0.134447 -0.519531,0.18457 -0.159513,0.05014 -0.334968,0.09799 -0.526367,0.143555 -0.191414,0.04558 -0.455736,0.109381 -0.792969,0.191406 -0.08204,0.191412 -0.177741,0.4808 -0.287109,0.868164 -0.109381,0.387375 -0.214199,0.788416 -0.314453,1.203125 -0.100267,0.414717 -0.184577,0.799808 -0.25293,1.155273 -0.06837,0.355472 -0.102545,0.601565 -0.102539,0.738282 -6e-6,0.164064 0.02278,0.284833 0.06836,0.362304 0.04557,0.07748 0.100255,0.129885 0.164063,0.157227 0.0638,0.02735 0.127598,0.04102 0.191406,0.04102 0.0638,1e-6 0.113926,1e-6 0.150391,0 0.437493,1e-6 0.96386,-0.0638 1.579101,-0.191407 0.615226,-0.127602 1.223624,-0.296221 1.825196,-0.505859 0.574208,-0.200518 1.07551,-0.419268 1.503906,-0.65625 0.428374,-0.236976 0.831693,-0.458004 1.209961,-0.663086 0.378242,-0.205074 0.747382,-0.378251 1.107422,-0.519531 0.360012,-0.141272 0.754217,-0.216467 1.182617,-0.225586 0.09113,4e-6 0.198227,0.0091 0.321289,0.02734 0.123032,0.01823 0.239242,0.05241 0.348633,0.102539 0.109359,0.05013 0.198226,0.116215 0.266601,0.198242 0.06834,0.08204 0.09341,0.186853 0.0752,0.314453 -0.03647,0.264327 -0.168636,0.524092 -0.396485,0.779297 -0.22788,0.255211 -0.514989,0.501305 -0.861328,0.738281 -0.346368,0.236981 -0.733738,0.464846 -1.162109,0.683594 -0.428399,0.218751 -0.865898,0.426108 -1.3125,0.62207 -0.446626,0.195965 -0.884126,0.373699 -1.3125,0.533203 -0.428396,0.159506 -0.811208,0.298503 -1.148438,0.416992 -0.83855,0.291667 -1.654305,0.505859 -2.447265,0.642579 -0.792975,0.136718 -1.503912,0.205077 -2.132813,0.205078 -0.692713,-1e-6 -1.223636,-0.129884 -1.592773,-0.389649 -0.369144,-0.259765 -0.553714,-0.690429 -0.553711,-1.291992 z"
       style="font-size:28px;fill:#e64b00;font-family:MV Boli;-inkscape-font-specification:MV Boli"
       id="path3034"
       inkscape:connector-curvature="0" />
    <path
       d="m 113.69649,80.316299 c -0.19142,0 -0.36004,-0.03646 -0.50586,-0.109375 -0.14585,-0.07292 -0.26662,-0.168619 -0.36231,-0.287109 -0.0957,-0.118489 -0.16863,-0.255208 -0.21875,-0.410156 -0.0501,-0.154947 -0.0752,-0.309895 -0.0752,-0.464844 -2e-5,-0.136717 0.0364,-0.325845 0.10937,-0.567383 0.0729,-0.241534 0.16633,-0.512693 0.28028,-0.813476 0.11391,-0.300779 0.23924,-0.615232 0.37597,-0.94336 0.13671,-0.328121 0.26887,-0.642574 0.39649,-0.943359 0.12759,-0.300777 0.23696,-0.578771 0.32812,-0.833984 0.0911,-0.255203 0.15493,-0.455724 0.19141,-0.601563 0.0364,-0.164056 0.082,-0.36002 0.13672,-0.587891 0.0547,-0.227858 0.11619,-0.47623 0.18457,-0.745117 0.0683,-0.268873 0.1367,-0.551424 0.20508,-0.847656 0.0683,-0.296216 0.13898,-0.594718 0.21191,-0.895508 -0.12762,0.02735 -0.28485,0.05242 -0.47168,0.0752 -0.18686,0.02279 -0.38511,0.0433 -0.59473,0.06152 -0.30079,0.02735 -0.59702,0.06837 -0.88867,0.123047 -0.29168,0.0547 -0.59018,0.116219 -0.89551,0.18457 -0.30535,0.06837 -0.62208,0.141284 -0.95019,0.21875 -0.32814,0.07748 -0.67905,0.157235 -1.05274,0.239258 -0.54688,0.118497 -1.09376,0.250659 -1.64062,0.396484 -0.54688,0.145841 -1.11655,0.218758 -1.70899,0.21875 -0.18229,8e-6 -0.35091,-0.04784 -0.50585,-0.143554 -0.15496,-0.0957 -0.32814,-0.166334 -0.51954,-0.211914 -0.18229,0.291674 -0.35547,0.603848 -0.51953,0.936523 -0.16407,0.332689 -0.31446,0.674485 -0.45117,1.025391 -0.13672,0.350917 -0.25977,0.69727 -0.36914,1.039062 -0.10938,0.341801 -0.20508,0.66309 -0.28711,0.963867 -0.0456,0.164066 -0.0843,0.37598 -0.11621,0.635743 -0.0319,0.259768 -0.0615,0.524091 -0.0889,0.792968 -0.0273,0.268883 -0.0547,0.526369 -0.082,0.772461 -0.0273,0.246095 -0.0547,0.442059 -0.082,0.587891 -0.0273,0.136719 -0.082,0.271159 -0.16406,0.40332 -0.082,0.132162 -0.1823,0.25293 -0.30078,0.362305 -0.1185,0.109375 -0.25066,0.198242 -0.39649,0.266601 -0.14583,0.06836 -0.29167,0.102539 -0.4375,0.102539 -0.25521,0 -0.46257,-0.07519 -0.62207,-0.225585 -0.15951,-0.150391 -0.28711,-0.33724 -0.38281,-0.560547 -0.0957,-0.223307 -0.16179,-0.467122 -0.19824,-0.731446 -0.0365,-0.264321 -0.0547,-0.505857 -0.0547,-0.724609 0,-0.555987 0.0684,-1.132484 0.20508,-1.729492 0.13671,-0.597001 0.32128,-1.20312 0.55371,-1.81836 0.23242,-0.615228 0.50585,-1.235019 0.82031,-1.859375 0.31445,-0.62434 0.65397,-1.24641 1.01856,-1.866211 0.30077,-0.555979 0.67447,-1.198557 1.12109,-1.927734 0.44661,-0.729155 0.94563,-1.478828 1.49707,-2.249023 0.55142,-0.770168 1.14843,-1.524399 1.79102,-2.262696 0.64256,-0.738264 1.31021,-1.396792 2.00293,-1.975586 0.69269,-0.578757 1.40363,-1.045879 2.13281,-1.401367 0.72915,-0.355449 1.45376,-0.533183 2.17383,-0.533203 0.75649,2e-5 1.38767,0.136738 1.89355,0.410156 0.50584,0.273457 0.90916,0.642597 1.20996,1.107422 0.30076,0.464862 0.51268,1.007179 0.63574,1.626953 0.12303,0.619808 0.18455,1.276057 0.18457,1.96875 -2e-5,0.610691 -0.0388,1.239597 -0.11621,1.886719 -0.0775,0.647148 -0.17319,1.28061 -0.28711,1.900391 -0.11395,0.619802 -0.23699,1.216806 -0.36914,1.791015 -0.13218,0.574228 -0.25294,1.093758 -0.3623,1.558594 L 116.8,74.56044 c -0.0182,0.05469 -0.0524,0.164068 -0.10254,0.328125 -0.0501,0.164068 -0.11395,0.36231 -0.1914,0.594727 -0.0775,0.232426 -0.16408,0.483077 -0.25977,0.751953 -0.0957,0.268884 -0.19142,0.533206 -0.28711,0.792969 -0.0957,0.259768 -0.18686,0.499026 -0.27343,0.717773 -0.0866,0.218752 -0.16181,0.396486 -0.22559,0.533203 l 0.0137,-0.01367 c -0.0638,0.236981 -0.13218,0.478517 -0.20508,0.72461 -0.0729,0.246094 -0.17319,0.467123 -0.30078,0.663086 -0.12762,0.195963 -0.29168,0.355468 -0.49219,0.478515 -0.20053,0.123047 -0.4603,0.18457 -0.77929,0.18457 z m 0.69726,-17.117187 c -0.41017,1.7e-5 -0.81805,0.08433 -1.22363,0.25293 -0.40561,0.168636 -0.80438,0.389664 -1.19629,0.663086 -0.39194,0.273453 -0.77247,0.592463 -1.1416,0.957031 -0.36915,0.364598 -0.72006,0.738295 -1.05273,1.121094 -0.3327,0.382826 -0.64487,0.767916 -0.93653,1.155273 -0.29167,0.387382 -0.556,0.745129 -0.79297,1.073242 -0.0365,0.0547 -0.0843,0.125337 -0.14355,0.211914 -0.0593,0.0866 -0.1185,0.182303 -0.17774,0.28711 -0.0593,0.104828 -0.11622,0.214203 -0.17089,0.328125 -0.0547,0.113943 -0.10027,0.216482 -0.13672,0.307617 l 1.4082,0 c 0.51041,1e-5 1.09374,-0.03645 1.75,-0.109375 0.65624,-0.07291 1.30565,-0.159495 1.94824,-0.259766 0.64257,-0.100249 1.23273,-0.202788 1.77051,-0.307617 0.53774,-0.104806 0.94334,-0.184559 1.2168,-0.239258 0.0364,-0.118478 0.0706,-0.277983 0.10254,-0.478515 0.0319,-0.200509 0.0615,-0.423816 0.0889,-0.669922 0.0273,-0.246081 0.0478,-0.508125 0.0615,-0.786133 0.0136,-0.277981 0.0205,-0.562812 0.0205,-0.854492 -1e-5,-0.236965 -0.009,-0.508124 -0.0273,-0.813477 -0.0183,-0.305323 -0.0729,-0.594711 -0.16406,-0.868164 -0.0912,-0.273421 -0.23016,-0.503564 -0.41699,-0.69043 -0.18687,-0.186832 -0.44891,-0.280256 -0.78614,-0.280273 z"
       style="font-size:28px;fill:#e64b00;font-family:MV Boli;-inkscape-font-specification:MV Boli"
       id="path3036"
       inkscape:connector-curvature="0" />
    <path
       d="m 121.36641,78.443253 c 0.51953,-2.087236 1.05729,-4.149409 1.61328,-6.186524 0.55598,-2.037099 1.09374,-4.099272 1.61328,-6.186523 0.0638,-0.273423 0.1276,-0.533189 0.19141,-0.779297 0.0638,-0.246079 0.12304,-0.492172 0.17773,-0.738281 0.0547,-0.246078 0.098,-0.49445 0.12989,-0.745118 0.0319,-0.250634 0.0478,-0.512678 0.0478,-0.786132 -10e-6,-0.209618 -0.0137,-0.401025 -0.041,-0.574219 -0.0274,-0.173159 -0.041,-0.369123 -0.041,-0.587891 -1e-5,-0.209617 0.0273,-0.432924 0.082,-0.669922 0.13671,-0.55597 0.33039,-0.970683 0.58105,-1.24414 0.25064,-0.273417 0.63118,-0.410136 1.1416,-0.410157 0.20963,2.1e-5 0.41243,0.02053 0.6084,0.06152 0.19596,0.04104 0.38964,0.08889 0.58106,0.143555 0.20962,0.06382 0.42609,0.118509 0.64941,0.164062 0.2233,0.04559 0.44888,0.06838 0.67676,0.06836 0.18228,2.1e-5 0.36001,-0.0091 0.5332,-0.02734 0.17317,-0.01821 0.37141,-0.03644 0.59473,-0.05469 0.22329,-0.01821 0.48762,-0.03644 0.79297,-0.05469 0.30532,-0.01821 0.69041,-0.02732 1.15527,-0.02734 0.25519,2e-5 0.55597,0.0091 0.90234,0.02734 0.34634,0.01825 0.70637,0.05927 1.08008,0.123047 0.37368,0.06382 0.75194,0.157246 1.13477,0.280273 0.38279,0.123067 0.74054,0.289408 1.07324,0.499023 0.33266,0.209655 0.62661,0.467142 0.88184,0.772461 0.25518,0.305357 0.44659,0.672219 0.57421,1.100586 0.0638,0.209653 0.10708,0.401059 0.12989,0.574219 0.0228,0.173194 0.0342,0.341814 0.0342,0.505859 -2e-5,0.556006 -0.1413,1.10288 -0.42383,1.640625 -0.31903,0.610692 -0.74969,1.182631 -1.29199,1.715821 -0.54234,0.533215 -1.17352,1.036796 -1.89356,1.510742 -0.28257,0.191418 -0.61069,0.38966 -0.98437,0.594727 -0.37372,0.205088 -0.74058,0.401052 -1.10059,0.58789 -0.36004,0.186859 -0.68361,0.357758 -0.9707,0.512695 -0.28712,0.154958 -0.48537,0.273448 -0.59473,0.355469 0.319,0.154958 0.63801,0.316741 0.95703,0.485352 0.319,0.168628 0.64484,0.371428 0.97754,0.608398 0.33267,0.236988 0.66991,0.524097 1.01172,0.861328 0.34178,0.337247 0.69725,0.749682 1.06641,1.237305 0.36912,0.487636 0.75193,1.064133 1.14843,1.729492 0.39647,0.665369 0.8089,1.449222 1.23731,2.351563 0.10935,0.218752 0.16404,0.451173 0.16406,0.697265 -2e-5,0.191408 -0.0388,0.382814 -0.11621,0.574219 -0.0775,0.191407 -0.18231,0.364584 -0.31445,0.519531 -0.13218,0.154949 -0.28941,0.280274 -0.47168,0.375977 -0.18231,0.0957 -0.37828,0.143555 -0.58789,0.143555 -0.31903,0 -0.58335,-0.11849 -0.79297,-0.355469 -0.20965,-0.236979 -0.41017,-0.546874 -0.60156,-0.929688 -0.19143,-0.382811 -0.38967,-0.815753 -0.59473,-1.298828 -0.20509,-0.48307 -0.45802,-0.970699 -0.75879,-1.46289 -0.32814,-0.528642 -0.69044,-1.029943 -1.08691,-1.503907 -0.3965,-0.473952 -0.81805,-0.884108 -1.26465,-1.230468 -0.44663,-0.346348 -0.90692,-0.622063 -1.38086,-0.827149 -0.47397,-0.20507 -0.94793,-0.307609 -1.42188,-0.307617 l -0.20508,0 c -0.28256,8e-6 -0.53549,0.02507 -0.75878,0.07519 -0.22332,0.05014 -0.43979,0.09343 -0.64942,0.129883 -0.28256,-0.100253 -0.48764,-0.264315 -0.61523,-0.492187 -0.12761,-0.227857 -0.19142,-0.483065 -0.19141,-0.765625 l 0,-0.191407 -1.09375,4.306641 c -0.0365,0.136723 -0.0866,0.323572 -0.15039,0.560547 -0.0638,0.236983 -0.13672,0.496748 -0.21875,0.779297 -0.082,0.282555 -0.16635,0.578779 -0.25293,0.888672 -0.0866,0.309898 -0.16862,0.601564 -0.24609,0.875 -0.0775,0.273439 -0.14584,0.519532 -0.20508,0.738281 -0.0592,0.218751 -0.10255,0.382813 -0.12988,0.492187 -0.12761,0.227865 -0.2894,0.407878 -0.48536,0.540039 -0.19596,0.132162 -0.40788,0.198242 -0.63574,0.198243 -0.40104,-10e-7 -0.67904,-0.120769 -0.83398,-0.362305 -0.15495,-0.241536 -0.23243,-0.521809 -0.23242,-0.84082 -1e-5,-0.127604 0.009,-0.257486 0.0273,-0.389649 0.0182,-0.13216 0.041,-0.257485 0.0684,-0.375976 z m 6.71289,-15.421875 c -0.0547,0.182308 -0.13445,0.446631 -0.23926,0.792968 -0.10483,0.34637 -0.22104,0.738297 -0.34863,1.175782 -0.12761,0.437514 -0.26433,0.906915 -0.41016,1.408203 -0.14584,0.501315 -0.29167,1.004895 -0.4375,1.510742 -0.14584,0.505871 -0.28711,0.995779 -0.42383,1.469726 -0.13672,0.473969 -0.25977,0.897797 -0.36914,1.271485 0.18229,-0.23697 0.45573,-0.448883 0.82032,-0.635742 0.36457,-0.186839 0.77473,-0.362295 1.23047,-0.526368 0.35545,-0.127593 0.79295,-0.307606 1.3125,-0.540039 0.51952,-0.23241 1.06411,-0.499011 1.63378,-0.799804 0.56965,-0.300769 1.13931,-0.626615 1.70899,-0.977539 0.56965,-0.350898 1.08006,-0.710924 1.53125,-1.080078 0.45115,-0.369127 0.81802,-0.738267 1.10058,-1.107422 0.28254,-0.369125 0.42382,-0.726872 0.42383,-1.073243 -1e-5,-0.337223 -0.1185,-0.603824 -0.35547,-0.799804 -0.23699,-0.195947 -0.53322,-0.344058 -0.88867,-0.444336 -0.35548,-0.100243 -0.74513,-0.166324 -1.16894,-0.198242 -0.42385,-0.03188 -0.81805,-0.04783 -1.18262,-0.04785 -0.65626,1.8e-5 -1.31251,0.04103 -1.96875,0.123047 -0.65626,0.08205 -1.31251,0.241554 -1.96875,0.478516 z"
       style="font-size:28px;fill:#e64b00;font-family:MV Boli;-inkscape-font-specification:MV Boli"
       id="path3038"
       inkscape:connector-curvature="0" />
    <path
       d="m 140.8625,74.34169 c 0,-0.528639 0.0638,-1.127923 0.19141,-1.797851 0.1276,-0.669914 0.35091,-1.319327 0.66992,-1.948243 0.4375,-0.874989 0.92513,-1.720366 1.46289,-2.536132 0.53776,-0.815743 1.08919,-1.567695 1.6543,-2.25586 0.5651,-0.688136 1.1302,-1.298812 1.69531,-1.832031 0.5651,-0.533187 1.10286,-0.950178 1.61328,-1.250977 l -0.0137,0.01367 c 0.319,-0.200503 0.65624,-0.410138 1.01172,-0.628906 0.35546,-0.218732 0.72004,-0.419252 1.09375,-0.601563 0.37368,-0.182272 0.75194,-0.332663 1.13476,-0.451171 0.3828,-0.118471 0.76106,-0.177716 1.13477,-0.177735 0.3828,1.9e-5 0.74738,0.07749 1.09375,0.232422 0.34634,0.154967 0.6494,0.366881 0.90918,0.635742 0.25975,0.268899 0.46483,0.581073 0.61523,0.936524 0.15038,0.355486 0.22557,0.73374 0.22559,1.134765 -2e-5,0.282568 -0.016,0.503597 -0.0479,0.663086 -0.0319,0.159521 -0.082,0.280289 -0.15039,0.362305 -0.0684,0.08205 -0.15497,0.132177 -0.25977,0.150391 -0.10483,0.01824 -0.2256,0.02736 -0.3623,0.02734 -0.20054,1.5e-5 -0.35777,-0.04328 -0.47168,-0.129882 -0.11395,-0.08657 -0.2051,-0.191391 -0.27344,-0.314454 -0.0684,-0.123031 -0.12078,-0.259749 -0.15723,-0.410156 -0.0365,-0.150374 -0.0798,-0.287093 -0.12988,-0.410156 -0.0501,-0.12303 -0.11395,-0.227848 -0.1914,-0.314453 -0.0775,-0.08657 -0.18459,-0.129866 -0.32129,-0.129883 -0.3646,1.7e-5 -0.75881,0.08205 -1.18262,0.246094 -0.42384,0.164079 -0.85679,0.382828 -1.29883,0.65625 -0.44207,0.273453 -0.88413,0.585627 -1.32617,0.936523 -0.44207,0.350926 -0.86362,0.708673 -1.26465,1.073242 -0.40105,0.364597 -0.77247,0.724623 -1.11426,1.080078 -0.3418,0.355482 -0.63575,0.674492 -0.88183,0.957032 -0.36459,0.464855 -0.69728,0.936534 -0.99805,1.415039 -0.30079,0.478525 -0.56055,0.966155 -0.7793,1.46289 -0.21875,0.496754 -0.38737,1.00717 -0.50586,1.53125 -0.11849,0.524096 -0.17774,1.068692 -0.17773,1.633789 -1e-5,0.437506 0.0615,0.820318 0.18457,1.148438 0.12304,0.328129 0.25748,0.610681 0.40332,0.847656 0.17317,0.273441 0.38736,0.462569 0.64258,0.567383 0.2552,0.104821 0.56054,0.15723 0.91601,0.157227 0.77473,3e-6 1.49023,-0.07291 2.14649,-0.21875 0.65624,-0.14583 1.28514,-0.341794 1.88672,-0.587891 0.60155,-0.24609 1.18944,-0.537756 1.76367,-0.875 0.5742,-0.337234 1.16665,-0.69726 1.77734,-1.080078 l 0.35547,0 c 0.11847,6e-6 0.23924,0.03191 0.36231,0.0957 0.12303,0.06381 0.2324,0.145839 0.32812,0.246094 0.0957,0.100266 0.17316,0.214198 0.23242,0.341797 0.0592,0.127609 0.0889,0.25977 0.0889,0.396484 -2e-5,0.300786 -0.11851,0.599288 -0.35547,0.895508 -0.23699,0.296227 -0.54005,0.578779 -0.90918,0.847656 -0.36915,0.268883 -0.78615,0.521812 -1.25098,0.758789 -0.46485,0.236981 -0.92286,0.446617 -1.37402,0.628906 -0.45118,0.182293 -0.87273,0.337241 -1.26465,0.464844 -0.39194,0.127605 -0.70639,0.214194 -0.94336,0.259766 -0.20053,0.04557 -0.39421,0.08887 -0.58105,0.129883 -0.18686,0.04102 -0.40789,0.08203 -0.66309,0.123046 -0.25521,0.04102 -0.56055,0.07292 -0.91601,0.0957 -0.35548,0.02279 -0.80209,0.03418 -1.33985,0.03418 -0.32813,10e-7 -0.62891,-0.05241 -0.90234,-0.157226 -0.27344,-0.104817 -0.51726,-0.227864 -0.73145,-0.369141 -0.21419,-0.141275 -0.39649,-0.289387 -0.54687,-0.444336 -0.1504,-0.154946 -0.27116,-0.287107 -0.36231,-0.396484 -0.53776,-0.628904 -0.92969,-1.248695 -1.17578,-1.859375 -0.24609,-0.610673 -0.36914,-1.280594 -0.36914,-2.009766 z"
       style="font-size:28px;fill:#e64b00;font-family:MV Boli;-inkscape-font-specification:MV Boli"
       id="path3040"
       inkscape:connector-curvature="0" />
    <path
       d="m 156.58516,79.755753 c 0,-0.10026 0.016,-0.2347 0.0479,-0.403321 0.0319,-0.168619 0.0706,-0.341795 0.11621,-0.519531 0.0456,-0.177733 0.0934,-0.348631 0.14356,-0.512695 0.0501,-0.164061 0.0889,-0.296222 0.11621,-0.396485 l 5.53711,-18.169922 c 0.0456,-0.06378 0.0957,-0.118469 0.15039,-0.164062 0.0456,-0.04555 0.10709,-0.08429 0.18457,-0.116211 0.0775,-0.03188 0.17089,-0.04783 0.28027,-0.04785 l 0.23242,0 c 0.20051,2.1e-5 0.36913,0.0342 0.50586,0.10254 0.13671,0.06838 0.24609,0.159525 0.32813,0.273437 0.082,0.113953 0.13898,0.246114 0.1709,0.396484 0.0319,0.150411 0.0478,0.312195 0.0479,0.485352 -10e-6,0.145853 -0.0114,0.298522 -0.0342,0.458008 -0.0228,0.159524 -0.0479,0.314472 -0.0752,0.464844 -0.0273,0.150409 -0.057,0.289406 -0.0889,0.416992 -0.0319,0.127622 -0.057,0.227882 -0.0752,0.300781 l -2.84375,9.707031 1.29883,-0.123047 c 1.44921,-0.319002 2.92805,-0.649405 4.43652,-0.991211 1.50845,-0.341787 2.98729,-0.67219 4.43652,-0.991211 0.16405,-0.08202 0.30988,-0.25064 0.4375,-0.505859 0.12759,-0.255197 0.25292,-0.587879 0.37598,-0.998047 0.12303,-0.410144 0.25747,-0.890938 0.40332,-1.442383 0.14582,-0.551418 0.32355,-1.164373 0.5332,-1.838867 l 0.28711,-0.943359 c 0.11847,-0.455713 0.22557,-0.922835 0.32129,-1.401367 0.0957,-0.478498 0.2119,-0.913719 0.34864,-1.305664 0.13669,-0.391908 0.30987,-0.713197 0.51953,-0.963868 0.20961,-0.250631 0.47849,-0.375956 0.80664,-0.375976 0.46482,2e-5 0.82485,0.148132 1.08008,0.444336 0.25518,0.296243 0.38279,0.667662 0.38281,1.114258 -2e-5,0.28257 -0.10712,0.756528 -0.32129,1.421875 -0.21422,0.665381 -0.48082,1.476578 -0.79981,2.433593 -0.11851,0.355483 -0.24611,0.720066 -0.38281,1.09375 -0.13674,0.373711 -0.26206,0.731458 -0.37597,1.073243 -0.11396,0.341808 -0.20738,0.656261 -0.28028,0.943359 -0.0729,0.28712 -0.10939,0.517263 -0.10937,0.69043 -2e-5,0.164073 0.0228,0.325856 0.0684,0.485351 0.0455,0.159515 0.0683,0.330414 0.0684,0.512695 -2e-5,0.410166 -0.1094,0.751963 -0.32813,1.025391 -0.21877,0.273446 -0.51955,0.551441 -0.90234,0.833984 -0.0183,0.07292 -0.0433,0.186857 -0.0752,0.341797 -0.0319,0.154956 -0.0707,0.314461 -0.11621,0.478516 l -0.17773,0.697266 c -0.12763,0.501308 -0.23472,1.002609 -0.32129,1.503906 -0.0866,0.501306 -0.16408,0.998051 -0.23242,1.490234 -0.0684,0.492191 -0.1413,0.984378 -0.21875,1.476563 -0.0775,0.492189 -0.17548,0.979818 -0.29395,1.46289 -0.0456,0.182292 -0.12534,0.344076 -0.23926,0.485352 -0.11395,0.141276 -0.24611,0.262044 -0.39648,0.362305 -0.15041,0.10026 -0.30764,0.177733 -0.47168,0.232421 -0.16408,0.05469 -0.31903,0.08203 -0.46485,0.08203 -0.21876,-10e-7 -0.3965,-0.05013 -0.5332,-0.150391 -0.13673,-0.100261 -0.24383,-0.21875 -0.32129,-0.355469 -0.0775,-0.136718 -0.1299,-0.277994 -0.15722,-0.423828 -0.0274,-0.145833 -0.041,-0.268879 -0.041,-0.36914 -1e-5,-0.109375 0.0159,-0.289388 0.0478,-0.540039 0.0319,-0.25065 0.0752,-0.544595 0.12988,-0.881836 0.0547,-0.337238 0.11848,-0.701821 0.19141,-1.09375 0.0729,-0.391924 0.14582,-0.788408 0.21875,-1.189454 0.17316,-0.929682 0.37368,-1.945957 0.60156,-3.048828 l -0.0957,0 c -0.23699,8e-6 -0.4922,0.02507 -0.76562,0.0752 -0.27346,0.05014 -0.60158,0.120775 -0.98438,0.211914 -0.17319,0.05469 -0.43068,0.127611 -0.77246,0.21875 -0.34181,0.09115 -0.73146,0.19597 -1.16895,0.314453 -0.43751,0.118496 -0.90919,0.2461 -1.41503,0.382812 -0.50587,0.136725 -1.00946,0.273444 -1.51075,0.410157 l -3.70508,1.011718 c -0.17318,0.355473 -0.33496,0.740564 -0.48535,1.155274 -0.15039,0.414716 -0.28939,0.833987 -0.41699,1.257812 -0.12761,0.42383 -0.24382,0.840822 -0.34863,1.250977 -0.10482,0.410157 -0.20281,0.797526 -0.29395,1.162109 -0.0274,0.10026 -0.0843,0.209635 -0.1709,0.328125 -0.0866,0.118489 -0.18685,0.227864 -0.30078,0.328125 -0.11393,0.10026 -0.23242,0.182291 -0.35547,0.246094 -0.12305,0.0638 -0.23926,0.0957 -0.34863,0.0957 -0.20052,-10e-7 -0.36686,-0.0433 -0.49902,-0.129883 -0.13217,-0.08659 -0.23926,-0.200521 -0.32129,-0.341797 -0.082,-0.141276 -0.139,-0.300781 -0.1709,-0.478515 -0.0319,-0.177735 -0.0479,-0.35319 -0.0479,-0.526367 z"
       style="font-size:28px;fill:#e64b00;font-family:MV Boli;-inkscape-font-specification:MV Boli"
       id="path3042"
       inkscape:connector-curvature="0" />
  </g>
  <g
     transform="matrix(0.98918028,0.14670508,-0.14670508,0.98918028,0,0)"
     style="font-size:40px;font-style:normal;font-variant:normal;font-weight:normal;font-stretch:normal;line-height:125%;letter-spacing:0px;word-spacing:0px;fill:#e64b00;fill-opacity:1;stroke:none;font-family:Calibri;-inkscape-font-specification:Calibri"
     id="text3005-1">
    <path
       d="m 164.77045,2.9280128 c 0.0547,-0.2369623 0.12304,-0.4898918 0.20507,-0.758789 0.082,-0.2688627 0.1914,-0.5149562 0.32813,-0.7382813 0.13671,-0.223289 0.31445,-0.4101378 0.5332,-0.56054684 0.21874,-0.15037187 0.49674,-0.22556711 0.83399,-0.22558594 0.319,1.883e-5 0.60383,0.0888859 0.85449,0.26660157 0.25064,0.17775271 0.47623,0.35776561 0.67676,0.54003901 0.23697,0.1549658 0.46483,0.4694186 0.68359,0.9433594 0.21874,0.473975 0.44433,1.0573077 0.67676,1.75 0.23241,0.692723 0.48306,1.4765764 0.75195,2.3515625 0.26887,0.8750121 0.56509,1.7910268 0.88867,2.7480469 0.32356,0.9570409 0.68586,1.9345789 1.08692,2.9326169 0.40102,0.998053 0.85675,1.971034 1.36719,2.918946 0.082,0.145837 0.17771,0.316735 0.2871,0.512695 0.10936,0.195967 0.22102,0.380537 0.33497,0.553711 0.11391,0.17318 0.21873,0.319013 0.31445,0.4375 0.0957,0.118492 0.16632,0.177737 0.21191,0.177734 0.0273,3e-6 0.0592,-0.06836 0.0957,-0.205078 0.0364,-0.136716 0.0774,-0.300778 0.12304,-0.492187 0.0456,-0.191403 0.0934,-0.387366 0.14356,-0.587891 0.0501,-0.200517 0.098,-0.364579 0.14355,-0.492188 0.17316,-0.419265 0.36229,-0.900059 0.56739,-1.442382 0.20505,-0.542312 0.43292,-1.198561 0.68359,-1.96875 0.25063,-0.770174 0.52635,-1.68391 0.82715,-2.7412113 0.30076,-1.05728 0.63344,-2.3105339 0.99804,-3.7597656 0.0911,-0.355454 0.18911,-0.7587739 0.29395,-1.2099609 0.1048,-0.4511559 0.20506,-0.9114419 0.30078,-1.3808594 0.0957,-0.4693836 0.17999,-0.927391 0.25293,-1.3740235 0.0729,-0.44659574 0.12303,-0.83396515 0.15039,-1.16210933 -2e-5,-0.05466793 0.005,-0.15037096 0.0137,-0.28710937 0.009,-0.13669882 0.025,-0.29164658 0.0479,-0.46484375 0.0228,-0.17315665 0.0524,-0.35316945 0.0889,-0.54003905 0.0364,-0.186828 0.0843,-0.3577263 0.14356,-0.5126953 0.0592,-0.1549265 0.13441,-0.2825305 0.22558,-0.3828125 0.0911,-0.1002386 0.2005,-0.1503688 0.32813,-0.1503907 0.12758,2.19e-5 0.28481,0.018251 0.47168,0.054687 0.18682,0.03648 0.35772,0.091168 0.51269,0.1640625 0.17316,0.2370006 0.33038,0.5218311 0.47168,0.8544922 0.14125,0.33270277 0.21189,0.78159555 0.21192,1.34667972 -3e-5,0.35548783 -0.0365,0.78159417 -0.10938,1.27832028 -0.0729,0.4967625 -0.16636,1.0299651 -0.28027,1.5996094 -0.11396,0.5696774 -0.24156,1.1552888 -0.38281,1.7568359 -0.1413,0.6015767 -0.28486,1.1780736 -0.43067,1.7294922 -0.14586,0.5514448 -0.28485,1.0573037 -0.41699,1.5175782 -0.13219,0.4602975 -0.24384,0.840831 -0.33496,1.1416015 -0.16409,0.5286557 -0.33498,1.0732513 -0.5127,1.6337893 -0.17775,0.560555 -0.37372,1.148445 -0.58789,1.763672 -0.21421,0.61524 -0.44663,1.266932 -0.69726,1.955078 -0.25067,0.688155 -0.53095,1.424157 -0.84082,2.208008 -0.13674,0.355471 -0.29397,0.710939 -0.47168,1.066406 -0.17776,0.35547 -0.38056,0.676759 -0.6084,0.963867 -0.22788,0.28711 -0.48537,0.519532 -0.77246,0.697266 -0.28713,0.177734 -0.60842,0.266601 -0.96387,0.266601 -0.20965,0 -0.42612,-0.02962 -0.64941,-0.08887 -0.22333,-0.05925 -0.41245,-0.180013 -0.56739,-0.362305 -0.74741,-0.865884 -1.41277,-1.847979 -1.99609,-2.946289 -0.58335,-1.098303 -1.10516,-2.246739 -1.56543,-3.445312 -0.4603,-1.19856 -0.86818,-2.410798 -1.22363,-3.636719 -0.35548,-1.2258999 -0.67905,-2.3994013 -0.97071,-3.5205078 l -0.082,-0.3144531 c -0.0365,-0.1275899 -0.0707,-0.2574726 -0.10254,-0.3896484 -0.0319,-0.1321468 -0.0638,-0.2529149 -0.0957,-0.3623047 -0.0319,-0.10936 -0.0684,-0.1982271 -0.10937,-0.2666016 -0.041,-0.068344 -0.0889,-0.1025238 -0.14356,-0.1025391 -0.0547,1.53e-5 -0.12306,0.1002756 -0.20508,0.3007813 -0.082,0.2005356 -0.16407,0.4261213 -0.24609,0.6767578 -0.082,0.2506651 -0.15724,0.49448 -0.22559,0.7314453 -0.0684,0.2369925 -0.11166,0.387383 -0.12988,0.4511719 -0.0638,0.2369921 -0.15951,0.5765099 -0.28711,1.0185547 -0.12761,0.4420689 -0.27117,0.9410919 -0.43066,1.4970703 -0.15952,0.5559996 -0.33269,1.1438894 -0.51953,1.7636714 -0.18686,0.6198 -0.36687,1.219084 -0.54004,1.797852 -0.17319,0.578783 -0.33725,1.114264 -0.49219,1.606445 -0.15496,0.492193 -0.28256,0.888677 -0.38281,1.189453 -0.082,0.236984 -0.1823,0.542322 -0.30079,0.916016 -0.11849,0.373701 -0.23698,0.749677 -0.35546,1.12793 -0.1185,0.378257 -0.22787,0.722332 -0.32813,1.032226 -0.10026,0.309897 -0.16407,0.514975 -0.19141,0.615235 -0.10937,0.346354 -0.27116,0.608398 -0.48535,0.786133 -0.21419,0.177734 -0.43066,0.266601 -0.64941,0.266601 -0.13672,0 -0.27344,-0.04785 -0.41016,-0.143555 -0.13672,-0.0957 -0.25749,-0.211914 -0.3623,-0.348632 -0.10482,-0.136719 -0.19141,-0.284831 -0.25977,-0.444336 -0.0684,-0.159505 -0.10254,-0.303059 -0.10254,-0.430664 0,-0.07292 0.0228,-0.189127 0.0684,-0.348633 0.0456,-0.159504 0.11849,-0.430663 0.21875,-0.813477 l 0.35547,-1.408203 z"
       style="font-size:28px;fill:#e64b00;font-family:MV Boli;-inkscape-font-specification:MV Boli"
       id="path3025" />
    <path
       d="m 182.62592,18.459263 c -1e-5,-0.319009 0.0456,-0.656248 0.13671,-1.011719 0.3099,-1.23958 0.6722,-2.454097 1.08692,-3.643555 0.41471,-1.189446 0.79068,-2.372062 1.12793,-3.547851 0.33723,-1.175771 0.61751,-2.166981 0.84082,-2.973633 0.2233,-0.8066276 0.42154,-1.4993352 0.59472,-2.078125 0.17318,-0.5787612 0.33268,-1.0777841 0.47852,-1.4970703 0.14583,-0.4192546 0.30533,-0.8339678 0.47852,-1.2441406 0.10936,-0.2460765 0.23013,-0.5012846 0.3623,-0.765625 0.13215,-0.2643049 0.27571,-0.5081197 0.43066,-0.73144531 0.15494,-0.22328857 0.31673,-0.40558005 0.48536,-0.546875 0.16861,-0.14125685 0.34406,-0.2118948 0.52636,-0.21191407 0.37369,1.927e-5 0.65852,0.0615426 0.8545,0.18457032 0.19595,0.12306583 0.31672,0.23471936 0.3623,0.33496093 l 0.12305,0.56054683 c 0.13671,-0.0091 0.31444,-0.034161 0.5332,-0.075195 0.21874,-0.040997 0.43977,-0.084291 0.66309,-0.1298828 0.22329,-0.045554 0.43065,-0.0911273 0.62207,-0.13671873 0.19139,-0.0455543 0.33722,-0.0865699 0.4375,-0.12304687 0.60155,-0.16404369 1.15753,-0.30531959 1.66797,-0.42382813 0.5104,-0.11847039 0.99575,-0.21645206 1.45605,-0.29394531 0.46027,-0.07745451 0.90005,-0.1344206 1.31934,-0.17089844 0.41925,-0.03643876 0.84308,-0.05466791 1.27148,-0.0546875 0.41925,1.959e-5 0.76105,0.02280603 1.02539,0.06835938 0.2643,0.04559239 0.47394,0.10711577 0.62891,0.18457031 0.15492,0.0774932 0.26202,0.16863896 0.32129,0.2734375 0.0592,0.10483667 0.0888,0.2164902 0.0889,0.33496094 -2e-5,0.10939362 -0.0296,0.22560444 -0.0889,0.34863285 -0.0593,0.1230651 -0.15725,0.2392759 -0.29395,0.3486328 -0.13674,0.1093929 -0.31447,0.2050959 -0.5332,0.2871093 -0.21877,0.082049 -0.49221,0.1367364 -0.82031,0.1640625 -0.0821,0.018247 -0.27118,0.052426 -0.56739,0.1025391 -0.29624,0.050148 -0.61753,0.1048351 -0.96386,0.1640625 -0.34638,0.059262 -0.6745,0.1162281 -0.98438,0.1708984 -0.30991,0.054705 -0.5241,0.09572 -0.64258,0.1230469 l 0.0137,0 c -0.0547,0.00913 -0.18458,0.043311 -0.38964,0.1025391 -0.2051,0.059262 -0.45347,0.1276209 -0.74512,0.2050781 -0.29168,0.077491 -0.60841,0.1663577 -0.9502,0.2666016 -0.34181,0.1002767 -0.67905,0.1982584 -1.01172,0.2939453 -0.33269,0.095719 -0.64031,0.1868649 -0.92285,0.2734375 -0.28256,0.086604 -0.51043,0.1572423 -0.68359,0.211914 -0.556,0.2187655 -0.99122,0.5081532 -1.30566,0.8681641 -0.31447,0.3600405 -0.56284,0.7633604 -0.74512,1.2099609 -0.0365,0.082045 -0.0912,0.2210421 -0.16406,0.4169922 -0.0729,0.1959766 -0.15268,0.4192836 -0.23926,0.6699219 -0.0866,0.2506633 -0.18002,0.5172646 -0.28028,0.7998047 -0.10026,0.2825635 -0.19597,0.5514434 -0.28711,0.8066406 -0.0911,0.255219 -0.1709,0.4876406 -0.23925,0.6972656 -0.0684,0.2096455 -0.11622,0.3645932 -0.14356,0.4648438 -0.0274,0.091155 -0.0456,0.1731866 -0.0547,0.2460937 -0.009,0.072926 -0.0137,0.1276137 -0.0137,0.1640627 0,0.0547 0.0137,0.08204 0.041,0.08203 0.13671,9e-6 0.42154,-0.06151 0.85449,-0.18457 0.43293,-0.1230375 0.93879,-0.2757067 1.51758,-0.458008 0.57876,-0.1822816 1.19856,-0.378245 1.85937,-0.5878907 0.6608,-0.2096247 1.29426,-0.405588 1.90039,-0.5878906 0.60611,-0.1822804 1.14615,-0.3349495 1.62012,-0.4580078 0.47394,-0.1230352 0.81574,-0.1845586 1.02539,-0.1845703 0.319,1.17e-5 0.53319,0.052421 0.64258,0.1572266 0.10936,0.1048291 0.16405,0.2210399 0.16406,0.3486328 -1e-5,0.3281358 -0.11623,0.6152449 -0.34863,0.8613281 -0.23244,0.2461038 -0.52183,0.4602963 -0.86816,0.6425781 -0.10939,0.054697 -0.31219,0.1344497 -0.6084,0.2392578 -0.29624,0.104827 -0.61525,0.211923 -0.95703,0.321289 -0.34181,0.109384 -0.66766,0.214202 -0.97754,0.314453 -0.30991,0.100269 -0.53322,0.173186 -0.66992,0.21875 -0.89325,0.346363 -1.62013,0.631193 -2.18067,0.854492 -0.56056,0.223315 -1.01401,0.405607 -1.36035,0.546875 -0.34636,0.141284 -0.61296,0.24838 -0.7998,0.321289 -0.18686,0.07292 -0.36004,0.134447 -0.51954,0.184571 -0.15951,0.05014 -0.33496,0.09799 -0.52636,0.143554 -0.19142,0.04558 -0.45574,0.109382 -0.79297,0.191407 -0.082,0.191412 -0.17774,0.4808 -0.28711,0.868164 -0.10938,0.387375 -0.2142,0.788416 -0.31445,1.203125 -0.10027,0.414717 -0.18458,0.799808 -0.25293,1.155273 -0.0684,0.355472 -0.10255,0.601565 -0.10254,0.738281 -1e-5,0.164065 0.0228,0.284833 0.0684,0.362305 0.0456,0.07748 0.10025,0.129885 0.16406,0.157227 0.0638,0.02735 0.1276,0.04102 0.1914,0.04102 0.0638,2e-6 0.11393,2e-6 0.1504,0 0.43749,2e-6 0.96386,-0.0638 1.5791,-0.191406 0.61522,-0.127602 1.22362,-0.296222 1.82519,-0.505859 0.57421,-0.200518 1.07551,-0.419268 1.50391,-0.65625 0.42837,-0.236976 0.83169,-0.458004 1.20996,-0.663086 0.37824,-0.205074 0.74738,-0.378251 1.10742,-0.519531 0.36001,-0.141272 0.75422,-0.216467 1.18262,-0.225586 0.0911,4e-6 0.19823,0.0091 0.32129,0.02734 0.12303,0.01823 0.23924,0.05241 0.34863,0.102539 0.10936,0.05014 0.19823,0.116216 0.2666,0.198243 0.0684,0.08204 0.0934,0.186853 0.0752,0.314453 -0.0365,0.264326 -0.16864,0.524092 -0.39649,0.779297 -0.22788,0.255211 -0.51499,0.501304 -0.86133,0.738281 -0.34636,0.236981 -0.73373,0.464846 -1.1621,0.683594 -0.4284,0.218751 -0.8659,0.426108 -1.3125,0.62207 -0.44663,0.195964 -0.88413,0.373699 -1.3125,0.533203 -0.4284,0.159506 -0.81121,0.298503 -1.14844,0.416992 -0.83855,0.291667 -1.65431,0.505859 -2.44727,0.642578 -0.79297,0.136718 -1.50391,0.205078 -2.13281,0.205078 -0.69271,0 -1.22364,-0.129883 -1.59277,-0.389648 -0.36915,-0.259766 -0.55372,-0.690429 -0.55371,-1.291992 z"
       style="font-size:28px;fill:#e64b00;font-family:MV Boli;-inkscape-font-specification:MV Boli"
       id="path3027" />
    <path
       d="m 200.31732,13.345982 c 0.20052,-0.829421 0.46256,-1.695305 0.78613,-2.597657 0.32357,-0.9023338 0.66309,-1.8229058 1.01856,-2.7617184 0.35546,-0.9387897 0.70637,-1.8935413 1.05273,-2.8642578 0.34635,-0.9706878 0.64257,-1.9391113 0.88868,-2.9052735 0.0638,-0.2369616 0.11848,-0.4557114 0.16406,-0.65625 0.0456,-0.2005027 0.0911,-0.4146952 0.13672,-0.64257808 0.10936,-0.23696037 0.25748,-0.41925186 0.44433,-0.546875 0.18684,-0.12758494 0.38964,-0.19138696 0.6084,-0.19140625 0.20051,1.929e-5 0.38964,0.0319203 0.56738,0.0957031 0.17773,0.0638212 0.33268,0.16636017 0.46485,0.30761719 0.13215,0.14129478 0.23697,0.32130762 0.31445,0.54003901 0.0775,0.2187682 0.1162,0.4785335 0.11621,0.7792969 -1e-5,0.3281423 -0.0501,0.7018398 -0.15039,1.1210938 -0.35548,0.9114738 -0.7155,1.8047021 -1.08008,2.6796875 -0.36459,0.8750129 -0.71778,1.7317828 -1.05957,2.5703125 -0.3418,0.838552 -0.65853,1.6679783 -0.95019,2.488281 -0.29168,0.820321 -0.54233,1.631518 -0.75196,2.433594 -0.0182,0.06381 -0.0547,0.202806 -0.10937,0.416992 -0.0547,0.214199 -0.11166,0.471685 -0.1709,0.772461 -0.0592,0.300786 -0.11166,0.622075 -0.15723,0.963867 -0.0456,0.341801 -0.0684,0.672204 -0.0684,0.991211 0,0.218753 0.0137,0.42611 0.041,0.622071 0.0273,0.195965 0.0729,0.366864 0.13672,0.512695 0.0638,0.145835 0.15038,0.259767 0.25976,0.341797 0.10937,0.08203 0.24609,0.123048 0.41016,0.123047 0.34635,1e-6 0.77018,-0.180012 1.27149,-0.540039 0.50129,-0.360024 1.04361,-0.849932 1.62695,-1.469727 0.58332,-0.619788 1.18261,-1.344396 1.79785,-2.173828 0.61522,-0.829421 1.21451,-1.718092 1.79785,-2.666016 0.58332,-0.947907 1.12564,-1.9231666 1.62695,-2.925781 0.50129,-1.0025919 0.92512,-1.9915232 1.27149,-2.9667969 0.082,-0.1731626 0.18227,-0.2848162 0.30078,-0.3349609 0.11847,-0.050116 0.27342,-0.075181 0.46484,-0.075195 0.35546,1.47e-5 0.65396,0.107111 0.89551,0.3212891 0.24152,0.2142069 0.36229,0.4899227 0.36231,0.8271484 -2e-5,0.082045 -0.009,0.1595186 -0.0274,0.2324219 -0.0182,0.07293 -0.0456,0.1595184 -0.082,0.2597656 l -0.1914,0.5605469 c -0.14586,0.4283975 -0.28485,0.8226028 -0.417,1.1826172 -0.13218,0.360037 -0.23927,0.6995549 -0.32129,1.0185547 -0.1185,0.455739 -0.21421,0.8727304 -0.28711,1.2509764 -0.0729,0.378264 -0.12989,0.733732 -0.17089,1.066406 -0.041,0.33269 -0.0684,0.658536 -0.082,0.977539 -0.0137,0.319018 -0.0205,0.642585 -0.0205,0.970704 -2e-5,0.12761 0.0114,0.314458 0.0342,0.560546 0.0228,0.246099 0.057,0.517258 0.10254,0.813477 0.0455,0.296228 0.10708,0.597009 0.18457,0.902344 0.0774,0.305342 0.1686,0.585615 0.27343,0.84082 0.1048,0.255211 0.22785,0.462568 0.36914,0.62207 0.14126,0.159508 0.30305,0.23926 0.48536,0.239258 0.28253,2e-6 0.58103,-0.116209 0.8955,-0.348633 0.31444,-0.232419 0.63117,-0.551429 0.9502,-0.957031 0.31899,-0.405595 0.64028,-0.881832 0.96387,-1.428711 0.32354,-0.546869 0.638,-1.134759 0.94336,-1.763672 0.30531,-0.628899 0.59698,-1.280591 0.875,-1.955078 0.27797,-0.67447 0.53318,-1.3421123 0.76562,-2.0029295 0.2324,-0.6607961 0.43748,-1.2988163 0.61524,-1.9140625 0.17771,-0.6152213 0.32126,-1.1780463 0.43066,-1.6884765 0.10024,-0.4830584 0.18682,-0.9524589 0.25976,-1.4082032 0.0729,-0.4557132 0.14581,-0.9114419 0.21875,-1.3671875 0.0729,-0.4557118 0.15265,-0.9137191 0.23926,-1.3740234 0.0866,-0.46026774 0.19366,-0.93194696 0.32129,-1.41503905 0.0455,-0.17315725 0.11391,-0.35089145 0.20508,-0.53320313 0.0911,-0.18227129 0.20277,-0.34861222 0.33496,-0.49902342 0.13214,-0.1503698 0.27569,-0.2734165 0.43066,-0.3691406 0.15493,-0.095682 0.31443,-0.1435335 0.47852,-0.1435547 0.41013,2.12e-5 0.68812,0.1116747 0.83398,0.3349609 0.14581,0.2233279 0.21873,0.59474685 0.21875,1.11425782 -2e-5,0.38283188 -0.0342,0.82944601 -0.10253,1.33984378 -0.0684,0.5104345 -0.15498,1.0459158 -0.25977,1.6064453 -0.10484,0.5605631 -0.22106,1.1279454 -0.34863,1.7021484 -0.12763,0.5742333 -0.25524,1.1165505 -0.38282,1.6269531 -0.25523,1.039075 -0.59247,2.1168734 -1.01171,3.2333985 -0.4193,1.1165457 -0.88642,2.2057367 -1.40137,3.2675777 -0.515,1.061855 -1.06187,2.06218 -1.64063,3.000977 -0.57879,0.938805 -1.15985,1.745445 -1.74316,2.419922 -0.20054,0.23698 -0.43752,0.478517 -0.71094,0.724609 -0.27346,0.246095 -0.5674,0.469402 -0.88183,0.669922 -0.31448,0.200521 -0.63349,0.366862 -0.95703,0.499024 -0.32359,0.132161 -0.63576,0.198241 -0.93653,0.198242 -0.62892,-1e-6 -1.15529,-0.184571 -1.5791,-0.553711 -0.42384,-0.36914 -0.7702,-0.861327 -1.03906,-1.476563 -0.2689,-0.615232 -0.47398,-1.317054 -0.61524,-2.105468 -0.14129,-0.788408 -0.24383,-1.601883 -0.30761,-2.44043 -0.51043,0.756516 -0.97756,1.430994 -1.40137,2.023437 -0.42384,0.592452 -0.8545,1.139326 -1.29199,1.640625 -0.32814,0.3737 -0.69728,0.77702 -1.10743,1.209961 -0.41016,0.432944 -0.84538,0.833985 -1.30566,1.203125 -0.46029,0.369141 -0.93197,0.674479 -1.41504,0.916016 -0.48308,0.241535 -0.95704,0.362303 -1.42187,0.362305 -0.53777,-2e-6 -0.98666,-0.09343 -1.34668,-0.280274 -0.36003,-0.18685 -0.64942,-0.444336 -0.86817,-0.772461 -0.21875,-0.328125 -0.37598,-0.715494 -0.47168,-1.162109 -0.0957,-0.446613 -0.14355,-0.929686 -0.14355,-1.449219 0,-0.601559 0.0501,-1.22135 0.15039,-1.859375 0.10026,-0.638016 0.22786,-1.276036 0.38281,-1.914062 z"
       style="font-size:28px;fill:#e64b00;font-family:MV Boli;-inkscape-font-specification:MV Boli"
       id="path3029" />
  </g>
</svg>
