<?xml version="1.0" encoding="UTF-8" standalone="no"?>
<!-- Created with Inkscape (http://www.inkscape.org/) -->

<svg
   xmlns:dc="http://purl.org/dc/elements/1.1/"
   xmlns:cc="http://creativecommons.org/ns#"
   xmlns:rdf="http://www.w3.org/1999/02/22-rdf-syntax-ns#"
   xmlns:svg="http://www.w3.org/2000/svg"
   xmlns="http://www.w3.org/2000/svg"
   xmlns:sodipodi="http://sodipodi.sourceforge.net/DTD/sodipodi-0.dtd"
   xmlns:inkscape="http://www.inkscape.org/namespaces/inkscape"
   id="svg3055"
   version="1.1"
   inkscape:version="0.48.2 r9819"
   width="210"
   height="180"
   sodipodi:docname="drag.svg">
  <metadata
     id="metadata3061">
    <rdf:RDF>
      <cc:Work
         rdf:about="">
        <dc:format>image/svg+xml</dc:format>
        <dc:type
           rdf:resource="http://purl.org/dc/dcmitype/StillImage" />
        <dc:title />
      </cc:Work>
    </rdf:RDF>
  </metadata>
  <defs
     id="defs3059" />
  <sodipodi:namedview
     pagecolor="#ffffff"
     bordercolor="#666666"
     borderopacity="1"
     objecttolerance="10"
     gridtolerance="10"
     guidetolerance="10"
     inkscape:pageopacity="0"
     inkscape:pageshadow="2"
     inkscape:window-width="1920"
     inkscape:window-height="1018"
     id="namedview3057"
     showgrid="false"
     inkscape:zoom="2"
     inkscape:cx="99.33541"
     inkscape:cy="74.31596"
     inkscape:window-x="-8"
     inkscape:window-y="-8"
     inkscape:window-maximized="1"
     inkscape:current-layer="svg3055"
     showguides="true">
    <inkscape:grid
       type="xygrid"
       id="grid4709"
       empspacing="5"
       visible="true"
       enabled="true"
       snapvisiblegridlinesonly="true" />
  </sodipodi:namedview>
  <g
     inkscape:groupmode="layer"
     id="layer1"
     inkscape:label="Layer"
     style="display:inline"
     transform="translate(0,-8)" />
  <path
     style="fill:none;stroke:#e64b00;stroke-width:5.30000019000000040;stroke-linecap:round;stroke-linejoin:miter;stroke-miterlimit:4;stroke-opacity:1;stroke-dasharray:none;"
     d="m 113.61665,166.20041 c 0,0 39.96236,-77.19106 -6.43981,-103.03741 C 73.019368,44.137042 18.859443,51.203803 18.859443,51.203803"
     id="path3070"
     inkscape:connector-curvature="0"
     sodipodi:nodetypes="csc" />
  <path
     style="fill:none;stroke:#e64b00;stroke-width:4;stroke-linecap:round;stroke-linejoin:round;stroke-miterlimit:4;stroke-opacity:1;stroke-dasharray:none;"
     d="M 35.453288,66.809688 C 25.858132,51.685121 15.287197,51.197231 15.287197,51.197231 c 0.06096,0.01859 16.270669,-9.817217 20.443716,-17.504823"
     id="path4532"
     inkscape:connector-curvature="0"
     sodipodi:nodetypes="ccc" />
  <g
     transform="matrix(0.8274039,0.2949838,-0.27036743,1.0941629,66.884586,-0.0971448)"
     style="font-size:24px;font-style:normal;font-variant:normal;font-weight:normal;font-stretch:normal;line-height:125%;letter-spacing:0px;word-spacing:0px;fill:#e64b00;fill-opacity:1;stroke:none;font-family:MV Boli;-inkscape-font-specification:MV Boli"
     id="text4556">
    <path
       d="m 18.647871,30.768139 c 0.359373,-0.257811 0.724607,-0.41992 1.095703,-0.486328 0.371091,-0.0664 0.763668,-0.119139 1.177735,-0.158203 l 2.929687,-11.859375 c -0.03126,1.4e-5 -0.119147,-0.0019 -0.263672,-0.0059 -0.144538,-0.0039 -0.304694,-0.01561 -0.480469,-0.03516 -0.175787,-0.01952 -0.349615,-0.05272 -0.521484,-0.09961 -0.17188,-0.04686 -0.300787,-0.113267 -0.386719,-0.199219 -0.03907,-0.05467 -0.0879,-0.126939 -0.146484,-0.216797 -0.0586,-0.08983 -0.11524,-0.187485 -0.169922,-0.292969 -0.05469,-0.105453 -0.101567,-0.212875 -0.140625,-0.322265 -0.03907,-0.10936 -0.0586,-0.218735 -0.05859,-0.328125 -5e-6,-0.179672 0.07617,-0.330062 0.228516,-0.451172 0.152338,-0.121078 0.339838,-0.218734 0.5625,-0.292969 0.22265,-0.0742 0.462884,-0.126936 0.720703,-0.158203 0.257806,-0.03123 0.492181,-0.04686 0.703125,-0.04687 0.984367,1.7e-5 1.896476,0.02931 2.736328,0.08789 0.839833,0.05861 1.624989,0.185563 2.355469,0.380859 0.730456,0.195328 1.417955,0.472672 2.0625,0.832031 0.644516,0.35939 1.25975,0.839858 1.845703,1.441406 0.218734,0.226577 0.427718,0.480483 0.626953,0.761719 0.199202,0.281263 0.374983,0.587903 0.527344,0.919922 0.152326,0.332043 0.275373,0.687512 0.369141,1.066406 0.09373,0.378917 0.140607,0.779308 0.140625,1.201172 -1.8e-5,0.226572 -0.01174,0.464853 -0.03516,0.714844 -0.02346,0.250009 -0.05471,0.464852 -0.09375,0.644531 -0.22658,0.906258 -0.544939,1.708991 -0.955078,2.408203 -0.410172,0.699225 -0.886734,1.320318 -1.429687,1.863282 -0.542984,0.542972 -1.138686,1.013675 -1.78711,1.412109 -0.64845,0.39844 -1.320324,0.746096 -2.015625,1.042969 -0.695323,0.296876 -1.402353,0.554689 -2.121093,0.773437 -0.718759,0.218751 -1.417977,0.414063 -2.097657,0.585938 l 0.01172,0 c -0.304694,0.09375 -0.632819,0.175781 -0.984375,0.246093 -0.351568,0.07031 -0.707037,0.128907 -1.066406,0.175782 -0.35938,0.04687 -0.716801,0.08398 -1.072266,0.111328 -0.355472,0.02734 -0.689456,0.04102 -1.001953,0.04102 -0.343753,0 -0.632815,-0.02148 -0.867187,-0.06445 -0.234377,-0.04297 -0.42383,-0.101562 -0.56836,-0.175781 -0.144533,-0.07422 -0.248048,-0.158203 -0.310547,-0.251953 -0.0625,-0.09375 -0.09375,-0.195312 -0.09375,-0.304688 -10e-7,-0.156249 0.04492,-0.318358 0.134766,-0.486328 0.08984,-0.167967 0.236326,-0.32617 0.439453,-0.474609 z m 5.15625,-3.363281 c -0.09376,0.398442 -0.191413,0.808598 -0.292969,1.230468 -0.101569,0.421879 -0.199225,0.835941 -0.292968,1.242188 l 0.269531,-0.05859 c 0.171868,-0.03906 0.40429,-0.09765 0.697265,-0.175781 0.292962,-0.07812 0.630852,-0.175778 1.013672,-0.292969 0.382804,-0.117184 0.785147,-0.257809 1.207032,-0.421875 0.421865,-0.164059 0.86913,-0.361324 1.341796,-0.591797 0.472645,-0.230464 0.939442,-0.492183 1.400391,-0.785156 0.460925,-0.292963 0.902331,-0.611323 1.324219,-0.955078 0.421861,-0.343744 0.792954,-0.712884 1.113281,-1.107422 0.320298,-0.394524 0.576157,-0.808586 0.767578,-1.242187 0.191391,-0.433586 0.287094,-0.884757 0.28711,-1.353516 -1.6e-5,-0.476553 -0.09377,-0.927724 -0.28125,-1.353516 -0.187516,-0.42577 -0.439469,-0.8203 -0.75586,-1.183593 -0.31642,-0.363269 -0.683608,-0.687488 -1.101562,-0.972657 -0.417982,-0.285143 -0.853529,-0.529283 -1.306641,-0.732422 -0.453137,-0.203111 -0.912121,-0.357407 -1.376953,-0.46289 -0.464854,-0.105455 -0.904307,-0.158189 -1.318359,-0.158203 -0.585947,1.515638 -1.085946,3.054699 -1.5,4.617187 -0.414071,1.562508 -0.812508,3.148444 -1.195313,4.757813 z"
       style=""
       id="path2994" />
    <path
       d="m 36.390059,31.049389 c 0.445309,-1.789059 0.906246,-3.556636 1.382812,-5.302734 0.476558,-1.746086 0.937495,-3.513662 1.382813,-5.302735 0.05468,-0.234363 0.109369,-0.457019 0.164062,-0.667969 0.05468,-0.210924 0.105463,-0.421861 0.152344,-0.632812 0.04687,-0.210924 0.08398,-0.423814 0.111328,-0.638672 0.02734,-0.21483 0.04101,-0.439439 0.04102,-0.673828 -7e-6,-0.179673 -0.01172,-0.343735 -0.03516,-0.492188 -0.02344,-0.148422 -0.03516,-0.31639 -0.03516,-0.503906 -6e-6,-0.179671 0.02343,-0.371078 0.07031,-0.574219 0.117181,-0.476545 0.283196,-0.832014 0.498046,-1.066406 0.214837,-0.234357 0.541009,-0.351545 0.978516,-0.351562 0.17968,1.7e-5 0.353508,0.0176 0.521484,0.05273 0.167961,0.03517 0.333976,0.07619 0.498047,0.123047 0.179679,0.05471 0.365226,0.10158 0.556641,0.140625 0.191397,0.03908 0.384756,0.05861 0.580078,0.05859 0.15624,1.7e-5 0.308584,-0.0078 0.457031,-0.02344 0.148428,-0.01561 0.318349,-0.03123 0.509766,-0.04687 0.191395,-0.01561 0.417958,-0.03123 0.679687,-0.04687 0.261708,-0.01561 0.591785,-0.02342 0.990235,-0.02344 0.218737,1.7e-5 0.476549,0.0078 0.773437,0.02344 0.296862,0.01564 0.605455,0.0508 0.925782,0.105469 0.320298,0.05471 0.644516,0.134783 0.972656,0.240234 0.328109,0.105486 0.63475,0.248064 0.919922,0.427735 0.28514,0.179704 0.537093,0.400407 0.755859,0.662109 0.218733,0.261734 0.382795,0.576187 0.492188,0.943359 0.05467,0.179703 0.09178,0.343765 0.111328,0.492188 0.01951,0.148452 0.02928,0.292983 0.0293,0.433594 -1.8e-5,0.476576 -0.121111,0.945325 -0.363282,1.40625 -0.273454,0.523449 -0.642594,1.013683 -1.107422,1.470703 -0.464859,0.457042 -1.005874,0.888682 -1.623046,1.294922 -0.242202,0.164072 -0.523452,0.333994 -0.84375,0.509765 -0.320326,0.175791 -0.634779,0.343759 -0.94336,0.503907 -0.308606,0.160165 -0.585949,0.306649 -0.832031,0.439453 -0.246105,0.13282 -0.416027,0.234383 -0.509766,0.304687 0.273426,0.132821 0.546864,0.271492 0.820313,0.416016 0.273425,0.144539 0.552722,0.318367 0.83789,0.521484 0.285144,0.203132 0.574206,0.449226 0.867188,0.738281 0.292955,0.289069 0.597642,0.642584 0.914062,1.060547 0.316392,0.417974 0.644517,0.912114 0.984375,1.482422 0.339828,0.570316 0.693344,1.24219 1.060547,2.015625 0.09373,0.187502 0.140609,0.38672 0.140625,0.597656 -1.6e-5,0.164064 -0.03322,0.328126 -0.09961,0.492188 -0.06642,0.164063 -0.156267,0.3125 -0.269531,0.445312 -0.113298,0.132813 -0.248063,0.240235 -0.404297,0.322266 -0.156266,0.08203 -0.324235,0.123047 -0.503906,0.123047 -0.273453,0 -0.500015,-0.101563 -0.679688,-0.304688 -0.179702,-0.203124 -0.351577,-0.468749 -0.515625,-0.796875 -0.164077,-0.328123 -0.333998,-0.699217 -0.509766,-1.113281 -0.175794,-0.41406 -0.392591,-0.832028 -0.65039,-1.253906 -0.281263,-0.453121 -0.59181,-0.882808 -0.931641,-1.289063 -0.339855,-0.406244 -0.701183,-0.757807 -1.083984,-1.054687 -0.382823,-0.296869 -0.777354,-0.533197 -1.183594,-0.708984 -0.406259,-0.175775 -0.812509,-0.263666 -1.21875,-0.263672 l -0.175781,0 c -0.242196,6e-6 -0.458993,0.02149 -0.650391,0.06445 -0.191414,0.04297 -0.37696,0.08009 -0.55664,0.111328 -0.242195,-0.08593 -0.417976,-0.226556 -0.527344,-0.421875 -0.109382,-0.195305 -0.164069,-0.414055 -0.164063,-0.65625 l 0,-0.164063 -0.9375,3.691407 c -0.03126,0.117191 -0.07422,0.277347 -0.128906,0.480468 -0.05469,0.203129 -0.117193,0.425785 -0.1875,0.667969 -0.07032,0.24219 -0.142583,0.496096 -0.216797,0.761719 -0.07422,0.265627 -0.144536,0.515627 -0.210937,0.75 -0.06641,0.234376 -0.125005,0.445313 -0.175782,0.632812 -0.05079,0.187501 -0.0879,0.328126 -0.111328,0.421875 -0.109379,0.195313 -0.248051,0.34961 -0.416015,0.462891 -0.167973,0.113281 -0.349614,0.169922 -0.544922,0.169922 -0.343754,0 -0.582035,-0.103516 -0.714844,-0.310547 -0.132815,-0.207031 -0.199221,-0.447265 -0.199219,-0.720703 -2e-6,-0.109374 0.0078,-0.220702 0.02344,-0.333984 0.01562,-0.11328 0.03515,-0.220702 0.05859,-0.322266 z m 5.753906,-13.21875 c -0.04688,0.156264 -0.115243,0.382827 -0.205078,0.679687 -0.08985,0.296889 -0.189462,0.632826 -0.298828,1.007813 -0.109383,0.375013 -0.226571,0.777356 -0.351563,1.207031 -0.125008,0.429699 -0.250007,0.861339 -0.375,1.294922 -0.125007,0.433604 -0.246101,0.853525 -0.363281,1.259766 -0.117195,0.406258 -0.222663,0.769539 -0.316406,1.089843 0.156243,-0.203116 0.390617,-0.384757 0.703125,-0.544921 0.312492,-0.160148 0.664054,-0.310538 1.054687,-0.451172 0.304679,-0.109366 0.679678,-0.263663 1.125,-0.462891 0.445303,-0.199209 0.912099,-0.427724 1.400391,-0.685547 0.488269,-0.257802 0.97655,-0.537098 1.464843,-0.83789 0.488269,-0.30077 0.925768,-0.609364 1.3125,-0.925782 0.386705,-0.316394 0.701158,-0.6328 0.94336,-0.949218 0.242172,-0.316393 0.363266,-0.623034 0.363281,-0.919922 -1.5e-5,-0.289049 -0.101577,-0.517564 -0.304687,-0.685547 -0.20314,-0.167954 -0.457046,-0.294907 -0.761719,-0.38086 -0.304701,-0.08592 -0.638685,-0.142563 -1.001953,-0.169921 -0.363294,-0.02733 -0.701184,-0.041 -1.013672,-0.04102 -0.562512,1.5e-5 -1.125011,0.03517 -1.6875,0.105469 -0.56251,0.07033 -1.125009,0.207046 -1.6875,0.410156 z"
       style=""
       id="path2996" />
    <path
       d="m 63.143965,32.654858 c -0.164075,0 -0.308606,-0.03125 -0.433594,-0.09375 -0.125012,-0.0625 -0.228528,-0.144532 -0.310547,-0.246094 -0.08204,-0.101562 -0.144543,-0.21875 -0.1875,-0.351563 -0.04298,-0.132811 -0.06447,-0.265624 -0.06445,-0.398437 -1.2e-5,-0.117187 0.03124,-0.279296 0.09375,-0.486328 0.06249,-0.20703 0.142566,-0.439451 0.240234,-0.697266 0.09764,-0.25781 0.205066,-0.527341 0.322266,-0.808594 0.117175,-0.281246 0.230456,-0.550777 0.339844,-0.808593 0.109362,-0.257809 0.203112,-0.49609 0.28125,-0.714844 0.07811,-0.218745 0.132799,-0.39062 0.164062,-0.515625 0.03124,-0.14062 0.0703,-0.308589 0.117188,-0.503906 0.04686,-0.195307 0.0996,-0.408198 0.158203,-0.638672 0.05858,-0.230463 0.117174,-0.47265 0.175781,-0.726563 0.05858,-0.253899 0.119127,-0.509758 0.181641,-0.767578 -0.109389,0.02345 -0.244155,0.04493 -0.404297,0.06445 -0.16017,0.01954 -0.330091,0.03712 -0.509766,0.05274 -0.257825,0.02344 -0.511731,0.0586 -0.761718,0.105468 -0.250012,0.04688 -0.505872,0.09962 -0.767579,0.158204 -0.26173,0.0586 -0.533214,0.1211 -0.814453,0.1875 -0.28126,0.06641 -0.582041,0.134772 -0.902343,0.205078 -0.46876,0.101569 -0.937509,0.21485 -1.40625,0.339843 -0.468758,0.125007 -0.957039,0.187507 -1.464844,0.1875 -0.156257,7e-6 -0.300788,-0.04101 -0.433594,-0.123046 -0.132819,-0.08203 -0.281256,-0.142572 -0.445312,-0.181641 -0.156256,0.250006 -0.304694,0.517584 -0.445313,0.802734 -0.14063,0.285162 -0.269536,0.578131 -0.386719,0.878907 -0.117192,0.300785 -0.222661,0.59766 -0.316406,0.890625 -0.09376,0.292972 -0.175786,0.568362 -0.246094,0.826171 -0.03907,0.140628 -0.07227,0.322269 -0.09961,0.544922 -0.02735,0.222659 -0.05274,0.449221 -0.07617,0.679688 -0.02344,0.23047 -0.04688,0.451173 -0.07031,0.662109 -0.02344,0.210939 -0.04688,0.378907 -0.07031,0.503906 -0.02344,0.117189 -0.07032,0.232423 -0.140625,0.345704 -0.07032,0.113281 -0.156254,0.216797 -0.257812,0.310546 -0.101567,0.09375 -0.214848,0.169922 -0.339844,0.228516 -0.125004,0.05859 -0.250004,0.08789 -0.375,0.08789 -0.218753,0 -0.396487,-0.06445 -0.533203,-0.19336 -0.136722,-0.128906 -0.246096,-0.289062 -0.328125,-0.480468 -0.08203,-0.191406 -0.138674,-0.40039 -0.169922,-0.626954 -0.03125,-0.226561 -0.04688,-0.433592 -0.04687,-0.621093 -2e-6,-0.476561 0.05859,-0.970701 0.175781,-1.482422 0.117185,-0.511715 0.275388,-1.031246 0.474609,-1.558594 0.199216,-0.527338 0.433591,-1.058588 0.703125,-1.59375 0.269528,-0.535149 0.560543,-1.068352 0.873047,-1.599609 0.257808,-0.476554 0.57812,-1.027335 0.960938,-1.652344 0.382807,-0.62499 0.810541,-1.267567 1.283203,-1.927734 0.472649,-0.660144 0.984367,-1.306628 1.535156,-1.939454 0.550773,-0.632798 1.123038,-1.19725 1.716797,-1.693359 0.59374,-0.496078 1.203114,-0.896468 1.828125,-1.201172 0.624988,-0.304671 1.246081,-0.457014 1.863281,-0.457031 0.648424,1.7e-5 1.189439,0.117204 1.623047,0.351562 0.433578,0.234392 0.779281,0.550798 1.03711,0.949219 0.257796,0.398453 0.439436,0.863296 0.544921,1.394531 0.105452,0.531264 0.158187,1.093763 0.158204,1.6875 -1.7e-5,0.52345 -0.03322,1.062512 -0.09961,1.617188 -0.06642,0.554698 -0.148454,1.097666 -0.246094,1.628906 -0.09767,0.531259 -0.203141,1.042977 -0.316406,1.535156 -0.113297,0.492195 -0.216813,0.937507 -0.310547,1.335938 l -0.410156,1.59375 c -0.01564,0.04688 -0.04494,0.14063 -0.08789,0.28125 -0.04298,0.140629 -0.09767,0.310551 -0.164062,0.509766 -0.06642,0.199222 -0.14064,0.414066 -0.222656,0.644531 -0.08205,0.230472 -0.164078,0.457034 -0.246094,0.679687 -0.08205,0.222659 -0.160171,0.427737 -0.234375,0.615235 -0.07423,0.187502 -0.138686,0.339845 -0.193359,0.457031 l 0.01172,-0.01172 c -0.0547,0.203127 -0.113295,0.410158 -0.175781,0.621094 -0.06251,0.210938 -0.148451,0.400391 -0.257812,0.568359 -0.109389,0.167969 -0.250014,0.304688 -0.421875,0.410157 -0.171889,0.105468 -0.394545,0.158203 -0.667969,0.158203 z m 0.597656,-14.671875 c -0.351576,1.4e-5 -0.701185,0.07228 -1.048828,0.216797 -0.347668,0.144545 -0.689465,0.333998 -1.025391,0.568359 -0.335948,0.234388 -0.66212,0.507826 -0.978515,0.820312 -0.316417,0.312513 -0.617198,0.632825 -0.902344,0.960938 -0.285166,0.328137 -0.552743,0.658214 -0.802734,0.990234 -0.250009,0.332042 -0.476571,0.638682 -0.679688,0.919922 -0.03126,0.04689 -0.07227,0.107432 -0.123047,0.181641 -0.05079,0.07423 -0.10157,0.156259 -0.152344,0.246094 -0.05079,0.08985 -0.09962,0.183603 -0.146484,0.28125 -0.04688,0.09766 -0.08595,0.185556 -0.117187,0.263671 l 1.207031,0 c 0.437491,9e-6 0.93749,-0.03124 1.5,-0.09375 0.562489,-0.06249 1.119129,-0.136709 1.669922,-0.222656 0.550769,-0.08593 1.056627,-0.173818 1.517578,-0.263672 0.460923,-0.08983 0.808579,-0.158193 1.042969,-0.205078 0.03124,-0.101552 0.06053,-0.238271 0.08789,-0.410156 0.02733,-0.171865 0.05272,-0.363271 0.07617,-0.574219 0.02342,-0.210926 0.041,-0.435535 0.05273,-0.673828 0.01171,-0.238269 0.01756,-0.48241 0.01758,-0.732422 -1.5e-5,-0.203112 -0.0078,-0.435534 -0.02344,-0.697265 -0.01564,-0.261706 -0.06251,-0.509753 -0.140625,-0.744141 -0.07814,-0.234361 -0.19728,-0.431627 -0.357422,-0.591797 -0.16017,-0.160142 -0.384779,-0.24022 -0.673828,-0.240234 z"
       style=""
       id="path2998" />
    <path
       d="m 82.292402,24.217358 c -0.09376,0.02344 -0.261734,0.07423 -0.503906,0.152343 -0.242202,0.07813 -0.515639,0.16993 -0.820312,0.275391 -0.304702,0.105477 -0.626967,0.218758 -0.966797,0.339844 -0.339857,0.121101 -0.662122,0.234382 -0.966797,0.339844 -0.3047,0.105475 -0.570324,0.197272 -0.796875,0.27539 -0.226574,0.07813 -0.378917,0.128913 -0.457031,0.152344 -0.0547,0.0078 -0.125011,0.03126 -0.210938,0.07031 -0.08595,0.03907 -0.173839,0.07813 -0.263672,0.117188 -0.08985,0.03907 -0.175791,0.07618 -0.257812,0.111328 -0.08204,0.03516 -0.146495,0.05274 -0.19336,0.05273 -0.164072,7e-6 -0.310556,-0.0332 -0.439453,-0.09961 -0.128915,-0.0664 -0.240243,-0.15429 -0.333984,-0.263672 -0.09376,-0.109368 -0.164072,-0.238274 -0.210938,-0.386719 -0.04688,-0.14843 -0.07032,-0.300773 -0.07031,-0.457031 -9e-6,-0.320304 0.08984,-0.57421 0.269531,-0.761719 0.179678,-0.187491 0.392569,-0.330069 0.638672,-0.427734 0.246084,-0.09765 0.501943,-0.1621 0.767578,-0.193359 0.265614,-0.03124 0.484364,-0.05859 0.65625,-0.08203 0.02343,9e-6 0.0703,-0.01171 0.140625,-0.03516 0.0703,-0.02343 0.148426,-0.05077 0.234375,-0.08203 0.08593,-0.03124 0.171863,-0.05859 0.257813,-0.08203 0.08593,-0.02343 0.156238,-0.03515 0.210937,-0.03516 0.140613,-0.06249 0.359363,-0.15624 0.65625,-0.28125 0.296862,-0.12499 0.62108,-0.251943 0.972656,-0.380859 0.351549,-0.128896 0.701158,-0.242177 1.048828,-0.339844 0.347642,-0.09765 0.646469,-0.146474 0.896485,-0.146484 0.281234,10e-6 0.531234,0.04493 0.75,0.134766 0.218733,0.08985 0.406233,0.214853 0.5625,0.375 0.156233,0.160166 0.275373,0.347665 0.357422,0.5625 0.08201,0.214852 0.123029,0.45118 0.123047,0.708984 -1.8e-5,0.109383 -0.0078,0.220711 -0.02344,0.333984 -0.01564,0.11329 -0.04299,0.251961 -0.08203,0.416016 -0.234392,0.875007 -0.591814,1.689459 -1.072266,2.443359 -0.480484,0.753911 -1.044937,1.437504 -1.693359,2.050782 -0.648452,0.613284 -1.363295,1.154299 -2.144531,1.623046 -0.781262,0.468752 -1.585949,0.85547 -2.414063,1.160157 l 0.01172,-0.01172 c -0.132823,0.05469 -0.294932,0.111329 -0.486328,0.169922 -0.191416,0.05859 -0.390634,0.113281 -0.597657,0.164062 -0.20704,0.05078 -0.410164,0.0918 -0.609375,0.123047 -0.199226,0.03125 -0.373054,0.04687 -0.521484,0.04687 -0.304695,0 -0.562507,-0.0098 -0.773437,-0.0293 -0.210945,-0.01953 -0.388679,-0.04297 -0.533204,-0.07031 -0.144537,-0.02734 -0.265631,-0.06055 -0.363281,-0.09961 -0.09766,-0.03906 -0.185553,-0.07812 -0.263672,-0.117187 -0.445318,-0.203124 -0.85352,-0.447265 -1.224609,-0.732422 -0.371098,-0.285155 -0.689457,-0.615233 -0.955078,-0.990234 -0.265629,-0.374998 -0.47266,-0.791013 -0.621094,-1.248047 -0.14844,-0.457028 -0.222659,-0.955074 -0.222656,-1.494141 -3e-6,-0.578119 0.09375,-1.181634 0.28125,-1.810547 0.187496,-0.628899 0.445309,-1.263664 0.773437,-1.904297 0.328121,-0.640615 0.712886,-1.273427 1.154297,-1.898437 0.441401,-0.624989 0.919916,-1.224598 1.435547,-1.798828 0.515618,-0.574206 1.052727,-1.107409 1.611328,-1.59961 0.558585,-0.492173 1.115225,-0.925766 1.669922,-1.300781 0.335927,-0.226547 0.697255,-0.457015 1.083984,-0.691406 0.386708,-0.234359 0.783192,-0.445296 1.189454,-0.632813 0.406237,-0.187483 0.818346,-0.34178 1.236328,-0.46289 0.417955,-0.121077 0.826157,-0.181624 1.224609,-0.181641 0.320298,1.7e-5 0.636704,0.04689 0.949219,0.140625 0.312484,0.09377 0.593734,0.224626 0.84375,0.392578 0.249983,0.167986 0.453108,0.373063 0.609375,0.615235 0.156233,0.242203 0.234358,0.511734 0.234375,0.808593 -1.7e-5,0.132828 -0.01955,0.277359 -0.05859,0.433594 -0.01564,0.06252 -0.04689,0.17189 -0.09375,0.328125 -0.04689,0.156264 -0.105486,0.277358 -0.175781,0.363281 l 0.02344,-0.02344 c -0.03127,0.101576 -0.084,0.16017 -0.158203,0.175781 -0.07424,0.01564 -0.150407,0.02345 -0.228515,0.02344 -0.234392,1.4e-5 -0.43361,-0.05858 -0.597657,-0.175782 -0.164078,-0.117173 -0.316421,-0.244126 -0.457031,-0.380859 -0.14064,-0.136704 -0.279312,-0.263657 -0.416016,-0.380859 -0.136733,-0.117173 -0.298842,-0.175767 -0.486328,-0.175782 l -0.316406,0 c -0.609389,0.132828 -1.257825,0.380874 -1.945312,0.744141 -0.687512,0.363295 -1.373058,0.804701 -2.056641,1.324219 -0.683603,0.519544 -1.3379,1.099621 -1.962891,1.740234 -0.625007,0.640636 -1.175788,1.304698 -1.652343,1.992188 -0.476569,0.687508 -0.857428,1.384773 -1.142579,2.091797 -0.285161,0.707037 -0.427739,1.384771 -0.427734,2.033203 -5e-6,0.531254 0.121089,0.986332 0.363281,1.365234 0.242182,0.37891 0.593744,0.751956 1.054688,1.119141 l -0.01172,0 c 0.242181,0.156252 0.505853,0.289065 0.791016,0.398437 0.285148,0.109377 0.564445,0.164065 0.83789,0.164063 0.281242,2e-6 0.587882,-0.05469 0.919922,-0.164063 0.332022,-0.109372 0.664053,-0.246091 0.996094,-0.410156 0.332021,-0.16406 0.656239,-0.343747 0.972656,-0.539063 0.316395,-0.195309 0.603504,-0.374996 0.861328,-0.539062 0.828113,-0.539058 1.527331,-1.179683 2.097657,-1.921875 0.570298,-0.742181 1.039047,-1.511712 1.40625,-2.308594 0.01561,-0.03905 0.03123,-0.07812 0.04687,-0.117187 0.01561,-0.03124 0.02733,-0.06444 0.03516,-0.09961 0.0078,-0.03515 0.01561,-0.06444 0.02344,-0.08789 z"
       style=""
       id="path3000" />
    <path
       d="m 90.683027,24.170483 c -7e-6,0.53907 -0.207038,1.005866 -0.621093,1.40039 -0.414069,0.394538 -0.886725,0.591803 -1.417969,0.591797 -0.406255,6e-6 -0.751958,-0.142571 -1.03711,-0.427734 -0.28516,-0.285149 -0.427738,-0.630852 -0.427734,-1.03711 -4e-6,-0.539054 0.216793,-1.013663 0.650391,-1.423828 0.433588,-0.410146 0.912104,-0.615224 1.435547,-0.615234 0.406243,10e-6 0.744133,0.144541 1.013671,0.433594 0.269524,0.289071 0.40429,0.648446 0.404297,1.078125 z"
       style=""
       id="path3002" />
    <path
       d="m 99.401777,24.170483 c -7e-6,0.53907 -0.207038,1.005866 -0.621093,1.40039 -0.414069,0.394538 -0.886725,0.591803 -1.417969,0.591797 -0.406255,6e-6 -0.751958,-0.142571 -1.03711,-0.427734 -0.28516,-0.285149 -0.427738,-0.630852 -0.427734,-1.03711 -4e-6,-0.539054 0.216793,-1.013663 0.650391,-1.423828 0.433588,-0.410146 0.912104,-0.615224 1.435547,-0.615234 0.406243,10e-6 0.744133,0.144541 1.013671,0.433594 0.269524,0.289071 0.40429,0.648446 0.404297,1.078125 z"
       style=""
       id="path3004" />
    <path
       d="m 108.12053,24.170483 c -1e-5,0.53907 -0.20704,1.005866 -0.6211,1.40039 -0.41407,0.394538 -0.88672,0.591803 -1.41797,0.591797 -0.40625,6e-6 -0.75195,-0.142571 -1.0371,-0.427734 -0.28516,-0.285149 -0.42774,-0.630852 -0.42774,-1.03711 0,-0.539054 0.21679,-1.013663 0.65039,-1.423828 0.43359,-0.410146 0.91211,-0.615224 1.43555,-0.615234 0.40624,10e-6 0.74413,0.144541 1.01367,0.433594 0.26952,0.289071 0.40429,0.648446 0.4043,1.078125 z"
       style=""
       id="path3006" />
  </g>
</svg>
