<?xml version="1.0" encoding="UTF-8" standalone="no"?>
<!-- Created with Inkscape (http://www.inkscape.org/) -->

<svg
   xmlns:dc="http://purl.org/dc/elements/1.1/"
   xmlns:cc="http://creativecommons.org/ns#"
   xmlns:rdf="http://www.w3.org/1999/02/22-rdf-syntax-ns#"
   xmlns:svg="http://www.w3.org/2000/svg"
   xmlns="http://www.w3.org/2000/svg"
   xmlns:xlink="http://www.w3.org/1999/xlink"
   xmlns:sodipodi="http://sodipodi.sourceforge.net/DTD/sodipodi-0.dtd"
   xmlns:inkscape="http://www.inkscape.org/namespaces/inkscape"
   width="80"
   height="50"
   id="svg2"
   version="1.1"
   inkscape:version="0.48.2 r9819"
   sodipodi:docname="help.svg">
  <defs
     id="defs4">
    <linearGradient
       id="linearGradient3830">
      <stop
         style="stop-color:#00a0ff;stop-opacity:0.26785713;"
         offset="0"
         id="stop3832" />
      <stop
         style="stop-color:#00a0ff;stop-opacity:0.49107143;"
         offset="1"
         id="stop3834" />
    </linearGradient>
    <radialGradient
       inkscape:collect="always"
       xlink:href="#linearGradient3830"
       id="radialGradient3838"
       cx="49.5625"
       cy="33.812523"
       fx="49.5625"
       fy="33.812523"
       r="22.83149"
       gradientTransform="translate(0,3.2453691e-5)"
       gradientUnits="userSpaceOnUse"
       spreadMethod="pad" />
    <filter
       id="filter3882"
       inkscape:label="Drop shadow"
       width="1.5"
       height="1.5"
       x="-.25"
       y="-.25">
      <feGaussianBlur
         id="feGaussianBlur3884"
         in="SourceAlpha"
         stdDeviation="2"
         result="blur" />
      <feColorMatrix
         id="feColorMatrix3886"
         result="bluralpha"
         type="matrix"
         values="1 0 0 0 0 0 1 0 0 0 0 0 1 0 0 0 0 0 0.5 0 " />
      <feOffset
         id="feOffset3888"
         in="bluralpha"
         dx="0"
         dy="0"
         result="offsetBlur" />
      <feMerge
         id="feMerge3890">
        <feMergeNode
           id="feMergeNode3892"
           in="offsetBlur" />
        <feMergeNode
           id="feMergeNode3894"
           in="SourceGraphic" />
      </feMerge>
    </filter>
  </defs>
  <sodipodi:namedview
     id="base"
     pagecolor="#ffffff"
     bordercolor="#666666"
     borderopacity="1.0"
     inkscape:pageopacity="0.0"
     inkscape:pageshadow="2"
     inkscape:zoom="8"
     inkscape:cx="21.007282"
     inkscape:cy="24.453125"
     inkscape:document-units="px"
     inkscape:current-layer="layer1"
     showgrid="true"
     inkscape:window-width="1170"
     inkscape:window-height="826"
     inkscape:window-x="577"
     inkscape:window-y="173"
     inkscape:window-maximized="0"
     inkscape:snap-global="false">
    <inkscape:grid
       type="xygrid"
       id="grid3912"
       empspacing="5"
       visible="true"
       enabled="true"
       snapvisiblegridlinesonly="true" />
  </sodipodi:namedview>
  <metadata
     id="metadata7">
    <rdf:RDF>
      <cc:Work
         rdf:about="">
        <dc:format>image/svg+xml</dc:format>
        <dc:type
           rdf:resource="http://purl.org/dc/dcmitype/StillImage" />
        <dc:title />
      </cc:Work>
    </rdf:RDF>
  </metadata>
  <g
     inkscape:label="Layer 1"
     inkscape:groupmode="layer"
     id="layer1"
     transform="translate(0,-1002.3622)">
    <path
       sodipodi:type="arc"
       style="fill:url(#radialGradient3838);fill-opacity:1;fill-rule:nonzero;stroke:#056597;stroke-width:4.03270626000000030;stroke-linecap:round;stroke-linejoin:miter;stroke-miterlimit:4;stroke-opacity:1;stroke-dasharray:none;filter:url(#filter3882)"
       id="path4825"
       sodipodi:cx="49.5625"
       sodipodi:cy="33.8125"
       sodipodi:rx="20.4375"
       sodipodi:ry="20.4375"
       d="m 66.0659,21.757244 a 20.4375,20.4375 0 1 1 -0.04407,-0.0601"
       transform="matrix(0.76697873,0,0,0.76697871,2.236612,1001.5537)"
       sodipodi:start="5.6523003"
       sodipodi:end="11.931839"
       sodipodi:open="true" />
    <g
       style="font-size:36px;font-style:normal;font-weight:bold;line-height:125%;letter-spacing:0px;word-spacing:0px;fill:#ffffff;fill-opacity:1;stroke:none;font-family:Sans;-inkscape-font-specification:Sans Bold"
       id="text4831"
       transform="matrix(0.88309672,0,0,0.88309671,4.8157417,120.4478)">
      <path
         d="m 42.326172,1033.5927 -4.482422,0 c -0.01173,-0.6446 -0.01759,-1.0372 -0.01758,-1.1778 -9e-6,-1.4531 0.240225,-2.6484 0.720703,-3.5859 0.480459,-0.9375 1.441395,-1.9922 2.882812,-3.1641 1.441393,-1.1718 2.30272,-1.9394 2.583985,-2.3027 0.433578,-0.5742 0.650375,-1.207 0.65039,-1.8985 -1.5e-5,-0.9609 -0.383804,-1.7841 -1.151367,-2.4697 -0.767591,-0.6855 -1.80177,-1.0283 -3.102539,-1.0283 -1.253916,0 -2.302743,0.3574 -3.146484,1.0723 -0.843757,0.7148 -1.423835,1.8047 -1.740235,3.2695 l -4.535156,-0.5625 c 0.128905,-2.0976 1.022458,-3.8789 2.680664,-5.3438 1.658197,-1.4648 3.834953,-2.1972 6.530274,-2.1972 2.835923,0 5.09178,0.7412 6.767578,2.2236 1.675762,1.4825 2.513651,3.208 2.513672,5.1768 -2.1e-5,1.0898 -0.307637,2.1211 -0.922852,3.0937 -0.615253,0.9727 -1.930681,2.2969 -3.946289,3.9727 -1.042983,0.8672 -1.690443,1.5644 -1.942383,2.0918 -0.251966,0.5273 -0.366224,1.4707 -0.342773,2.8301 z m -4.482422,6.6445 0,-4.9395 4.939453,0 0,4.9395 z"
         id="path4836"
         inkscape:connector-curvature="0" />
    </g>
  </g>
</svg>
