<?xml version="1.0" encoding="UTF-8" standalone="no"?>
<!-- Created with Inkscape (http://www.inkscape.org/) -->

<svg
   xmlns:dc="http://purl.org/dc/elements/1.1/"
   xmlns:cc="http://creativecommons.org/ns#"
   xmlns:rdf="http://www.w3.org/1999/02/22-rdf-syntax-ns#"
   xmlns:svg="http://www.w3.org/2000/svg"
   xmlns="http://www.w3.org/2000/svg"
   xmlns:sodipodi="http://sodipodi.sourceforge.net/DTD/sodipodi-0.dtd"
   xmlns:inkscape="http://www.inkscape.org/namespaces/inkscape"
   id="svg3055"
   version="1.1"
   inkscape:version="0.48.4 r9939"
   width="453"
   height="50"
   sodipodi:docname="opcion.svg">
  <metadata
     id="metadata3061">
    <rdf:RDF>
      <cc:Work
         rdf:about="">
        <dc:format>image/svg+xml</dc:format>
        <dc:type
           rdf:resource="http://purl.org/dc/dcmitype/StillImage" />
        <dc:title></dc:title>
      </cc:Work>
    </rdf:RDF>
  </metadata>
  <defs
     id="defs3059" />
  <sodipodi:namedview
     pagecolor="#ffffff"
     bordercolor="#666666"
     borderopacity="1"
     objecttolerance="10"
     gridtolerance="10"
     guidetolerance="10"
     inkscape:pageopacity="0"
     inkscape:pageshadow="2"
     inkscape:window-width="1920"
     inkscape:window-height="1018"
     id="namedview3057"
     showgrid="false"
     inkscape:zoom="2"
     inkscape:cx="194.27158"
     inkscape:cy="-45.68404"
     inkscape:window-x="-8"
     inkscape:window-y="-8"
     inkscape:window-maximized="1"
     inkscape:current-layer="svg3055"
     showguides="true">
    <inkscape:grid
       type="xygrid"
       id="grid4709"
       empspacing="5"
       visible="true"
       enabled="true"
       snapvisiblegridlinesonly="true" />
  </sodipodi:namedview>
  <g
     inkscape:groupmode="layer"
     id="layer1"
     inkscape:label="Layer"
     style="display:inline"
     transform="translate(0,-138)" />
  <path
     style="fill:none;stroke:#e64b00;stroke-width:5.29999999999999980;stroke-linecap:round;stroke-linejoin:miter;stroke-miterlimit:4;stroke-opacity:1;stroke-dasharray:none;"
     d="m 444.61665,40.70041 c 0,0 -73.82248,-0.312712 -136.11802,-0.744676 C 260.15324,39.620502 207.08628,42.602877 151.99092,40.472895 97.40632,38.362658 54.745852,42.002533 49.17684,41.663 37.317734,40.939971 8.859443,40.703803 8.859443,40.703803"
     id="path3070"
     inkscape:connector-curvature="0"
     sodipodi:nodetypes="csssc" />
  <g
     style="font-size:40px;font-style:normal;font-variant:normal;font-weight:normal;font-stretch:normal;line-height:125%;letter-spacing:0px;word-spacing:0px;fill:#e64b00;fill-opacity:1;stroke:none;font-family:Calibri;-inkscape-font-specification:Calibri"
     id="text3005">
    <path
       d="m 28.978516,29.421875 c 0.309892,0.109378 0.626624,0.236982 0.950195,0.382812 0.323564,0.145836 0.658524,0.284834 1.004883,0.416993 0.346349,0.132163 0.708653,0.243817 1.086914,0.334961 0.378249,0.09115 0.781569,0.13672 1.209961,0.136718 0.501294,2e-6 1.007153,-0.05924 1.517578,-0.177734 0.510407,-0.118487 1.00943,-0.293943 1.49707,-0.526367 0.48762,-0.232419 0.954742,-0.514971 1.401367,-0.847656 0.446603,-0.332679 0.856759,-0.71777 1.230469,-1.155274 0.410143,-0.464839 0.75194,-0.886388 1.025391,-1.264648 0.273423,-0.378249 0.494452,-0.715489 0.663086,-1.011719 0.168605,-0.296217 0.289373,-0.551425 0.362304,-0.765625 0.0729,-0.214185 0.109361,-0.398755 0.109375,-0.553711 -1.4e-5,-0.227856 -0.07749,-0.426098 -0.232422,-0.594727 -0.154962,-0.16861 -0.362318,-0.307608 -0.62207,-0.416992 -0.259779,-0.109365 -0.553724,-0.189118 -0.881836,-0.239258 -0.328138,-0.05012 -0.669934,-0.07519 -1.02539,-0.0752 -0.209648,10e-6 -0.455741,0.0068 -0.738282,0.02051 -0.282563,0.01368 -0.569672,0.02735 -0.861328,0.04102 -0.291677,0.01368 -0.574228,0.02507 -0.847656,0.03418 -0.273447,0.0091 -0.510426,0.01368 -0.710938,0.01367 -0.300789,10e-6 -0.612964,-0.03417 -0.936523,-0.102539 -0.323575,-0.06835 -0.640307,-0.180003 -0.950195,-0.334961 -0.309903,-0.154938 -0.597012,-0.364573 -0.861328,-0.628906 -0.264329,-0.264312 -0.483079,-0.592437 -0.65625,-0.984375 -0.05469,-0.127593 -0.104824,-0.277983 -0.150391,-0.451172 -0.04558,-0.173165 -0.06837,-0.360014 -0.06836,-0.560547 -6e-6,-0.218737 0.01595,-0.426094 0.04785,-0.62207 0.0319,-0.19595 0.07063,-0.385078 0.116211,-0.567383 0.127599,-0.455715 0.339513,-0.91828 0.635742,-1.387695 0.296218,-0.469386 0.651686,-0.927393 1.066407,-1.374024 0.414706,-0.446597 0.865877,-0.87954 1.353515,-1.298828 0.487621,-0.419253 0.988923,-0.813458 1.503906,-1.182617 0.514964,-0.369121 1.020823,-0.701803 1.517579,-0.998047 0.496732,-0.296204 0.959297,-0.549133 1.387695,-0.758789 0.601549,-0.291646 1.214504,-0.50356 1.838867,-0.635742 0.624334,-0.13214 1.241846,-0.198221 1.852539,-0.198242 0.364566,2.1e-5 0.71092,0.04787 1.039063,0.143554 0.328107,0.09572 0.617494,0.234722 0.868164,0.416993 0.250632,0.182312 0.448874,0.407898 0.594726,0.676757 0.145814,0.268901 0.218731,0.576517 0.21875,0.922852 -1.9e-5,0.20054 -0.02281,0.369159 -0.06836,0.505859 -0.04559,0.136738 -0.104837,0.248391 -0.177735,0.334961 -0.07294,0.08661 -0.152688,0.148131 -0.239257,0.184571 -0.08661,0.03648 -0.175475,0.05471 -0.266602,0.05469 -0.246112,1.8e-5 -0.471698,-0.02732 -0.676758,-0.08203 -0.205096,-0.05467 -0.403338,-0.116193 -0.594726,-0.184571 -0.191424,-0.06834 -0.38283,-0.132142 -0.574219,-0.191406 -0.191423,-0.05923 -0.401058,-0.08885 -0.628906,-0.08887 -0.674495,1.9e-5 -1.360367,0.134459 -2.057617,0.40332 -0.697279,0.268899 -1.376315,0.610695 -2.03711,1.025391 -0.660818,0.41473 -1.285167,0.877295 -1.873047,1.387695 -0.5879,0.510432 -1.114267,1.007177 -1.579101,1.490235 -0.246102,0.255222 -0.426115,0.51043 -0.540039,0.765625 -0.113941,0.255221 -0.170907,0.496758 -0.170899,0.724609 -8e-6,0.337252 0.145826,0.601575 0.4375,0.792969 0.291658,0.191418 0.647127,0.287121 1.066406,0.287109 0.246085,1.2e-5 0.524079,-0.0045 0.833985,-0.01367 0.309885,-0.0091 0.626617,-0.0205 0.950195,-0.03418 0.323556,-0.01366 0.638009,-0.02733 0.94336,-0.04102 0.305326,-0.01366 0.576484,-0.0205 0.813476,-0.02051 0.565091,1.2e-5 1.107408,0.07976 1.626953,0.239258 0.519516,0.159517 0.979802,0.394217 1.38086,0.704101 0.401025,0.309907 0.722314,0.694998 0.963867,1.155274 0.241519,0.460296 0.362287,0.986663 0.362304,1.579101 -1.7e-5,0.364592 -0.0547,0.733732 -0.164062,1.107422 -0.109392,0.373705 -0.259782,0.749681 -0.451172,1.12793 -0.191423,0.378261 -0.410172,0.751959 -0.65625,1.121094 -0.246109,0.369145 -0.505875,0.731449 -0.779297,1.086914 -0.492202,0.638024 -1.041355,1.239586 -1.647461,1.804687 -0.606132,0.565106 -1.250989,1.057293 -1.93457,1.476563 -0.683605,0.419271 -1.405935,0.751953 -2.166992,0.998047 -0.761077,0.246093 -1.542651,0.36914 -2.344727,0.36914 -0.346361,0 -0.701829,-0.0319 -1.066406,-0.0957 -0.364589,-0.0638 -0.724615,-0.157227 -1.080078,-0.280273 -0.355473,-0.123047 -0.690434,-0.277995 -1.004883,-0.464844 -0.314457,-0.186849 -0.590173,-0.398762 -0.827148,-0.635742 -0.236982,-0.236978 -0.42611,-0.499022 -0.567383,-0.786133 -0.141279,-0.287108 -0.211917,-0.599282 -0.211914,-0.936523 -3e-6,-0.16406 0.02506,-0.321287 0.0752,-0.47168 0.05013,-0.150388 0.175453,-0.225583 0.375977,-0.225586 z"
       style="font-size:28px;fill:#e64b00;font-family:MV Boli;-inkscape-font-specification:MV Boli"
       id="path3115" />
    <path
       d="m 46.21875,31.568359 c -3e-6,-0.319009 0.04557,-0.656248 0.136719,-1.011718 0.309892,-1.23958 0.672197,-2.454097 1.086914,-3.643555 0.414709,-1.189446 0.790685,-2.372062 1.127929,-3.547852 0.337234,-1.17577 0.617508,-2.16698 0.840821,-2.973632 0.223301,-0.806628 0.421543,-1.499336 0.594726,-2.078125 0.173171,-0.578762 0.332676,-1.077785 0.478516,-1.497071 0.145826,-0.419254 0.305331,-0.833968 0.478516,-1.24414 0.109367,-0.246077 0.230135,-0.501285 0.362304,-0.765625 0.132154,-0.264305 0.275708,-0.50812 0.430664,-0.731446 0.15494,-0.223288 0.316723,-0.40558 0.485352,-0.546875 0.168611,-0.141257 0.344066,-0.211894 0.526367,-0.211914 0.373688,2e-5 0.658519,0.06154 0.854492,0.184571 0.195953,0.123065 0.316721,0.234719 0.362305,0.334961 l 0.123047,0.560546 c 0.136708,-0.0091 0.314442,-0.03416 0.533203,-0.07519 0.218738,-0.041 0.439767,-0.08429 0.663086,-0.129883 0.223295,-0.04555 0.430652,-0.09113 0.62207,-0.136718 0.191394,-0.04556 0.337227,-0.08657 0.4375,-0.123047 0.601549,-0.164044 1.157538,-0.30532 1.667969,-0.423828 0.510401,-0.118471 0.995752,-0.216453 1.456055,-0.293946 0.460269,-0.07745 0.900048,-0.13442 1.319336,-0.170898 0.419253,-0.03644 0.84308,-0.05467 1.271484,-0.05469 0.419252,2e-5 0.761048,0.02281 1.025391,0.06836 0.264302,0.04559 0.473938,0.107115 0.628906,0.18457 0.154927,0.07749 0.262023,0.168639 0.321289,0.273437 0.05922,0.104837 0.08885,0.216491 0.08887,0.334961 -2.1e-5,0.109394 -0.02964,0.225605 -0.08887,0.348633 -0.05927,0.123065 -0.157247,0.239276 -0.293945,0.348633 -0.136739,0.109393 -0.314474,0.205096 -0.533204,0.287109 -0.218769,0.08205 -0.492206,0.136737 -0.820312,0.164063 -0.08205,0.01825 -0.271178,0.05243 -0.567383,0.102539 -0.296242,0.05015 -0.617531,0.104835 -0.963867,0.164062 -0.346371,0.05926 -0.674496,0.116229 -0.984375,0.170899 -0.309912,0.0547 -0.524105,0.09572 -0.642578,0.123047 l 0.01367,0 c -0.0547,0.0091 -0.184586,0.04331 -0.389649,0.102539 -0.205093,0.05926 -0.453465,0.127621 -0.745117,0.205078 -0.291681,0.07749 -0.608413,0.166358 -0.950195,0.266601 -0.341811,0.100277 -0.67905,0.198259 -1.011719,0.293946 -0.332695,0.09572 -0.640312,0.186865 -0.922852,0.273437 -0.282563,0.0866 -0.510428,0.157243 -0.683593,0.211914 -0.556001,0.218766 -0.991221,0.508154 -1.305664,0.868164 -0.314463,0.360041 -0.562835,0.763361 -0.745118,1.209961 -0.03647,0.08205 -0.09115,0.221042 -0.164062,0.416993 -0.07293,0.195976 -0.152678,0.419283 -0.239258,0.669921 -0.0866,0.250664 -0.180021,0.517265 -0.280273,0.799805 -0.100269,0.282564 -0.195972,0.551444 -0.28711,0.806641 -0.09115,0.255219 -0.170906,0.48764 -0.239257,0.697265 -0.06837,0.209646 -0.116219,0.364594 -0.143555,0.464844 -0.02735,0.09116 -0.04558,0.173187 -0.05469,0.246094 -0.0091,0.07293 -0.01368,0.127613 -0.01367,0.164062 -7e-6,0.0547 0.01366,0.08204 0.04102,0.08203 0.136711,9e-6 0.421541,-0.06151 0.854492,-0.184571 0.432934,-0.123037 0.938793,-0.275706 1.517578,-0.458008 0.578766,-0.182281 1.198557,-0.378244 1.859375,-0.58789 0.660795,-0.209625 1.294258,-0.405588 1.900391,-0.587891 0.606105,-0.18228 1.146144,-0.334949 1.620117,-0.458008 0.473943,-0.123035 0.815739,-0.184558 1.025391,-0.18457 0.318993,1.2e-5 0.533186,0.05242 0.642578,0.157227 0.109358,0.104829 0.164045,0.22104 0.164062,0.348632 -1.7e-5,0.328136 -0.116228,0.615245 -0.348632,0.861329 -0.232439,0.246103 -0.521827,0.460296 -0.868164,0.642578 -0.109391,0.0547 -0.312191,0.134449 -0.608399,0.239258 -0.296239,0.104827 -0.615249,0.211923 -0.957031,0.321289 -0.341811,0.109384 -0.667657,0.214201 -0.977539,0.314453 -0.309909,0.100269 -0.533216,0.173185 -0.669922,0.21875 -0.893241,0.346362 -1.620129,0.631193 -2.180664,0.854492 -0.560557,0.223315 -1.014007,0.405606 -1.360352,0.546875 -0.346363,0.141283 -0.612964,0.248379 -0.799804,0.321289 -0.186858,0.07292 -0.360035,0.134447 -0.519532,0.18457 -0.159513,0.05014 -0.334968,0.09799 -0.526367,0.143555 -0.191413,0.04558 -0.455736,0.109381 -0.792969,0.191406 -0.08204,0.191413 -0.177741,0.4808 -0.287109,0.868164 -0.109381,0.387375 -0.214199,0.788416 -0.314453,1.203125 -0.100267,0.414718 -0.184576,0.799808 -0.25293,1.155274 -0.06837,0.355471 -0.102545,0.601565 -0.102539,0.738281 -6e-6,0.164065 0.02278,0.284833 0.06836,0.362305 0.04557,0.07748 0.100254,0.129884 0.164062,0.157226 0.0638,0.02735 0.127598,0.04102 0.191406,0.04102 0.0638,2e-6 0.113926,2e-6 0.150391,0 0.437493,2e-6 0.96386,-0.0638 1.579102,-0.191406 0.615225,-0.127602 1.223623,-0.296222 1.825195,-0.50586 0.574208,-0.200518 1.07551,-0.419268 1.503906,-0.65625 0.428374,-0.236975 0.831694,-0.458004 1.209961,-0.663086 0.378242,-0.205074 0.747383,-0.378251 1.107422,-0.519531 0.360012,-0.141271 0.754217,-0.216467 1.182617,-0.225586 0.09113,5e-6 0.198227,0.0091 0.321289,0.02734 0.123032,0.01823 0.239243,0.05241 0.348633,0.102539 0.109359,0.05014 0.198226,0.116215 0.266602,0.198242 0.06834,0.08204 0.09341,0.186853 0.0752,0.314453 -0.03647,0.264327 -0.168636,0.524092 -0.396485,0.779297 -0.227879,0.255211 -0.514988,0.501305 -0.861328,0.738281 -0.346368,0.236982 -0.733737,0.464846 -1.162109,0.683594 -0.428398,0.218752 -0.865898,0.426108 -1.3125,0.62207 -0.446626,0.195965 -0.884126,0.373699 -1.3125,0.533204 -0.428396,0.159505 -0.811208,0.298502 -1.148438,0.416992 -0.83855,0.291666 -1.654304,0.505859 -2.447265,0.642578 -0.792975,0.136718 -1.503912,0.205077 -2.132813,0.205078 -0.692712,-10e-7 -1.223636,-0.129883 -1.592773,-0.389648 -0.369144,-0.259766 -0.553714,-0.69043 -0.553711,-1.291993 z"
       style="font-size:28px;fill:#e64b00;font-family:MV Boli;-inkscape-font-specification:MV Boli"
       id="path3117" />
    <path
       d="m 64.634766,25.525391 c 0.410151,-1.257805 0.802078,-2.465486 1.175781,-3.623047 0.373692,-1.15754 0.704095,-2.228503 0.991211,-3.212891 0.287102,-0.98436 0.514967,-1.854802 0.683594,-2.611328 0.168612,-0.756493 0.262036,-1.358055 0.280273,-1.804687 0.109367,-0.428367 0.303052,-0.770164 0.581055,-1.025391 0.277986,-0.255189 0.599275,-0.382793 0.963867,-0.382813 0.218741,2e-5 0.405589,0.05015 0.560547,0.150391 0.154938,0.10028 0.280263,0.232441 0.375976,0.396484 0.09569,0.164082 0.166331,0.348652 0.211914,0.553711 0.04556,0.205097 0.06835,0.412453 0.06836,0.622071 -1.1e-5,0.154965 -0.0091,0.296241 -0.02734,0.423828 -0.01824,0.127621 -0.04103,0.250668 -0.06836,0.36914 -0.209646,0.838558 -0.460297,1.704443 -0.751954,2.597657 -0.291675,0.893242 -0.590178,1.797864 -0.895507,2.713867 -0.305347,0.916026 -0.608407,1.83432 -0.90918,2.754883 -0.300789,0.920581 -0.569669,1.822924 -0.806641,2.707031 l -0.246093,0.929687 c -0.127611,0.473964 -0.236986,0.925135 -0.328125,1.353516 -0.09115,0.428389 -0.136725,0.774743 -0.136719,1.039062 -6e-6,0.145837 0.02734,0.262048 0.08203,0.348633 0.05468,0.08659 0.159499,0.129886 0.314453,0.129883 0.373691,3e-6 0.811191,-0.06152 1.3125,-0.18457 0.501294,-0.123044 1.020825,-0.273435 1.558594,-0.451172 0.53775,-0.177731 1.073232,-0.373694 1.606445,-0.587891 0.533192,-0.214188 1.0231,-0.416988 1.469727,-0.608398 0.236966,-0.100256 0.439766,-0.186844 0.608398,-0.259766 0.168607,-0.07291 0.378242,-0.161779 0.628907,-0.266601 0.250637,-0.104813 0.585597,-0.24381 1.004882,-0.416993 0.419256,-0.173171 0.998031,-0.414707 1.736328,-0.724609 0.127588,-0.04557 0.239242,-0.0843 0.334961,-0.116211 0.09569,-0.0319 0.184554,-0.04784 0.266602,-0.04785 0.145816,6e-6 0.271141,0.02735 0.375977,0.08203 0.1048,0.05469 0.186831,0.12761 0.246093,0.21875 0.05923,0.09115 0.102522,0.195969 0.129883,0.314453 0.02733,0.118495 0.041,0.236985 0.04102,0.355469 -1.8e-5,0.200526 -0.01597,0.375981 -0.04785,0.526367 -0.03192,0.150395 -0.0661,0.275721 -0.102539,0.375976 -0.109392,0.173182 -0.250668,0.330408 -0.423828,0.47168 -0.173194,0.14128 -0.355486,0.264327 -0.546875,0.369141 -0.191423,0.104821 -0.378272,0.193688 -0.560547,0.266601 -0.182308,0.07292 -0.332698,0.127608 -0.451172,0.164063 -0.145849,0.05469 -0.339533,0.127607 -0.581054,0.21875 -0.241552,0.09115 -0.503596,0.191409 -0.786133,0.300781 -0.282566,0.109378 -0.574233,0.221031 -0.875,0.334961 -0.300795,0.113935 -0.583347,0.221031 -0.847657,0.321289 -0.264335,0.100262 -0.499035,0.18913 -0.704101,0.266602 -0.20509,0.07747 -0.348644,0.129884 -0.430664,0.157226 -0.391938,0.145835 -0.827159,0.309897 -1.305664,0.492188 -0.478526,0.182292 -0.954762,0.355469 -1.428711,0.519531 -0.473967,0.164063 -0.92286,0.30306 -1.34668,0.416992 -0.423835,0.113932 -0.777025,0.170899 -1.05957,0.170899 -0.34636,0 -0.617519,-0.02734 -0.813477,-0.08203 -0.195969,-0.05469 -0.371424,-0.129882 -0.526367,-0.225586 -0.154953,-0.0957 -0.312179,-0.211913 -0.47168,-0.348632 -0.159509,-0.136718 -0.371423,-0.287109 -0.635742,-0.451172 -0.236983,-0.145832 -0.405602,-0.346353 -0.505859,-0.601563 -0.100264,-0.255206 -0.150394,-0.528643 -0.150391,-0.820312 -3e-6,-0.145831 0.01139,-0.314451 0.03418,-0.50586 0.02278,-0.191403 0.05241,-0.391923 0.08887,-0.601562 0.03645,-0.209632 0.07747,-0.41471 0.123047,-0.615235 0.04557,-0.200516 0.0957,-0.37825 0.150391,-0.533203 z"
       style="font-size:28px;fill:#e64b00;font-family:MV Boli;-inkscape-font-specification:MV Boli"
       id="path3119" />
    <path
       d="m 80.015625,31.568359 c -3e-6,-0.319009 0.04557,-0.656248 0.136719,-1.011718 0.309892,-1.23958 0.672197,-2.454097 1.086914,-3.643555 0.414709,-1.189446 0.790685,-2.372062 1.127929,-3.547852 0.337234,-1.17577 0.617508,-2.16698 0.840821,-2.973632 0.223301,-0.806628 0.421543,-1.499336 0.594726,-2.078125 0.173171,-0.578762 0.332676,-1.077785 0.478516,-1.497071 0.145826,-0.419254 0.305331,-0.833968 0.478516,-1.24414 0.109367,-0.246077 0.230135,-0.501285 0.362304,-0.765625 0.132154,-0.264305 0.275708,-0.50812 0.430664,-0.731446 0.15494,-0.223288 0.316723,-0.40558 0.485352,-0.546875 0.168611,-0.141257 0.344066,-0.211894 0.526367,-0.211914 0.373688,2e-5 0.658519,0.06154 0.854492,0.184571 0.195953,0.123065 0.316721,0.234719 0.362305,0.334961 l 0.123047,0.560546 c 0.136708,-0.0091 0.314442,-0.03416 0.533203,-0.07519 0.218738,-0.041 0.439767,-0.08429 0.663086,-0.129883 0.223295,-0.04555 0.430652,-0.09113 0.62207,-0.136718 0.191394,-0.04556 0.337227,-0.08657 0.4375,-0.123047 0.601549,-0.164044 1.157538,-0.30532 1.667969,-0.423828 0.510401,-0.118471 0.995752,-0.216453 1.456055,-0.293946 0.460269,-0.07745 0.900048,-0.13442 1.319336,-0.170898 0.419253,-0.03644 0.84308,-0.05467 1.271484,-0.05469 0.419252,2e-5 0.761048,0.02281 1.025391,0.06836 0.264302,0.04559 0.473938,0.107115 0.628906,0.18457 0.154927,0.07749 0.262023,0.168639 0.321289,0.273437 0.05922,0.104837 0.08885,0.216491 0.08887,0.334961 -2.1e-5,0.109394 -0.02964,0.225605 -0.08887,0.348633 -0.05927,0.123065 -0.157247,0.239276 -0.293945,0.348633 -0.136739,0.109393 -0.314474,0.205096 -0.533204,0.287109 -0.218769,0.08205 -0.492206,0.136737 -0.820312,0.164063 -0.08205,0.01825 -0.271178,0.05243 -0.567383,0.102539 -0.296242,0.05015 -0.617531,0.104835 -0.963867,0.164062 -0.346371,0.05926 -0.674496,0.116229 -0.984375,0.170899 -0.309912,0.0547 -0.524105,0.09572 -0.642578,0.123047 l 0.01367,0 c -0.0547,0.0091 -0.184586,0.04331 -0.389649,0.102539 -0.205093,0.05926 -0.453465,0.127621 -0.745117,0.205078 -0.291681,0.07749 -0.608413,0.166358 -0.950195,0.266601 -0.341811,0.100277 -0.67905,0.198259 -1.011719,0.293946 -0.332695,0.09572 -0.640312,0.186865 -0.922852,0.273437 -0.282563,0.0866 -0.510428,0.157243 -0.683593,0.211914 -0.556001,0.218766 -0.991221,0.508154 -1.305664,0.868164 -0.314463,0.360041 -0.562835,0.763361 -0.745118,1.209961 -0.03647,0.08205 -0.09115,0.221042 -0.164062,0.416993 -0.07293,0.195976 -0.152678,0.419283 -0.239258,0.669921 -0.0866,0.250664 -0.180021,0.517265 -0.280273,0.799805 -0.100269,0.282564 -0.195972,0.551444 -0.28711,0.806641 -0.09115,0.255219 -0.170906,0.48764 -0.239257,0.697265 -0.06837,0.209646 -0.116219,0.364594 -0.143555,0.464844 -0.02735,0.09116 -0.04558,0.173187 -0.05469,0.246094 -0.0091,0.07293 -0.01368,0.127613 -0.01367,0.164062 -7e-6,0.0547 0.01367,0.08204 0.04102,0.08203 0.136711,9e-6 0.421541,-0.06151 0.854492,-0.184571 0.432934,-0.123037 0.938793,-0.275706 1.517578,-0.458008 0.578766,-0.182281 1.198557,-0.378244 1.859375,-0.58789 0.660795,-0.209625 1.294258,-0.405588 1.900391,-0.587891 0.606105,-0.18228 1.146144,-0.334949 1.620117,-0.458008 0.473943,-0.123035 0.815739,-0.184558 1.025391,-0.18457 0.318993,1.2e-5 0.533186,0.05242 0.642578,0.157227 0.109358,0.104829 0.164045,0.22104 0.164062,0.348632 -1.7e-5,0.328136 -0.116228,0.615245 -0.348632,0.861329 -0.232439,0.246103 -0.521827,0.460296 -0.868164,0.642578 -0.109391,0.0547 -0.312191,0.134449 -0.608399,0.239258 -0.296239,0.104827 -0.615249,0.211923 -0.957031,0.321289 -0.341811,0.109384 -0.667657,0.214201 -0.977539,0.314453 -0.309909,0.100269 -0.533216,0.173185 -0.669922,0.21875 -0.893241,0.346362 -1.620129,0.631193 -2.180664,0.854492 -0.560557,0.223315 -1.014007,0.405606 -1.360352,0.546875 -0.346363,0.141283 -0.612964,0.248379 -0.799804,0.321289 -0.186858,0.07292 -0.360035,0.134447 -0.519532,0.18457 -0.159513,0.05014 -0.334968,0.09799 -0.526367,0.143555 -0.191413,0.04558 -0.455736,0.109381 -0.792969,0.191406 -0.08204,0.191413 -0.177741,0.4808 -0.287109,0.868164 -0.109381,0.387375 -0.214199,0.788416 -0.314453,1.203125 -0.100267,0.414718 -0.184576,0.799808 -0.25293,1.155274 -0.06837,0.355471 -0.102545,0.601565 -0.102539,0.738281 -6e-6,0.164065 0.02278,0.284833 0.06836,0.362305 0.04557,0.07748 0.100254,0.129884 0.164062,0.157226 0.0638,0.02735 0.127598,0.04102 0.191406,0.04102 0.0638,2e-6 0.113926,2e-6 0.150391,0 0.437493,2e-6 0.96386,-0.0638 1.579102,-0.191406 0.615225,-0.127602 1.223623,-0.296222 1.825195,-0.50586 0.574208,-0.200518 1.07551,-0.419268 1.503906,-0.65625 0.428374,-0.236975 0.831694,-0.458004 1.209961,-0.663086 0.378242,-0.205074 0.747383,-0.378251 1.107422,-0.519531 0.360012,-0.141271 0.754217,-0.216467 1.182617,-0.225586 0.09113,5e-6 0.198227,0.0091 0.321289,0.02734 0.123032,0.01823 0.239243,0.05241 0.348633,0.102539 0.109359,0.05014 0.198226,0.116215 0.266602,0.198242 0.06834,0.08204 0.09341,0.186853 0.07519,0.314453 -0.03647,0.264327 -0.168636,0.524092 -0.396485,0.779297 -0.227879,0.255211 -0.514988,0.501305 -0.861328,0.738281 -0.346368,0.236982 -0.733737,0.464846 -1.162109,0.683594 -0.428398,0.218752 -0.865898,0.426108 -1.3125,0.62207 -0.446626,0.195965 -0.884126,0.373699 -1.3125,0.533204 -0.428396,0.159505 -0.811208,0.298502 -1.148438,0.416992 -0.83855,0.291666 -1.654304,0.505859 -2.447265,0.642578 -0.792975,0.136718 -1.503912,0.205077 -2.132813,0.205078 -0.692712,-10e-7 -1.223636,-0.129883 -1.592773,-0.389648 -0.369144,-0.259766 -0.553714,-0.69043 -0.553711,-1.291993 z"
       style="font-size:28px;fill:#e64b00;font-family:MV Boli;-inkscape-font-specification:MV Boli"
       id="path3121" />
    <path
       d="m 97.214844,26.755859 c -3e-6,-0.528639 0.0638,-1.127922 0.191406,-1.797851 0.127601,-0.669914 0.350908,-1.319327 0.669922,-1.948242 0.437495,-0.87499 0.925125,-1.720367 1.46289,-2.536133 0.537758,-0.815742 1.089188,-1.567695 1.654298,-2.25586 0.5651,-0.688136 1.1302,-1.298812 1.69531,-1.832031 0.5651,-0.533186 1.10286,-0.950178 1.61328,-1.250976 l -0.0137,0.01367 c 0.319,-0.200504 0.65624,-0.410139 1.01172,-0.628907 0.35546,-0.218731 0.72004,-0.419252 1.09375,-0.601562 0.37368,-0.182273 0.75194,-0.332664 1.13477,-0.451172 0.38279,-0.11847 0.76105,-0.177715 1.13476,-0.177734 0.3828,1.9e-5 0.74738,0.07749 1.09375,0.232421 0.34634,0.154967 0.6494,0.366881 0.90918,0.635743 0.25975,0.268898 0.46483,0.581072 0.61524,0.936523 0.15037,0.355486 0.22556,0.733741 0.22558,1.134766 -2e-5,0.282568 -0.016,0.503596 -0.0478,0.663086 -0.0319,0.15952 -0.0821,0.280288 -0.15039,0.362304 -0.0684,0.08205 -0.15497,0.132177 -0.25977,0.150391 -0.10483,0.01824 -0.2256,0.02736 -0.3623,0.02734 -0.20054,1.5e-5 -0.35777,-0.04328 -0.47168,-0.129883 -0.11395,-0.08657 -0.2051,-0.191391 -0.27344,-0.314453 -0.0684,-0.123031 -0.12078,-0.25975 -0.15722,-0.410157 -0.0365,-0.150374 -0.0798,-0.287093 -0.12989,-0.410156 -0.0501,-0.12303 -0.11395,-0.227848 -0.1914,-0.314453 -0.0775,-0.08657 -0.18459,-0.129866 -0.32129,-0.129883 -0.3646,1.7e-5 -0.75881,0.08205 -1.18262,0.246094 -0.42384,0.164079 -0.85678,0.382829 -1.29883,0.65625 -0.44207,0.273453 -0.88413,0.585627 -1.32617,0.936523 -0.44207,0.350927 -0.86362,0.708674 -1.26465,1.073243 -0.40105,0.364597 -0.77247,0.724622 -1.11426,1.080078 -0.3418,0.355481 -0.63575,0.674491 -0.88183,0.957031 -0.36459,0.464855 -0.69728,0.936534 -0.99805,1.415039 -0.30079,0.478526 -0.56055,0.966155 -0.7793,1.462891 -0.21875,0.496753 -0.38737,1.007169 -0.505856,1.53125 -0.118495,0.524095 -0.17774,1.068691 -0.177734,1.633789 -6e-6,0.437505 0.06152,0.820317 0.18457,1.148437 0.12304,0.32813 0.25748,0.610681 0.40332,0.847656 0.17317,0.273442 0.38736,0.462569 0.64258,0.567383 0.2552,0.104821 0.56054,0.15723 0.91601,0.157227 0.77474,3e-6 1.49023,-0.07291 2.14649,-0.21875 0.65624,-0.14583 1.28514,-0.341793 1.88672,-0.587891 0.60155,-0.246089 1.18944,-0.537756 1.76367,-0.875 0.5742,-0.337234 1.16665,-0.69726 1.77734,-1.080078 l 0.35547,0 c 0.11848,6e-6 0.23924,0.03191 0.36231,0.0957 0.12303,0.06381 0.2324,0.145839 0.32812,0.246094 0.0957,0.100266 0.17316,0.214198 0.23242,0.341797 0.0592,0.127609 0.0888,0.25977 0.0889,0.396484 -2e-5,0.300786 -0.11851,0.599288 -0.35547,0.895508 -0.23699,0.296228 -0.54005,0.578779 -0.90918,0.847656 -0.36915,0.268883 -0.78615,0.521813 -1.25097,0.758789 -0.46486,0.236982 -0.92287,0.446617 -1.37403,0.628907 -0.45118,0.182293 -0.87273,0.337241 -1.26465,0.464843 -0.39193,0.127606 -0.70639,0.214194 -0.94336,0.259766 -0.20053,0.04557 -0.39421,0.08887 -0.58105,0.129883 -0.18686,0.04102 -0.40789,0.08203 -0.66309,0.123047 -0.25521,0.04102 -0.56055,0.07292 -0.91601,0.0957 -0.35548,0.02279 -0.80209,0.03418 -1.33985,0.03418 -0.32813,10e-7 -0.62891,-0.05241 -0.90234,-0.157226 C 100.12695,31.730144 99.883132,31.607097 99.668945,31.46582 99.454747,31.324546 99.272456,31.176434 99.12207,31.021484 98.971675,30.866538 98.850907,30.734377 98.759766,30.625 98.222001,29.996096 97.830074,29.376305 97.583984,28.765625 97.337887,28.154952 97.214841,27.485031 97.214844,26.755859 z"
       style="font-size:28px;fill:#e64b00;font-family:MV Boli;-inkscape-font-specification:MV Boli"
       id="path3123" />
    <path
       d="m 113.89453,26.755859 c 0,-0.528639 0.0638,-1.127922 0.19141,-1.797851 0.1276,-0.669914 0.35091,-1.319327 0.66992,-1.948242 0.43749,-0.87499 0.92512,-1.720367 1.46289,-2.536133 0.53775,-0.815742 1.08919,-1.567695 1.6543,-2.25586 0.56509,-0.688136 1.1302,-1.298812 1.69531,-1.832031 0.56509,-0.533186 1.10285,-0.950178 1.61328,-1.250976 l -0.0137,0.01367 c 0.319,-0.200504 0.65624,-0.410139 1.01172,-0.628907 0.35545,-0.218731 0.72004,-0.419252 1.09375,-0.601562 0.37368,-0.182273 0.75194,-0.332664 1.13476,-0.451172 0.3828,-0.11847 0.76106,-0.177715 1.13477,-0.177734 0.3828,1.9e-5 0.74738,0.07749 1.09375,0.232421 0.34634,0.154967 0.6494,0.366881 0.90918,0.635743 0.25975,0.268898 0.46482,0.581072 0.61523,0.936523 0.15038,0.355486 0.22557,0.733741 0.22559,1.134766 -2e-5,0.282568 -0.016,0.503596 -0.0479,0.663086 -0.0319,0.15952 -0.082,0.280288 -0.15039,0.362304 -0.0684,0.08205 -0.15497,0.132177 -0.25977,0.150391 -0.10483,0.01824 -0.2256,0.02736 -0.3623,0.02734 -0.20054,1.5e-5 -0.35777,-0.04328 -0.47168,-0.129883 -0.11395,-0.08657 -0.2051,-0.191391 -0.27344,-0.314453 -0.0684,-0.123031 -0.12079,-0.25975 -0.15723,-0.410157 -0.0365,-0.150374 -0.0798,-0.287093 -0.12988,-0.410156 -0.0502,-0.12303 -0.11395,-0.227848 -0.19141,-0.314453 -0.0775,-0.08657 -0.18458,-0.129866 -0.32129,-0.129883 -0.36459,1.7e-5 -0.7588,0.08205 -1.18261,0.246094 -0.42384,0.164079 -0.85679,0.382829 -1.29883,0.65625 -0.44207,0.273453 -0.88413,0.585627 -1.32617,0.936523 -0.44207,0.350927 -0.86362,0.708674 -1.26465,1.073243 -0.40105,0.364597 -0.77247,0.724622 -1.11426,1.080078 -0.3418,0.355481 -0.63575,0.674491 -0.88183,0.957031 -0.3646,0.464855 -0.69728,0.936534 -0.99805,1.415039 -0.30079,0.478526 -0.56056,0.966155 -0.7793,1.462891 -0.21876,0.496753 -0.38737,1.007169 -0.50586,1.53125 -0.11849,0.524095 -0.17774,1.068691 -0.17773,1.633789 -10e-6,0.437505 0.0615,0.820317 0.18457,1.148437 0.12304,0.32813 0.25748,0.610681 0.40332,0.847656 0.17317,0.273442 0.38736,0.462569 0.64258,0.567383 0.2552,0.104821 0.56054,0.15723 0.91601,0.157227 0.77473,3e-6 1.49023,-0.07291 2.14649,-0.21875 0.65624,-0.14583 1.28514,-0.341793 1.88672,-0.587891 0.60154,-0.246089 1.18943,-0.537756 1.76367,-0.875 0.5742,-0.337234 1.16665,-0.69726 1.77734,-1.080078 l 0.35547,0 c 0.11847,6e-6 0.23924,0.03191 0.3623,0.0957 0.12303,0.06381 0.23241,0.145839 0.32813,0.246094 0.0957,0.100266 0.17316,0.214198 0.23242,0.341797 0.0592,0.127609 0.0889,0.25977 0.0889,0.396484 -2e-5,0.300786 -0.11851,0.599288 -0.35547,0.895508 -0.237,0.296228 -0.54006,0.578779 -0.90918,0.847656 -0.36916,0.268883 -0.78615,0.521813 -1.25098,0.758789 -0.46485,0.236982 -0.92286,0.446617 -1.37402,0.628907 -0.45118,0.182293 -0.87273,0.337241 -1.26465,0.464843 -0.39194,0.127606 -0.70639,0.214194 -0.94336,0.259766 -0.20053,0.04557 -0.39421,0.08887 -0.58105,0.129883 -0.18686,0.04102 -0.40789,0.08203 -0.66309,0.123047 -0.25522,0.04102 -0.56055,0.07292 -0.91601,0.0957 -0.35548,0.02279 -0.8021,0.03418 -1.33985,0.03418 -0.32813,10e-7 -0.62891,-0.05241 -0.90234,-0.157226 -0.27345,-0.104817 -0.51726,-0.227864 -0.73145,-0.369141 -0.2142,-0.141274 -0.39649,-0.289386 -0.54687,-0.444336 -0.1504,-0.154946 -0.27117,-0.287107 -0.36231,-0.396484 -0.53776,-0.628904 -0.92969,-1.248695 -1.17578,-1.859375 -0.2461,-0.610673 -0.36914,-1.280594 -0.36914,-2.009766 z"
       style="font-size:28px;fill:#e64b00;font-family:MV Boli;-inkscape-font-specification:MV Boli"
       id="path3125" />
    <path
       d="m 132.03711,24.732422 c 0.082,-0.355461 0.18001,-0.749666 0.29394,-1.182617 0.11393,-0.432934 0.23698,-0.881826 0.36915,-1.34668 0.13215,-0.464833 0.26659,-0.934233 0.40332,-1.408203 0.13671,-0.473946 0.27115,-0.929675 0.40332,-1.367188 0.13215,-0.437486 0.25292,-0.845363 0.3623,-1.223632 0.10937,-0.378241 0.20507,-0.69953 0.28711,-0.963868 0.17317,-0.592432 0.33723,-1.187158 0.49219,-1.784179 0.15494,-0.596988 0.30533,-1.223615 0.45117,-1.879883 0.18228,-0.35545 0.42838,-0.608379 0.73828,-0.758789 0.30989,-0.150371 0.64713,-0.225566 1.01172,-0.225586 0.29166,0.154968 0.5218,0.366881 0.69043,0.635742 0.16861,0.268899 0.25292,0.571959 0.25293,0.90918 -1e-5,0.236997 -0.0387,0.508156 -0.11621,0.813476 -0.0775,0.305356 -0.17547,0.633481 -0.29395,0.984375 -0.1185,0.350928 -0.25066,0.720068 -0.39648,1.107422 -0.14584,0.387385 -0.28712,0.786148 -0.42383,1.196289 -0.25522,0.74741 -0.51043,1.494805 -0.76563,2.242188 -0.25521,0.747407 -0.50586,1.535818 -0.75195,2.365234 -0.0638,0.21876 -0.13217,0.437509 -0.20508,0.65625 -0.0729,0.218759 -0.14812,0.455738 -0.22558,0.710938 -0.0775,0.255216 -0.16179,0.540047 -0.25293,0.854492 -0.0911,0.31446 -0.1823,0.676764 -0.27344,1.086914 -0.10938,0.483079 -0.20508,0.96843 -0.28711,1.456055 -0.082,0.487634 -0.15951,0.977543 -0.23242,1.469726 -0.0729,0.492191 -0.15495,0.988935 -0.24609,1.490234 -0.0912,0.501304 -0.20053,1.007163 -0.32813,1.517579 -0.0456,0.182292 -0.12533,0.344075 -0.23926,0.485351 -0.11393,0.141276 -0.24382,0.262044 -0.38965,0.362305 -0.14583,0.10026 -0.30078,0.177734 -0.46484,0.232422 -0.16407,0.05469 -0.31901,0.08203 -0.46484,0.08203 -0.14584,-10e-7 -0.28484,-0.01139 -0.417,-0.03418 -0.13216,-0.02279 -0.2347,-0.0752 -0.30761,-0.157226 -0.10938,-0.11849 -0.19597,-0.250652 -0.25977,-0.396485 -0.0638,-0.145833 -0.0957,-0.300781 -0.0957,-0.464843 0,-0.04557 0.002,-0.08887 0.007,-0.129883 0.005,-0.04102 0.0114,-0.08431 0.0205,-0.129883 z"
       style="font-size:28px;fill:#e64b00;font-family:MV Boli;-inkscape-font-specification:MV Boli"
       id="path3127" />
    <path
       d="m 138.68164,25.621094 c 0.16406,-0.683586 0.40104,-1.38313 0.71094,-2.098633 0.30989,-0.715485 0.67447,-1.433258 1.09375,-2.15332 0.41926,-0.720041 0.88639,-1.428699 1.40137,-2.125977 0.51496,-0.697252 1.06184,-1.37173 1.64062,-2.023437 0.57877,-0.651677 1.17577,-1.266911 1.79102,-1.845704 0.61522,-0.578758 1.23273,-1.109682 1.85253,-1.592773 0.29166,-0.200502 0.56054,-0.332663 0.80665,-0.396484 0.24608,-0.06378 0.50584,-0.09568 0.77929,-0.0957 0.29166,1.9e-5 0.55142,0.04331 0.7793,0.129882 0.22785,0.08661 0.45571,0.243834 0.68359,0.47168 0.0729,0.08205 0.15038,0.154966 0.23242,0.21875 0.082,0.06382 0.1595,0.09572 0.23243,0.0957 0.0182,1.9e-5 0.041,-0.02049 0.0684,-0.06152 0.0273,-0.041 0.057,-0.08885 0.0889,-0.143555 0.0319,-0.05467 0.0706,-0.111635 0.11621,-0.170898 0.0456,-0.05923 0.10025,-0.102521 0.16407,-0.129883 0.15493,-0.0729 0.3395,-0.120749 0.55371,-0.143555 0.21417,-0.02277 0.43065,-0.03416 0.64941,-0.03418 0.41014,1.9e-5 0.80662,0.07522 1.18945,0.225586 0.3828,0.15041 0.72004,0.362323 1.01172,0.635743 0.69269,0.647152 1.21906,1.421891 1.57911,2.324218 0.36,0.902359 0.54001,1.873061 0.54003,2.91211 -2e-5,0.929699 -0.13674,1.932302 -0.41015,3.007812 -0.237,0.947926 -0.57652,1.868498 -1.01856,2.761719 -0.44207,0.893235 -0.9616,1.731776 -1.55859,2.515625 -0.59702,0.783858 -1.26239,1.499352 -1.99609,2.146484 -0.73374,0.647138 -1.51532,1.203127 -2.34473,1.667969 -0.82944,0.464844 -1.69533,0.827148 -2.59766,1.086914 -0.90235,0.259765 -1.81837,0.389648 -2.74804,0.389648 -0.8659,0 -1.64291,-0.132161 -2.33106,-0.396484 -0.68815,-0.264323 -1.27149,-0.63802 -1.75,-1.121094 -0.47852,-0.483071 -0.8431,-1.057289 -1.09375,-1.722656 -0.25065,-0.665361 -0.37598,-1.403642 -0.37598,-2.214844 0,-0.346349 0.0205,-0.694981 0.0615,-1.045898 0.041,-0.350905 0.10709,-0.708652 0.19824,-1.073242 z m 2.31055,0.916015 c -0.10027,0.455735 -0.1504,0.865891 -0.15039,1.230469 -1e-5,0.510421 0.0889,0.959314 0.2666,1.34668 0.17773,0.387373 0.42838,0.71094 0.75195,0.970703 0.32356,0.259768 0.71093,0.455731 1.16211,0.587891 0.45116,0.132163 0.94563,0.198243 1.4834,0.198242 0.63801,1e-6 1.28742,-0.100259 1.94824,-0.300782 0.6608,-0.200518 1.30565,-0.492184 1.93457,-0.875 0.62889,-0.382809 1.23501,-0.843095 1.81836,-1.380859 0.58332,-0.537755 1.12336,-1.148432 1.62012,-1.832031 0.49673,-0.683587 0.93878,-1.426425 1.32617,-2.228516 0.38735,-0.802074 0.69953,-1.654287 0.93652,-2.55664 0.0911,-0.328114 0.15721,-0.669911 0.19825,-1.025391 0.041,-0.355456 0.0615,-0.697253 0.0615,-1.025391 -2e-5,-0.528632 -0.0593,-1.034491 -0.17774,-1.517578 -0.1185,-0.483058 -0.31447,-0.911443 -0.58789,-1.285156 -0.27345,-0.373682 -0.63348,-0.672184 -1.08007,-0.895508 -0.44663,-0.22329 -0.99351,-0.334944 -1.64063,-0.334961 -0.0912,1.7e-5 -0.1618,0.03875 -0.21191,0.116211 -0.0501,0.07749 -0.10256,0.175473 -0.15723,0.293945 -0.0456,0.100277 -0.098,0.205095 -0.15723,0.314454 -0.0593,0.109391 -0.13673,0.207372 -0.23242,0.293945 -0.0957,0.0866 -0.2142,0.157242 -0.35547,0.211914 -0.14129,0.0547 -0.31674,0.08205 -0.52636,0.08203 -0.15497,1.6e-5 -0.29168,-0.03416 -0.41016,-0.102539 -0.1185,-0.06834 -0.23699,-0.161768 -0.35547,-0.280273 -0.0547,-0.05467 -0.10027,-0.09797 -0.13672,-0.129883 -0.0365,-0.03188 -0.0775,-0.04783 -0.12304,-0.04785 -0.0821,1.7e-5 -0.18914,0.03647 -0.32129,0.109375 -0.13218,0.07293 -0.2689,0.159522 -0.41016,0.259766 -0.14129,0.100276 -0.27801,0.205094 -0.41016,0.314453 -0.13217,0.109391 -0.23471,0.205094 -0.30761,0.287109 -0.61981,0.638036 -1.23732,1.333022 -1.85254,2.084961 -0.61525,0.751966 -1.18263,1.528983 -1.70215,2.331055 -0.51954,0.802093 -0.97299,1.611012 -1.36035,2.426758 -0.38738,0.815763 -0.66765,1.601895 -0.84082,2.358398 z"
       style="font-size:28px;fill:#e64b00;font-family:MV Boli;-inkscape-font-specification:MV Boli"
       id="path3129" />
    <path
       d="m 162.67578,16.037109 c 0.0547,-0.236962 0.12304,-0.489891 0.20508,-0.758789 0.082,-0.268862 0.1914,-0.514956 0.32812,-0.738281 0.13672,-0.223289 0.31445,-0.410138 0.53321,-0.560547 0.21874,-0.150372 0.49673,-0.225567 0.83398,-0.225586 0.319,1.9e-5 0.60383,0.08889 0.85449,0.266602 0.25064,0.177753 0.47623,0.357765 0.67676,0.540039 0.23697,0.154966 0.46483,0.469418 0.6836,0.943359 0.21873,0.473975 0.44432,1.057308 0.67675,1.75 0.23241,0.692723 0.48306,1.476577 0.75196,2.351563 0.26886,0.875012 0.56509,1.791027 0.88867,2.748047 0.32355,0.95704 0.68586,1.934578 1.08691,2.932617 0.40103,0.998053 0.85676,1.971034 1.36719,2.918945 0.082,0.145838 0.17772,0.316736 0.28711,0.512695 0.10936,0.195968 0.22101,0.380538 0.33496,0.553711 0.11392,0.173181 0.21873,0.319014 0.31445,0.4375 0.0957,0.118493 0.16633,0.177737 0.21192,0.177735 0.0273,2e-6 0.0592,-0.06836 0.0957,-0.205078 0.0364,-0.136716 0.0775,-0.300778 0.12305,-0.492188 0.0456,-0.191403 0.0934,-0.387366 0.14355,-0.587891 0.0501,-0.200516 0.098,-0.364578 0.14356,-0.492187 0.17316,-0.419266 0.36228,-0.90006 0.56738,-1.442383 0.20506,-0.542311 0.43292,-1.19856 0.68359,-1.96875 0.25064,-0.770173 0.52635,-1.68391 0.82715,-2.741211 0.30076,-1.05728 0.63345,-2.310534 0.99805,-3.759765 0.0911,-0.355454 0.18911,-0.758774 0.29394,-1.209961 0.1048,-0.451156 0.20506,-0.911442 0.30079,-1.38086 0.0957,-0.469383 0.17999,-0.927391 0.25292,-1.374023 0.0729,-0.446596 0.12303,-0.833965 0.1504,-1.162109 -3e-5,-0.05467 0.005,-0.150371 0.0137,-0.28711 0.009,-0.136699 0.025,-0.291646 0.0479,-0.464844 0.0228,-0.173156 0.0524,-0.353169 0.0889,-0.540039 0.0364,-0.186828 0.0843,-0.357726 0.14355,-0.512695 0.0592,-0.154926 0.13442,-0.28253 0.22559,-0.382812 0.0911,-0.100239 0.2005,-0.150369 0.32812,-0.150391 0.12758,2.2e-5 0.28481,0.01825 0.47168,0.05469 0.18683,0.03648 0.35773,0.09117 0.5127,0.164063 0.17315,0.237 0.33038,0.521831 0.47168,0.854492 0.14125,0.332703 0.21189,0.781596 0.21191,1.34668 -2e-5,0.355488 -0.0365,0.781594 -0.10937,1.27832 -0.0729,0.496763 -0.16637,1.029965 -0.28028,1.599609 -0.11395,0.569678 -0.24156,1.155289 -0.38281,1.756836 -0.1413,0.601577 -0.28485,1.178074 -0.43066,1.729493 -0.14586,0.551444 -0.28486,1.057303 -0.417,1.517578 -0.13218,0.460297 -0.24383,0.840831 -0.33496,1.141601 -0.16408,0.528656 -0.33498,1.073252 -0.51269,1.633789 -0.17776,0.560555 -0.37372,1.148445 -0.58789,1.763672 -0.21422,0.615241 -0.44664,1.266933 -0.69727,1.955078 -0.25067,0.688156 -0.53094,1.424158 -0.84082,2.208008 -0.13674,0.355471 -0.29396,0.71094 -0.47168,1.066406 -0.17775,0.355471 -0.38055,0.676759 -0.6084,0.963868 -0.22788,0.287109 -0.48537,0.519531 -0.77246,0.697265 -0.28713,0.177735 -0.60841,0.266602 -0.96387,0.266602 -0.20965,0 -0.42612,-0.02962 -0.64941,-0.08887 -0.22332,-0.05924 -0.41245,-0.180013 -0.56738,-0.362305 -0.74741,-0.865884 -1.41278,-1.84798 -1.9961,-2.946289 -0.58334,-1.098303 -1.10515,-2.246739 -1.56543,-3.445313 -0.46029,-1.19856 -0.86817,-2.410798 -1.22363,-3.636718 -0.35548,-1.2259 -0.67905,-2.399402 -0.9707,-3.520508 l -0.082,-0.314453 c -0.0365,-0.12759 -0.0707,-0.257473 -0.10254,-0.389649 -0.0319,-0.132147 -0.0638,-0.252915 -0.0957,-0.362305 -0.0319,-0.109359 -0.0684,-0.198227 -0.10937,-0.266601 -0.041,-0.06834 -0.0889,-0.102524 -0.14356,-0.102539 -0.0547,1.5e-5 -0.12305,0.100275 -0.20507,0.300781 -0.082,0.200536 -0.16407,0.426121 -0.2461,0.676758 -0.082,0.250665 -0.15723,0.49448 -0.22558,0.731445 -0.0684,0.236993 -0.11167,0.387383 -0.12989,0.451172 -0.0638,0.236992 -0.15951,0.57651 -0.28711,1.018555 -0.12761,0.442069 -0.27116,0.941092 -0.43066,1.49707 -0.15951,0.556 -0.33269,1.14389 -0.51953,1.763672 -0.18686,0.6198 -0.36687,1.219083 -0.54004,1.797852 -0.17318,0.578782 -0.33725,1.114263 -0.49219,1.606445 -0.15495,0.492192 -0.28255,0.888676 -0.38281,1.189453 -0.082,0.236983 -0.1823,0.542321 -0.30078,0.916016 -0.1185,0.373701 -0.23699,0.749677 -0.35547,1.127929 -0.11849,0.378257 -0.22787,0.722333 -0.32812,1.032227 -0.10027,0.309897 -0.16407,0.514974 -0.19141,0.615234 -0.10938,0.346355 -0.27116,0.608399 -0.48535,0.786133 -0.2142,0.177734 -0.43067,0.266601 -0.64942,0.266602 -0.13672,-10e-7 -0.27344,-0.04785 -0.41015,-0.143555 -0.13672,-0.0957 -0.25749,-0.211914 -0.36231,-0.348633 -0.10482,-0.136718 -0.19141,-0.28483 -0.25976,-0.444336 -0.0684,-0.159504 -0.10254,-0.303059 -0.10254,-0.430664 0,-0.07292 0.0228,-0.189126 0.0684,-0.348633 0.0456,-0.159504 0.11848,-0.430662 0.21875,-0.813476 l 0.35547,-1.408203 z"
       style="font-size:28px;fill:#e64b00;font-family:MV Boli;-inkscape-font-specification:MV Boli"
       id="path3131" />
    <path
       d="m 192.54883,32.730469 c -0.19142,0 -0.36004,-0.03646 -0.50586,-0.109375 -0.14585,-0.07292 -0.26662,-0.16862 -0.36231,-0.28711 -0.0957,-0.118489 -0.16863,-0.255207 -0.21875,-0.410156 -0.0501,-0.154947 -0.0752,-0.309895 -0.0752,-0.464844 -2e-5,-0.136717 0.0364,-0.325845 0.10937,-0.567382 0.0729,-0.241535 0.16633,-0.512694 0.28028,-0.813477 0.11392,-0.300778 0.23924,-0.615231 0.37597,-0.943359 0.13671,-0.328122 0.26887,-0.642574 0.39649,-0.94336 0.12759,-0.300776 0.23696,-0.578771 0.32812,-0.833984 0.0911,-0.255203 0.15494,-0.455724 0.19141,-0.601563 0.0364,-0.164056 0.082,-0.360019 0.13672,-0.58789 0.0547,-0.227858 0.11619,-0.47623 0.18457,-0.745117 0.0683,-0.268873 0.1367,-0.551425 0.20508,-0.847657 0.0683,-0.296215 0.13898,-0.594718 0.21191,-0.895508 -0.12762,0.02735 -0.28485,0.05242 -0.47168,0.0752 -0.18686,0.0228 -0.38511,0.0433 -0.59473,0.06152 -0.30079,0.02735 -0.59702,0.06837 -0.88867,0.123047 -0.29168,0.0547 -0.59018,0.11622 -0.89551,0.18457 -0.30535,0.06837 -0.62208,0.141285 -0.95019,0.21875 -0.32814,0.07748 -0.67905,0.157235 -1.05274,0.239258 -0.54688,0.118498 -1.09376,0.250659 -1.64062,0.396485 -0.54688,0.14584 -1.11655,0.218757 -1.70898,0.21875 -0.1823,7e-6 -0.35092,-0.04784 -0.50586,-0.143555 -0.15496,-0.0957 -0.32814,-0.166334 -0.51954,-0.211914 -0.18229,0.291674 -0.35547,0.603848 -0.51953,0.936523 -0.16407,0.332689 -0.31446,0.674486 -0.45117,1.025391 -0.13672,0.350917 -0.25977,0.697271 -0.36914,1.039062 -0.10938,0.341802 -0.20508,0.66309 -0.28711,0.963868 -0.0456,0.164066 -0.0843,0.37598 -0.11621,0.635742 -0.0319,0.259768 -0.0615,0.524091 -0.0889,0.792969 -0.0274,0.268882 -0.0547,0.526369 -0.082,0.77246 -0.0274,0.246096 -0.0547,0.442059 -0.082,0.587891 -0.0274,0.13672 -0.082,0.27116 -0.16406,0.40332 -0.082,0.132162 -0.1823,0.25293 -0.30078,0.362305 -0.1185,0.109375 -0.25066,0.198242 -0.39649,0.266602 -0.14583,0.06836 -0.29167,0.102539 -0.4375,0.102539 -0.25521,0 -0.46257,-0.0752 -0.62207,-0.225586 -0.15951,-0.150391 -0.28711,-0.337239 -0.38281,-0.560547 -0.0957,-0.223306 -0.16179,-0.467121 -0.19824,-0.731445 -0.0365,-0.264322 -0.0547,-0.505858 -0.0547,-0.72461 0,-0.555987 0.0684,-1.132484 0.20508,-1.729492 0.13671,-0.597001 0.32128,-1.20312 0.55371,-1.818359 0.23242,-0.615228 0.50586,-1.235019 0.82031,-1.859375 0.31445,-0.624341 0.65397,-1.246411 1.01856,-1.866211 0.30077,-0.55598 0.67447,-1.198557 1.12109,-1.927735 0.44661,-0.729154 0.94563,-1.478828 1.49707,-2.249023 0.55143,-0.770168 1.14843,-1.524399 1.79102,-2.262695 0.64256,-0.738265 1.31021,-1.396793 2.00293,-1.975586 0.69269,-0.578758 1.40363,-1.04588 2.13281,-1.401367 0.72915,-0.35545 1.45376,-0.533184 2.17383,-0.533204 0.75649,2e-5 1.38768,0.136739 1.89355,0.410157 0.50584,0.273456 0.90916,0.642596 1.20996,1.107422 0.30076,0.464861 0.51268,1.007178 0.63574,1.626953 0.12303,0.619807 0.18456,1.276057 0.18457,1.96875 -1e-5,0.610691 -0.0388,1.239596 -0.11621,1.886718 -0.0775,0.647148 -0.17319,1.280611 -0.28711,1.900391 -0.11395,0.619802 -0.23699,1.216806 -0.36914,1.791016 -0.13218,0.574227 -0.25294,1.093758 -0.3623,1.558593 l -0.47852,1.859375 c -0.0182,0.05469 -0.0524,0.164068 -0.10254,0.328125 -0.0501,0.164068 -0.11395,0.36231 -0.1914,0.594727 -0.0775,0.232426 -0.16408,0.483077 -0.25977,0.751953 -0.0957,0.268884 -0.19142,0.533207 -0.28711,0.792969 -0.0957,0.259768 -0.18686,0.499026 -0.27343,0.717773 -0.0866,0.218752 -0.1618,0.396487 -0.22559,0.533203 l 0.0137,-0.01367 c -0.0638,0.236981 -0.13218,0.478518 -0.20508,0.72461 -0.0729,0.246095 -0.17319,0.467123 -0.30078,0.663086 -0.12762,0.195964 -0.29168,0.355469 -0.49219,0.478515 -0.20053,0.123047 -0.4603,0.184571 -0.77929,0.184571 z m 0.69726,-17.117188 c -0.41017,1.7e-5 -0.81804,0.08433 -1.22363,0.25293 -0.40561,0.168636 -0.80437,0.389665 -1.19629,0.663086 -0.39194,0.273453 -0.77247,0.592463 -1.1416,0.957031 -0.36915,0.364598 -0.72006,0.738296 -1.05273,1.121094 -0.3327,0.382826 -0.64487,0.767917 -0.93653,1.155273 -0.29167,0.387383 -0.556,0.74513 -0.79297,1.073242 -0.0365,0.0547 -0.0843,0.125338 -0.14355,0.211915 -0.0592,0.0866 -0.1185,0.182303 -0.17774,0.287109 -0.0592,0.104829 -0.11622,0.214204 -0.17089,0.328125 -0.0547,0.113943 -0.10027,0.216482 -0.13672,0.307617 l 1.4082,0 c 0.51041,1.1e-5 1.09374,-0.03645 1.75,-0.109375 0.65624,-0.07291 1.30565,-0.159494 1.94824,-0.259766 0.64257,-0.100249 1.23274,-0.202788 1.77051,-0.307617 0.53774,-0.104806 0.94334,-0.184559 1.2168,-0.239258 0.0364,-0.118477 0.0706,-0.277982 0.10254,-0.478515 0.0319,-0.200509 0.0615,-0.423816 0.0889,-0.669922 0.0273,-0.246081 0.0478,-0.508125 0.0615,-0.786133 0.0137,-0.277981 0.0205,-0.562811 0.0205,-0.854492 -1e-5,-0.236965 -0.009,-0.508123 -0.0273,-0.813477 -0.0182,-0.305323 -0.0729,-0.59471 -0.16406,-0.868164 -0.0912,-0.273421 -0.23016,-0.503564 -0.41699,-0.690429 -0.18687,-0.186832 -0.44891,-0.280257 -0.78614,-0.280274 z"
       style="font-size:28px;fill:#e64b00;font-family:MV Boli;-inkscape-font-specification:MV Boli"
       id="path3133" />
    <path
       d="m 228.68359,26.003906 c 0.20052,-0.920565 0.41699,-1.743155 0.64942,-2.467773 0.23241,-0.7246 0.46256,-1.399078 0.69043,-2.023438 0.22786,-0.624337 0.44433,-1.221342 0.64941,-1.791015 0.20507,-0.569648 0.38509,-1.159817 0.54004,-1.770508 l 0.16406,-0.65625 c 0.0365,-0.164047 0.0684,-0.369125 0.0957,-0.615235 0.0273,-0.246077 0.057,-0.503564 0.0889,-0.77246 0.0319,-0.268864 0.0752,-0.535465 0.12989,-0.799805 0.0547,-0.264305 0.13443,-0.501284 0.23925,-0.710938 0.10481,-0.209617 0.23925,-0.380515 0.40332,-0.512695 0.16406,-0.132143 0.37369,-0.198223 0.62891,-0.198242 0.28254,1.9e-5 0.5218,0.05015 0.71777,0.150391 0.19596,0.100279 0.35318,0.23244 0.47168,0.396484 0.11848,0.164081 0.20507,0.353208 0.25977,0.567383 0.0547,0.21421 0.082,0.435238 0.082,0.663086 -10e-6,0.191423 -0.0114,0.382829 -0.0342,0.574218 -0.0228,0.191423 -0.057,0.369157 -0.10254,0.533203 -0.10027,0.410172 -0.26433,0.888687 -0.49219,1.435547 -0.22787,0.546889 -0.47852,1.15073 -0.75195,1.811524 -0.27344,0.660819 -0.55144,1.376313 -0.83398,2.146484 -0.28256,0.770192 -0.53321,1.583668 -0.75196,2.44043 -0.12761,0.48308 -0.23926,1.011726 -0.33496,1.585937 -0.0957,0.574225 -0.14356,1.093756 -0.14355,1.558594 -1e-5,0.373703 0.0319,0.726892 0.0957,1.05957 0.0638,0.332686 0.17773,0.624353 0.3418,0.875 0.16405,0.250654 0.38508,0.448896 0.66308,0.594727 0.27799,0.145836 0.63118,0.218752 1.05957,0.21875 0.32812,2e-6 0.66764,-0.02734 1.01856,-0.08203 0.3509,-0.05468 0.76789,-0.186847 1.25098,-0.396485 0.71092,-0.319007 1.38312,-0.731441 2.0166,-1.237304 0.63345,-0.505855 1.22134,-1.082352 1.76367,-1.729493 0.5423,-0.647129 1.0436,-1.344393 1.50391,-2.091796 0.46026,-0.747388 0.87726,-1.522126 1.25097,-2.324219 0.37368,-0.802073 0.70409,-1.61327 0.99121,-2.433594 0.28709,-0.820299 0.53091,-1.626939 0.73145,-2.419922 0.082,-0.337224 0.14581,-0.653955 0.1914,-0.950195 0.0456,-0.296208 0.0797,-0.599267 0.10254,-0.90918 0.0228,-0.309878 0.041,-0.64256 0.0547,-0.998047 0.0137,-0.35545 0.0387,-0.761049 0.0752,-1.216796 0.0273,-0.364564 0.12986,-0.681296 0.30761,-0.950196 0.17772,-0.26886 0.44888,-0.4033 0.81348,-0.40332 0.22784,2e-5 0.42609,0.09117 0.59473,0.273437 0.16859,0.182312 0.30759,0.407898 0.41699,0.676758 0.10935,0.2689 0.19138,0.55373 0.24609,0.854492 0.0547,0.3008 0.082,0.56968 0.082,0.806641 -2e-5,0.455747 -0.0456,0.947934 -0.13672,1.476562 -0.0912,0.528662 -0.20054,1.034521 -0.32812,1.517579 -0.26434,1.04819 -0.58108,2.100924 -0.9502,3.158203 -0.36916,1.057302 -0.80893,2.091806 -1.31933,3.103515 -0.51044,1.011727 -1.10516,1.993822 -1.78418,2.946289 -0.67905,0.952479 -1.46063,1.843429 -2.34473,2.672852 -0.43751,0.410159 -0.91147,0.813479 -1.42187,1.209961 -0.51043,0.396486 -1.04364,0.754233 -1.59961,1.073242 -0.556,0.319011 -1.12566,0.576498 -1.70899,0.772461 -0.58334,0.195963 -1.16212,0.293945 -1.73632,0.293945 -0.82944,0 -1.54949,-0.116211 -2.16016,-0.348632 -0.61068,-0.232422 -1.11882,-0.558268 -1.52441,-0.97754 -0.40561,-0.419269 -0.70867,-0.918292 -0.90918,-1.49707 -0.20053,-0.578773 -0.30079,-1.214514 -0.30079,-1.907226 0,-0.328121 0.0273,-0.690425 0.082,-1.086914 0.0547,-0.396479 0.12304,-0.786127 0.20507,-1.168946 z"
       style="font-size:28px;fill:#e64b00;font-family:MV Boli;-inkscape-font-specification:MV Boli"
       id="path3135" />
    <path
       d="m 251.21484,16.037109 c 0.0547,-0.236962 0.12304,-0.489891 0.20508,-0.758789 0.082,-0.268862 0.1914,-0.514956 0.32813,-0.738281 0.13671,-0.223289 0.31444,-0.410138 0.5332,-0.560547 0.21874,-0.150372 0.49674,-0.225567 0.83398,-0.225586 0.31901,1.9e-5 0.60384,0.08889 0.8545,0.266602 0.25064,0.177753 0.47622,0.357765 0.67675,0.540039 0.23697,0.154966 0.46484,0.469418 0.6836,0.943359 0.21874,0.473975 0.44432,1.057308 0.67676,1.75 0.23241,0.692723 0.48306,1.476577 0.75195,2.351563 0.26887,0.875012 0.56509,1.791027 0.88867,2.748047 0.32355,0.95704 0.68586,1.934578 1.08691,2.932617 0.40103,0.998053 0.85676,1.971034 1.36719,2.918945 0.082,0.145838 0.17772,0.316736 0.28711,0.512695 0.10936,0.195968 0.22101,0.380538 0.33496,0.553711 0.11392,0.173181 0.21874,0.319014 0.31446,0.4375 0.0957,0.118493 0.16632,0.177737 0.21191,0.177735 0.0273,2e-6 0.0592,-0.06836 0.0957,-0.205078 0.0364,-0.136716 0.0775,-0.300778 0.12305,-0.492188 0.0456,-0.191403 0.0934,-0.387366 0.14355,-0.587891 0.0501,-0.200516 0.098,-0.364578 0.14356,-0.492187 0.17316,-0.419266 0.36229,-0.90006 0.56738,-1.442383 0.20506,-0.542311 0.43293,-1.19856 0.6836,-1.96875 0.25063,-0.770173 0.52634,-1.68391 0.82714,-2.741211 0.30077,-1.05728 0.63345,-2.310534 0.99805,-3.759765 0.0911,-0.355454 0.18911,-0.758774 0.29395,-1.209961 0.10479,-0.451156 0.20505,-0.911442 0.30078,-1.38086 0.0957,-0.469383 0.17999,-0.927391 0.25293,-1.374023 0.0729,-0.446596 0.12302,-0.833965 0.15039,-1.162109 -2e-5,-0.05467 0.005,-0.150371 0.0137,-0.28711 0.009,-0.136699 0.025,-0.291646 0.0478,-0.464844 0.0228,-0.173156 0.0524,-0.353169 0.0889,-0.540039 0.0364,-0.186828 0.0843,-0.357726 0.14355,-0.512695 0.0592,-0.154926 0.13442,-0.28253 0.22559,-0.382812 0.0911,-0.100239 0.2005,-0.150369 0.32812,-0.150391 0.12759,2.2e-5 0.28481,0.01825 0.47168,0.05469 0.18683,0.03648 0.35773,0.09117 0.5127,0.164063 0.17315,0.237 0.33038,0.521831 0.47168,0.854492 0.14125,0.332703 0.21189,0.781596 0.21191,1.34668 -2e-5,0.355488 -0.0365,0.781594 -0.10937,1.27832 -0.0729,0.496763 -0.16637,1.029965 -0.28028,1.599609 -0.11395,0.569678 -0.24156,1.155289 -0.38281,1.756836 -0.1413,0.601577 -0.28485,1.178074 -0.43066,1.729493 -0.14586,0.551444 -0.28486,1.057303 -0.41699,1.517578 -0.13219,0.460297 -0.24384,0.840831 -0.33497,1.141601 -0.16408,0.528656 -0.33498,1.073252 -0.51269,1.633789 -0.17776,0.560555 -0.37372,1.148445 -0.58789,1.763672 -0.21421,0.615241 -0.44664,1.266933 -0.69727,1.955078 -0.25067,0.688156 -0.53094,1.424158 -0.84082,2.208008 -0.13674,0.355471 -0.29396,0.71094 -0.47168,1.066406 -0.17775,0.355471 -0.38055,0.676759 -0.6084,0.963868 -0.22788,0.287109 -0.48536,0.519531 -0.77246,0.697265 -0.28712,0.177735 -0.60841,0.266602 -0.96386,0.266602 -0.20966,0 -0.42613,-0.02962 -0.64942,-0.08887 -0.22332,-0.05924 -0.41245,-0.180013 -0.56738,-0.362305 -0.74741,-0.865884 -1.41277,-1.84798 -1.99609,-2.946289 -0.58335,-1.098303 -1.10516,-2.246739 -1.56543,-3.445313 -0.4603,-1.19856 -0.86818,-2.410798 -1.22364,-3.636718 -0.35548,-1.2259 -0.67904,-2.399402 -0.9707,-3.520508 l -0.082,-0.314453 c -0.0365,-0.12759 -0.0707,-0.257473 -0.10254,-0.389649 -0.0319,-0.132147 -0.0638,-0.252915 -0.0957,-0.362305 -0.0319,-0.109359 -0.0684,-0.198227 -0.10938,-0.266601 -0.041,-0.06834 -0.0889,-0.102524 -0.14355,-0.102539 -0.0547,1.5e-5 -0.12306,0.100275 -0.20508,0.300781 -0.082,0.200536 -0.16407,0.426121 -0.24609,0.676758 -0.082,0.250665 -0.15724,0.49448 -0.22559,0.731445 -0.0684,0.236993 -0.11166,0.387383 -0.12988,0.451172 -0.0638,0.236992 -0.15952,0.57651 -0.28711,1.018555 -0.12761,0.442069 -0.27117,0.941092 -0.43067,1.49707 -0.15951,0.556 -0.33269,1.14389 -0.51953,1.763672 -0.18685,0.6198 -0.36687,1.219083 -0.54004,1.797852 -0.17318,0.578782 -0.33724,1.114263 -0.49218,1.606445 -0.15496,0.492192 -0.28256,0.888676 -0.38282,1.189453 -0.082,0.236983 -0.18229,0.542321 -0.30078,0.916016 -0.11849,0.373701 -0.23698,0.749677 -0.35547,1.127929 -0.11849,0.378257 -0.22787,0.722333 -0.32812,1.032227 -0.10027,0.309897 -0.16407,0.514974 -0.19141,0.615234 -0.10938,0.346355 -0.27116,0.608399 -0.48535,0.786133 -0.2142,0.177734 -0.43067,0.266601 -0.64941,0.266602 -0.13673,-10e-7 -0.27344,-0.04785 -0.41016,-0.143555 -0.13672,-0.0957 -0.25749,-0.211914 -0.3623,-0.348633 -0.10483,-0.136718 -0.19141,-0.28483 -0.25977,-0.444336 -0.0684,-0.159504 -0.10254,-0.303059 -0.10254,-0.430664 0,-0.07292 0.0228,-0.189126 0.0684,-0.348633 0.0456,-0.159504 0.11849,-0.430662 0.21875,-0.813476 l 0.35547,-1.408203 z"
       style="font-size:28px;fill:#e64b00;font-family:MV Boli;-inkscape-font-specification:MV Boli"
       id="path3137" />
    <path
       d="m 281.08789,32.730469 c -0.19142,0 -0.36004,-0.03646 -0.50586,-0.109375 -0.14585,-0.07292 -0.26661,-0.16862 -0.3623,-0.28711 -0.0957,-0.118489 -0.16864,-0.255207 -0.21875,-0.410156 -0.0502,-0.154947 -0.0752,-0.309895 -0.0752,-0.464844 -10e-6,-0.136717 0.0365,-0.325845 0.10938,-0.567382 0.0729,-0.241535 0.16632,-0.512694 0.28027,-0.813477 0.11392,-0.300778 0.23924,-0.615231 0.37598,-0.943359 0.1367,-0.328122 0.26886,-0.642574 0.39648,-0.94336 0.12759,-0.300776 0.23696,-0.578771 0.32813,-0.833984 0.0911,-0.255203 0.15493,-0.455724 0.1914,-0.601563 0.0364,-0.164056 0.082,-0.360019 0.13672,-0.58789 0.0547,-0.227858 0.1162,-0.47623 0.18457,-0.745117 0.0683,-0.268873 0.1367,-0.551425 0.20508,-0.847657 0.0683,-0.296215 0.13898,-0.594718 0.21191,-0.895508 -0.12762,0.02735 -0.28484,0.05242 -0.47168,0.0752 -0.18686,0.0228 -0.3851,0.0433 -0.59472,0.06152 -0.3008,0.02735 -0.59702,0.06837 -0.88868,0.123047 -0.29168,0.0547 -0.59018,0.11622 -0.8955,0.18457 -0.30535,0.06837 -0.62209,0.141285 -0.9502,0.21875 -0.32814,0.07748 -0.67905,0.157235 -1.05273,0.239258 -0.54689,0.118498 -1.09376,0.250659 -1.64063,0.396485 -0.54688,0.14584 -1.11654,0.218757 -1.70898,0.21875 -0.1823,7e-6 -0.35092,-0.04784 -0.50586,-0.143555 -0.15496,-0.0957 -0.32813,-0.166334 -0.51953,-0.211914 -0.1823,0.291674 -0.35548,0.603848 -0.51953,0.936523 -0.16407,0.332689 -0.31446,0.674486 -0.45118,1.025391 -0.13672,0.350917 -0.25977,0.697271 -0.36914,1.039062 -0.10938,0.341802 -0.20508,0.66309 -0.28711,0.963868 -0.0456,0.164066 -0.0843,0.37598 -0.11621,0.635742 -0.0319,0.259768 -0.0615,0.524091 -0.0889,0.792969 -0.0274,0.268882 -0.0547,0.526369 -0.082,0.77246 -0.0273,0.246096 -0.0547,0.442059 -0.082,0.587891 -0.0273,0.13672 -0.082,0.27116 -0.16406,0.40332 -0.082,0.132162 -0.1823,0.25293 -0.30078,0.362305 -0.11849,0.109375 -0.25066,0.198242 -0.39648,0.266602 -0.14584,0.06836 -0.29167,0.102539 -0.4375,0.102539 -0.25522,0 -0.46257,-0.0752 -0.62207,-0.225586 -0.15951,-0.150391 -0.28712,-0.337239 -0.38282,-0.560547 -0.0957,-0.223306 -0.16178,-0.467121 -0.19824,-0.731445 -0.0365,-0.264322 -0.0547,-0.505858 -0.0547,-0.72461 0,-0.555987 0.0684,-1.132484 0.20508,-1.729492 0.13672,-0.597001 0.32129,-1.20312 0.55371,-1.818359 0.23242,-0.615228 0.50586,-1.235019 0.82031,-1.859375 0.31445,-0.624341 0.65397,-1.246411 1.01856,-1.866211 0.30078,-0.55598 0.67447,-1.198557 1.12109,-1.927735 0.44661,-0.729154 0.94563,-1.478828 1.49707,-2.249023 0.55143,-0.770168 1.14843,-1.524399 1.79102,-2.262695 0.64257,-0.738265 1.31021,-1.396793 2.00293,-1.975586 0.69269,-0.578758 1.40363,-1.04588 2.13281,-1.401367 0.72915,-0.35545 1.45376,-0.533184 2.17383,-0.533204 0.75649,2e-5 1.38768,0.136739 1.89355,0.410157 0.50585,0.273456 0.90917,0.642596 1.20996,1.107422 0.30077,0.464861 0.51268,1.007178 0.63575,1.626953 0.12302,0.619807 0.18455,1.276057 0.18457,1.96875 -2e-5,0.610691 -0.0388,1.239596 -0.11621,1.886718 -0.0775,0.647148 -0.1732,1.280611 -0.28711,1.900391 -0.11395,0.619802 -0.237,1.216806 -0.36914,1.791016 -0.13218,0.574227 -0.25295,1.093758 -0.36231,1.558593 l -0.47851,1.859375 c -0.0183,0.05469 -0.0524,0.164068 -0.10254,0.328125 -0.0501,0.164068 -0.11395,0.36231 -0.19141,0.594727 -0.0775,0.232426 -0.16408,0.483077 -0.25976,0.751953 -0.0957,0.268884 -0.19143,0.533207 -0.28711,0.792969 -0.0957,0.259768 -0.18687,0.499026 -0.27344,0.717773 -0.0866,0.218752 -0.1618,0.396487 -0.22559,0.533203 l 0.0137,-0.01367 c -0.0638,0.236981 -0.13217,0.478518 -0.20507,0.72461 -0.0729,0.246095 -0.1732,0.467123 -0.30079,0.663086 -0.12762,0.195964 -0.29168,0.355469 -0.49218,0.478515 -0.20054,0.123047 -0.4603,0.184571 -0.7793,0.184571 z m 0.69727,-17.117188 c -0.41018,1.7e-5 -0.81805,0.08433 -1.22364,0.25293 -0.40561,0.168636 -0.80437,0.389665 -1.19629,0.663086 -0.39194,0.273453 -0.77247,0.592463 -1.1416,0.957031 -0.36915,0.364598 -0.72006,0.738296 -1.05273,1.121094 -0.33269,0.382826 -0.64487,0.767917 -0.93653,1.155273 -0.29167,0.387383 -0.55599,0.74513 -0.79296,1.073242 -0.0365,0.0547 -0.0843,0.125338 -0.14356,0.211915 -0.0592,0.0866 -0.1185,0.182303 -0.17773,0.287109 -0.0593,0.104829 -0.11622,0.214204 -0.1709,0.328125 -0.0547,0.113943 -0.10027,0.216482 -0.13672,0.307617 l 1.4082,0 c 0.51041,1.1e-5 1.09374,-0.03645 1.75,-0.109375 0.65624,-0.07291 1.30565,-0.159494 1.94825,-0.259766 0.64256,-0.100249 1.23273,-0.202788 1.7705,-0.307617 0.53775,-0.104806 0.94335,-0.184559 1.2168,-0.239258 0.0364,-0.118477 0.0706,-0.277982 0.10254,-0.478515 0.0319,-0.200509 0.0615,-0.423816 0.0889,-0.669922 0.0273,-0.246081 0.0478,-0.508125 0.0615,-0.786133 0.0136,-0.277981 0.0205,-0.562811 0.0205,-0.854492 -2e-5,-0.236965 -0.009,-0.508123 -0.0274,-0.813477 -0.0182,-0.305323 -0.0729,-0.59471 -0.16406,-0.868164 -0.0912,-0.273421 -0.23016,-0.503564 -0.41699,-0.690429 -0.18687,-0.186832 -0.44891,-0.280257 -0.78613,-0.280274 z"
       style="font-size:28px;fill:#e64b00;font-family:MV Boli;-inkscape-font-specification:MV Boli"
       id="path3139" />
    <path
       d="m 315.97852,25.621094 c 0.16405,-0.683586 0.40103,-1.38313 0.71093,-2.098633 0.30989,-0.715485 0.67448,-1.433258 1.09375,-2.15332 0.41927,-0.720041 0.88639,-1.428699 1.40137,-2.125977 0.51497,-0.697252 1.06184,-1.37173 1.64063,-2.023437 0.57876,-0.651677 1.17577,-1.266911 1.79101,-1.845704 0.61522,-0.578758 1.23274,-1.109682 1.85254,-1.592773 0.29165,-0.200502 0.56053,-0.332663 0.80664,-0.396484 0.24608,-0.06378 0.50585,-0.09568 0.7793,-0.0957 0.29165,1.9e-5 0.55142,0.04331 0.77929,0.129882 0.22785,0.08661 0.45572,0.243834 0.6836,0.47168 0.0729,0.08205 0.15037,0.154966 0.23242,0.21875 0.082,0.06382 0.15949,0.09572 0.23242,0.0957 0.0182,1.9e-5 0.041,-0.02049 0.0684,-0.06152 0.0273,-0.041 0.057,-0.08885 0.0889,-0.143555 0.0319,-0.05467 0.0706,-0.111635 0.11621,-0.170898 0.0456,-0.05923 0.10024,-0.102521 0.16406,-0.129883 0.15493,-0.0729 0.3395,-0.120749 0.55371,-0.143555 0.21418,-0.02277 0.43065,-0.03416 0.64942,-0.03418 0.41014,1.9e-5 0.80662,0.07522 1.18945,0.225586 0.38279,0.15041 0.72003,0.362323 1.01172,0.635743 0.69269,0.647152 1.21905,1.421891 1.5791,2.324218 0.36001,0.902359 0.54002,1.873061 0.54004,2.91211 -2e-5,0.929699 -0.13674,1.932302 -0.41016,3.007812 -0.237,0.947926 -0.57651,1.868498 -1.01855,2.761719 -0.44208,0.893235 -0.96161,1.731776 -1.5586,2.515625 -0.59702,0.783858 -1.26238,1.499352 -1.99609,2.146484 -0.73374,0.647138 -1.51531,1.203127 -2.34473,1.667969 -0.82944,0.464844 -1.69532,0.827148 -2.59765,1.086914 -0.90236,0.259765 -1.81837,0.389648 -2.74805,0.389648 -0.86589,0 -1.64291,-0.132161 -2.33105,-0.396484 -0.68816,-0.264323 -1.27149,-0.63802 -1.75,-1.121094 -0.47852,-0.483071 -0.84311,-1.057289 -1.09375,-1.722656 -0.25066,-0.665361 -0.37598,-1.403642 -0.37598,-2.214844 0,-0.346349 0.0205,-0.694981 0.0615,-1.045898 0.041,-0.350905 0.1071,-0.708652 0.19825,-1.073242 z m 2.31054,0.916015 c -0.10026,0.455735 -0.15039,0.865891 -0.15039,1.230469 0,0.510421 0.0889,0.959314 0.2666,1.34668 0.17773,0.387373 0.42838,0.71094 0.75196,0.970703 0.32356,0.259768 0.71093,0.455731 1.16211,0.587891 0.45116,0.132163 0.94563,0.198243 1.48339,0.198242 0.63802,1e-6 1.28743,-0.100259 1.94825,-0.300782 0.66079,-0.200518 1.30565,-0.492184 1.93457,-0.875 0.62889,-0.382809 1.23501,-0.843095 1.81836,-1.380859 0.58331,-0.537755 1.12335,-1.148432 1.62011,-1.832031 0.49673,-0.683587 0.93879,-1.426425 1.32618,-2.228516 0.38735,-0.802074 0.69952,-1.654287 0.93652,-2.55664 0.0911,-0.328114 0.15721,-0.669911 0.19824,-1.025391 0.041,-0.355456 0.0615,-0.697253 0.0615,-1.025391 -10e-6,-0.528632 -0.0593,-1.034491 -0.17773,-1.517578 -0.11851,-0.483058 -0.31447,-0.911443 -0.58789,-1.285156 -0.27346,-0.373682 -0.63348,-0.672184 -1.08008,-0.895508 -0.44663,-0.22329 -0.9935,-0.334944 -1.64062,-0.334961 -0.0912,1.7e-5 -0.1618,0.03875 -0.21192,0.116211 -0.0501,0.07749 -0.10255,0.175473 -0.15722,0.293945 -0.0456,0.100277 -0.098,0.205095 -0.15723,0.314454 -0.0593,0.109391 -0.13673,0.207372 -0.23242,0.293945 -0.0957,0.0866 -0.21421,0.157242 -0.35547,0.211914 -0.14129,0.0547 -0.31675,0.08205 -0.52637,0.08203 -0.15496,1.6e-5 -0.29168,-0.03416 -0.41016,-0.102539 -0.1185,-0.06834 -0.23699,-0.161768 -0.35546,-0.280273 -0.0547,-0.05467 -0.10028,-0.09797 -0.13672,-0.129883 -0.0365,-0.03188 -0.0775,-0.04783 -0.12305,-0.04785 -0.082,1.7e-5 -0.18914,0.03647 -0.32129,0.109375 -0.13217,0.07293 -0.26889,0.159522 -0.41015,0.259766 -0.14129,0.100276 -0.27801,0.205094 -0.41016,0.314453 -0.13217,0.109391 -0.23471,0.205094 -0.30762,0.287109 -0.6198,0.638036 -1.23731,1.333022 -1.85254,2.084961 -0.61524,0.751966 -1.18262,1.528983 -1.70215,2.331055 -0.51953,0.802093 -0.97298,1.611012 -1.36035,2.426758 -0.38737,0.815763 -0.66765,1.601895 -0.84082,2.358398 z"
       style="font-size:28px;fill:#e64b00;font-family:MV Boli;-inkscape-font-specification:MV Boli"
       id="path3141" />
    <path
       d="m 335.48828,31.9375 c 0.0365,-0.164062 0.0889,-0.319009 0.15723,-0.464844 0.0684,-0.145832 0.14355,-0.309894 0.22558,-0.492187 0.082,-0.18229 0.16862,-0.398761 0.25977,-0.649414 0.0911,-0.250649 0.18229,-0.562823 0.27344,-0.936524 l 0.5332,-2.1875 c 0.1276,-0.52864 0.25976,-1.068678 0.39648,-1.620117 0.13672,-0.551425 0.29622,-1.173494 0.47852,-1.866211 0.14583,-0.55598 0.32128,-1.137034 0.52637,-1.743164 0.20507,-0.606109 0.41926,-1.232735 0.64258,-1.879883 0.2233,-0.647122 0.44888,-1.312486 0.67675,-1.996094 0.22786,-0.683578 0.43294,-1.389958 0.61524,-2.11914 0.009,-0.02733 0.0137,-0.06379 0.0137,-0.109375 -10e-6,-0.0729 -0.0228,-0.118473 -0.0684,-0.136719 -0.0456,-0.01821 -0.10483,-0.02733 -0.17773,-0.02734 -0.22788,1.7e-5 -0.417,-0.03416 -0.56739,-0.102539 -0.15039,-0.06834 -0.26888,-0.157209 -0.35547,-0.266601 -0.0866,-0.109358 -0.14811,-0.234683 -0.18457,-0.375977 -0.0365,-0.141258 -0.0547,-0.28937 -0.0547,-0.444336 -1e-5,-0.401023 0.0478,-0.722312 0.14355,-0.963867 0.0957,-0.241517 0.21874,-0.428366 0.36914,-0.560547 0.15039,-0.132142 0.31445,-0.227845 0.49219,-0.287109 0.17773,-0.05922 0.3509,-0.107077 0.51953,-0.143555 0.16861,-0.03644 0.31672,-0.07517 0.44434,-0.116211 0.12759,-0.041 0.21874,-0.116191 0.27343,-0.225586 0.0911,-0.191385 0.17545,-0.394185 0.25293,-0.608398 0.0775,-0.214172 0.17545,-0.412414 0.29395,-0.594727 0.11848,-0.18227 0.26431,-0.33266 0.4375,-0.451172 0.17317,-0.118467 0.40103,-0.177712 0.68359,-0.177734 0.20051,2.2e-5 0.37825,0.05471 0.53321,0.164063 0.15493,0.109396 0.28937,0.246115 0.40332,0.410156 0.11392,0.164084 0.2119,0.339539 0.29394,0.526367 0.082,0.18687 0.15494,0.357768 0.21875,0.512695 0.93879,0.02736 1.75227,0.08205 2.44043,0.164063 0.68814,0.08205 1.20539,0.154968 1.55176,0.21875 0.68358,0.127624 1.36945,0.31903 2.05762,0.574219 0.68813,0.255227 1.30792,0.585631 1.85937,0.99121 0.55141,0.405618 1.00258,0.884133 1.35352,1.435547 0.35089,0.551449 0.52634,1.182634 0.52636,1.893555 -2e-5,0.364598 -0.041,0.742853 -0.12304,1.134766 l -0.0957,0.478515 c -0.0729,0.382826 -0.2256,0.738294 -0.458,1.066406 -0.23245,0.328138 -0.49449,0.624361 -0.78614,0.888672 -0.81121,0.747407 -1.69988,1.374034 -2.66601,1.879883 -0.96616,0.505869 -1.97332,0.931975 -3.02149,1.27832 -1.04819,0.346363 -2.11915,0.638029 -3.21289,0.875 -1.09376,0.236987 -2.17383,0.460294 -3.24023,0.669922 l -0.38281,0.05469 c -0.20965,0.02735 -0.33269,0.104824 -0.36915,0.232422 -0.18229,0.628912 -0.32585,1.180344 -0.43066,1.654297 -0.10482,0.473963 -0.2028,0.927413 -0.29394,1.360351 -0.0912,0.432946 -0.1823,0.865888 -0.27344,1.298828 -0.0912,0.432945 -0.20509,0.913739 -0.3418,1.442383 -0.0456,0.173178 -0.12761,0.378256 -0.24609,0.615234 -0.1185,0.23698 -0.25977,0.460287 -0.42383,0.669922 -0.16407,0.209635 -0.3532,0.389648 -0.56738,0.540039 -0.2142,0.15039 -0.43979,0.225585 -0.67676,0.225586 -0.16407,-10e-7 -0.30534,-0.04557 -0.42383,-0.136718 -0.11849,-0.09115 -0.21647,-0.207358 -0.29394,-0.348633 -0.0775,-0.141277 -0.13673,-0.293946 -0.17774,-0.458008 -0.041,-0.164062 -0.0615,-0.31901 -0.0615,-0.464844 -10e-6,-0.05469 -10e-6,-0.107096 0,-0.157226 -10e-6,-0.05013 0.009,-0.09798 0.0273,-0.143555 z m 5.42774,-10.103516 c -0.0182,0.06381 -0.0433,0.143566 -0.0752,0.239258 -0.0319,0.09571 -0.0615,0.195974 -0.0889,0.300781 -0.0274,0.104828 -0.0501,0.200531 -0.0684,0.28711 -0.0182,0.0866 -0.0273,0.148122 -0.0273,0.18457 -10e-6,0.04558 0.007,0.08432 0.0205,0.116211 0.0137,0.03191 0.0433,0.04786 0.0889,0.04785 0.0273,9e-6 0.11393,-0.01138 0.25977,-0.03418 0.14583,-0.02278 0.32128,-0.0524 0.52637,-0.08887 0.20507,-0.03645 0.4261,-0.07746 0.66308,-0.123047 0.23697,-0.04556 0.46484,-0.09114 0.6836,-0.136719 0.59243,-0.127594 1.2259,-0.289378 1.90039,-0.485351 0.67446,-0.195953 1.34666,-0.416982 2.0166,-0.663086 0.66991,-0.246083 1.31021,-0.510405 1.9209,-0.792969 0.61066,-0.28254 1.15298,-0.583321 1.62695,-0.902344 0.50129,-0.337226 0.90233,-0.674466 1.20313,-1.011719 0.30076,-0.337225 0.45115,-0.697251 0.45117,-1.080078 -2e-5,-0.227849 -0.0296,-0.430648 -0.0889,-0.608398 -0.0593,-0.177719 -0.12534,-0.339503 -0.19824,-0.485352 -0.27346,-0.446598 -0.61525,-0.797509 -1.02539,-1.052734 -0.41018,-0.255191 -0.85679,-0.446597 -1.33985,-0.574219 -0.48308,-0.127586 -0.98894,-0.209617 -1.51757,-0.246094 -0.52866,-0.03644 -1.04819,-0.05467 -1.5586,-0.05469 -0.13673,1.8e-5 -0.34409,0.0091 -0.62207,0.02734 -0.27801,0.01825 -0.56967,0.04103 -0.875,0.06836 -0.30535,0.02736 -0.5879,0.06154 -0.84765,0.102539 -0.25978,0.04103 -0.43524,0.08888 -0.52637,0.143555 -0.0456,0.02736 -0.0843,0.07293 -0.11621,0.136719 -0.0319,0.06382 -0.057,0.118506 -0.0752,0.164062 -0.0729,0.182309 -0.17318,0.435238 -0.30078,0.758789 -0.12761,0.323584 -0.26433,0.685888 -0.41016,1.086914 -0.14584,0.401057 -0.29851,0.824885 -0.458,1.271484 -0.15952,0.446629 -0.31219,0.88185 -0.45801,1.305665 -0.14584,0.42384 -0.28028,0.820324 -0.40332,1.189453 -0.12306,0.369152 -0.21648,0.672211 -0.28027,0.909179 z"
       style="font-size:28px;fill:#e64b00;font-family:MV Boli;-inkscape-font-specification:MV Boli"
       id="path3143" />
    <path
       d="m 354.46484,26.755859 c 0,-0.528639 0.0638,-1.127922 0.19141,-1.797851 0.1276,-0.669914 0.35091,-1.319327 0.66992,-1.948242 0.4375,-0.87499 0.92513,-1.720367 1.46289,-2.536133 0.53776,-0.815742 1.08919,-1.567695 1.6543,-2.25586 0.5651,-0.688136 1.1302,-1.298812 1.69531,-1.832031 0.5651,-0.533186 1.10286,-0.950178 1.61328,-1.250976 l -0.0137,0.01367 c 0.319,-0.200504 0.65624,-0.410139 1.01172,-0.628907 0.35546,-0.218731 0.72004,-0.419252 1.09375,-0.601562 0.37368,-0.182273 0.75194,-0.332664 1.13477,-0.451172 0.38279,-0.11847 0.76105,-0.177715 1.13476,-0.177734 0.3828,1.9e-5 0.74738,0.07749 1.09375,0.232421 0.34634,0.154967 0.6494,0.366881 0.90918,0.635743 0.25975,0.268898 0.46483,0.581072 0.61524,0.936523 0.15037,0.355486 0.22556,0.733741 0.22558,1.134766 -2e-5,0.282568 -0.016,0.503596 -0.0478,0.663086 -0.0319,0.15952 -0.082,0.280288 -0.15039,0.362304 -0.0684,0.08205 -0.15497,0.132177 -0.25977,0.150391 -0.10483,0.01824 -0.2256,0.02736 -0.3623,0.02734 -0.20054,1.5e-5 -0.35777,-0.04328 -0.47168,-0.129883 -0.11395,-0.08657 -0.2051,-0.191391 -0.27344,-0.314453 -0.0684,-0.123031 -0.12078,-0.25975 -0.15723,-0.410157 -0.0365,-0.150374 -0.0798,-0.287093 -0.12988,-0.410156 -0.0501,-0.12303 -0.11395,-0.227848 -0.1914,-0.314453 -0.0775,-0.08657 -0.18459,-0.129866 -0.32129,-0.129883 -0.3646,1.7e-5 -0.75881,0.08205 -1.18262,0.246094 -0.42384,0.164079 -0.85678,0.382829 -1.29883,0.65625 -0.44207,0.273453 -0.88413,0.585627 -1.32617,0.936523 -0.44207,0.350927 -0.86362,0.708674 -1.26465,1.073243 -0.40105,0.364597 -0.77247,0.724622 -1.11426,1.080078 -0.3418,0.355481 -0.63575,0.674491 -0.88183,0.957031 -0.36459,0.464855 -0.69728,0.936534 -0.99805,1.415039 -0.30079,0.478526 -0.56055,0.966155 -0.7793,1.462891 -0.21875,0.496753 -0.38737,1.007169 -0.50586,1.53125 -0.11849,0.524095 -0.17774,1.068691 -0.17773,1.633789 -10e-6,0.437505 0.0615,0.820317 0.18457,1.148437 0.12304,0.32813 0.25748,0.610681 0.40332,0.847656 0.17317,0.273442 0.38736,0.462569 0.64258,0.567383 0.2552,0.104821 0.56054,0.15723 0.91601,0.157227 0.77474,3e-6 1.49023,-0.07291 2.14649,-0.21875 0.65624,-0.14583 1.28514,-0.341793 1.88672,-0.587891 0.60155,-0.246089 1.18944,-0.537756 1.76367,-0.875 0.5742,-0.337234 1.16665,-0.69726 1.77734,-1.080078 l 0.35547,0 c 0.11848,6e-6 0.23924,0.03191 0.36231,0.0957 0.12303,0.06381 0.2324,0.145839 0.32812,0.246094 0.0957,0.100266 0.17316,0.214198 0.23242,0.341797 0.0592,0.127609 0.0889,0.25977 0.0889,0.396484 -2e-5,0.300786 -0.11851,0.599288 -0.35547,0.895508 -0.23699,0.296228 -0.54005,0.578779 -0.90918,0.847656 -0.36915,0.268883 -0.78615,0.521813 -1.25097,0.758789 -0.46486,0.236982 -0.92287,0.446617 -1.37403,0.628907 -0.45118,0.182293 -0.87273,0.337241 -1.26465,0.464843 -0.39193,0.127606 -0.70639,0.214194 -0.94336,0.259766 -0.20053,0.04557 -0.39421,0.08887 -0.58105,0.129883 -0.18686,0.04102 -0.40789,0.08203 -0.66309,0.123047 -0.25521,0.04102 -0.56055,0.07292 -0.91601,0.0957 -0.35548,0.02279 -0.80209,0.03418 -1.33985,0.03418 -0.32813,10e-7 -0.62891,-0.05241 -0.90234,-0.157226 -0.27344,-0.104817 -0.51726,-0.227864 -0.73144,-0.369141 -0.2142,-0.141274 -0.39649,-0.289386 -0.54688,-0.444336 -0.1504,-0.154946 -0.27116,-0.287107 -0.3623,-0.396484 -0.53777,-0.628904 -0.9297,-1.248695 -1.17579,-1.859375 -0.24609,-0.610673 -0.36914,-1.280594 -0.36914,-2.009766 z"
       style="font-size:28px;fill:#e64b00;font-family:MV Boli;-inkscape-font-specification:MV Boli"
       id="path3145" />
    <path
       d="m 372.60742,24.732422 c 0.082,-0.355461 0.18001,-0.749666 0.29395,-1.182617 0.11392,-0.432934 0.23697,-0.881826 0.36914,-1.34668 0.13215,-0.464833 0.26659,-0.934233 0.40332,-1.408203 0.13671,-0.473946 0.27115,-0.929675 0.40332,-1.367188 0.13215,-0.437486 0.25292,-0.845363 0.3623,-1.223632 0.10937,-0.378241 0.20507,-0.69953 0.28711,-0.963868 0.17317,-0.592432 0.33723,-1.187158 0.49219,-1.784179 0.15494,-0.596988 0.30533,-1.223615 0.45117,-1.879883 0.18229,-0.35545 0.42838,-0.608379 0.73828,-0.758789 0.30989,-0.150371 0.64713,-0.225566 1.01172,-0.225586 0.29166,0.154968 0.5218,0.366881 0.69043,0.635742 0.16861,0.268899 0.25292,0.571959 0.25293,0.90918 -10e-6,0.236997 -0.0387,0.508156 -0.11621,0.813476 -0.0775,0.305356 -0.17547,0.633481 -0.29395,0.984375 -0.11849,0.350928 -0.25066,0.720068 -0.39648,1.107422 -0.14584,0.387385 -0.28712,0.786148 -0.42383,1.196289 -0.25521,0.74741 -0.51042,1.494805 -0.76562,2.242188 -0.25522,0.747407 -0.50587,1.535818 -0.75196,2.365234 -0.0638,0.21876 -0.13216,0.437509 -0.20507,0.65625 -0.0729,0.218759 -0.14812,0.455738 -0.22559,0.710938 -0.0775,0.255216 -0.16179,0.540047 -0.25293,0.854492 -0.0912,0.31446 -0.1823,0.676764 -0.27344,1.086914 -0.10938,0.483079 -0.20508,0.96843 -0.28711,1.456055 -0.082,0.487634 -0.15951,0.977543 -0.23242,1.469726 -0.0729,0.492191 -0.15495,0.988935 -0.24609,1.490234 -0.0912,0.501304 -0.20053,1.007163 -0.32813,1.517579 -0.0456,0.182292 -0.12533,0.344075 -0.23925,0.485351 -0.11394,0.141276 -0.24382,0.262044 -0.38965,0.362305 -0.14584,0.10026 -0.30079,0.177734 -0.46485,0.232422 -0.16406,0.05469 -0.31901,0.08203 -0.46484,0.08203 -0.14584,-10e-7 -0.28484,-0.01139 -0.41699,-0.03418 -0.13217,-0.02279 -0.23471,-0.0752 -0.30762,-0.157226 -0.10938,-0.11849 -0.19597,-0.250652 -0.25977,-0.396485 -0.0638,-0.145833 -0.0957,-0.300781 -0.0957,-0.464843 0,-0.04557 0.002,-0.08887 0.007,-0.129883 0.005,-0.04102 0.0114,-0.08431 0.0205,-0.129883 z"
       style="font-size:28px;fill:#e64b00;font-family:MV Boli;-inkscape-font-specification:MV Boli"
       id="path3147" />
    <path
       d="m 379.25195,25.621094 c 0.16406,-0.683586 0.40104,-1.38313 0.71094,-2.098633 0.30989,-0.715485 0.67448,-1.433258 1.09375,-2.15332 0.41927,-0.720041 0.88639,-1.428699 1.40137,-2.125977 0.51496,-0.697252 1.06184,-1.37173 1.64062,-2.023437 0.57877,-0.651677 1.17577,-1.266911 1.79102,-1.845704 0.61522,-0.578758 1.23273,-1.109682 1.85254,-1.592773 0.29165,-0.200502 0.56053,-0.332663 0.80664,-0.396484 0.24608,-0.06378 0.50584,-0.09568 0.77929,-0.0957 0.29166,1.9e-5 0.55142,0.04331 0.7793,0.129882 0.22785,0.08661 0.45572,0.243834 0.6836,0.47168 0.0729,0.08205 0.15037,0.154966 0.23242,0.21875 0.082,0.06382 0.15949,0.09572 0.23242,0.0957 0.0182,1.9e-5 0.041,-0.02049 0.0684,-0.06152 0.0273,-0.041 0.0569,-0.08885 0.0889,-0.143555 0.0319,-0.05467 0.0706,-0.111635 0.11621,-0.170898 0.0456,-0.05923 0.10024,-0.102521 0.16406,-0.129883 0.15493,-0.0729 0.3395,-0.120749 0.55371,-0.143555 0.21418,-0.02277 0.43065,-0.03416 0.64941,-0.03418 0.41014,1.9e-5 0.80663,0.07522 1.18946,0.225586 0.38279,0.15041 0.72003,0.362323 1.01172,0.635743 0.69268,0.647152 1.21905,1.421891 1.5791,2.324218 0.36,0.902359 0.54002,1.873061 0.54004,2.91211 -2e-5,0.929699 -0.13674,1.932302 -0.41016,3.007812 -0.237,0.947926 -0.57652,1.868498 -1.01855,2.761719 -0.44208,0.893235 -0.96161,1.731776 -1.5586,2.515625 -0.59702,0.783858 -1.26238,1.499352 -1.99609,2.146484 -0.73374,0.647138 -1.51532,1.203127 -2.34473,1.667969 -0.82944,0.464844 -1.69532,0.827148 -2.59765,1.086914 -0.90236,0.259765 -1.81837,0.389648 -2.74805,0.389648 -0.86589,0 -1.64291,-0.132161 -2.33106,-0.396484 -0.68815,-0.264323 -1.27149,-0.63802 -1.75,-1.121094 -0.47852,-0.483071 -0.8431,-1.057289 -1.09375,-1.722656 -0.25065,-0.665361 -0.37598,-1.403642 -0.37597,-2.214844 -10e-6,-0.346349 0.0205,-0.694981 0.0615,-1.045898 0.041,-0.350905 0.10709,-0.708652 0.19824,-1.073242 z m 2.31055,0.916015 c -0.10027,0.455735 -0.1504,0.865891 -0.15039,1.230469 -10e-6,0.510421 0.0889,0.959314 0.2666,1.34668 0.17773,0.387373 0.42838,0.71094 0.75195,0.970703 0.32357,0.259768 0.71093,0.455731 1.16211,0.587891 0.45117,0.132163 0.94563,0.198243 1.4834,0.198242 0.63801,1e-6 1.28743,-0.100259 1.94824,-0.300782 0.6608,-0.200518 1.30566,-0.492184 1.93457,-0.875 0.6289,-0.382809 1.23502,-0.843095 1.81836,-1.380859 0.58332,-0.537755 1.12336,-1.148432 1.62012,-1.832031 0.49673,-0.683587 0.93879,-1.426425 1.32617,-2.228516 0.38735,-0.802074 0.69953,-1.654287 0.93653,-2.55664 0.0911,-0.328114 0.1572,-0.669911 0.19824,-1.025391 0.041,-0.355456 0.0615,-0.697253 0.0615,-1.025391 -2e-5,-0.528632 -0.0593,-1.034491 -0.17773,-1.517578 -0.11851,-0.483058 -0.31447,-0.911443 -0.58789,-1.285156 -0.27346,-0.373682 -0.63348,-0.672184 -1.08008,-0.895508 -0.44663,-0.22329 -0.99351,-0.334944 -1.64063,-0.334961 -0.0912,1.7e-5 -0.1618,0.03875 -0.21191,0.116211 -0.0501,0.07749 -0.10255,0.175473 -0.15723,0.293945 -0.0456,0.100277 -0.098,0.205095 -0.15722,0.314454 -0.0593,0.109391 -0.13674,0.207372 -0.23243,0.293945 -0.0957,0.0866 -0.2142,0.157242 -0.35546,0.211914 -0.14129,0.0547 -0.31675,0.08205 -0.52637,0.08203 -0.15496,1.6e-5 -0.29168,-0.03416 -0.41016,-0.102539 -0.1185,-0.06834 -0.23699,-0.161768 -0.35547,-0.280273 -0.0547,-0.05467 -0.10027,-0.09797 -0.13672,-0.129883 -0.0365,-0.03188 -0.0775,-0.04783 -0.12304,-0.04785 -0.082,1.7e-5 -0.18914,0.03647 -0.32129,0.109375 -0.13217,0.07293 -0.26889,0.159522 -0.41016,0.259766 -0.14129,0.100276 -0.278,0.205094 -0.41015,0.314453 -0.13218,0.109391 -0.23472,0.205094 -0.30762,0.287109 -0.6198,0.638036 -1.23732,1.333022 -1.85254,2.084961 -0.61524,0.751966 -1.18263,1.528983 -1.70215,2.331055 -0.51954,0.802093 -0.97299,1.611012 -1.36035,2.426758 -0.38738,0.815763 -0.66765,1.601895 -0.84082,2.358398 z M 397.03906,6.7949219 c -0.10028,0.401067 -0.27118,0.7246344 -0.51269,0.9707031 -0.24156,0.2461183 -0.54006,0.4603108 -0.89551,0.6425781 l -4.29297,2.1328129 c -0.16408,0.09117 -0.38283,0.13674 -0.65625,0.136718 -0.20965,2.2e-5 -0.36004,-0.04783 -0.45117,-0.143554 -0.0912,-0.09568 -0.13673,-0.221007 -0.13672,-0.375977 -10e-6,-0.1913835 0.0387,-0.3645604 0.11621,-0.5195311 0.0775,-0.1549248 0.17544,-0.2962007 0.29395,-0.4238281 0.11847,-0.1275807 0.24608,-0.2392343 0.38281,-0.334961 0.1367,-0.095679 0.25975,-0.1799891 0.36914,-0.2529297 l 1.03906,-0.6152343 c 0.43749,-0.2551836 0.86587,-0.5126703 1.28516,-0.772461 0.41925,-0.25974 0.81118,-0.4921617 1.17578,-0.6972656 0.36456,-0.2050519 0.69269,-0.3736715 0.98437,-0.5058594 0.29165,-0.1321348 0.51952,-0.1982154 0.6836,-0.1982422 0.18227,2.68e-5 0.33494,0.063829 0.45801,0.1914063 0.12302,0.1276306 0.18455,0.2962502 0.18457,0.5058593 -2e-5,0.045599 -2e-5,0.088893 0,0.1298829 -2e-5,0.041041 -0.009,0.084336 -0.0274,0.1298828 z"
       style="font-size:28px;fill:#e64b00;font-family:MV Boli;-inkscape-font-specification:MV Boli"
       id="path3149" />
    <path
       d="m 403.24609,16.037109 c 0.0547,-0.236962 0.12304,-0.489891 0.20508,-0.758789 0.082,-0.268862 0.1914,-0.514956 0.32813,-0.738281 0.13671,-0.223289 0.31444,-0.410138 0.5332,-0.560547 0.21874,-0.150372 0.49674,-0.225567 0.83398,-0.225586 0.31901,1.9e-5 0.60384,0.08889 0.8545,0.266602 0.25064,0.177753 0.47622,0.357765 0.67675,0.540039 0.23697,0.154966 0.46484,0.469418 0.6836,0.943359 0.21874,0.473975 0.44432,1.057308 0.67676,1.75 0.23241,0.692723 0.48306,1.476577 0.75195,2.351563 0.26887,0.875012 0.56509,1.791027 0.88867,2.748047 0.32355,0.95704 0.68586,1.934578 1.08691,2.932617 0.40103,0.998053 0.85676,1.971034 1.36719,2.918945 0.082,0.145838 0.17772,0.316736 0.28711,0.512695 0.10936,0.195968 0.22101,0.380538 0.33496,0.553711 0.11392,0.173181 0.21874,0.319014 0.31446,0.4375 0.0957,0.118493 0.16632,0.177737 0.21191,0.177735 0.0273,2e-6 0.0592,-0.06836 0.0957,-0.205078 0.0364,-0.136716 0.0775,-0.300778 0.12305,-0.492188 0.0456,-0.191403 0.0934,-0.387366 0.14355,-0.587891 0.0501,-0.200516 0.098,-0.364578 0.14356,-0.492187 0.17316,-0.419266 0.36229,-0.90006 0.56738,-1.442383 0.20506,-0.542311 0.43293,-1.19856 0.6836,-1.96875 0.25063,-0.770173 0.52634,-1.68391 0.82714,-2.741211 0.30077,-1.05728 0.63345,-2.310534 0.99805,-3.759765 0.0911,-0.355454 0.18911,-0.758774 0.29395,-1.209961 0.10479,-0.451156 0.20505,-0.911442 0.30078,-1.38086 0.0957,-0.469383 0.17999,-0.927391 0.25293,-1.374023 0.0729,-0.446596 0.12302,-0.833965 0.15039,-1.162109 -2e-5,-0.05467 0.005,-0.150371 0.0137,-0.28711 0.009,-0.136699 0.025,-0.291646 0.0478,-0.464844 0.0228,-0.173156 0.0524,-0.353169 0.0889,-0.540039 0.0364,-0.186828 0.0843,-0.357726 0.14355,-0.512695 0.0592,-0.154926 0.13442,-0.28253 0.22559,-0.382812 0.0911,-0.100239 0.2005,-0.150369 0.32812,-0.150391 0.12759,2.2e-5 0.28481,0.01825 0.47168,0.05469 0.18683,0.03648 0.35773,0.09117 0.5127,0.164063 0.17315,0.237 0.33038,0.521831 0.47168,0.854492 0.14125,0.332703 0.21189,0.781596 0.21191,1.34668 -2e-5,0.355488 -0.0365,0.781594 -0.10937,1.27832 -0.0729,0.496763 -0.16637,1.029965 -0.28028,1.599609 -0.11395,0.569678 -0.24156,1.155289 -0.38281,1.756836 -0.1413,0.601577 -0.28485,1.178074 -0.43066,1.729493 -0.14586,0.551444 -0.28486,1.057303 -0.41699,1.517578 -0.13219,0.460297 -0.24384,0.840831 -0.33497,1.141601 -0.16408,0.528656 -0.33498,1.073252 -0.51269,1.633789 -0.17776,0.560555 -0.37372,1.148445 -0.58789,1.763672 -0.21421,0.615241 -0.44664,1.266933 -0.69727,1.955078 -0.25067,0.688156 -0.53094,1.424158 -0.84082,2.208008 -0.13674,0.355471 -0.29396,0.71094 -0.47168,1.066406 -0.17775,0.355471 -0.38055,0.676759 -0.6084,0.963868 -0.22788,0.287109 -0.48536,0.519531 -0.77246,0.697265 -0.28712,0.177735 -0.60841,0.266602 -0.96386,0.266602 -0.20966,0 -0.42613,-0.02962 -0.64942,-0.08887 -0.22332,-0.05924 -0.41245,-0.180013 -0.56738,-0.362305 -0.74741,-0.865884 -1.41277,-1.84798 -1.99609,-2.946289 -0.58335,-1.098303 -1.10516,-2.246739 -1.56543,-3.445313 -0.4603,-1.19856 -0.86818,-2.410798 -1.22364,-3.636718 -0.35548,-1.2259 -0.67904,-2.399402 -0.9707,-3.520508 l -0.082,-0.314453 c -0.0365,-0.12759 -0.0707,-0.257473 -0.10254,-0.389649 -0.0319,-0.132147 -0.0638,-0.252915 -0.0957,-0.362305 -0.0319,-0.109359 -0.0684,-0.198227 -0.10938,-0.266601 -0.041,-0.06834 -0.0889,-0.102524 -0.14355,-0.102539 -0.0547,1.5e-5 -0.12306,0.100275 -0.20508,0.300781 -0.082,0.200536 -0.16407,0.426121 -0.24609,0.676758 -0.082,0.250665 -0.15724,0.49448 -0.22559,0.731445 -0.0684,0.236993 -0.11166,0.387383 -0.12988,0.451172 -0.0638,0.236992 -0.15952,0.57651 -0.28711,1.018555 -0.12761,0.442069 -0.27117,0.941092 -0.43067,1.49707 -0.15951,0.556 -0.33269,1.14389 -0.51953,1.763672 -0.18685,0.6198 -0.36687,1.219083 -0.54004,1.797852 -0.17318,0.578782 -0.33724,1.114263 -0.49218,1.606445 -0.15496,0.492192 -0.28256,0.888676 -0.38282,1.189453 -0.082,0.236983 -0.18229,0.542321 -0.30078,0.916016 -0.11849,0.373701 -0.23698,0.749677 -0.35547,1.127929 -0.11849,0.378257 -0.22787,0.722333 -0.32812,1.032227 -0.10027,0.309897 -0.16407,0.514974 -0.19141,0.615234 -0.10938,0.346355 -0.27116,0.608399 -0.48535,0.786133 -0.2142,0.177734 -0.43067,0.266601 -0.64941,0.266602 -0.13673,-10e-7 -0.27344,-0.04785 -0.41016,-0.143555 -0.13672,-0.0957 -0.25749,-0.211914 -0.3623,-0.348633 -0.10483,-0.136718 -0.19141,-0.28483 -0.25977,-0.444336 -0.0684,-0.159504 -0.10254,-0.303059 -0.10254,-0.430664 0,-0.07292 0.0228,-0.189126 0.0684,-0.348633 0.0456,-0.159504 0.11849,-0.430662 0.21875,-0.813476 l 0.35547,-1.408203 z"
       style="font-size:28px;fill:#e64b00;font-family:MV Boli;-inkscape-font-specification:MV Boli"
       id="path3151" />
  </g>
  <text
     xml:space="preserve"
     style="font-size:40px;font-style:normal;font-weight:normal;line-height:125%;letter-spacing:0px;word-spacing:0px;fill:#000000;fill-opacity:1;stroke:none;font-family:Sans"
     x="171"
     y="-41.5"
     id="text3110"
     sodipodi:linespacing="125%"><tspan
       sodipodi:role="line"
       id="tspan3112"
       x="171"
       y="-41.5"> </tspan></text>
</svg>
