<?xml version="1.0" encoding="UTF-8" standalone="no"?>
<!-- Created with Inkscape (http://www.inkscape.org/) -->

<svg
   xmlns:dc="http://purl.org/dc/elements/1.1/"
   xmlns:cc="http://creativecommons.org/ns#"
   xmlns:rdf="http://www.w3.org/1999/02/22-rdf-syntax-ns#"
   xmlns:svg="http://www.w3.org/2000/svg"
   xmlns="http://www.w3.org/2000/svg"
   xmlns:sodipodi="http://sodipodi.sourceforge.net/DTD/sodipodi-0.dtd"
   xmlns:inkscape="http://www.inkscape.org/namespaces/inkscape"
   id="svg3055"
   version="1.1"
   inkscape:version="0.48.4 r9939"
   width="453"
   height="50"
   sodipodi:docname="option.svg">
  <metadata
     id="metadata3061">
    <rdf:RDF>
      <cc:Work
         rdf:about="">
        <dc:format>image/svg+xml</dc:format>
        <dc:type
           rdf:resource="http://purl.org/dc/dcmitype/StillImage" />
        <dc:title></dc:title>
      </cc:Work>
    </rdf:RDF>
  </metadata>
  <defs
     id="defs3059" />
  <sodipodi:namedview
     pagecolor="#ffffff"
     bordercolor="#666666"
     borderopacity="1"
     objecttolerance="10"
     gridtolerance="10"
     guidetolerance="10"
     inkscape:pageopacity="0"
     inkscape:pageshadow="2"
     inkscape:window-width="1920"
     inkscape:window-height="1018"
     id="namedview3057"
     showgrid="false"
     inkscape:zoom="2"
     inkscape:cx="194.27158"
     inkscape:cy="-45.68404"
     inkscape:window-x="-8"
     inkscape:window-y="-8"
     inkscape:window-maximized="1"
     inkscape:current-layer="svg3055"
     showguides="true">
    <inkscape:grid
       type="xygrid"
       id="grid4709"
       empspacing="5"
       visible="true"
       enabled="true"
       snapvisiblegridlinesonly="true" />
  </sodipodi:namedview>
  <g
     inkscape:groupmode="layer"
     id="layer1"
     inkscape:label="Layer"
     style="display:inline"
     transform="translate(0,-138)" />
  <path
     style="fill:none;stroke:#e64b00;stroke-width:5.29999999999999980;stroke-linecap:round;stroke-linejoin:miter;stroke-miterlimit:4;stroke-opacity:1;stroke-dasharray:none;"
     d="m 444.61665,40.70041 c 0,0 -73.82248,-0.312712 -136.11802,-0.744676 C 260.15324,39.620502 207.08628,42.602877 151.99092,40.472895 97.40632,38.362658 54.745852,42.002533 49.17684,41.663 37.317734,40.939971 8.859443,40.703803 8.859443,40.703803"
     id="path3070"
     inkscape:connector-curvature="0"
     sodipodi:nodetypes="csssc" />
  <path
     inkscape:connector-curvature="0"
     id="path3221"
     style="font-size:24px;font-style:normal;font-variant:normal;font-weight:normal;font-stretch:normal;line-height:125%;letter-spacing:0px;word-spacing:0px;fill:#e64b00;fill-opacity:1;stroke:none;font-family:MV Boli;-inkscape-font-specification:MV Boli"
     d="m 53.45373,28.725283 c 0.297448,0.101262 0.603659,0.219939 0.918633,0.35602 0.314967,0.136086 0.639364,0.265475 0.973192,0.388166 0.333819,0.122696 0.679319,0.22552 1.036502,0.308474 0.357172,0.08296 0.730843,0.121884 1.121014,0.116779 0.45657,-0.006 0.909061,-0.06885 1.357476,-0.188629 0.448399,-0.119777 0.878511,-0.294086 1.290336,-0.522925 0.411809,-0.228833 0.797979,-0.505528 1.158513,-0.830087 0.360515,-0.324552 0.680548,-0.698963 0.960101,-1.123235 0.308937,-0.450936 0.561641,-0.859517 0.758117,-1.225746 0.196451,-0.366216 0.350882,-0.692458 0.463293,-0.978723 0.112388,-0.286253 0.186907,-0.532583 0.223556,-0.738994 0.03663,-0.206397 0.04418,-0.38394 0.02265,-0.532633 -0.03169,-0.218646 -0.129805,-0.407952 -0.294353,-0.567918 -0.164575,-0.15995 -0.372753,-0.290859 -0.624535,-0.392727 -0.251804,-0.101848 -0.53061,-0.174878 -0.836417,-0.219082 -0.305828,-0.04418 -0.620613,-0.06416 -0.944358,-0.05994 -0.190942,0.0025 -0.414123,0.01203 -0.669562,0.02848 -0.255451,0.0165 -0.515045,0.03303 -0.77878,0.04962 -0.263752,0.01661 -0.519512,0.0309 -0.767277,0.0429 -0.247787,0.01199 -0.462984,0.01921 -0.645608,0.02159 -0.273953,0.0036 -0.563027,-0.02549 -0.867222,-0.08724 -0.304208,-0.06174 -0.6082,-0.1651 -0.911981,-0.310103 -0.303791,-0.144983 -0.594424,-0.342725 -0.871901,-0.593224 -0.277487,-0.25048 -0.522331,-0.562736 -0.734532,-0.936769 -0.06755,-0.121783 -0.134113,-0.265498 -0.199687,-0.431144 -0.06559,-0.165622 -0.112311,-0.344647 -0.140175,-0.537075 -0.03041,-0.209896 -0.0447,-0.409061 -0.04288,-0.597496 0.0018,-0.188409 0.0108,-0.370353 0.02698,-0.545833 0.05287,-0.438815 0.181577,-0.885207 0.386128,-1.339177 0.204542,-0.453941 0.464633,-0.89767 0.780268,-1.331188 0.315628,-0.433486 0.666367,-0.854304 1.052215,-1.262454 0.385839,-0.408114 0.78762,-0.792357 1.205343,-1.152729 0.41771,-0.360336 0.832193,-0.685597 1.24345,-0.975784 0.411242,-0.290148 0.797379,-0.538365 1.158413,-0.74465 0.50734,-0.287023 1.036151,-0.497672 1.586435,-0.631951 0.550264,-0.134236 1.103498,-0.205001 1.659703,-0.212297 0.332043,-0.0043 0.654146,0.03746 0.966313,0.125374 0.312139,0.08795 0.59503,0.217878 0.84867,0.389795 0.253614,0.171958 0.465527,0.386064 0.635738,0.642318 0.170183,0.256295 0.279354,0.550609 0.327513,0.882944 0.02786,0.192434 0.03054,0.354509 0.0081,0.486227 -0.02252,0.131753 -0.06096,0.239599 -0.115316,0.323539 -0.05439,0.08397 -0.118475,0.143962 -0.192256,0.17996 -0.07381,0.03604 -0.152214,0.05458 -0.235215,0.05565 -0.224151,0.003 -0.433412,-0.0206 -0.62778,-0.07065 -0.194397,-0.05002 -0.383504,-0.106687 -0.567322,-0.170025 -0.183845,-0.0633 -0.367043,-0.122242 -0.549594,-0.17683 -0.182578,-0.05456 -0.377628,-0.08048 -0.585149,-0.07778 -0.614314,0.0081 -1.220306,0.14523 -1.817977,0.411529 -0.597691,0.266337 -1.168632,0.602406 -1.712828,1.008212 -0.544213,0.405839 -1.048559,0.857144 -1.513042,1.353917 -0.464497,0.496803 -0.874852,0.979739 -1.231069,1.448808 -0.188668,0.247839 -0.317145,0.494875 -0.385433,0.741112 -0.06829,0.246263 -0.08661,0.478715 -0.05493,0.697356 0.04687,0.32362 0.216436,0.575522 0.508692,0.755706 0.292245,0.180205 0.629302,0.267806 1.011173,0.262799 0.22413,-0.0029 0.476688,-0.01061 0.757676,-0.02306 0.280973,-0.01242 0.567861,-0.02713 0.860668,-0.04412 0.292791,-0.01696 0.577288,-0.03383 0.853493,-0.0506 0.276186,-0.01675 0.522202,-0.02654 0.738049,-0.02937 0.514675,-0.0067 1.019693,0.06335 1.515056,0.210206 0.495339,0.14688 0.947182,0.366611 1.355534,0.659191 0.408324,0.292603 0.754476,0.658301 1.038459,1.097096 0.283953,0.438813 0.467114,0.942464 0.549481,1.510957 0.05066,0.349854 0.05217,0.704725 0.0045,1.064614 -0.04768,0.359902 -0.132397,0.722473 -0.254133,1.087712 -0.121765,0.365252 -0.269053,0.726451 -0.441865,1.083596 -0.172839,0.357156 -0.359067,0.707911 -0.558684,1.052264 -0.359602,0.618099 -0.776141,1.201887 -1.249619,1.751367 -0.473504,0.549484 -0.992411,1.029459 -1.556723,1.439925 -0.564335,0.410467 -1.175976,0.738306 -1.834925,0.98352 -0.658967,0.245212 -1.353707,0.372595 -2.084222,0.382151 -0.315459,0.0041 -0.643647,-0.02225 -0.984565,-0.07913 -0.34093,-0.05688 -0.681822,-0.14224 -1.022675,-0.256079 -0.340862,-0.113839 -0.667476,-0.258533 -0.979843,-0.434083 -0.312374,-0.17555 -0.592948,-0.375615 -0.841722,-0.600192 -0.24878,-0.224576 -0.457458,-0.473775 -0.626036,-0.747598 -0.168583,-0.273819 -0.276312,-0.572534 -0.323188,-0.896145 -0.02281,-0.157427 -0.02184,-0.308598 0.0029,-0.453509 0.02475,-0.144906 0.128443,-0.218555 0.311076,-0.220947 z" />
  <path
     inkscape:connector-curvature="0"
     id="path3223"
     style="font-size:24px;font-style:normal;font-variant:normal;font-weight:normal;font-stretch:normal;line-height:125%;letter-spacing:0px;word-spacing:0px;fill:#e64b00;fill-opacity:1;stroke:none;font-family:MV Boli;-inkscape-font-specification:MV Boli"
     d="m 69.454184,30.57963 c -0.04435,-0.306114 -0.04972,-0.630265 -0.01611,-0.972453 0.109939,-1.193167 0.271097,-2.362908 0.483475,-3.509228 0.212372,-1.146309 0.390417,-2.285602 0.534135,-3.417882 0.143709,-1.132263 0.261195,-2.086746 0.352458,-2.863453 0.09125,-0.776684 0.17552,-1.443754 0.252799,-2.001211 0.07727,-0.55743 0.153179,-1.038183 0.227726,-1.442258 0.07454,-0.404045 0.162165,-0.803896 0.262883,-1.199553 0.0654,-0.237432 0.139923,-0.483764 0.223556,-0.738994 0.08362,-0.255196 0.18048,-0.490866 0.290567,-0.70701 0.110078,-0.216109 0.232089,-0.39296 0.366032,-0.530552 0.133932,-0.137556 0.283915,-0.207429 0.449949,-0.209618 0.340351,-0.0044 0.608321,0.05121 0.803912,0.16693 0.195576,0.115758 0.32109,0.221459 0.376541,0.317106 l 0.189986,0.536423 c 0.123246,-0.01036 0.28164,-0.03653 0.47518,-0.0785 0.193524,-0.04195 0.388815,-0.08612 0.585872,-0.132532 0.197041,-0.04638 0.379562,-0.09258 0.547566,-0.138603 0.167985,-0.046 0.295106,-0.08709 0.381362,-0.123285 0.525077,-0.164578 1.011824,-0.306767 1.460242,-0.426567 0.448396,-0.119762 0.876826,-0.219564 1.285288,-0.299409 0.408438,-0.07981 0.801062,-0.139709 1.177872,-0.179707 0.376782,-0.03996 0.760262,-0.0625 1.150443,-0.06762 0.381849,-0.005 0.696319,0.01282 0.943408,0.05338 0.24706,0.0406 0.446542,0.09714 0.598452,0.169619 0.151876,0.07251 0.262088,0.158701 0.330633,0.258558 0.06851,0.09989 0.111008,0.206681 0.127497,0.320363 0.01519,0.104976 0.0044,0.216838 -0.03248,0.335599 -0.03687,0.118796 -0.109957,0.231478 -0.219259,0.338042 -0.109333,0.106606 -0.257908,0.200553 -0.445722,0.281857 -0.187846,0.08134 -0.429286,0.137072 -0.72432,0.167203 -0.0722,0.01849 -0.239697,0.05354 -0.50251,0.105152 -0.262841,0.05165 -0.547862,0.107956 -0.855066,0.168914 -0.30723,0.061 -0.598163,0.11956 -0.872795,0.175716 -0.274658,0.05619 -0.464039,0.0981 -0.568145,0.125729 l 0.01245,-1.63e-4 c -0.04856,0.0094 -0.162098,0.04376 -0.340631,0.103035 -0.178558,0.05931 -0.395269,0.127865 -0.650133,0.205666 -0.254887,0.07783 -0.531007,0.166881 -0.828361,0.267144 -0.297377,0.100293 -0.590908,0.198334 -0.880596,0.294116 -0.289706,0.09582 -0.557209,0.186939 -0.802507,0.273378 -0.245316,0.08647 -0.443031,0.156967 -0.593148,0.211492 -0.475986,0.216546 -0.832151,0.499422 -1.068497,0.848627 -0.23636,0.349233 -0.40651,0.739209 -0.510449,1.169929 -0.02181,0.07916 -0.05229,0.213193 -0.09146,0.402092 -0.03918,0.188924 -0.08078,0.404155 -0.124791,0.645694 -0.04403,0.241563 -0.09206,0.4985 -0.144092,0.770814 -0.05204,0.272337 -0.101835,0.531488 -0.149369,0.777457 -0.04754,0.245988 -0.08787,0.469965 -0.120989,0.671931 -0.03313,0.201986 -0.05517,0.351241 -0.06613,0.447764 -0.01224,0.08779 -0.01744,0.16673 -0.0156,0.236799 0.0018,0.07009 0.0053,0.122618 0.01035,0.157594 0.0076,0.05248 0.02385,0.07856 0.04876,0.07822 0.124514,-0.0016 0.375381,-0.06405 0.7526,-0.187289 0.377205,-0.123221 0.81671,-0.275746 1.318517,-0.457573 0.50179,-0.181808 1.039045,-0.377234 1.611765,-0.586277 0.572701,-0.209023 1.122407,-0.404612 1.649122,-0.586766 0.526692,-0.182134 0.997327,-0.335065 1.411908,-0.458795 0.414555,-0.123708 0.717306,-0.186817 0.90825,-0.189326 0.290535,-0.0038 0.492903,0.04395 0.607104,0.143217 0.114178,0.09929 0.180135,0.210152 0.197887,0.332587 0.0456,0.314872 -0.02033,0.591761 -0.197802,0.830665 -0.177491,0.238926 -0.411286,0.447908 -0.701387,0.626948 -0.09202,0.05379 -0.265648,0.132733 -0.520861,0.236834 -0.255237,0.104117 -0.530899,0.210686 -0.826985,0.319703 -0.29611,0.109037 -0.578315,0.213497 -0.846615,0.313388 -0.268322,0.0999 -0.461569,0.172538 -0.579744,0.217889 -0.765403,0.343003 -1.387846,0.624979 -1.867332,0.84593 -0.479504,0.220966 -0.867158,0.401291 -1.162966,0.540976 -0.295822,0.139697 -0.523751,0.245641 -0.683787,0.317829 -0.160048,0.07221 -0.309223,0.133301 -0.447523,0.183299 -0.138312,0.05002 -0.291462,0.09802 -0.459451,0.144022 -0.168,0.04602 -0.399871,0.110395 -0.695614,0.193117 -0.04811,0.184652 -0.09505,0.463483 -0.140817,0.836492 -0.04578,0.37302 -0.0855,0.7591 -0.119159,1.15824 -0.03367,0.399148 -0.05693,0.769678 -0.06978,1.11159 -0.01285,0.341918 -0.0098,0.578471 0.0092,0.709661 0.0228,0.157433 0.06034,0.273048 0.112619,0.346846 0.05227,0.0738 0.109361,0.12344 0.17128,0.148917 0.0619,0.02548 0.121915,0.03784 0.18003,0.03708 0.0581,-7.59e-4 0.103761,-0.0014 0.136974,-0.0018 0.398461,-0.0052 0.868996,-0.07271 1.41161,-0.202481 0.542599,-0.129773 1.073277,-0.298824 1.592037,-0.507154 0.495106,-0.199254 0.921275,-0.415134 1.27851,-0.64764 0.357214,-0.2325 0.693827,-0.449399 1.009838,-0.650698 0.31599,-0.201291 0.628124,-0.371865 0.936403,-0.511723 0.308255,-0.13985 0.656838,-0.216702 1.045749,-0.230556 0.083,-0.0011 0.181806,0.0064 0.296424,0.02241 0.11459,0.01603 0.225184,0.04745 0.331783,0.09424 0.106574,0.0468 0.196694,0.109153 0.270371,0.187053 0.07365,0.07791 0.111054,0.178187 0.112193,0.300848 0.0035,0.254076 -0.08074,0.504916 -0.252785,0.752519 -0.172074,0.247611 -0.39936,0.487177 -0.681859,0.718701 -0.282524,0.231529 -0.603659,0.454797 -0.963405,0.669805 -0.35977,0.215014 -0.729414,0.419201 -1.10893,0.612563 -0.37954,0.193363 -0.753301,0.369125 -1.121284,0.527285 -0.368004,0.158162 -0.697341,0.2961 -0.988012,0.413818 -0.723194,0.289867 -1.436394,0.505119 -2.139604,0.645758 -0.703223,0.140638 -1.341228,0.214704 -1.91402,0.222196 -0.630909,0.0083 -1.132519,-0.110056 -1.50483,-0.354924 -0.372318,-0.24487 -0.600285,-0.655927 -0.683901,-1.233174 z" />
  <path
     inkscape:connector-curvature="0"
     id="path3225"
     style="font-size:24px;font-style:normal;font-variant:normal;font-weight:normal;font-stretch:normal;line-height:125%;letter-spacing:0px;word-spacing:0px;fill:#e64b00;fill-opacity:1;stroke:none;font-family:MV Boli;-inkscape-font-specification:MV Boli"
     d="m 85.387155,24.561539 c 0.198719,-1.211848 0.387807,-2.375383 0.567264,-3.490607 0.17945,-1.115204 0.331507,-2.146814 0.456175,-3.094832 0.124657,-0.947992 0.211198,-1.785965 0.25962,-2.51392 0.04841,-0.727925 0.04988,-1.306283 0.0044,-1.73508 0.04006,-0.412354 0.168958,-0.742643 0.38668,-0.990866 0.217709,-0.248185 0.492595,-0.374458 0.824658,-0.378821 0.199226,-0.0026 0.376376,0.04329 0.531442,0.137634 0.15506,0.09438 0.287573,0.219707 0.39755,0.37598 0.109939,0.156309 0.199955,0.332577 0.269974,0.528805 0.07006,0.196263 0.1196,0.394967 0.148737,0.596111 0.02153,0.148702 0.03268,0.284379 0.03405,0.407023 0.0012,0.12268 -0.0026,0.241025 -0.01095,0.355034 -0.07438,0.80716 -0.182306,1.641032 -0.323781,2.501615 -0.141491,0.860612 -0.287617,1.732224 -0.438377,2.614839 -0.150778,0.882638 -0.299148,1.767424 -0.445125,2.654359 -0.145989,0.886955 -0.265452,1.756028 -0.358388,2.607222 l -0.09491,0.89504 c -0.05034,0.456326 -0.08725,0.890564 -0.110707,1.302715 -0.02347,0.412159 -0.01684,0.745057 0.01991,0.998691 0.02027,0.139943 0.06132,0.25113 0.123171,0.333564 0.06184,0.08244 0.163323,0.122736 0.304452,0.120887 0.340351,-0.0044 0.730265,-0.0687 1.169744,-0.192745 0.439473,-0.124042 0.891745,-0.274542 1.356824,-0.451501 0.465069,-0.176954 0.925542,-0.371375 1.381409,-0.583266 0.455846,-0.211882 0.873854,-0.41232 1.254024,-0.601314 0.201896,-0.09902 0.374556,-0.184531 0.518016,-0.256513 0.143428,-0.07198 0.322,-0.159746 0.535735,-0.263318 0.213704,-0.103562 0.49946,-0.240931 0.857267,-0.412108 0.357777,-0.171167 0.851337,-0.409834 1.480691,-0.716005 0.109869,-0.04525 0.206174,-0.08374 0.288923,-0.115504 0.0827,-0.03175 0.161438,-0.04811 0.236157,-0.0491 0.132813,-0.0017 0.250755,0.02301 0.35384,0.07423 0.103022,0.05124 0.187899,0.120227 0.254547,0.206977 0.06665,0.08676 0.120641,0.186827 0.161996,0.300195 0.04134,0.11338 0.07024,0.226918 0.08681,0.340612 0.02786,0.19242 0.03771,0.360974 0.0296,0.505661 -0.0082,0.144697 -0.02192,0.265364 -0.04114,0.362 -0.0756,0.167485 -0.182367,0.320039 -0.320449,0.457664 -0.138101,0.137632 -0.287025,0.257877 -0.446772,0.360734 -0.159766,0.102868 -0.317596,0.190366 -0.473478,0.262503 -0.155903,0.07214 -0.285278,0.126413 -0.388104,0.162806 -0.125241,0.05422 -0.291505,0.126493 -0.498811,0.21683 -0.207325,0.09034 -0.432055,0.189671 -0.674187,0.297987 -0.242153,0.10832 -0.492277,0.218939 -0.750373,0.331846 -0.258116,0.112915 -0.500576,0.219046 -0.727367,0.3184 -0.226811,0.09936 -0.428228,0.187429 -0.604229,0.264213 -0.17602,0.07679 -0.299486,0.128787 -0.370385,0.156002 -0.336691,0.144609 -0.71028,0.307225 -1.120758,0.487847 -0.410488,0.180624 -0.820171,0.352475 -1.229027,0.515551 -0.408868,0.163077 -0.798398,0.301804 -1.168569,0.416179 -0.370183,0.11438 -0.683944,0.173247 -0.941281,0.176613 -0.315459,0.0041 -0.566226,-0.01889 -0.752301,-0.06902 -0.186087,-0.05014 -0.356341,-0.120208 -0.510763,-0.210196 -0.154431,-0.08999 -0.313784,-0.19963 -0.478058,-0.328923 -0.164283,-0.129291 -0.378195,-0.271079 -0.641737,-0.425361 -0.236111,-0.137115 -0.417559,-0.327522 -0.544347,-0.571221 -0.126792,-0.243698 -0.210459,-0.505484 -0.250999,-0.785364 -0.02027,-0.139936 -0.0333,-0.301876 -0.03918,-0.48582 -0.0059,-0.183938 -0.0067,-0.376706 -0.0027,-0.578305 0.0041,-0.201593 0.01291,-0.39887 0.02655,-0.591833 0.01363,-0.192954 0.03459,-0.364101 0.06286,-0.513442 z" />
  <path
     inkscape:connector-curvature="0"
     id="path3227"
     style="font-size:24px;font-style:normal;font-variant:normal;font-weight:normal;font-stretch:normal;line-height:125%;letter-spacing:0px;word-spacing:0px;fill:#e64b00;fill-opacity:1;stroke:none;font-family:MV Boli;-inkscape-font-specification:MV Boli"
     d="m 100.23574,30.177024 c -0.0443,-0.306114 -0.0497,-0.630267 -0.0161,-0.972454 0.10993,-1.193167 0.27109,-2.362908 0.48347,-3.509227 0.21238,-1.14631 0.39042,-2.285603 0.53414,-3.417883 0.14371,-1.132263 0.26119,-2.086746 0.35245,-2.863453 0.0913,-0.776683 0.17552,-1.443754 0.25281,-2.001211 0.0773,-0.55743 0.15318,-1.038183 0.22772,-1.442258 0.0745,-0.404045 0.16217,-0.803896 0.26288,-1.199553 0.0654,-0.237431 0.13993,-0.483763 0.22356,-0.738994 0.0836,-0.255196 0.18048,-0.490866 0.29057,-0.70701 0.11007,-0.216109 0.23208,-0.392959 0.36603,-0.530552 0.13393,-0.137555 0.28392,-0.207429 0.44994,-0.209618 0.34036,-0.0044 0.60833,0.05121 0.80392,0.16693 0.19558,0.115758 0.32109,0.221459 0.37654,0.317106 l 0.18998,0.536424 c 0.12325,-0.01036 0.28164,-0.03652 0.47518,-0.0785 0.19353,-0.04195 0.38882,-0.08612 0.58588,-0.132531 0.19704,-0.04638 0.37956,-0.09258 0.54757,-0.138604 0.16798,-0.046 0.2951,-0.08709 0.38136,-0.123285 0.52507,-0.164578 1.01182,-0.306767 1.46023,-0.426566 0.4484,-0.119762 0.87684,-0.219565 1.2853,-0.29941 0.40844,-0.07981 0.80106,-0.139709 1.17787,-0.179706 0.37678,-0.03996 0.76026,-0.0625 1.15044,-0.06762 0.38185,-0.005 0.69632,0.01282 0.94341,0.05338 0.24706,0.0406 0.44654,0.09714 0.59845,0.169619 0.15188,0.07251 0.26208,0.1587 0.33063,0.258557 0.0686,0.09989 0.11106,0.206681 0.12753,0.320362 0.0152,0.104977 0.004,0.216839 -0.0325,0.3356 -0.0369,0.118797 -0.10995,0.231478 -0.21925,0.338043 -0.10934,0.106605 -0.25791,0.200552 -0.44572,0.281856 -0.18785,0.08134 -0.42929,0.137072 -0.72433,0.167203 -0.0722,0.01849 -0.23969,0.05354 -0.5025,0.105153 -0.26285,0.05165 -0.54787,0.107955 -0.85507,0.168913 -0.30724,0.061 -0.59817,0.11956 -0.8728,0.175716 -0.27466,0.05619 -0.46404,0.0981 -0.56814,0.125729 l 0.0124,-1.63e-4 c -0.0486,0.0094 -0.1621,0.04376 -0.34063,0.103035 -0.17856,0.05931 -0.39527,0.127866 -0.65014,0.205666 -0.25488,0.07783 -0.531,0.166881 -0.82836,0.267144 -0.29737,0.100294 -0.5909,0.198334 -0.88059,0.294116 -0.2897,0.09582 -0.5572,0.18694 -0.80251,0.273379 -0.24531,0.08647 -0.44303,0.156967 -0.59315,0.211492 -0.47598,0.216546 -0.83215,0.499421 -1.06849,0.848626 -0.23636,0.349234 -0.40651,0.739209 -0.51045,1.16993 -0.0219,0.07916 -0.0523,0.213192 -0.0915,0.402092 -0.0392,0.188924 -0.0808,0.404154 -0.12478,0.645693 -0.044,0.241563 -0.0921,0.498501 -0.1441,0.770814 -0.052,0.272337 -0.10183,0.531489 -0.14936,0.777457 -0.0475,0.245988 -0.0879,0.469965 -0.12099,0.671932 -0.0331,0.201986 -0.0552,0.35124 -0.0661,0.447764 -0.0122,0.08779 -0.0175,0.16673 -0.0156,0.236799 0.002,0.07009 0.005,0.122618 0.0104,0.157593 0.008,0.05248 0.0238,0.07856 0.0488,0.07822 0.12453,-0.0016 0.37539,-0.06405 0.75261,-0.187289 0.3772,-0.123221 0.81671,-0.275746 1.31852,-0.457573 0.50178,-0.181808 1.03904,-0.377234 1.61176,-0.586277 0.5727,-0.209023 1.12241,-0.404612 1.64912,-0.586766 0.52669,-0.182134 0.99733,-0.335065 1.41191,-0.458795 0.41455,-0.123708 0.7173,-0.186817 0.90825,-0.189326 0.29054,-0.0038 0.4929,0.04395 0.6071,0.143217 0.11413,0.09929 0.18013,0.210152 0.19789,0.332587 0.0456,0.314872 -0.0203,0.591761 -0.1978,0.830665 -0.17749,0.238926 -0.41129,0.447908 -0.70139,0.626948 -0.0921,0.05379 -0.26564,0.132733 -0.52085,0.236834 -0.25524,0.104117 -0.53091,0.210686 -0.827,0.319703 -0.29611,0.109037 -0.5783,0.213497 -0.84661,0.313388 -0.26832,0.0999 -0.46157,0.172538 -0.57975,0.217889 -0.76539,0.343003 -1.38784,0.624979 -1.86733,0.84593 -0.47949,0.220965 -0.86716,0.401291 -1.16296,0.540976 -0.29583,0.139697 -0.52375,0.245641 -0.68379,0.317829 -0.16004,0.07221 -0.30922,0.133301 -0.44752,0.183299 -0.13832,0.05002 -0.29147,0.09802 -0.45945,0.144022 -0.168,0.04602 -0.39988,0.110395 -0.69562,0.193117 -0.0481,0.184651 -0.0951,0.463483 -0.14082,0.836492 -0.0457,0.373019 -0.0855,0.7591 -0.11916,1.15824 -0.0336,0.399148 -0.0569,0.769678 -0.0698,1.11159 -0.0129,0.341918 -0.01,0.578471 0.009,0.709661 0.0228,0.157433 0.0603,0.273049 0.11263,0.346845 0.0523,0.0738 0.10933,0.123442 0.17127,0.148918 0.0619,0.02548 0.12192,0.03784 0.18004,0.03708 0.0581,-7.59e-4 0.10381,-0.0014 0.13697,-0.0018 0.39846,-0.0052 0.869,-0.07271 1.41161,-0.202481 0.5426,-0.129773 1.07328,-0.298824 1.59204,-0.507154 0.4951,-0.199254 0.92127,-0.415134 1.2785,-0.64764 0.35722,-0.2325 0.69383,-0.449398 1.00984,-0.650698 0.31599,-0.201291 0.62813,-0.371865 0.9364,-0.511723 0.30826,-0.13985 0.65684,-0.216702 1.04575,-0.230556 0.083,-0.0011 0.18181,0.0064 0.29644,0.02241 0.11458,0.01603 0.22518,0.04745 0.33177,0.09424 0.10653,0.0468 0.1967,0.109153 0.27038,0.187053 0.0737,0.07791 0.11108,0.178187 0.11214,0.300848 0.003,0.254077 -0.0807,0.504916 -0.25279,0.75252 -0.17207,0.24761 -0.39936,0.487177 -0.68185,0.7187 -0.28253,0.231529 -0.60366,0.454797 -0.96341,0.669806 -0.35978,0.215014 -0.72941,0.4192 -1.10894,0.612562 -0.37953,0.193364 -0.75329,0.369126 -1.12128,0.527286 -0.368,0.158161 -0.69734,0.2961 -0.98801,0.413818 -0.72319,0.289867 -1.43639,0.505118 -2.1396,0.645758 -0.70322,0.140638 -1.34123,0.214704 -1.91402,0.222195 -0.63091,0.0083 -1.13252,-0.110056 -1.50483,-0.354924 -0.37232,-0.244869 -0.60029,-0.655926 -0.68391,-1.233173 z" />
  <path
     inkscape:connector-curvature="0"
     id="path3229"
     style="font-size:24px;font-style:normal;font-variant:normal;font-weight:normal;font-stretch:normal;line-height:125%;letter-spacing:0px;word-spacing:0px;fill:#e64b00;fill-opacity:1;stroke:none;font-family:MV Boli;-inkscape-font-specification:MV Boli"
     d="m 115.23152,25.354161 c -0.0735,-0.507272 -0.0987,-1.083092 -0.0756,-1.727462 0.0231,-0.644355 0.13621,-1.270179 0.33934,-1.877474 0.27684,-0.844834 0.60346,-1.661848 0.97985,-2.451048 0.37638,-0.789174 0.7741,-1.517302 1.19313,-2.184382 0.41903,-0.667053 0.84882,-1.259778 1.2894,-1.778176 0.44056,-0.518366 0.87239,-0.924909 1.29545,-1.21963 l -0.0105,0.01328 c 0.26266,-0.196199 0.54068,-0.401378 0.83403,-0.615538 0.29334,-0.214125 0.59752,-0.410884 0.91254,-0.590276 0.31501,-0.179357 0.63862,-0.328174 0.97082,-0.446453 0.33217,-0.118242 0.66845,-0.179598 1.00882,-0.184069 0.34864,-0.0045 0.69147,0.06546 1.02847,0.209998 0.33698,0.144578 0.64245,0.344315 0.91643,0.599215 0.27395,0.254935 0.50413,0.552048 0.69053,0.891339 0.18637,0.339326 0.30743,0.701396 0.3632,1.08621 0.0392,0.271148 0.0554,0.483433 0.0486,0.636855 -0.007,0.153453 -0.0357,0.269935 -0.0866,0.349451 -0.0509,0.07955 -0.12276,0.12868 -0.21568,0.147406 -0.093,0.01876 -0.20168,0.02894 -0.32618,0.03056 -0.18265,0.0024 -0.33186,-0.03727 -0.44766,-0.119014 -0.11584,-0.08171 -0.21339,-0.181211 -0.29274,-0.298485 -0.0794,-0.117244 -0.14612,-0.247813 -0.20022,-0.391704 -0.0542,-0.143862 -0.11259,-0.274539 -0.1753,-0.392031 -0.0628,-0.117461 -0.13549,-0.21728 -0.21805,-0.299463 -0.0826,-0.08216 -0.18616,-0.122418 -0.31067,-0.120805 -0.33207,0.0044 -0.6797,0.08777 -1.0429,0.250234 -0.36322,0.162496 -0.72713,0.377561 -1.09173,0.645196 -0.36462,0.267667 -0.72384,0.572488 -1.07767,0.914468 -0.35385,0.342007 -0.68806,0.690316 -1.00263,1.044925 -0.31459,0.354638 -0.60283,0.704535 -0.86471,1.049695 -0.2619,0.345185 -0.48528,0.654801 -0.67013,0.928852 -0.26745,0.450409 -0.50488,0.906986 -0.71231,1.369733 -0.20744,0.462766 -0.37624,0.93378 -0.50643,1.413043 -0.13018,0.47928 -0.21281,0.971073 -0.24787,1.475382 -0.0351,0.504323 -0.0133,1.027611 0.0652,1.569868 0.0608,0.41982 0.17002,0.786427 0.32775,1.099818 0.15767,0.3134 0.31938,0.58293 0.48516,0.808589 0.19572,0.260325 0.4171,0.439256 0.66411,0.536794 0.247,0.09755 0.53238,0.144197 0.85615,0.139959 0.70561,-0.0092 1.34713,-0.08772 1.92457,-0.235478 0.57742,-0.147753 1.12297,-0.343287 1.63667,-0.586603 0.51367,-0.243308 1.00857,-0.530189 1.48469,-0.860642 0.47609,-0.330443 0.96564,-0.682975 1.46863,-1.057594 l 0.32376,-0.0042 c 0.1079,-0.0014 0.22234,0.02777 0.34328,0.08752 0.12092,0.05976 0.23194,0.137174 0.33306,0.232237 0.10107,0.09507 0.18748,0.203477 0.2592,0.325213 0.0717,0.121744 0.11708,0.248211 0.13608,0.379399 0.0418,0.288628 -0.0246,0.576476 -0.19928,0.863546 -0.17467,0.287076 -0.41141,0.561817 -0.71023,0.824223 -0.29884,0.262412 -0.64348,0.510086 -1.03389,0.743021 -0.39045,0.232941 -0.77845,0.439558 -1.16401,0.619853 -0.3856,0.180301 -0.748,0.334007 -1.08721,0.461121 -0.33924,0.127116 -0.6136,0.213951 -0.82308,0.260503 -0.17632,0.04612 -0.3467,0.08997 -0.51117,0.131555 -0.16448,0.04159 -0.36009,0.08357 -0.58682,0.125972 -0.22675,0.0424 -0.50041,0.07665 -0.82099,0.102746 -0.32059,0.0261 -0.72577,0.04236 -1.21555,0.04876 -0.29886,0.0039 -0.58009,-0.0428 -0.84369,-0.140121 -0.26362,-0.09732 -0.50278,-0.212492 -0.7175,-0.345508 -0.21472,-0.133012 -0.40134,-0.272965 -0.55985,-0.41986 -0.15851,-0.146892 -0.28688,-0.272272 -0.38509,-0.376143 -0.57721,-0.597076 -1.02032,-1.187147 -1.32934,-1.770211 -0.30902,-0.583058 -0.51422,-1.224435 -0.61557,-1.924132 z" />
  <path
     inkscape:connector-curvature="0"
     id="path3231"
     style="font-size:24px;font-style:normal;font-variant:normal;font-weight:normal;font-stretch:normal;line-height:125%;letter-spacing:0px;word-spacing:0px;fill:#e64b00;fill-opacity:1;stroke:none;font-family:MV Boli;-inkscape-font-specification:MV Boli"
     d="m 136.00715,28.565615 c 0.10512,-1.455986 0.24779,-2.92561 0.428,-4.408875 0.18019,-1.483251 0.35191,-2.953253 0.51517,-4.410013 0.0703,-0.605537 0.12984,-1.156177 0.17864,-1.651922 0.0488,-0.49572 0.0855,-0.945291 0.11028,-1.348714 0.0247,-0.403394 0.0341,-0.769362 0.0281,-1.0979 -0.006,-0.32851 -0.0293,-0.63271 -0.0698,-0.912603 -0.008,-0.05246 -0.0162,-0.111503 -0.0256,-0.17711 -0.01,-0.06558 -0.0255,-0.146426 -0.0476,-0.242543 -0.083,0.0011 -0.26077,0.05162 -0.53322,0.15156 -0.27247,0.09997 -0.5903,0.231187 -0.95351,0.39365 -0.36322,0.162495 -0.74433,0.344925 -1.14333,0.547291 -0.39902,0.202395 -0.76659,0.406555 -1.1027,0.612479 -0.26776,0.161246 -0.49157,0.295614 -0.67144,0.403105 -0.17989,0.107517 -0.33627,0.190621 -0.46915,0.249302 -0.1329,0.05871 -0.25587,0.09975 -0.36891,0.123123 -0.11306,0.0234 -0.23184,0.03591 -0.35637,0.03753 -0.25734,0.0034 -0.49461,-0.09867 -0.71179,-0.306149 -0.21719,-0.20745 -0.34985,-0.477361 -0.398,-0.80973 -0.0279,-0.1924 -0.0336,-0.361008 -0.0172,-0.505822 0.0165,-0.144786 0.0558,-0.274551 0.11827,-0.389299 0.0624,-0.114716 0.15271,-0.22324 0.27096,-0.325575 0.11826,-0.102302 0.26524,-0.207186 0.44098,-0.314654 1.93301,-1.181946 3.93559,-2.055933 6.00774,-2.621963 2.07213,-0.565991 4.19153,-0.863165 6.35821,-0.891525 0.17431,-0.0023 0.38247,-6.28e-4 0.6245,0.005 0.24199,0.0056 0.49117,0.01769 0.74755,0.03623 0.25634,0.01858 0.50774,0.04595 0.7542,0.08214 0.24643,0.03622 0.46477,0.07938 0.65501,0.129446 0.19979,0.05874 0.38419,0.183394 0.5532,0.373943 0.16898,0.190589 0.26931,0.395202 0.30101,0.613837 0.0253,0.174942 0.0355,0.345682 0.0306,0.51222 -0.005,0.166576 -0.036,0.311566 -0.0929,0.434972 -0.057,0.12344 -0.14029,0.223111 -0.24987,0.29901 -0.10962,0.07593 -0.25158,0.115028 -0.4259,0.117296 -0.30393,-0.03106 -0.6527,-0.07031 -1.04629,-0.117756 -0.39364,-0.04741 -0.78553,-0.06858 -1.17568,-0.06349 -0.78035,0.01022 -1.55575,0.04008 -2.32621,0.08957 -0.7705,0.04953 -1.54856,0.175812 -2.33421,0.37885 -0.039,0.01805 -0.0593,0.06433 -0.061,0.138811 -0.002,0.07452 0.002,0.16868 0.01,0.282471 0.0435,0.472635 0.0663,0.888566 0.0685,1.247794 0.002,0.35926 -0.0144,0.718748 -0.0496,1.078467 -0.0352,0.359746 -0.085,0.748149 -0.14935,1.165206 -0.0643,0.417085 -0.13741,0.917516 -0.21916,1.501296 -0.0818,0.583802 -0.17408,1.281646 -0.27686,2.093534 -0.10281,0.811906 -0.20403,1.792465 -0.3037,2.94168 l -0.22901,2.552952 c -0.0563,0.587843 -0.0899,1.116237 -0.10098,1.585186 -0.0111,0.468953 -0.0128,0.931209 -0.005,1.386768 -0.0117,0.149121 -0.118,0.290715 -0.31897,0.424784 -0.20099,0.13407 -0.45091,0.203059 -0.74975,0.206968 -0.17433,0.0023 -0.33935,-0.04595 -0.49504,-0.144683 -0.1557,-0.09873 -0.2906,-0.22622 -0.40472,-0.382458 -0.11408,-0.156236 -0.20141,-0.328158 -0.26184,-0.515767 -0.0605,-0.187606 -0.079,-0.373571 -0.0559,-0.557893 z" />
  <g
     style="font-size:40px;font-style:normal;font-variant:normal;font-weight:normal;font-stretch:normal;line-height:125%;letter-spacing:0px;word-spacing:0px;fill:#e64b00;fill-opacity:1;stroke:none;font-family:Calibri;-inkscape-font-specification:Calibri"
     id="text3005">
    <path
       d="m 232.30664,23.621094 c 0.16406,-0.683586 0.40104,-1.38313 0.71094,-2.098633 0.30989,-0.715485 0.67447,-1.433258 1.09375,-2.15332 0.41926,-0.720041 0.88639,-1.428699 1.40137,-2.125977 0.51496,-0.697252 1.06184,-1.37173 1.64062,-2.023437 0.57877,-0.651677 1.17577,-1.266911 1.79102,-1.845704 0.61522,-0.578758 1.23273,-1.109682 1.85253,-1.592773 0.29166,-0.200502 0.56054,-0.332663 0.80665,-0.396484 0.24608,-0.06378 0.50584,-0.09568 0.77929,-0.0957 0.29166,1.9e-5 0.55142,0.04331 0.7793,0.129882 0.22785,0.08661 0.45571,0.243834 0.68359,0.47168 0.0729,0.08205 0.15038,0.154966 0.23242,0.21875 0.082,0.06382 0.1595,0.09572 0.23243,0.0957 0.0182,1.9e-5 0.041,-0.02049 0.0684,-0.06152 0.0273,-0.041 0.057,-0.08885 0.0889,-0.143555 0.0319,-0.05467 0.0706,-0.111635 0.11621,-0.170898 0.0456,-0.05923 0.10025,-0.102521 0.16407,-0.129883 0.15493,-0.0729 0.3395,-0.120749 0.55371,-0.143555 0.21417,-0.02277 0.43065,-0.03416 0.64941,-0.03418 0.41014,1.9e-5 0.80662,0.07522 1.18945,0.225586 0.3828,0.15041 0.72004,0.362323 1.01172,0.635743 0.69269,0.647152 1.21906,1.421891 1.57911,2.324218 0.36,0.902359 0.54001,1.873061 0.54003,2.91211 -2e-5,0.929699 -0.13674,1.932302 -0.41015,3.007812 -0.237,0.947926 -0.57652,1.868498 -1.01856,2.761719 -0.44207,0.893235 -0.9616,1.731776 -1.55859,2.515625 -0.59702,0.783858 -1.26239,1.499352 -1.99609,2.146484 -0.73374,0.647138 -1.51532,1.203127 -2.34473,1.667969 -0.82944,0.464844 -1.69533,0.827148 -2.59766,1.086914 -0.90235,0.259765 -1.81837,0.389648 -2.74804,0.389648 -0.8659,0 -1.64291,-0.132161 -2.33106,-0.396484 -0.68815,-0.264323 -1.27149,-0.63802 -1.75,-1.121094 -0.47852,-0.483071 -0.8431,-1.057289 -1.09375,-1.722656 -0.25065,-0.665361 -0.37598,-1.403642 -0.37598,-2.214844 0,-0.346349 0.0205,-0.694981 0.0615,-1.045898 0.041,-0.350905 0.10709,-0.708652 0.19824,-1.073242 z m 2.31055,0.916015 c -0.10027,0.455735 -0.1504,0.865891 -0.15039,1.230469 -1e-5,0.510421 0.0889,0.959314 0.2666,1.34668 0.17773,0.387373 0.42838,0.71094 0.75195,0.970703 0.32356,0.259768 0.71093,0.455731 1.16211,0.587891 0.45116,0.132163 0.94563,0.198243 1.4834,0.198242 0.63801,1e-6 1.28742,-0.100259 1.94824,-0.300782 0.6608,-0.200518 1.30565,-0.492184 1.93457,-0.875 0.62889,-0.382809 1.23501,-0.843095 1.81836,-1.380859 0.58332,-0.537755 1.12336,-1.148432 1.62012,-1.832031 0.49673,-0.683587 0.93878,-1.426425 1.32617,-2.228516 0.38735,-0.802074 0.69953,-1.654287 0.93652,-2.55664 0.0911,-0.328114 0.15721,-0.669911 0.19825,-1.025391 0.041,-0.355456 0.0615,-0.697253 0.0615,-1.025391 -2e-5,-0.528632 -0.0593,-1.034491 -0.17774,-1.517578 -0.1185,-0.483058 -0.31447,-0.911443 -0.58789,-1.285156 -0.27345,-0.373682 -0.63348,-0.672184 -1.08007,-0.895508 -0.44663,-0.22329 -0.99351,-0.334944 -1.64063,-0.334961 -0.0912,1.7e-5 -0.1618,0.03875 -0.21191,0.116211 -0.0501,0.07749 -0.10256,0.175473 -0.15723,0.293946 -0.0456,0.100276 -0.098,0.205094 -0.15723,0.314453 -0.0593,0.109391 -0.13673,0.207372 -0.23242,0.293945 -0.0957,0.0866 -0.2142,0.157242 -0.35547,0.211914 -0.14129,0.0547 -0.31674,0.08205 -0.52636,0.08203 -0.15497,1.6e-5 -0.29168,-0.03416 -0.41016,-0.102539 -0.1185,-0.06834 -0.23699,-0.161768 -0.35547,-0.280273 -0.0547,-0.05467 -0.10027,-0.09797 -0.13672,-0.129883 -0.0365,-0.03188 -0.0775,-0.04783 -0.12304,-0.04785 -0.0821,1.7e-5 -0.18914,0.03648 -0.32129,0.109375 -0.13218,0.07293 -0.2689,0.159522 -0.41016,0.259766 -0.14129,0.100276 -0.27801,0.205094 -0.41016,0.314453 -0.13217,0.109391 -0.23471,0.205094 -0.30761,0.28711 -0.61981,0.638035 -1.23732,1.333021 -1.85254,2.08496 -0.61525,0.751966 -1.18263,1.528983 -1.70215,2.331055 -0.51954,0.802093 -0.97299,1.611012 -1.36035,2.426758 -0.38738,0.815763 -0.66765,1.601895 -0.84082,2.358398 z"
       style="font-size:28px;fill:#e64b00;font-family:MV Boli;-inkscape-font-specification:MV Boli"
       id="path3089" />
    <path
       d="m 251.81641,29.9375 c 0.0365,-0.164062 0.0889,-0.319009 0.15722,-0.464844 0.0684,-0.145832 0.14355,-0.309894 0.22559,-0.492187 0.082,-0.18229 0.16862,-0.398761 0.25976,-0.649414 0.0911,-0.250649 0.18229,-0.562823 0.27344,-0.936524 l 0.5332,-2.1875 c 0.1276,-0.52864 0.25977,-1.068678 0.39649,-1.620117 0.13671,-0.551425 0.29622,-1.173494 0.47851,-1.866211 0.14583,-0.55598 0.32129,-1.137034 0.52637,-1.743164 0.20507,-0.606109 0.41927,-1.232735 0.64258,-1.879883 0.2233,-0.647122 0.44889,-1.312486 0.67676,-1.996094 0.22786,-0.683578 0.43293,-1.389958 0.61523,-2.11914 0.009,-0.02733 0.0137,-0.06379 0.0137,-0.109375 0,-0.0729 -0.0228,-0.118473 -0.0684,-0.136719 -0.0456,-0.01821 -0.10482,-0.02733 -0.17773,-0.02734 -0.22787,1.7e-5 -0.417,-0.03416 -0.56738,-0.102539 -0.1504,-0.06834 -0.26889,-0.157209 -0.35547,-0.266601 -0.0866,-0.109358 -0.14812,-0.234683 -0.18457,-0.375977 -0.0365,-0.141258 -0.0547,-0.28937 -0.0547,-0.444336 0,-0.401023 0.0479,-0.722312 0.14356,-0.963867 0.0957,-0.241517 0.21874,-0.428366 0.36914,-0.560547 0.15038,-0.132142 0.31444,-0.227845 0.49218,-0.287109 0.17773,-0.05922 0.35091,-0.107077 0.51954,-0.143555 0.16861,-0.03644 0.31672,-0.07517 0.44433,-0.116211 0.1276,-0.041 0.21874,-0.116191 0.27344,-0.225586 0.0911,-0.191385 0.17545,-0.3941847 0.25293,-0.6083982 0.0775,-0.2141715 0.17545,-0.4124135 0.29394,-0.5947265 0.11848,-0.18227 0.26432,-0.3326604 0.4375,-0.4511719 0.17317,-0.1184675 0.40104,-0.1777122 0.6836,-0.1777344 0.20051,2.22e-5 0.37824,0.05471 0.5332,0.1640625 0.15494,0.1093969 0.28938,0.2461155 0.40332,0.4101563 0.11392,0.1640839 0.2119,0.3395395 0.29395,0.5263671 0.082,0.1868699 0.15493,0.3577682 0.21875,0.5126951 0.93879,0.02736 1.75226,0.08205 2.44043,0.164063 0.68813,0.08205 1.20538,0.154968 1.55175,0.21875 0.68358,0.127624 1.36945,0.31903 2.05762,0.574219 0.68813,0.255227 1.30792,0.585631 1.85938,0.99121 0.55141,0.405618 1.00258,0.884133 1.35351,1.435547 0.35089,0.551449 0.52635,1.182634 0.52637,1.893555 -2e-5,0.364598 -0.041,0.742853 -0.12305,1.134766 l -0.0957,0.478515 c -0.0729,0.382826 -0.22561,0.738294 -0.45801,1.066406 -0.23244,0.328138 -0.49449,0.624361 -0.78613,0.888672 -0.81122,0.747407 -1.69989,1.374034 -2.66602,1.879883 -0.96616,0.505869 -1.97332,0.931975 -3.02148,1.27832 -1.04819,0.346363 -2.11915,0.638029 -3.21289,0.875 -1.09376,0.236987 -2.17384,0.460294 -3.24024,0.669922 l -0.38281,0.05469 c -0.20964,0.02735 -0.33269,0.104824 -0.36914,0.232422 -0.1823,0.628912 -0.32585,1.180344 -0.43066,1.654297 -0.10483,0.473963 -0.20281,0.927413 -0.29395,1.360351 -0.0911,0.432946 -0.1823,0.865888 -0.27344,1.298828 -0.0911,0.432945 -0.20508,0.913739 -0.34179,1.442383 -0.0456,0.173178 -0.12761,0.378256 -0.2461,0.615234 -0.11849,0.23698 -0.25977,0.460287 -0.42383,0.669922 -0.16406,0.209635 -0.35319,0.389648 -0.56738,0.540039 -0.2142,0.15039 -0.43978,0.225585 -0.67676,0.225586 -0.16406,-1e-6 -0.30534,-0.04557 -0.42382,-0.136718 -0.1185,-0.09115 -0.21648,-0.207358 -0.29395,-0.348633 -0.0775,-0.141277 -0.13672,-0.293946 -0.17773,-0.458008 -0.041,-0.164062 -0.0615,-0.31901 -0.0615,-0.464844 0,-0.05469 0,-0.107096 0,-0.157226 0,-0.05013 0.009,-0.09798 0.0273,-0.143555 z m 5.42773,-10.103516 c -0.0182,0.06381 -0.0433,0.143566 -0.0752,0.239258 -0.0319,0.09571 -0.0615,0.195974 -0.0889,0.300781 -0.0274,0.104828 -0.0501,0.200531 -0.0684,0.28711 -0.0182,0.0866 -0.0274,0.148122 -0.0274,0.18457 0,0.04558 0.007,0.08432 0.0205,0.116211 0.0137,0.03191 0.0433,0.04786 0.0889,0.04785 0.0273,9e-6 0.11392,-0.01138 0.25977,-0.03418 0.14582,-0.02278 0.32128,-0.0524 0.52636,-0.08887 0.20507,-0.03645 0.4261,-0.07746 0.66309,-0.123047 0.23697,-0.04556 0.46483,-0.09114 0.68359,-0.136719 0.59244,-0.127594 1.2259,-0.289378 1.90039,-0.485351 0.67447,-0.195953 1.34667,-0.416982 2.0166,-0.663086 0.66991,-0.246083 1.31021,-0.510405 1.9209,-0.792969 0.61066,-0.28254 1.15298,-0.583321 1.62696,-0.902344 0.50128,-0.337226 0.90232,-0.674466 1.20312,-1.011719 0.30076,-0.337225 0.45115,-0.697251 0.45117,-1.080078 -2e-5,-0.227849 -0.0296,-0.430648 -0.0889,-0.608398 -0.0593,-0.177719 -0.12535,-0.339503 -0.19825,-0.485352 -0.27345,-0.446598 -0.61525,-0.797509 -1.02539,-1.052734 -0.41017,-0.255191 -0.85678,-0.446597 -1.33984,-0.574219 -0.48309,-0.127586 -0.98895,-0.209617 -1.51758,-0.246094 -0.52866,-0.03644 -1.04819,-0.05467 -1.55859,-0.05469 -0.13673,1.8e-5 -0.34409,0.0091 -0.62207,0.02734 -0.27801,0.01825 -0.56968,0.04103 -0.875,0.06836 -0.30535,0.02736 -0.5879,0.06154 -0.84766,0.102539 -0.25978,0.04103 -0.43523,0.08888 -0.52637,0.143555 -0.0456,0.02736 -0.0843,0.07293 -0.11621,0.136719 -0.0319,0.06382 -0.057,0.118506 -0.0752,0.164062 -0.0729,0.182309 -0.17319,0.435238 -0.30078,0.758789 -0.12762,0.323584 -0.26434,0.685888 -0.41016,1.086914 -0.14584,0.401057 -0.29851,0.824885 -0.45801,1.271484 -0.15951,0.446629 -0.31218,0.88185 -0.45801,1.305665 -0.14584,0.42384 -0.28028,0.820324 -0.40332,1.189453 -0.12305,0.369152 -0.21648,0.672211 -0.28027,0.909179 z"
       style="font-size:28px;fill:#e64b00;font-family:MV Boli;-inkscape-font-specification:MV Boli"
       id="path3091" />
    <path
       d="m 276.37109,28.378906 c 0.34635,-1.513017 0.736,-3.039708 1.16895,-4.580078 0.43293,-1.540356 0.85448,-3.067047 1.26465,-4.580078 0.17316,-0.628894 0.32583,-1.200834 0.45801,-1.71582 0.13214,-0.514961 0.2438,-0.982083 0.33496,-1.401368 0.0911,-0.419255 0.15949,-0.799789 0.20507,-1.141601 0.0456,-0.341781 0.0684,-0.658512 0.0684,-0.950195 -10e-6,-0.05467 -10e-6,-0.116195 0,-0.184571 -10e-6,-0.06834 -0.005,-0.152652 -0.0137,-0.252929 -0.0912,1.7e-5 -0.29396,0.05015 -0.6084,0.15039 -0.31446,0.100277 -0.6836,0.232439 -1.10742,0.396485 -0.42384,0.164078 -0.87045,0.348649 -1.33984,0.553711 -0.46941,0.205093 -0.90463,0.41245 -1.30567,0.62207 -0.31901,0.164077 -0.58562,0.300796 -0.7998,0.410156 -0.2142,0.10939 -0.39877,0.1937 -0.55371,0.25293 -0.15496,0.05926 -0.29623,0.100275 -0.42383,0.123047 -0.12761,0.0228 -0.25977,0.03419 -0.39648,0.03418 -0.28256,1.5e-5 -0.52638,-0.10936 -0.73145,-0.328125 -0.20508,-0.218735 -0.30762,-0.501286 -0.30762,-0.847656 0,-0.200505 0.0205,-0.37596 0.0615,-0.526367 0.041,-0.150374 0.10481,-0.284814 0.1914,-0.40332 0.0866,-0.118473 0.2028,-0.230127 0.34864,-0.334961 0.14582,-0.104801 0.32356,-0.211897 0.5332,-0.321289 2.30598,-1.203107 4.63931,-2.084942 7,-2.645508 2.36066,-0.560527 4.73045,-0.8407998 7.10937,-0.8408205 0.19139,2.07e-5 0.41925,0.00458 0.6836,0.013672 0.2643,0.00914 0.53546,0.025086 0.81347,0.047852 0.27798,0.022807 0.54914,0.054708 0.81348,0.095703 0.2643,0.04104 0.49672,0.08889 0.69727,0.143555 0.20961,0.06382 0.3919,0.195984 0.54687,0.396484 0.15493,0.200541 0.2324,0.414733 0.23242,0.642578 -2e-5,0.182311 -0.016,0.360045 -0.0479,0.533203 -0.0319,0.173196 -0.0889,0.323587 -0.1709,0.451172 -0.0821,0.127623 -0.18915,0.230162 -0.32129,0.307617 -0.13218,0.07749 -0.29396,0.116229 -0.48535,0.116211 -0.32814,-0.03644 -0.70412,-0.08201 -1.12793,-0.136718 -0.42385,-0.05467 -0.84995,-0.08201 -1.27832,-0.08203 -0.85679,1.9e-5 -1.71128,0.02053 -2.56347,0.06152 -0.85223,0.04103 -1.72495,0.161802 -2.61817,0.362305 -0.0456,0.01825 -0.0752,0.0661 -0.0889,0.143554 -0.0137,0.07749 -0.0251,0.175473 -0.0342,0.293946 -0.0274,0.492204 -0.0684,0.925146 -0.12304,1.298828 -0.0547,0.373713 -0.1299,0.747411 -0.22559,1.121093 -0.0957,0.373713 -0.21193,0.777033 -0.34863,1.209961 -0.13673,0.432956 -0.29624,0.952487 -0.47852,1.558594 -0.1823,0.606131 -0.39422,1.33074 -0.63574,2.173828 -0.24155,0.843108 -0.50815,1.861662 -0.7998,3.055664 l -0.65625,2.652344 c -0.15496,0.610681 -0.27573,1.159834 -0.36231,1.647461 -0.0866,0.487632 -0.16179,0.968426 -0.22558,1.442383 -0.0365,0.154949 -0.17547,0.300782 -0.417,0.4375 -0.24154,0.136719 -0.52637,0.205078 -0.85449,0.205078 -0.19141,0 -0.36459,-0.05241 -0.51953,-0.157227 -0.15496,-0.104817 -0.28256,-0.239257 -0.38281,-0.40332 -0.10027,-0.164061 -0.16863,-0.344074 -0.20508,-0.540039 -0.0365,-0.195962 -0.0274,-0.389646 0.0273,-0.581055 z"
       style="font-size:28px;fill:#e64b00;font-family:MV Boli;-inkscape-font-specification:MV Boli"
       id="path3093" />
    <path
       d="m 290.19336,22.732422 c 0.082,-0.355461 0.18001,-0.749666 0.29394,-1.182617 0.11393,-0.432934 0.23698,-0.881826 0.36915,-1.34668 0.13215,-0.464833 0.26659,-0.934233 0.40332,-1.408203 0.13671,-0.473946 0.27115,-0.929675 0.40332,-1.367188 0.13215,-0.437486 0.25292,-0.845363 0.3623,-1.223632 0.10937,-0.378241 0.20507,-0.69953 0.28711,-0.963868 0.17317,-0.592432 0.33723,-1.187158 0.49219,-1.784179 0.15494,-0.596988 0.30533,-1.223615 0.45117,-1.879883 0.18228,-0.35545 0.42838,-0.608379 0.73828,-0.758789 0.30989,-0.150371 0.64713,-0.225566 1.01172,-0.225586 0.29166,0.154968 0.5218,0.366881 0.69043,0.635742 0.16861,0.268899 0.25292,0.571959 0.25293,0.90918 -1e-5,0.236997 -0.0388,0.508156 -0.11621,0.813476 -0.0775,0.305356 -0.17547,0.633481 -0.29395,0.984375 -0.1185,0.350928 -0.25066,0.720068 -0.39648,1.107422 -0.14584,0.387385 -0.28712,0.786148 -0.42383,1.196289 -0.25522,0.74741 -0.51043,1.494805 -0.76563,2.242188 -0.25521,0.747407 -0.50586,1.535818 -0.75195,2.365234 -0.0638,0.21876 -0.13217,0.437509 -0.20508,0.65625 -0.0729,0.218759 -0.14812,0.455738 -0.22558,0.710938 -0.0775,0.255216 -0.16179,0.540047 -0.25293,0.854492 -0.0912,0.31446 -0.1823,0.676764 -0.27344,1.086914 -0.10938,0.483079 -0.20508,0.96843 -0.28711,1.456055 -0.082,0.487634 -0.15951,0.977543 -0.23242,1.469726 -0.0729,0.492191 -0.15495,0.988935 -0.24609,1.490234 -0.0912,0.501304 -0.20053,1.007163 -0.32813,1.517579 -0.0456,0.182292 -0.12533,0.344075 -0.23926,0.485351 -0.11393,0.141276 -0.24382,0.262044 -0.38965,0.362305 -0.14583,0.10026 -0.30078,0.177734 -0.46484,0.232422 -0.16407,0.05469 -0.31901,0.08203 -0.46484,0.08203 -0.14584,-1e-6 -0.28484,-0.01139 -0.417,-0.03418 -0.13216,-0.02279 -0.2347,-0.0752 -0.30761,-0.157226 -0.10938,-0.11849 -0.19597,-0.250652 -0.25977,-0.396485 -0.0638,-0.145833 -0.0957,-0.300781 -0.0957,-0.464843 0,-0.04557 0.002,-0.08887 0.007,-0.129883 0.005,-0.04101 0.0114,-0.08431 0.0205,-0.129883 z"
       style="font-size:28px;fill:#e64b00;font-family:MV Boli;-inkscape-font-specification:MV Boli"
       id="path3095" />
    <path
       d="m 296.83789,23.621094 c 0.16406,-0.683586 0.40104,-1.38313 0.71094,-2.098633 0.30989,-0.715485 0.67447,-1.433258 1.09375,-2.15332 0.41926,-0.720041 0.88639,-1.428699 1.40137,-2.125977 0.51496,-0.697252 1.06184,-1.37173 1.64062,-2.023437 0.57877,-0.651677 1.17577,-1.266911 1.79102,-1.845704 0.61522,-0.578758 1.23273,-1.109682 1.85253,-1.592773 0.29166,-0.200502 0.56054,-0.332663 0.80665,-0.396484 0.24608,-0.06378 0.50584,-0.09568 0.77929,-0.0957 0.29166,1.9e-5 0.55142,0.04331 0.7793,0.129882 0.22785,0.08661 0.45571,0.243834 0.68359,0.47168 0.0729,0.08205 0.15038,0.154966 0.23242,0.21875 0.082,0.06382 0.1595,0.09572 0.23243,0.0957 0.0182,1.9e-5 0.041,-0.02049 0.0684,-0.06152 0.0273,-0.041 0.0569,-0.08885 0.0889,-0.143555 0.0319,-0.05467 0.0706,-0.111635 0.11621,-0.170898 0.0456,-0.05923 0.10025,-0.102521 0.16407,-0.129883 0.15493,-0.0729 0.3395,-0.120749 0.55371,-0.143555 0.21417,-0.02277 0.43065,-0.03416 0.64941,-0.03418 0.41014,1.9e-5 0.80662,0.07522 1.18945,0.225586 0.3828,0.15041 0.72004,0.362323 1.01172,0.635743 0.69269,0.647152 1.21906,1.421891 1.57911,2.324218 0.36,0.902359 0.54001,1.873061 0.54003,2.91211 -2e-5,0.929699 -0.13674,1.932302 -0.41015,3.007812 -0.237,0.947926 -0.57652,1.868498 -1.01856,2.761719 -0.44207,0.893235 -0.9616,1.731776 -1.55859,2.515625 -0.59702,0.783858 -1.26239,1.499352 -1.99609,2.146484 -0.73374,0.647138 -1.51532,1.203127 -2.34473,1.667969 -0.82944,0.464844 -1.69533,0.827148 -2.59766,1.086914 -0.90235,0.259765 -1.81837,0.389648 -2.74804,0.389648 -0.8659,0 -1.64291,-0.132161 -2.33106,-0.396484 -0.68815,-0.264323 -1.27149,-0.63802 -1.75,-1.121094 -0.47852,-0.483071 -0.8431,-1.057289 -1.09375,-1.722656 -0.25065,-0.665361 -0.37598,-1.403642 -0.37598,-2.214844 0,-0.346349 0.0205,-0.694981 0.0615,-1.045898 0.041,-0.350905 0.10709,-0.708652 0.19824,-1.073242 z m 2.31055,0.916015 c -0.10027,0.455735 -0.1504,0.865891 -0.15039,1.230469 -10e-6,0.510421 0.0889,0.959314 0.2666,1.34668 0.17773,0.387373 0.42838,0.71094 0.75195,0.970703 0.32356,0.259768 0.71093,0.455731 1.16211,0.587891 0.45116,0.132163 0.94563,0.198243 1.4834,0.198242 0.63801,1e-6 1.28742,-0.100259 1.94824,-0.300782 0.6608,-0.200518 1.30565,-0.492184 1.93457,-0.875 0.62889,-0.382809 1.23501,-0.843095 1.81836,-1.380859 0.58332,-0.537755 1.12336,-1.148432 1.62012,-1.832031 0.49673,-0.683587 0.93878,-1.426425 1.32617,-2.228516 0.38735,-0.802074 0.69953,-1.654287 0.93652,-2.55664 0.0911,-0.328114 0.15721,-0.669911 0.19825,-1.025391 0.041,-0.355456 0.0615,-0.697253 0.0615,-1.025391 -2e-5,-0.528632 -0.0593,-1.034491 -0.17774,-1.517578 -0.1185,-0.483058 -0.31447,-0.911443 -0.58789,-1.285156 -0.27345,-0.373682 -0.63348,-0.672184 -1.08007,-0.895508 -0.44663,-0.22329 -0.99351,-0.334944 -1.64063,-0.334961 -0.0912,1.7e-5 -0.1618,0.03875 -0.21191,0.116211 -0.0501,0.07749 -0.10256,0.175473 -0.15723,0.293946 -0.0456,0.100276 -0.098,0.205094 -0.15723,0.314453 -0.0593,0.109391 -0.13673,0.207372 -0.23242,0.293945 -0.0957,0.0866 -0.2142,0.157242 -0.35547,0.211914 -0.14129,0.0547 -0.31674,0.08205 -0.52636,0.08203 -0.15497,1.6e-5 -0.29168,-0.03416 -0.41016,-0.102539 -0.1185,-0.06834 -0.23699,-0.161768 -0.35547,-0.280273 -0.0547,-0.05467 -0.10027,-0.09797 -0.13672,-0.129883 -0.0365,-0.03188 -0.0775,-0.04783 -0.12304,-0.04785 -0.082,1.7e-5 -0.18914,0.03648 -0.32129,0.109375 -0.13218,0.07293 -0.2689,0.159522 -0.41016,0.259766 -0.14129,0.100276 -0.27801,0.205094 -0.41016,0.314453 -0.13217,0.109391 -0.23471,0.205094 -0.30761,0.28711 -0.61981,0.638035 -1.23732,1.333021 -1.85254,2.08496 -0.61525,0.751966 -1.18263,1.528983 -1.70215,2.331055 -0.51954,0.802093 -0.97299,1.611012 -1.36035,2.426758 -0.38738,0.815763 -0.66765,1.601895 -0.84082,2.358398 z"
       style="font-size:28px;fill:#e64b00;font-family:MV Boli;-inkscape-font-specification:MV Boli"
       id="path3097" />
    <path
       d="m 320.83203,14.037109 c 0.0547,-0.236962 0.12304,-0.489891 0.20508,-0.758789 0.082,-0.268862 0.1914,-0.514956 0.32812,-0.738281 0.13672,-0.223289 0.31445,-0.410138 0.53321,-0.560547 0.21874,-0.150372 0.49673,-0.225567 0.83398,-0.225586 0.319,1.9e-5 0.60383,0.08889 0.85449,0.266602 0.25064,0.177753 0.47623,0.357765 0.67676,0.540039 0.23697,0.154966 0.46483,0.469418 0.6836,0.943359 0.21873,0.473975 0.44432,1.057308 0.67675,1.75 0.23241,0.692723 0.48306,1.476577 0.75196,2.351563 0.26886,0.875012 0.56509,1.791027 0.88867,2.748047 0.32355,0.95704 0.68586,1.934578 1.08691,2.932617 0.40103,0.998053 0.85676,1.971034 1.36719,2.918945 0.082,0.145838 0.17772,0.316736 0.28711,0.512695 0.10936,0.195968 0.22101,0.380538 0.33496,0.553711 0.11392,0.173181 0.21873,0.319014 0.31445,0.4375 0.0957,0.118493 0.16633,0.177737 0.21192,0.177735 0.0273,2e-6 0.0592,-0.06836 0.0957,-0.205078 0.0364,-0.136716 0.0775,-0.300778 0.12305,-0.492188 0.0455,-0.191403 0.0934,-0.387366 0.14355,-0.587891 0.0501,-0.200516 0.098,-0.364578 0.14356,-0.492187 0.17316,-0.419266 0.36228,-0.90006 0.56738,-1.442383 0.20506,-0.542311 0.43292,-1.19856 0.68359,-1.96875 0.25064,-0.770173 0.52635,-1.68391 0.82715,-2.741211 0.30076,-1.05728 0.63344,-2.310534 0.99805,-3.759765 0.0911,-0.355454 0.18911,-0.758774 0.29394,-1.209961 0.1048,-0.451156 0.20506,-0.911442 0.30079,-1.38086 0.0957,-0.469383 0.17999,-0.927391 0.25292,-1.374023 0.0729,-0.446596 0.12303,-0.833965 0.1504,-1.162109 -3e-5,-0.05467 0.005,-0.150371 0.0137,-0.28711 0.009,-0.136699 0.025,-0.291646 0.0478,-0.464844 0.0228,-0.173156 0.0524,-0.3531691 0.0889,-0.5400387 0.0364,-0.186828 0.0843,-0.3577262 0.14355,-0.5126953 0.0592,-0.1549264 0.13442,-0.2825305 0.22559,-0.3828125 0.0911,-0.1002386 0.2005,-0.1503688 0.32812,-0.1503906 0.12758,2.18e-5 0.28481,0.018251 0.47168,0.054687 0.18683,0.03648 0.35773,0.091167 0.5127,0.1640625 0.17315,0.2370005 0.33038,0.521831 0.47168,0.8544922 0.14125,0.3327029 0.21189,0.7815959 0.21191,1.3466799 -2e-5,0.355488 -0.0365,0.781594 -0.10937,1.27832 -0.0729,0.496763 -0.16637,1.029965 -0.28028,1.599609 -0.11395,0.569678 -0.24156,1.155289 -0.38281,1.756836 -0.1413,0.601577 -0.28485,1.178074 -0.43066,1.729493 -0.14586,0.551444 -0.28486,1.057303 -0.417,1.517578 -0.13218,0.460297 -0.24383,0.840831 -0.33496,1.141601 -0.16408,0.528656 -0.33498,1.073252 -0.51269,1.633789 -0.17776,0.560555 -0.37372,1.148445 -0.58789,1.763672 -0.21422,0.615241 -0.44664,1.266933 -0.69727,1.955078 -0.25067,0.688156 -0.53094,1.424158 -0.84082,2.208008 -0.13674,0.355471 -0.29396,0.71094 -0.47168,1.066406 -0.17775,0.355471 -0.38055,0.676759 -0.6084,0.963868 -0.22788,0.287109 -0.48537,0.519531 -0.77246,0.697265 -0.28713,0.177735 -0.60841,0.266602 -0.96387,0.266602 -0.20965,0 -0.42612,-0.02962 -0.64941,-0.08887 -0.22332,-0.05925 -0.41245,-0.180013 -0.56738,-0.362305 -0.74741,-0.865884 -1.41278,-1.84798 -1.9961,-2.946289 -0.58334,-1.098303 -1.10515,-2.246739 -1.56543,-3.445313 -0.46029,-1.19856 -0.86817,-2.410798 -1.22363,-3.636718 -0.35548,-1.2259 -0.67905,-2.399402 -0.9707,-3.520508 l -0.082,-0.314453 c -0.0365,-0.12759 -0.0707,-0.257473 -0.10254,-0.389649 -0.0319,-0.132147 -0.0638,-0.252915 -0.0957,-0.362304 -0.0319,-0.10936 -0.0684,-0.198228 -0.10937,-0.266602 -0.041,-0.06834 -0.0889,-0.102524 -0.14356,-0.102539 -0.0547,1.5e-5 -0.12305,0.100275 -0.20507,0.300781 -0.082,0.200536 -0.16407,0.426121 -0.2461,0.676758 -0.082,0.250665 -0.15723,0.49448 -0.22558,0.731445 -0.0684,0.236993 -0.11167,0.387383 -0.12989,0.451172 -0.0638,0.236992 -0.15951,0.57651 -0.28711,1.018555 -0.12761,0.442069 -0.27116,0.941092 -0.43066,1.49707 -0.15951,0.556 -0.33269,1.14389 -0.51953,1.763672 -0.18686,0.6198 -0.36687,1.219083 -0.54004,1.797852 -0.17318,0.578782 -0.33725,1.114263 -0.49219,1.606445 -0.15495,0.492192 -0.28255,0.888676 -0.38281,1.189453 -0.082,0.236983 -0.1823,0.542321 -0.30078,0.916016 -0.1185,0.373701 -0.23699,0.749677 -0.35547,1.127929 -0.11849,0.378257 -0.22787,0.722333 -0.32812,1.032227 -0.10027,0.309897 -0.16407,0.514974 -0.19141,0.615234 -0.10938,0.346355 -0.27116,0.608399 -0.48535,0.786133 -0.2142,0.177734 -0.43067,0.266601 -0.64942,0.266602 -0.13672,-10e-7 -0.27344,-0.04785 -0.41015,-0.143555 -0.13672,-0.0957 -0.25749,-0.211914 -0.36231,-0.348633 -0.10482,-0.136718 -0.19141,-0.28483 -0.25976,-0.444336 -0.0684,-0.159504 -0.10254,-0.303059 -0.10254,-0.430664 0,-0.07292 0.0228,-0.189126 0.0684,-0.348633 0.0456,-0.159504 0.11848,-0.430662 0.21875,-0.813476 l 0.35547,-1.408203 z"
       style="font-size:28px;fill:#e64b00;font-family:MV Boli;-inkscape-font-specification:MV Boli"
       id="path3099" />
  </g>
  <g
     style="font-size:40px;font-style:normal;font-variant:normal;font-weight:normal;font-stretch:normal;line-height:125%;letter-spacing:0px;word-spacing:0px;fill:#e64b00;fill-opacity:1;stroke:none;font-family:Calibri;-inkscape-font-specification:Calibri"
     id="text3005-4">
    <path
       d="m 183.11914,31.230469 c -0.19142,0 -0.36004,-0.03646 -0.50586,-0.109375 -0.14585,-0.07292 -0.26661,-0.16862 -0.3623,-0.28711 -0.0957,-0.118489 -0.16864,-0.255207 -0.21875,-0.410156 -0.0502,-0.154947 -0.0752,-0.309895 -0.0752,-0.464844 -1e-5,-0.136717 0.0365,-0.325845 0.10938,-0.567382 0.0729,-0.241535 0.16632,-0.512694 0.28027,-0.813477 0.11392,-0.300778 0.23924,-0.615231 0.37598,-0.943359 0.1367,-0.328122 0.26886,-0.642574 0.39648,-0.94336 0.12759,-0.300776 0.23696,-0.578771 0.32813,-0.833984 0.0911,-0.255203 0.15493,-0.455724 0.1914,-0.601563 0.0364,-0.164056 0.082,-0.360019 0.13672,-0.58789 0.0547,-0.227858 0.1162,-0.47623 0.18457,-0.745117 0.0683,-0.268873 0.1367,-0.551425 0.20508,-0.847657 0.0683,-0.296215 0.13898,-0.594718 0.21191,-0.895508 -0.12762,0.02735 -0.28484,0.05242 -0.47168,0.0752 -0.18686,0.0228 -0.3851,0.0433 -0.59472,0.06152 -0.3008,0.02735 -0.59702,0.06837 -0.88868,0.123047 -0.29168,0.0547 -0.59018,0.11622 -0.8955,0.18457 -0.30535,0.06837 -0.62209,0.141285 -0.9502,0.21875 -0.32814,0.07748 -0.67905,0.157235 -1.05273,0.239258 -0.54689,0.118498 -1.09376,0.250659 -1.64063,0.396485 -0.54688,0.14584 -1.11654,0.218757 -1.70898,0.21875 -0.1823,7e-6 -0.35092,-0.04784 -0.50586,-0.143555 -0.15496,-0.0957 -0.32813,-0.166334 -0.51953,-0.211914 -0.1823,0.291674 -0.35548,0.603848 -0.51953,0.936523 -0.16407,0.332689 -0.31446,0.674486 -0.45118,1.025391 -0.13672,0.350917 -0.25977,0.697271 -0.36914,1.039062 -0.10938,0.341802 -0.20508,0.66309 -0.28711,0.963868 -0.0456,0.164066 -0.0843,0.37598 -0.11621,0.635742 -0.0319,0.259768 -0.0615,0.524091 -0.0889,0.792969 -0.0273,0.268882 -0.0547,0.526369 -0.082,0.77246 -0.0273,0.246096 -0.0547,0.442059 -0.082,0.587891 -0.0273,0.13672 -0.082,0.27116 -0.16406,0.40332 -0.082,0.132162 -0.1823,0.25293 -0.30078,0.362305 -0.11849,0.109375 -0.25066,0.198242 -0.39648,0.266602 -0.14584,0.06836 -0.29167,0.102539 -0.4375,0.102539 -0.25522,0 -0.46257,-0.0752 -0.62207,-0.225586 -0.15951,-0.150391 -0.28712,-0.337239 -0.38282,-0.560547 -0.0957,-0.223306 -0.16178,-0.467121 -0.19824,-0.731445 -0.0365,-0.264322 -0.0547,-0.505858 -0.0547,-0.72461 0,-0.555987 0.0684,-1.132484 0.20508,-1.729492 0.13672,-0.597001 0.32129,-1.20312 0.55371,-1.818359 0.23242,-0.615228 0.50586,-1.235019 0.82031,-1.859375 0.31445,-0.624341 0.65397,-1.246411 1.01856,-1.866211 0.30078,-0.55598 0.67447,-1.198557 1.12109,-1.927735 0.44661,-0.729154 0.94563,-1.478828 1.49707,-2.249023 0.55143,-0.770168 1.14843,-1.524399 1.79102,-2.262695 0.64257,-0.738265 1.31021,-1.396793 2.00293,-1.975586 0.69269,-0.578758 1.40363,-1.04588 2.13281,-1.401367 0.72915,-0.35545 1.45376,-0.533184 2.17383,-0.533204 0.75649,2e-5 1.38768,0.136739 1.89355,0.410157 0.50585,0.273456 0.90917,0.642596 1.20996,1.107422 0.30077,0.464861 0.51268,1.007178 0.63575,1.626953 0.12302,0.619807 0.18455,1.276057 0.18457,1.96875 -2e-5,0.610691 -0.0388,1.239596 -0.11621,1.886718 -0.0775,0.647148 -0.1732,1.280611 -0.28711,1.900391 -0.11395,0.619802 -0.237,1.216806 -0.36914,1.791016 -0.13218,0.574227 -0.25295,1.093758 -0.36231,1.558593 l -0.47851,1.859375 c -0.0182,0.05469 -0.0524,0.164068 -0.10254,0.328125 -0.0501,0.164068 -0.11395,0.36231 -0.19141,0.594727 -0.0775,0.232426 -0.16408,0.483077 -0.25976,0.751953 -0.0957,0.268884 -0.19143,0.533207 -0.28711,0.792969 -0.0957,0.259768 -0.18687,0.499026 -0.27344,0.717773 -0.0866,0.218752 -0.1618,0.396487 -0.22559,0.533203 l 0.0137,-0.01367 c -0.0638,0.236981 -0.13217,0.478518 -0.20507,0.72461 -0.0729,0.246095 -0.1732,0.467123 -0.30079,0.663086 -0.12762,0.195964 -0.29168,0.355469 -0.49218,0.478515 -0.20054,0.123047 -0.4603,0.184571 -0.7793,0.184571 z m 0.69727,-17.117188 c -0.41018,1.7e-5 -0.81805,0.08433 -1.22364,0.25293 -0.40561,0.168636 -0.80437,0.389665 -1.19629,0.663086 -0.39194,0.273453 -0.77247,0.592463 -1.1416,0.957031 -0.36915,0.364598 -0.72006,0.738296 -1.05273,1.121094 -0.33269,0.382826 -0.64487,0.767917 -0.93653,1.155273 -0.29167,0.387383 -0.55599,0.74513 -0.79296,1.073242 -0.0365,0.0547 -0.0843,0.125338 -0.14356,0.211915 -0.0593,0.0866 -0.1185,0.182303 -0.17773,0.287109 -0.0593,0.104829 -0.11622,0.214204 -0.1709,0.328125 -0.0547,0.113943 -0.10027,0.216482 -0.13672,0.307617 l 1.4082,0 c 0.51041,1.1e-5 1.09374,-0.03645 1.75,-0.109375 0.65624,-0.07291 1.30565,-0.159494 1.94825,-0.259766 0.64256,-0.100249 1.23273,-0.202788 1.7705,-0.307617 0.53775,-0.104806 0.94335,-0.184559 1.2168,-0.239258 0.0364,-0.118477 0.0706,-0.277982 0.10254,-0.478515 0.0319,-0.200509 0.0615,-0.423816 0.0889,-0.669922 0.0273,-0.246081 0.0478,-0.508125 0.0615,-0.786133 0.0137,-0.277981 0.0205,-0.562811 0.0205,-0.854492 -2e-5,-0.236965 -0.009,-0.508123 -0.0273,-0.813477 -0.0182,-0.305323 -0.0729,-0.59471 -0.16406,-0.868164 -0.0912,-0.273421 -0.23016,-0.503564 -0.41699,-0.690429 -0.18687,-0.186832 -0.44891,-0.280257 -0.78613,-0.280274 z"
       style="font-size:28px;fill:#e64b00;font-family:MV Boli;-inkscape-font-specification:MV Boli"
       id="path3084" />
    <path
       d="m 194.69922,14.537109 c 0.0547,-0.236962 0.12304,-0.489891 0.20508,-0.758789 0.082,-0.268862 0.1914,-0.514956 0.32812,-0.738281 0.13671,-0.223289 0.31445,-0.410138 0.5332,-0.560547 0.21875,-0.150372 0.49674,-0.225567 0.83399,-0.225586 0.319,1.9e-5 0.60383,0.08889 0.85449,0.266602 0.25064,0.177753 0.47623,0.357765 0.67676,0.540039 0.23697,0.154966 0.46483,0.469418 0.68359,0.943359 0.21874,0.473975 0.44433,1.057308 0.67676,1.75 0.23241,0.692723 0.48306,1.476577 0.75195,2.351563 0.26887,0.875012 0.56509,1.791027 0.88868,2.748047 0.32355,0.95704 0.68585,1.934578 1.08691,2.932617 0.40103,0.998053 0.85676,1.971034 1.36719,2.918945 0.082,0.145838 0.17772,0.316736 0.28711,0.512695 0.10936,0.195968 0.22101,0.380538 0.33496,0.553711 0.11391,0.173181 0.21873,0.319014 0.31445,0.4375 0.0957,0.118493 0.16632,0.177737 0.21191,0.177735 0.0273,2e-6 0.0592,-0.06836 0.0957,-0.205078 0.0364,-0.136716 0.0774,-0.300778 0.12304,-0.492188 0.0456,-0.191403 0.0934,-0.387366 0.14356,-0.587891 0.0501,-0.200516 0.098,-0.364578 0.14355,-0.492187 0.17316,-0.419266 0.36229,-0.90006 0.56739,-1.442383 0.20506,-0.542311 0.43292,-1.19856 0.68359,-1.96875 0.25063,-0.770173 0.52635,-1.68391 0.82715,-2.741211 0.30076,-1.05728 0.63344,-2.310534 0.99805,-3.759765 0.0911,-0.355454 0.1891,-0.758774 0.29394,-1.209961 0.1048,-0.451156 0.20506,-0.911442 0.30078,-1.38086 0.0957,-0.469383 0.17999,-0.927391 0.25293,-1.374023 0.0729,-0.446596 0.12303,-0.833965 0.15039,-1.162109 -2e-5,-0.05467 0.005,-0.150371 0.0137,-0.28711 0.009,-0.136699 0.025,-0.291646 0.0479,-0.464844 0.0228,-0.173156 0.0524,-0.353169 0.0889,-0.540039 0.0364,-0.186828 0.0843,-0.3577259 0.14356,-0.512695 0.0592,-0.1549264 0.13442,-0.2825305 0.22558,-0.3828125 0.0911,-0.1002386 0.2005,-0.1503688 0.32813,-0.1503906 0.12758,2.18e-5 0.28481,0.018251 0.47168,0.054687 0.18682,0.03648 0.35772,0.091167 0.51269,0.1640625 0.17316,0.2370005 0.33038,0.521831 0.47168,0.8544921 0.14126,0.332703 0.21189,0.781596 0.21192,1.34668 -3e-5,0.355488 -0.0365,0.781594 -0.10938,1.27832 -0.0729,0.496763 -0.16636,1.029965 -0.28027,1.599609 -0.11396,0.569678 -0.24156,1.155289 -0.38281,1.756836 -0.1413,0.601577 -0.28486,1.178074 -0.43067,1.729493 -0.14585,0.551444 -0.28485,1.057303 -0.41699,1.517578 -0.13218,0.460297 -0.24384,0.840831 -0.33496,1.141601 -0.16408,0.528656 -0.33498,1.073252 -0.5127,1.633789 -0.17775,0.560555 -0.37371,1.148445 -0.58789,1.763672 -0.21421,0.615241 -0.44663,1.266933 -0.69726,1.955078 -0.25067,0.688156 -0.53095,1.424158 -0.84082,2.208008 -0.13674,0.355471 -0.29397,0.71094 -0.47168,1.066406 -0.17775,0.355471 -0.38055,0.676759 -0.6084,0.963868 -0.22788,0.287109 -0.48537,0.519531 -0.77246,0.697265 -0.28713,0.177735 -0.60842,0.266602 -0.96387,0.266602 -0.20965,0 -0.42612,-0.02962 -0.64941,-0.08887 -0.22333,-0.05925 -0.41245,-0.180013 -0.56739,-0.362305 -0.74741,-0.865884 -1.41277,-1.84798 -1.99609,-2.946289 -0.58335,-1.098303 -1.10515,-2.246739 -1.56543,-3.445313 -0.4603,-1.19856 -0.86817,-2.410798 -1.22363,-3.636718 -0.35548,-1.2259 -0.67905,-2.399402 -0.9707,-3.520508 l -0.082,-0.314453 c -0.0365,-0.12759 -0.0706,-0.257473 -0.10253,-0.389649 -0.0319,-0.132147 -0.0638,-0.252915 -0.0957,-0.362305 -0.0319,-0.109359 -0.0684,-0.198227 -0.10937,-0.266601 -0.041,-0.06834 -0.0889,-0.102524 -0.14356,-0.102539 -0.0547,1.5e-5 -0.12305,0.100275 -0.20508,0.300781 -0.082,0.200536 -0.16407,0.426121 -0.24609,0.676758 -0.082,0.250665 -0.15723,0.49448 -0.22559,0.731445 -0.0684,0.236993 -0.11166,0.387383 -0.12988,0.451172 -0.0638,0.236992 -0.15951,0.57651 -0.28711,1.018555 -0.12761,0.442069 -0.27116,0.941092 -0.43066,1.49707 -0.15951,0.556 -0.33269,1.14389 -0.51953,1.763672 -0.18686,0.6198 -0.36687,1.219083 -0.54004,1.797852 -0.17319,0.578782 -0.33725,1.114263 -0.49219,1.606445 -0.15495,0.492192 -0.28256,0.888676 -0.38281,1.189453 -0.082,0.236983 -0.1823,0.542321 -0.30078,0.916016 -0.1185,0.373701 -0.23699,0.749677 -0.35547,1.127929 -0.1185,0.378257 -0.22787,0.722333 -0.32813,1.032227 -0.10026,0.309897 -0.16406,0.514974 -0.1914,0.615234 -0.10938,0.346355 -0.27117,0.608399 -0.48535,0.786133 -0.2142,0.177734 -0.43067,0.266601 -0.64942,0.266602 -0.13672,-10e-7 -0.27344,-0.04785 -0.41016,-0.143555 -0.13672,-0.0957 -0.25748,-0.211914 -0.3623,-0.348633 -0.10482,-0.136718 -0.19141,-0.28483 -0.25977,-0.444336 -0.0684,-0.159504 -0.10254,-0.303059 -0.10253,-0.430664 -1e-5,-0.07292 0.0228,-0.189126 0.0684,-0.348633 0.0456,-0.159504 0.11849,-0.430662 0.21875,-0.813476 l 0.35547,-1.408203 z"
       style="font-size:28px;fill:#e64b00;font-family:MV Boli;-inkscape-font-specification:MV Boli"
       id="path3086" />
  </g>
</svg>
