<?xml version="1.0" encoding="UTF-8" standalone="no"?>
<!-- Created with Inkscape (http://www.inkscape.org/) -->

<svg
   xmlns:dc="http://purl.org/dc/elements/1.1/"
   xmlns:cc="http://creativecommons.org/ns#"
   xmlns:rdf="http://www.w3.org/1999/02/22-rdf-syntax-ns#"
   xmlns:svg="http://www.w3.org/2000/svg"
   xmlns="http://www.w3.org/2000/svg"
   xmlns:sodipodi="http://sodipodi.sourceforge.net/DTD/sodipodi-0.dtd"
   xmlns:inkscape="http://www.inkscape.org/namespaces/inkscape"
   width="175"
   height="145"
   id="svg2"
   version="1.1"
   inkscape:version="0.48.2 r9819"
   sodipodi:docname="New document 1">
  <defs
     id="defs4" />
  <sodipodi:namedview
     id="base"
     pagecolor="#ffffff"
     bordercolor="#666666"
     borderopacity="1.0"
     inkscape:pageopacity="0.0"
     inkscape:pageshadow="2"
     inkscape:zoom="2"
     inkscape:cx="83.843473"
     inkscape:cy="50.883291"
     inkscape:document-units="px"
     inkscape:current-layer="layer1"
     showgrid="true"
     inkscape:snap-to-guides="false"
     inkscape:window-width="1065"
     inkscape:window-height="808"
     inkscape:window-x="705"
     inkscape:window-y="89"
     inkscape:window-maximized="0">
    <inkscape:grid
       type="xygrid"
       id="grid2985"
       empspacing="5"
       visible="true"
       enabled="true"
       snapvisiblegridlinesonly="true" />
  </sodipodi:namedview>
  <metadata
     id="metadata7">
    <rdf:RDF>
      <cc:Work
         rdf:about="">
        <dc:format>image/svg+xml</dc:format>
        <dc:type
           rdf:resource="http://purl.org/dc/dcmitype/StillImage" />
        <dc:title></dc:title>
      </cc:Work>
    </rdf:RDF>
  </metadata>
  <g
     inkscape:label="Layer 1"
     inkscape:groupmode="layer"
     id="layer1"
     transform="translate(0,-907.36218)">
    <path
       style="fill:none;stroke:#000000;stroke-width:1px;stroke-linecap:butt;stroke-linejoin:miter;stroke-opacity:1"
       d="m 15,907.36218 60,0 -5,10 c 15,5 35,5 50,0 l -5,-10 60,0 0,50 -10,-5 c -5,10 -5,30 0,40.00002 l 10,-5 0,50 -60,0 5,10 c -15,5 -35,5 -50,0 l 5,-10 -60,0 0,-50 -10,5 C 0,982.36218 0,962.36218 5,952.36218 l 10,5 z"
       id="path3762"
       inkscape:connector-curvature="0"
       sodipodi:nodetypes="ccccccccccccccccccccc" />
    <path
       style="fill:#ffffff;fill-opacity:1;fill-rule:nonzero;stroke:#979797;stroke-width:1;stroke-linecap:round;stroke-linejoin:miter;stroke-miterlimit:4;stroke-opacity:1;stroke-dasharray:none"
       d="m 87.393473,142.71916 c -6.12659,-0.87474 -11.68961,-1.8869 -13.77573,-2.50641 l -2.465285,-0.73211 2.495505,-4.97288 c 1.37253,-2.73509 2.49551,-5.08947 2.49551,-5.23197 0,-0.14249 -13.6125,-0.25908 -30.25,-0.25908 l -30.25,0 0,-25 c 0,-13.750001 -0.116588,-25.000001 -0.259084,-25.000001 -0.142496,0 -2.466111,1.10754 -5.163588,2.461195 L 5.3162976,83.939099 4.7598247,82.352904 C 2.7842936,76.721764 2.43665,74.188394 2.415156,65.266709 2.3935345,56.292124 2.7148009,53.718889 4.5172275,48.429837 l 0.7963694,-2.336873 4.9058541,2.461873 c 2.698219,1.35403 5.022442,2.461872 5.164938,2.461872 0.142496,0 0.259084,-11.3625 0.259084,-25.25 l 0,-25.24999991 29,0 c 15.95,0 29,0.116996 29,0.2599911 0,0.1429951 -1.02905,2.30894741 -2.286775,4.81322741 -1.25772,2.50428 -2.10147,4.7199884 -1.875,4.9237964 0.226475,0.203808 2.324275,0.842327 4.661775,1.418931 14.52619,3.583253 30.435537,3.328514 44.326697,-0.709753 l 2.65018,-0.77043 -2.493,-4.9678819 -2.49299,-4.96788101 29.00455,0 29.00456,0 0,23.99999991 c 0,13.2 -0.11699,24 -0.25999,24 -0.14299,0 -2.28628,-1.017662 -4.76285,-2.261472 l -4.50286,-2.261472 -0.93541,2.182234 c -2.07423,4.83897 -2.78889,9.666945 -2.78889,18.84071 0,9.173765 0.71466,14.00174 2.78889,18.84071 l 0.93541,2.182235 4.50286,-2.261475 c 2.47657,-1.24381 4.61986,-2.26147 4.76285,-2.26147 0.143,0 0.25999,10.6875 0.25999,23.750001 l 0,23.75 -30,0 c -20.05848,0 -30,0.169 -30,0.50999 0,0.28049 1.02905,2.55895 2.28678,5.06323 1.25772,2.50428 2.10147,4.72103 1.875,4.92612 -0.43741,0.3961 -5.44061,1.61089 -10.41178,2.52801 -3.09077,0.57021 -17.834087,1.05573 -20.499997,0.6751 z"
       id="path3764"
       inkscape:connector-curvature="0"
       transform="translate(0,907.36218)" />
    <path
       style="fill:#ffffff;fill-opacity:1;fill-rule:nonzero;stroke:#979797;stroke-width:1;stroke-linecap:round;stroke-linejoin:miter;stroke-miterlimit:4;stroke-opacity:1;stroke-dasharray:none"
       d="m 80.365818,140.82522 c -9.27696,-1.81507 -8.62149,-1.03129 -5.71169,-6.82974 1.36914,-2.72833 2.489345,-5.07719 2.489345,-5.21969 0,-0.14249 -13.725,-0.25908 -30.5,-0.25908 l -30.5,0 0,-25.25 c 0,-13.887501 -0.116588,-25.250001 -0.259084,-25.250001 -0.142496,0 -2.490543,1.1198 -5.217881,2.48844 l -4.958797,2.48844 -0.8351762,-2.86344 c -1.268602,-4.34946 -1.7089547,-8.243795 -1.7089547,-15.11344 0,-6.869645 0.4403527,-10.76398 1.7089547,-15.11344 l 0.8351762,-2.863441 4.958797,2.488441 c 2.727338,1.36864 5.075385,2.48844 5.217881,2.48844 0.142496,0 0.259084,-11.505578 0.259084,-25.567952 l 0,-25.56795155 27.875,0.36779095 c 15.33125,0.202285 27.93061,0.4197232 27.99858,0.4831961 0.06797,0.063473 -0.68061,1.9711263 -1.663505,4.2392301 -0.982895,2.2681035 -1.67967,4.4037224 -1.548395,4.7458204 0.314235,0.818889 9.79054,3.091511 16.027765,3.843801 6.742645,0.813251 21.116882,0.296923 27.060552,-0.972026 5.46743,-1.167272 10.25,-2.537857 10.25,-2.937436 0,-0.162013 -1.13287,-2.3960469 -2.5175,-4.9645209 l -2.5175,-4.669952 28.33426,0 28.33425,0 -0.36739,22.8749999 c -0.20207,12.58125 -0.43383,22.945468 -0.51502,23.031594 -0.0812,0.08613 -1.99918,-0.774349 -4.26219,-1.91217 -2.26301,-1.13782 -4.29616,-1.883288 -4.51811,-1.656594 -0.82254,0.840129 -3.01504,8.29207 -3.46987,11.79356 -0.6041,4.65054 -0.6041,15.08668 0,19.73722 0.45483,3.50149 2.64733,10.95343 3.46987,11.79356 0.22195,0.226695 2.2551,-0.518775 4.51811,-1.656595 2.26301,-1.13782 4.18152,-1.998295 4.26334,-1.91217 0.0818,0.08613 0.31411,10.337845 0.51619,22.781596 l 0.36742,22.625 -29.69293,0.008 c -16.33111,0.004 -29.96037,0.1777 -30.28724,0.38554 -0.42956,0.27313 -0.0438,1.61434 1.39167,4.83832 1.09229,2.45323 1.88659,4.71942 1.76512,5.03598 -0.12148,0.31655 -2.54773,1.0816 -5.39167,1.7001 -4.11353,0.89462 -7.21551,1.16502 -15.170807,1.32241 -8.96727,0.17741 -10.622495,0.076 -16.027655,-0.98149 l 0,0 z"
       id="path3768"
       inkscape:connector-curvature="0"
       transform="translate(0,907.36218)" />
  </g>
</svg>
