<?xml version="1.0" encoding="UTF-8" standalone="no"?>
<!-- Created with Inkscape (http://www.inkscape.org/) -->

<svg
   xmlns:dc="http://purl.org/dc/elements/1.1/"
   xmlns:cc="http://creativecommons.org/ns#"
   xmlns:rdf="http://www.w3.org/1999/02/22-rdf-syntax-ns#"
   xmlns:svg="http://www.w3.org/2000/svg"
   xmlns="http://www.w3.org/2000/svg"
   xmlns:sodipodi="http://sodipodi.sourceforge.net/DTD/sodipodi-0.dtd"
   xmlns:inkscape="http://www.inkscape.org/namespaces/inkscape"
   id="svg3055"
   version="1.1"
   inkscape:version="0.48.4 r9939"
   width="453"
   height="50"
   sodipodi:docname="select.svg">
  <metadata
     id="metadata3061">
    <rdf:RDF>
      <cc:Work
         rdf:about="">
        <dc:format>image/svg+xml</dc:format>
        <dc:type
           rdf:resource="http://purl.org/dc/dcmitype/StillImage" />
        <dc:title />
      </cc:Work>
    </rdf:RDF>
  </metadata>
  <defs
     id="defs3059" />
  <sodipodi:namedview
     pagecolor="#ffffff"
     bordercolor="#666666"
     borderopacity="1"
     objecttolerance="10"
     gridtolerance="10"
     guidetolerance="10"
     inkscape:pageopacity="0"
     inkscape:pageshadow="2"
     inkscape:window-width="1920"
     inkscape:window-height="1018"
     id="namedview3057"
     showgrid="false"
     inkscape:zoom="2"
     inkscape:cx="194.27158"
     inkscape:cy="-45.68404"
     inkscape:window-x="-8"
     inkscape:window-y="-8"
     inkscape:window-maximized="1"
     inkscape:current-layer="svg3055"
     showguides="true">
    <inkscape:grid
       type="xygrid"
       id="grid4709"
       empspacing="5"
       visible="true"
       enabled="true"
       snapvisiblegridlinesonly="true" />
  </sodipodi:namedview>
  <g
     inkscape:groupmode="layer"
     id="layer1"
     inkscape:label="Layer"
     style="display:inline"
     transform="translate(0,-138)" />
  <path
     style="fill:none;stroke:#e64b00;stroke-width:5.29999999999999980;stroke-linecap:round;stroke-linejoin:miter;stroke-miterlimit:4;stroke-opacity:1;stroke-dasharray:none;"
     d="m 444.61665,40.70041 c 0,0 -73.82248,-0.312712 -136.11802,-0.744676 C 260.15324,39.620502 207.08628,42.602877 151.99092,40.472895 97.40632,38.362658 54.745852,42.002533 49.17684,41.663 37.317734,40.939971 8.859443,40.703803 8.859443,40.703803"
     id="path3070"
     inkscape:connector-curvature="0"
     sodipodi:nodetypes="csssc" />
  <path
     inkscape:connector-curvature="0"
     id="path3221"
     style="font-size:24px;font-style:normal;font-variant:normal;font-weight:normal;font-stretch:normal;line-height:125%;letter-spacing:0px;word-spacing:0px;fill:#e64b00;fill-opacity:1;stroke:none;font-family:MV Boli;-inkscape-font-specification:MV Boli"
     d="m 53.45373,28.725283 c 0.297448,0.101262 0.603659,0.219939 0.918633,0.35602 0.314967,0.136086 0.639364,0.265475 0.973192,0.388166 0.333819,0.122696 0.679319,0.22552 1.036502,0.308474 0.357172,0.08296 0.730843,0.121884 1.121014,0.116779 0.45657,-0.006 0.909061,-0.06885 1.357476,-0.188629 0.448399,-0.119777 0.878511,-0.294086 1.290336,-0.522925 0.411809,-0.228833 0.797979,-0.505528 1.158513,-0.830087 0.360515,-0.324552 0.680548,-0.698963 0.960101,-1.123235 0.308937,-0.450936 0.561641,-0.859517 0.758117,-1.225746 0.196451,-0.366216 0.350882,-0.692458 0.463293,-0.978723 0.112388,-0.286253 0.186907,-0.532583 0.223556,-0.738994 0.03663,-0.206397 0.04418,-0.38394 0.02265,-0.532633 -0.03169,-0.218646 -0.129805,-0.407952 -0.294353,-0.567918 -0.164575,-0.15995 -0.372753,-0.290859 -0.624535,-0.392727 -0.251804,-0.101848 -0.53061,-0.174878 -0.836417,-0.219082 -0.305828,-0.04418 -0.620613,-0.06416 -0.944358,-0.05994 -0.190942,0.0025 -0.414123,0.01203 -0.669562,0.02848 -0.255451,0.0165 -0.515045,0.03303 -0.77878,0.04962 -0.263752,0.01661 -0.519512,0.0309 -0.767277,0.0429 -0.247787,0.01199 -0.462984,0.01921 -0.645608,0.02159 -0.273953,0.0036 -0.563027,-0.02549 -0.867222,-0.08724 -0.304208,-0.06174 -0.6082,-0.1651 -0.911981,-0.310103 -0.303791,-0.144983 -0.594424,-0.342725 -0.871901,-0.593224 -0.277487,-0.25048 -0.522331,-0.562736 -0.734532,-0.936769 -0.06755,-0.121783 -0.134113,-0.265498 -0.199687,-0.431144 -0.06559,-0.165622 -0.112311,-0.344647 -0.140175,-0.537075 -0.03041,-0.209896 -0.0447,-0.409061 -0.04288,-0.597496 0.0018,-0.188409 0.0108,-0.370353 0.02698,-0.545833 0.05287,-0.438815 0.181577,-0.885207 0.386128,-1.339177 0.204542,-0.453941 0.464633,-0.89767 0.780268,-1.331188 0.315628,-0.433486 0.666367,-0.854304 1.052215,-1.262454 0.385839,-0.408114 0.78762,-0.792357 1.205343,-1.152729 0.41771,-0.360336 0.832193,-0.685597 1.24345,-0.975784 0.411242,-0.290148 0.797379,-0.538365 1.158413,-0.74465 0.50734,-0.287023 1.036151,-0.497672 1.586435,-0.631951 0.550264,-0.134236 1.103498,-0.205001 1.659703,-0.212297 0.332043,-0.0043 0.654146,0.03746 0.966313,0.125374 0.312139,0.08795 0.59503,0.217878 0.84867,0.389795 0.253614,0.171958 0.465527,0.386064 0.635738,0.642318 0.170183,0.256295 0.279354,0.550609 0.327513,0.882944 0.02786,0.192434 0.03054,0.354509 0.0081,0.486227 -0.02252,0.131753 -0.06096,0.239599 -0.115316,0.323539 -0.05439,0.08397 -0.118475,0.143962 -0.192256,0.17996 -0.07381,0.03604 -0.152214,0.05458 -0.235215,0.05565 -0.224151,0.003 -0.433412,-0.0206 -0.62778,-0.07065 -0.194397,-0.05002 -0.383504,-0.106687 -0.567322,-0.170025 -0.183845,-0.0633 -0.367043,-0.122242 -0.549594,-0.17683 -0.182578,-0.05456 -0.377628,-0.08048 -0.585149,-0.07778 -0.614314,0.0081 -1.220306,0.14523 -1.817977,0.411529 -0.597691,0.266337 -1.168632,0.602406 -1.712828,1.008212 -0.544213,0.405839 -1.048559,0.857144 -1.513042,1.353917 -0.464497,0.496803 -0.874852,0.979739 -1.231069,1.448808 -0.188668,0.247839 -0.317145,0.494875 -0.385433,0.741112 -0.06829,0.246263 -0.08661,0.478715 -0.05493,0.697356 0.04687,0.32362 0.216436,0.575522 0.508692,0.755706 0.292245,0.180205 0.629302,0.267806 1.011173,0.262799 0.22413,-0.0029 0.476688,-0.01061 0.757676,-0.02306 0.280973,-0.01242 0.567861,-0.02713 0.860668,-0.04412 0.292791,-0.01696 0.577288,-0.03383 0.853493,-0.0506 0.276186,-0.01675 0.522202,-0.02654 0.738049,-0.02937 0.514675,-0.0067 1.019693,0.06335 1.515056,0.210206 0.495339,0.14688 0.947182,0.366611 1.355534,0.659191 0.408324,0.292603 0.754476,0.658301 1.038459,1.097096 0.283953,0.438813 0.467114,0.942464 0.549481,1.510957 0.05066,0.349854 0.05217,0.704725 0.0045,1.064614 -0.04768,0.359902 -0.132397,0.722473 -0.254133,1.087712 -0.121765,0.365252 -0.269053,0.726451 -0.441865,1.083596 -0.172839,0.357156 -0.359067,0.707911 -0.558684,1.052264 -0.359602,0.618099 -0.776141,1.201887 -1.249619,1.751367 -0.473504,0.549484 -0.992411,1.029459 -1.556723,1.439925 -0.564335,0.410467 -1.175976,0.738306 -1.834925,0.98352 -0.658967,0.245212 -1.353707,0.372595 -2.084222,0.382151 -0.315459,0.0041 -0.643647,-0.02225 -0.984565,-0.07913 -0.34093,-0.05688 -0.681822,-0.14224 -1.022675,-0.256079 -0.340862,-0.113839 -0.667476,-0.258533 -0.979843,-0.434083 -0.312374,-0.17555 -0.592948,-0.375615 -0.841722,-0.600192 -0.24878,-0.224576 -0.457458,-0.473775 -0.626036,-0.747598 -0.168583,-0.273819 -0.276312,-0.572534 -0.323188,-0.896145 -0.02281,-0.157427 -0.02184,-0.308598 0.0029,-0.453509 0.02475,-0.144906 0.128443,-0.218555 0.311076,-0.220947 z" />
  <path
     inkscape:connector-curvature="0"
     id="path3223"
     style="font-size:24px;font-style:normal;font-variant:normal;font-weight:normal;font-stretch:normal;line-height:125%;letter-spacing:0px;word-spacing:0px;fill:#e64b00;fill-opacity:1;stroke:none;font-family:MV Boli;-inkscape-font-specification:MV Boli"
     d="m 69.454184,30.57963 c -0.04435,-0.306114 -0.04972,-0.630265 -0.01611,-0.972453 0.109939,-1.193167 0.271097,-2.362908 0.483475,-3.509228 0.212372,-1.146309 0.390417,-2.285602 0.534135,-3.417882 0.143709,-1.132263 0.261195,-2.086746 0.352458,-2.863453 0.09125,-0.776684 0.17552,-1.443754 0.252799,-2.001211 0.07727,-0.55743 0.153179,-1.038183 0.227726,-1.442258 0.07454,-0.404045 0.162165,-0.803896 0.262883,-1.199553 0.0654,-0.237432 0.139923,-0.483764 0.223556,-0.738994 0.08362,-0.255196 0.18048,-0.490866 0.290567,-0.70701 0.110078,-0.216109 0.232089,-0.39296 0.366032,-0.530552 0.133932,-0.137556 0.283915,-0.207429 0.449949,-0.209618 0.340351,-0.0044 0.608321,0.05121 0.803912,0.16693 0.195576,0.115758 0.32109,0.221459 0.376541,0.317106 l 0.189986,0.536423 c 0.123246,-0.01036 0.28164,-0.03653 0.47518,-0.0785 0.193524,-0.04195 0.388815,-0.08612 0.585872,-0.132532 0.197041,-0.04638 0.379562,-0.09258 0.547566,-0.138603 0.167985,-0.046 0.295106,-0.08709 0.381362,-0.123285 0.525077,-0.164578 1.011824,-0.306767 1.460242,-0.426567 0.448396,-0.119762 0.876826,-0.219564 1.285288,-0.299409 0.408438,-0.07981 0.801062,-0.139709 1.177872,-0.179707 0.376782,-0.03996 0.760262,-0.0625 1.150443,-0.06762 0.381849,-0.005 0.696319,0.01282 0.943408,0.05338 0.24706,0.0406 0.446542,0.09714 0.598452,0.169619 0.151876,0.07251 0.262088,0.158701 0.330633,0.258558 0.06851,0.09989 0.111008,0.206681 0.127497,0.320363 0.01519,0.104976 0.0044,0.216838 -0.03248,0.335599 -0.03687,0.118796 -0.109957,0.231478 -0.219259,0.338042 -0.109333,0.106606 -0.257908,0.200553 -0.445722,0.281857 -0.187846,0.08134 -0.429286,0.137072 -0.72432,0.167203 -0.0722,0.01849 -0.239697,0.05354 -0.50251,0.105152 -0.262841,0.05165 -0.547862,0.107956 -0.855066,0.168914 -0.30723,0.061 -0.598163,0.11956 -0.872795,0.175716 -0.274658,0.05619 -0.464039,0.0981 -0.568145,0.125729 l 0.01245,-1.63e-4 c -0.04856,0.0094 -0.162098,0.04376 -0.340631,0.103035 -0.178558,0.05931 -0.395269,0.127865 -0.650133,0.205666 -0.254887,0.07783 -0.531007,0.166881 -0.828361,0.267144 -0.297377,0.100293 -0.590908,0.198334 -0.880596,0.294116 -0.289706,0.09582 -0.557209,0.186939 -0.802507,0.273378 -0.245316,0.08647 -0.443031,0.156967 -0.593148,0.211492 -0.475986,0.216546 -0.832151,0.499422 -1.068497,0.848627 -0.23636,0.349233 -0.40651,0.739209 -0.510449,1.169929 -0.02181,0.07916 -0.05229,0.213193 -0.09146,0.402092 -0.03918,0.188924 -0.08078,0.404155 -0.124791,0.645694 -0.04403,0.241563 -0.09206,0.4985 -0.144092,0.770814 -0.05204,0.272337 -0.101835,0.531488 -0.149369,0.777457 -0.04754,0.245988 -0.08787,0.469965 -0.120989,0.671931 -0.03313,0.201986 -0.05517,0.351241 -0.06613,0.447764 -0.01224,0.08779 -0.01744,0.16673 -0.0156,0.236799 0.0018,0.07009 0.0053,0.122618 0.01035,0.157594 0.0076,0.05248 0.02385,0.07856 0.04876,0.07822 0.124514,-0.0016 0.375381,-0.06405 0.7526,-0.187289 0.377205,-0.123221 0.81671,-0.275746 1.318517,-0.457573 0.50179,-0.181808 1.039045,-0.377234 1.611765,-0.586277 0.572701,-0.209023 1.122407,-0.404612 1.649122,-0.586766 0.526692,-0.182134 0.997327,-0.335065 1.411908,-0.458795 0.414555,-0.123708 0.717306,-0.186817 0.90825,-0.189326 0.290535,-0.0038 0.492903,0.04395 0.607104,0.143217 0.114178,0.09929 0.180135,0.210152 0.197887,0.332587 0.0456,0.314872 -0.02033,0.591761 -0.197802,0.830665 -0.177491,0.238926 -0.411286,0.447908 -0.701387,0.626948 -0.09202,0.05379 -0.265648,0.132733 -0.520861,0.236834 -0.255237,0.104117 -0.530899,0.210686 -0.826985,0.319703 -0.29611,0.109037 -0.578315,0.213497 -0.846615,0.313388 -0.268322,0.0999 -0.461569,0.172538 -0.579744,0.217889 -0.765403,0.343003 -1.387846,0.624979 -1.867332,0.84593 -0.479504,0.220966 -0.867158,0.401291 -1.162966,0.540976 -0.295822,0.139697 -0.523751,0.245641 -0.683787,0.317829 -0.160048,0.07221 -0.309223,0.133301 -0.447523,0.183299 -0.138312,0.05002 -0.291462,0.09802 -0.459451,0.144022 -0.168,0.04602 -0.399871,0.110395 -0.695614,0.193117 -0.04811,0.184652 -0.09505,0.463483 -0.140817,0.836492 -0.04578,0.37302 -0.0855,0.7591 -0.119159,1.15824 -0.03367,0.399148 -0.05693,0.769678 -0.06978,1.11159 -0.01285,0.341918 -0.0098,0.578471 0.0092,0.709661 0.0228,0.157433 0.06034,0.273048 0.112619,0.346846 0.05227,0.0738 0.109361,0.12344 0.17128,0.148917 0.0619,0.02548 0.121915,0.03784 0.18003,0.03708 0.0581,-7.59e-4 0.103761,-0.0014 0.136974,-0.0018 0.398461,-0.0052 0.868996,-0.07271 1.41161,-0.202481 0.542599,-0.129773 1.073277,-0.298824 1.592037,-0.507154 0.495106,-0.199254 0.921275,-0.415134 1.27851,-0.64764 0.357214,-0.2325 0.693827,-0.449399 1.009838,-0.650698 0.31599,-0.201291 0.628124,-0.371865 0.936403,-0.511723 0.308255,-0.13985 0.656838,-0.216702 1.045749,-0.230556 0.083,-0.0011 0.181806,0.0064 0.296424,0.02241 0.11459,0.01603 0.225184,0.04745 0.331783,0.09424 0.106574,0.0468 0.196694,0.109153 0.270371,0.187053 0.07365,0.07791 0.111054,0.178187 0.112193,0.300848 0.0035,0.254076 -0.08074,0.504916 -0.252785,0.752519 -0.172074,0.247611 -0.39936,0.487177 -0.681859,0.718701 -0.282524,0.231529 -0.603659,0.454797 -0.963405,0.669805 -0.35977,0.215014 -0.729414,0.419201 -1.10893,0.612563 -0.37954,0.193363 -0.753301,0.369125 -1.121284,0.527285 -0.368004,0.158162 -0.697341,0.2961 -0.988012,0.413818 -0.723194,0.289867 -1.436394,0.505119 -2.139604,0.645758 -0.703223,0.140638 -1.341228,0.214704 -1.91402,0.222196 -0.630909,0.0083 -1.132519,-0.110056 -1.50483,-0.354924 -0.372318,-0.24487 -0.600285,-0.655927 -0.683901,-1.233174 z" />
  <path
     inkscape:connector-curvature="0"
     id="path3225"
     style="font-size:24px;font-style:normal;font-variant:normal;font-weight:normal;font-stretch:normal;line-height:125%;letter-spacing:0px;word-spacing:0px;fill:#e64b00;fill-opacity:1;stroke:none;font-family:MV Boli;-inkscape-font-specification:MV Boli"
     d="m 85.387155,24.561539 c 0.198719,-1.211848 0.387807,-2.375383 0.567264,-3.490607 0.17945,-1.115204 0.331507,-2.146814 0.456175,-3.094832 0.124657,-0.947992 0.211198,-1.785965 0.25962,-2.51392 0.04841,-0.727925 0.04988,-1.306283 0.0044,-1.73508 0.04006,-0.412354 0.168958,-0.742643 0.38668,-0.990866 0.217709,-0.248185 0.492595,-0.374458 0.824658,-0.378821 0.199226,-0.0026 0.376376,0.04329 0.531442,0.137634 0.15506,0.09438 0.287573,0.219707 0.39755,0.37598 0.109939,0.156309 0.199955,0.332577 0.269974,0.528805 0.07006,0.196263 0.1196,0.394967 0.148737,0.596111 0.02153,0.148702 0.03268,0.284379 0.03405,0.407023 0.0012,0.12268 -0.0026,0.241025 -0.01095,0.355034 -0.07438,0.80716 -0.182306,1.641032 -0.323781,2.501615 -0.141491,0.860612 -0.287617,1.732224 -0.438377,2.614839 -0.150778,0.882638 -0.299148,1.767424 -0.445125,2.654359 -0.145989,0.886955 -0.265452,1.756028 -0.358388,2.607222 l -0.09491,0.89504 c -0.05034,0.456326 -0.08725,0.890564 -0.110707,1.302715 -0.02347,0.412159 -0.01684,0.745057 0.01991,0.998691 0.02027,0.139943 0.06132,0.25113 0.123171,0.333564 0.06184,0.08244 0.163323,0.122736 0.304452,0.120887 0.340351,-0.0044 0.730265,-0.0687 1.169744,-0.192745 0.439473,-0.124042 0.891745,-0.274542 1.356824,-0.451501 0.465069,-0.176954 0.925542,-0.371375 1.381409,-0.583266 0.455846,-0.211882 0.873854,-0.41232 1.254024,-0.601314 0.201896,-0.09902 0.374556,-0.184531 0.518016,-0.256513 0.143428,-0.07198 0.322,-0.159746 0.535735,-0.263318 0.213704,-0.103562 0.49946,-0.240931 0.857267,-0.412108 0.357777,-0.171167 0.851337,-0.409834 1.480691,-0.716005 0.109869,-0.04525 0.206174,-0.08374 0.288923,-0.115504 0.0827,-0.03175 0.161438,-0.04811 0.236157,-0.0491 0.132813,-0.0017 0.250755,0.02301 0.35384,0.07423 0.103022,0.05124 0.187899,0.120227 0.254547,0.206977 0.06665,0.08676 0.120641,0.186827 0.161996,0.300195 0.04134,0.11338 0.07024,0.226918 0.08681,0.340612 0.02786,0.19242 0.03771,0.360974 0.0296,0.505661 -0.0082,0.144697 -0.02192,0.265364 -0.04114,0.362 -0.0756,0.167485 -0.182367,0.320039 -0.320449,0.457664 -0.138101,0.137632 -0.287025,0.257877 -0.446772,0.360734 -0.159766,0.102868 -0.317596,0.190366 -0.473478,0.262503 -0.155903,0.07214 -0.285278,0.126413 -0.388104,0.162806 -0.125241,0.05422 -0.291505,0.126493 -0.498811,0.21683 -0.207325,0.09034 -0.432055,0.189671 -0.674187,0.297987 -0.242153,0.10832 -0.492277,0.218939 -0.750373,0.331846 -0.258116,0.112915 -0.500576,0.219046 -0.727367,0.3184 -0.226811,0.09936 -0.428228,0.187429 -0.604229,0.264213 -0.17602,0.07679 -0.299486,0.128787 -0.370385,0.156002 -0.336691,0.144609 -0.71028,0.307225 -1.120758,0.487847 -0.410488,0.180624 -0.820171,0.352475 -1.229027,0.515551 -0.408868,0.163077 -0.798398,0.301804 -1.168569,0.416179 -0.370183,0.11438 -0.683944,0.173247 -0.941281,0.176613 -0.315459,0.0041 -0.566226,-0.01889 -0.752301,-0.06902 -0.186087,-0.05014 -0.356341,-0.120208 -0.510763,-0.210196 -0.154431,-0.08999 -0.313784,-0.19963 -0.478058,-0.328923 -0.164283,-0.129291 -0.378195,-0.271079 -0.641737,-0.425361 -0.236111,-0.137115 -0.417559,-0.327522 -0.544347,-0.571221 -0.126792,-0.243698 -0.210459,-0.505484 -0.250999,-0.785364 -0.02027,-0.139936 -0.0333,-0.301876 -0.03918,-0.48582 -0.0059,-0.183938 -0.0067,-0.376706 -0.0027,-0.578305 0.0041,-0.201593 0.01291,-0.39887 0.02655,-0.591833 0.01363,-0.192954 0.03459,-0.364101 0.06286,-0.513442 z" />
  <path
     inkscape:connector-curvature="0"
     id="path3227"
     style="font-size:24px;font-style:normal;font-variant:normal;font-weight:normal;font-stretch:normal;line-height:125%;letter-spacing:0px;word-spacing:0px;fill:#e64b00;fill-opacity:1;stroke:none;font-family:MV Boli;-inkscape-font-specification:MV Boli"
     d="m 100.23574,30.177024 c -0.0443,-0.306114 -0.0497,-0.630267 -0.0161,-0.972454 0.10993,-1.193167 0.27109,-2.362908 0.48347,-3.509227 0.21238,-1.14631 0.39042,-2.285603 0.53414,-3.417883 0.14371,-1.132263 0.26119,-2.086746 0.35245,-2.863453 0.0913,-0.776683 0.17552,-1.443754 0.25281,-2.001211 0.0773,-0.55743 0.15318,-1.038183 0.22772,-1.442258 0.0745,-0.404045 0.16217,-0.803896 0.26288,-1.199553 0.0654,-0.237431 0.13993,-0.483763 0.22356,-0.738994 0.0836,-0.255196 0.18048,-0.490866 0.29057,-0.70701 0.11007,-0.216109 0.23208,-0.392959 0.36603,-0.530552 0.13393,-0.137555 0.28392,-0.207429 0.44994,-0.209618 0.34036,-0.0044 0.60833,0.05121 0.80392,0.16693 0.19558,0.115758 0.32109,0.221459 0.37654,0.317106 l 0.18998,0.536424 c 0.12325,-0.01036 0.28164,-0.03652 0.47518,-0.0785 0.19353,-0.04195 0.38882,-0.08612 0.58588,-0.132531 0.19704,-0.04638 0.37956,-0.09258 0.54757,-0.138604 0.16798,-0.046 0.2951,-0.08709 0.38136,-0.123285 0.52507,-0.164578 1.01182,-0.306767 1.46023,-0.426566 0.4484,-0.119762 0.87684,-0.219565 1.2853,-0.29941 0.40844,-0.07981 0.80106,-0.139709 1.17787,-0.179706 0.37678,-0.03996 0.76026,-0.0625 1.15044,-0.06762 0.38185,-0.005 0.69632,0.01282 0.94341,0.05338 0.24706,0.0406 0.44654,0.09714 0.59845,0.169619 0.15188,0.07251 0.26208,0.1587 0.33063,0.258557 0.0686,0.09989 0.11106,0.206681 0.12753,0.320362 0.0152,0.104977 0.004,0.216839 -0.0325,0.3356 -0.0369,0.118797 -0.10995,0.231478 -0.21925,0.338043 -0.10934,0.106605 -0.25791,0.200552 -0.44572,0.281856 -0.18785,0.08134 -0.42929,0.137072 -0.72433,0.167203 -0.0722,0.01849 -0.23969,0.05354 -0.5025,0.105153 -0.26285,0.05165 -0.54787,0.107955 -0.85507,0.168913 -0.30724,0.061 -0.59817,0.11956 -0.8728,0.175716 -0.27466,0.05619 -0.46404,0.0981 -0.56814,0.125729 l 0.0124,-1.63e-4 c -0.0486,0.0094 -0.1621,0.04376 -0.34063,0.103035 -0.17856,0.05931 -0.39527,0.127866 -0.65014,0.205666 -0.25488,0.07783 -0.531,0.166881 -0.82836,0.267144 -0.29737,0.100294 -0.5909,0.198334 -0.88059,0.294116 -0.2897,0.09582 -0.5572,0.18694 -0.80251,0.273379 -0.24531,0.08647 -0.44303,0.156967 -0.59315,0.211492 -0.47598,0.216546 -0.83215,0.499421 -1.06849,0.848626 -0.23636,0.349234 -0.40651,0.739209 -0.51045,1.16993 -0.0219,0.07916 -0.0523,0.213192 -0.0915,0.402092 -0.0392,0.188924 -0.0808,0.404154 -0.12478,0.645693 -0.044,0.241563 -0.0921,0.498501 -0.1441,0.770814 -0.052,0.272337 -0.10183,0.531489 -0.14936,0.777457 -0.0475,0.245988 -0.0879,0.469965 -0.12099,0.671932 -0.0331,0.201986 -0.0552,0.35124 -0.0661,0.447764 -0.0122,0.08779 -0.0175,0.16673 -0.0156,0.236799 0.002,0.07009 0.005,0.122618 0.0104,0.157593 0.008,0.05248 0.0238,0.07856 0.0488,0.07822 0.12453,-0.0016 0.37539,-0.06405 0.75261,-0.187289 0.3772,-0.123221 0.81671,-0.275746 1.31852,-0.457573 0.50178,-0.181808 1.03904,-0.377234 1.61176,-0.586277 0.5727,-0.209023 1.12241,-0.404612 1.64912,-0.586766 0.52669,-0.182134 0.99733,-0.335065 1.41191,-0.458795 0.41455,-0.123708 0.7173,-0.186817 0.90825,-0.189326 0.29054,-0.0038 0.4929,0.04395 0.6071,0.143217 0.11413,0.09929 0.18013,0.210152 0.19789,0.332587 0.0456,0.314872 -0.0203,0.591761 -0.1978,0.830665 -0.17749,0.238926 -0.41129,0.447908 -0.70139,0.626948 -0.0921,0.05379 -0.26564,0.132733 -0.52085,0.236834 -0.25524,0.104117 -0.53091,0.210686 -0.827,0.319703 -0.29611,0.109037 -0.5783,0.213497 -0.84661,0.313388 -0.26832,0.0999 -0.46157,0.172538 -0.57975,0.217889 -0.76539,0.343003 -1.38784,0.624979 -1.86733,0.84593 -0.47949,0.220965 -0.86716,0.401291 -1.16296,0.540976 -0.29583,0.139697 -0.52375,0.245641 -0.68379,0.317829 -0.16004,0.07221 -0.30922,0.133301 -0.44752,0.183299 -0.13832,0.05002 -0.29147,0.09802 -0.45945,0.144022 -0.168,0.04602 -0.39988,0.110395 -0.69562,0.193117 -0.0481,0.184651 -0.0951,0.463483 -0.14082,0.836492 -0.0457,0.373019 -0.0855,0.7591 -0.11916,1.15824 -0.0336,0.399148 -0.0569,0.769678 -0.0698,1.11159 -0.0129,0.341918 -0.01,0.578471 0.009,0.709661 0.0228,0.157433 0.0603,0.273049 0.11263,0.346845 0.0523,0.0738 0.10933,0.123442 0.17127,0.148918 0.0619,0.02548 0.12192,0.03784 0.18004,0.03708 0.0581,-7.59e-4 0.10381,-0.0014 0.13697,-0.0018 0.39846,-0.0052 0.869,-0.07271 1.41161,-0.202481 0.5426,-0.129773 1.07328,-0.298824 1.59204,-0.507154 0.4951,-0.199254 0.92127,-0.415134 1.2785,-0.64764 0.35722,-0.2325 0.69383,-0.449398 1.00984,-0.650698 0.31599,-0.201291 0.62813,-0.371865 0.9364,-0.511723 0.30826,-0.13985 0.65684,-0.216702 1.04575,-0.230556 0.083,-0.0011 0.18181,0.0064 0.29644,0.02241 0.11458,0.01603 0.22518,0.04745 0.33177,0.09424 0.10653,0.0468 0.1967,0.109153 0.27038,0.187053 0.0737,0.07791 0.11108,0.178187 0.11214,0.300848 0.003,0.254077 -0.0807,0.504916 -0.25279,0.75252 -0.17207,0.24761 -0.39936,0.487177 -0.68185,0.7187 -0.28253,0.231529 -0.60366,0.454797 -0.96341,0.669806 -0.35978,0.215014 -0.72941,0.4192 -1.10894,0.612562 -0.37953,0.193364 -0.75329,0.369126 -1.12128,0.527286 -0.368,0.158161 -0.69734,0.2961 -0.98801,0.413818 -0.72319,0.289867 -1.43639,0.505118 -2.1396,0.645758 -0.70322,0.140638 -1.34123,0.214704 -1.91402,0.222195 -0.63091,0.0083 -1.13252,-0.110056 -1.50483,-0.354924 -0.37232,-0.244869 -0.60029,-0.655926 -0.68391,-1.233173 z" />
  <path
     inkscape:connector-curvature="0"
     id="path3229"
     style="font-size:24px;font-style:normal;font-variant:normal;font-weight:normal;font-stretch:normal;line-height:125%;letter-spacing:0px;word-spacing:0px;fill:#e64b00;fill-opacity:1;stroke:none;font-family:MV Boli;-inkscape-font-specification:MV Boli"
     d="m 115.23152,25.354161 c -0.0735,-0.507272 -0.0987,-1.083092 -0.0756,-1.727462 0.0231,-0.644355 0.13621,-1.270179 0.33934,-1.877474 0.27684,-0.844834 0.60346,-1.661848 0.97985,-2.451048 0.37638,-0.789174 0.7741,-1.517302 1.19313,-2.184382 0.41903,-0.667053 0.84882,-1.259778 1.2894,-1.778176 0.44056,-0.518366 0.87239,-0.924909 1.29545,-1.21963 l -0.0105,0.01328 c 0.26266,-0.196199 0.54068,-0.401378 0.83403,-0.615538 0.29334,-0.214125 0.59752,-0.410884 0.91254,-0.590276 0.31501,-0.179357 0.63862,-0.328174 0.97082,-0.446453 0.33217,-0.118242 0.66845,-0.179598 1.00882,-0.184069 0.34864,-0.0045 0.69147,0.06546 1.02847,0.209998 0.33698,0.144578 0.64245,0.344315 0.91643,0.599215 0.27395,0.254935 0.50413,0.552048 0.69053,0.891339 0.18637,0.339326 0.30743,0.701396 0.3632,1.08621 0.0392,0.271148 0.0554,0.483433 0.0486,0.636855 -0.007,0.153453 -0.0357,0.269935 -0.0866,0.349451 -0.0509,0.07955 -0.12276,0.12868 -0.21568,0.147406 -0.093,0.01876 -0.20168,0.02894 -0.32618,0.03056 -0.18265,0.0024 -0.33186,-0.03727 -0.44766,-0.119014 -0.11584,-0.08171 -0.21339,-0.181211 -0.29274,-0.298485 -0.0794,-0.117244 -0.14612,-0.247813 -0.20022,-0.391704 -0.0542,-0.143862 -0.11259,-0.274539 -0.1753,-0.392031 -0.0628,-0.117461 -0.13549,-0.21728 -0.21805,-0.299463 -0.0826,-0.08216 -0.18616,-0.122418 -0.31067,-0.120805 -0.33207,0.0044 -0.6797,0.08777 -1.0429,0.250234 -0.36322,0.162496 -0.72713,0.377561 -1.09173,0.645196 -0.36462,0.267667 -0.72384,0.572488 -1.07767,0.914468 -0.35385,0.342007 -0.68806,0.690316 -1.00263,1.044925 -0.31459,0.354638 -0.60283,0.704535 -0.86471,1.049695 -0.2619,0.345185 -0.48528,0.654801 -0.67013,0.928852 -0.26745,0.450409 -0.50488,0.906986 -0.71231,1.369733 -0.20744,0.462766 -0.37624,0.93378 -0.50643,1.413043 -0.13018,0.47928 -0.21281,0.971073 -0.24787,1.475382 -0.0351,0.504323 -0.0133,1.027611 0.0652,1.569868 0.0608,0.41982 0.17002,0.786427 0.32775,1.099818 0.15767,0.3134 0.31938,0.58293 0.48516,0.808589 0.19572,0.260325 0.4171,0.439256 0.66411,0.536794 0.247,0.09755 0.53238,0.144197 0.85615,0.139959 0.70561,-0.0092 1.34713,-0.08772 1.92457,-0.235478 0.57742,-0.147753 1.12297,-0.343287 1.63667,-0.586603 0.51367,-0.243308 1.00857,-0.530189 1.48469,-0.860642 0.47609,-0.330443 0.96564,-0.682975 1.46863,-1.057594 l 0.32376,-0.0042 c 0.1079,-0.0014 0.22234,0.02777 0.34328,0.08752 0.12092,0.05976 0.23194,0.137174 0.33306,0.232237 0.10107,0.09507 0.18748,0.203477 0.2592,0.325213 0.0717,0.121744 0.11708,0.248211 0.13608,0.379399 0.0418,0.288628 -0.0246,0.576476 -0.19928,0.863546 -0.17467,0.287076 -0.41141,0.561817 -0.71023,0.824223 -0.29884,0.262412 -0.64348,0.510086 -1.03389,0.743021 -0.39045,0.232941 -0.77845,0.439558 -1.16401,0.619853 -0.3856,0.180301 -0.748,0.334007 -1.08721,0.461121 -0.33924,0.127116 -0.6136,0.213951 -0.82308,0.260503 -0.17632,0.04612 -0.3467,0.08997 -0.51117,0.131555 -0.16448,0.04159 -0.36009,0.08357 -0.58682,0.125972 -0.22675,0.0424 -0.50041,0.07665 -0.82099,0.102746 -0.32059,0.0261 -0.72577,0.04236 -1.21555,0.04876 -0.29886,0.0039 -0.58009,-0.0428 -0.84369,-0.140121 -0.26362,-0.09732 -0.50278,-0.212492 -0.7175,-0.345508 -0.21472,-0.133012 -0.40134,-0.272965 -0.55985,-0.41986 -0.15851,-0.146892 -0.28688,-0.272272 -0.38509,-0.376143 -0.57721,-0.597076 -1.02032,-1.187147 -1.32934,-1.770211 -0.30902,-0.583058 -0.51422,-1.224435 -0.61557,-1.924132 z" />
  <path
     inkscape:connector-curvature="0"
     id="path3231"
     style="font-size:24px;font-style:normal;font-variant:normal;font-weight:normal;font-stretch:normal;line-height:125%;letter-spacing:0px;word-spacing:0px;fill:#e64b00;fill-opacity:1;stroke:none;font-family:MV Boli;-inkscape-font-specification:MV Boli"
     d="m 136.00715,28.565615 c 0.10512,-1.455986 0.24779,-2.92561 0.428,-4.408875 0.18019,-1.483251 0.35191,-2.953253 0.51517,-4.410013 0.0703,-0.605537 0.12984,-1.156177 0.17864,-1.651922 0.0488,-0.49572 0.0855,-0.945291 0.11028,-1.348714 0.0247,-0.403394 0.0341,-0.769362 0.0281,-1.0979 -0.006,-0.32851 -0.0293,-0.63271 -0.0698,-0.912603 -0.008,-0.05246 -0.0162,-0.111503 -0.0256,-0.17711 -0.01,-0.06558 -0.0255,-0.146426 -0.0476,-0.242543 -0.083,0.0011 -0.26077,0.05162 -0.53322,0.15156 -0.27247,0.09997 -0.5903,0.231187 -0.95351,0.39365 -0.36322,0.162495 -0.74433,0.344925 -1.14333,0.547291 -0.39902,0.202395 -0.76659,0.406555 -1.1027,0.612479 -0.26776,0.161246 -0.49157,0.295614 -0.67144,0.403105 -0.17989,0.107517 -0.33627,0.190621 -0.46915,0.249302 -0.1329,0.05871 -0.25587,0.09975 -0.36891,0.123123 -0.11306,0.0234 -0.23184,0.03591 -0.35637,0.03753 -0.25734,0.0034 -0.49461,-0.09867 -0.71179,-0.306149 -0.21719,-0.20745 -0.34985,-0.477361 -0.398,-0.80973 -0.0279,-0.1924 -0.0336,-0.361008 -0.0172,-0.505822 0.0165,-0.144786 0.0558,-0.274551 0.11827,-0.389299 0.0624,-0.114716 0.15271,-0.22324 0.27096,-0.325575 0.11826,-0.102302 0.26524,-0.207186 0.44098,-0.314654 1.93301,-1.181946 3.93559,-2.055933 6.00774,-2.621963 2.07213,-0.565991 4.19153,-0.863165 6.35821,-0.891525 0.17431,-0.0023 0.38247,-6.28e-4 0.6245,0.005 0.24199,0.0056 0.49117,0.01769 0.74755,0.03623 0.25634,0.01858 0.50774,0.04595 0.7542,0.08214 0.24643,0.03622 0.46477,0.07938 0.65501,0.129446 0.19979,0.05874 0.38419,0.183394 0.5532,0.373943 0.16898,0.190589 0.26931,0.395202 0.30101,0.613837 0.0253,0.174942 0.0355,0.345682 0.0306,0.51222 -0.005,0.166576 -0.036,0.311566 -0.0929,0.434972 -0.057,0.12344 -0.14029,0.223111 -0.24987,0.29901 -0.10962,0.07593 -0.25158,0.115028 -0.4259,0.117296 -0.30393,-0.03106 -0.6527,-0.07031 -1.04629,-0.117756 -0.39364,-0.04741 -0.78553,-0.06858 -1.17568,-0.06349 -0.78035,0.01022 -1.55575,0.04008 -2.32621,0.08957 -0.7705,0.04953 -1.54856,0.175812 -2.33421,0.37885 -0.039,0.01805 -0.0593,0.06433 -0.061,0.138811 -0.002,0.07452 0.002,0.16868 0.01,0.282471 0.0435,0.472635 0.0663,0.888566 0.0685,1.247794 0.002,0.35926 -0.0144,0.718748 -0.0496,1.078467 -0.0352,0.359746 -0.085,0.748149 -0.14935,1.165206 -0.0643,0.417085 -0.13741,0.917516 -0.21916,1.501296 -0.0818,0.583802 -0.17408,1.281646 -0.27686,2.093534 -0.10281,0.811906 -0.20403,1.792465 -0.3037,2.94168 l -0.22901,2.552952 c -0.0563,0.587843 -0.0899,1.116237 -0.10098,1.585186 -0.0111,0.468953 -0.0128,0.931209 -0.005,1.386768 -0.0117,0.149121 -0.118,0.290715 -0.31897,0.424784 -0.20099,0.13407 -0.45091,0.203059 -0.74975,0.206968 -0.17433,0.0023 -0.33935,-0.04595 -0.49504,-0.144683 -0.1557,-0.09873 -0.2906,-0.22622 -0.40472,-0.382458 -0.11408,-0.156236 -0.20141,-0.328158 -0.26184,-0.515767 -0.0605,-0.187606 -0.079,-0.373571 -0.0559,-0.557893 z" />
  <g
     style="font-size:40px;font-style:normal;font-variant:normal;font-weight:normal;font-stretch:normal;line-height:125%;letter-spacing:0px;word-spacing:0px;fill:#e64b00;fill-opacity:1;stroke:none;font-family:Calibri;-inkscape-font-specification:Calibri"
     id="text3005"
     transform="translate(265.5,46)">
    <path
       d="m 17.978516,-16.578125 c 0.309892,0.109378 0.626624,0.236982 0.950195,0.382813 0.323564,0.145835 0.658524,0.284833 1.004883,0.416992 0.346349,0.132163 0.708653,0.243817 1.086914,0.334961 0.378249,0.09115 0.781569,0.13672 1.209961,0.136718 0.501294,2e-6 1.007153,-0.05924 1.517578,-0.177734 0.510407,-0.118487 1.00943,-0.293943 1.49707,-0.526367 0.48762,-0.232419 0.954742,-0.514971 1.401367,-0.847656 0.446603,-0.332679 0.856759,-0.71777 1.230469,-1.155274 0.410143,-0.464839 0.75194,-0.886388 1.025391,-1.264648 0.273423,-0.378249 0.494452,-0.715489 0.663086,-1.011719 0.168605,-0.296217 0.289373,-0.551425 0.362304,-0.765625 0.0729,-0.214185 0.109361,-0.398755 0.109375,-0.553711 -1.4e-5,-0.227856 -0.07749,-0.426098 -0.232422,-0.594727 -0.154962,-0.16861 -0.362318,-0.307608 -0.62207,-0.416992 -0.259779,-0.109365 -0.553724,-0.189118 -0.881836,-0.239258 -0.328138,-0.05012 -0.669934,-0.07519 -1.02539,-0.0752 -0.209648,10e-6 -0.455741,0.0068 -0.738282,0.02051 -0.282563,0.01368 -0.569672,0.02735 -0.861328,0.04102 -0.291677,0.01368 -0.574228,0.02507 -0.847656,0.03418 -0.273447,0.0091 -0.510426,0.01368 -0.710938,0.01367 -0.300789,10e-6 -0.612964,-0.03417 -0.936523,-0.102539 -0.323575,-0.06835 -0.640307,-0.180003 -0.950195,-0.334961 -0.309903,-0.154938 -0.597012,-0.364573 -0.861328,-0.628906 -0.264329,-0.264312 -0.483079,-0.592437 -0.65625,-0.984375 -0.05469,-0.127593 -0.104824,-0.277983 -0.150391,-0.451172 -0.04558,-0.173165 -0.06837,-0.360014 -0.06836,-0.560547 -6e-6,-0.218737 0.01595,-0.426094 0.04785,-0.62207 0.0319,-0.19595 0.07063,-0.385078 0.116211,-0.567383 0.127599,-0.455715 0.339513,-0.91828 0.635742,-1.387695 0.296218,-0.469386 0.651686,-0.927393 1.066407,-1.374024 0.414706,-0.446597 0.865877,-0.87954 1.353515,-1.298828 0.487621,-0.419253 0.988923,-0.813458 1.503906,-1.182617 0.514964,-0.369121 1.020823,-0.701803 1.517579,-0.998047 0.496732,-0.296204 0.959297,-0.549133 1.387695,-0.758789 0.601549,-0.291646 1.214504,-0.50356 1.838867,-0.635742 0.624334,-0.13214 1.241846,-0.198221 1.852539,-0.198242 0.364566,2.1e-5 0.71092,0.04787 1.039063,0.143554 0.328107,0.09573 0.617494,0.234722 0.868164,0.416993 0.250632,0.182312 0.448874,0.407898 0.594726,0.676757 0.145814,0.268901 0.218731,0.576517 0.21875,0.922852 -1.9e-5,0.20054 -0.02281,0.369159 -0.06836,0.505859 -0.04559,0.136738 -0.104837,0.248391 -0.177735,0.334961 -0.07294,0.08661 -0.152688,0.148131 -0.239257,0.184571 -0.08661,0.03648 -0.175475,0.05471 -0.266602,0.05469 -0.246112,1.8e-5 -0.471698,-0.02733 -0.676758,-0.08203 -0.205096,-0.05467 -0.403338,-0.116193 -0.594726,-0.184571 -0.191424,-0.06834 -0.38283,-0.132142 -0.574219,-0.191406 -0.191423,-0.05923 -0.401058,-0.08885 -0.628906,-0.08887 -0.674495,1.9e-5 -1.360367,0.134459 -2.057617,0.40332 -0.697279,0.268899 -1.376315,0.610695 -2.03711,1.025391 -0.660818,0.41473 -1.285167,0.877295 -1.873047,1.387695 -0.5879,0.510432 -1.114267,1.007177 -1.579101,1.490235 -0.246102,0.255222 -0.426115,0.51043 -0.540039,0.765625 -0.113941,0.255221 -0.170907,0.496758 -0.170899,0.724609 -8e-6,0.337252 0.145826,0.601575 0.4375,0.792969 0.291658,0.191418 0.647127,0.287121 1.066406,0.287109 0.246085,1.2e-5 0.524079,-0.0045 0.833985,-0.01367 0.309885,-0.0091 0.626617,-0.0205 0.950195,-0.03418 0.323556,-0.01366 0.638009,-0.02733 0.94336,-0.04102 0.305326,-0.01366 0.576484,-0.0205 0.813476,-0.02051 0.565091,1.2e-5 1.107408,0.07976 1.626953,0.239258 0.519516,0.159517 0.979802,0.394217 1.38086,0.704102 0.401025,0.309906 0.722314,0.694997 0.963867,1.155273 0.241519,0.460296 0.362287,0.986663 0.362304,1.579102 -1.7e-5,0.364591 -0.0547,0.733731 -0.164062,1.107421 -0.109392,0.373705 -0.259782,0.749681 -0.451172,1.12793 -0.191423,0.378261 -0.410172,0.751959 -0.65625,1.121094 -0.246109,0.369145 -0.505875,0.731449 -0.779297,1.086914 -0.492202,0.638024 -1.041355,1.239586 -1.647461,1.804687 -0.606132,0.565106 -1.250989,1.057293 -1.93457,1.476563 -0.683605,0.419271 -1.405935,0.751953 -2.166992,0.998047 -0.761077,0.246093 -1.542651,0.36914 -2.344727,0.36914 -0.346361,0 -0.701829,-0.0319 -1.066406,-0.0957 -0.364589,-0.0638 -0.724615,-0.157227 -1.080078,-0.280273 -0.355473,-0.123047 -0.690434,-0.277995 -1.004883,-0.464844 -0.314457,-0.186849 -0.590173,-0.398762 -0.827148,-0.635742 -0.236982,-0.236978 -0.42611,-0.499022 -0.567383,-0.786133 -0.141279,-0.287108 -0.211917,-0.599282 -0.211914,-0.936523 -3e-6,-0.16406 0.02506,-0.321287 0.0752,-0.47168 0.05013,-0.150388 0.175453,-0.225583 0.375977,-0.225586 z"
       style="font-size:28px;fill:#e64b00;font-family:MV Boli;-inkscape-font-specification:MV Boli"
       id="path3053"
       inkscape:connector-curvature="0" />
    <path
       d="m 35.21875,-14.431641 c -3e-6,-0.319009 0.04557,-0.656248 0.136719,-1.011718 0.309892,-1.23958 0.672197,-2.454097 1.086914,-3.643555 0.414709,-1.189446 0.790685,-2.372062 1.127929,-3.547852 0.337234,-1.17577 0.617508,-2.16698 0.840821,-2.973632 0.223301,-0.806628 0.421543,-1.499336 0.594726,-2.078125 0.173171,-0.578762 0.332676,-1.077785 0.478516,-1.497071 0.145826,-0.419254 0.305331,-0.833968 0.478516,-1.24414 0.109367,-0.246077 0.230135,-0.501285 0.362304,-0.765625 0.132154,-0.264305 0.275708,-0.50812 0.430664,-0.731446 0.15494,-0.223288 0.316723,-0.40558 0.485352,-0.546875 0.168611,-0.141257 0.344066,-0.211894 0.526367,-0.211914 0.373688,2e-5 0.658519,0.06154 0.854492,0.184571 0.195953,0.123065 0.316721,0.234719 0.362305,0.334961 l 0.123047,0.560546 c 0.136708,-0.0091 0.314442,-0.03416 0.533203,-0.0752 0.218738,-0.041 0.439767,-0.08429 0.663086,-0.129883 0.223295,-0.04555 0.430652,-0.09113 0.62207,-0.136718 0.191394,-0.04556 0.337227,-0.08657 0.4375,-0.123047 0.601549,-0.164044 1.157538,-0.30532 1.667969,-0.423828 0.510401,-0.118471 0.995752,-0.216453 1.456055,-0.293946 0.460269,-0.07745 0.900048,-0.13442 1.319336,-0.170898 0.419253,-0.03644 0.84308,-0.05467 1.271484,-0.05469 0.419252,2e-5 0.761048,0.02281 1.025391,0.06836 0.264302,0.04559 0.473938,0.107115 0.628906,0.18457 0.154927,0.07749 0.262023,0.168639 0.321289,0.273437 0.05922,0.104837 0.08885,0.216491 0.08887,0.334961 -2.1e-5,0.109394 -0.02964,0.225605 -0.08887,0.348633 -0.05927,0.123065 -0.157247,0.239276 -0.293945,0.348633 -0.136739,0.109393 -0.314474,0.205096 -0.533204,0.287109 -0.218769,0.08205 -0.492206,0.136737 -0.820312,0.164063 -0.08205,0.01825 -0.271178,0.05243 -0.567383,0.102539 -0.296242,0.05015 -0.617531,0.104835 -0.963867,0.164062 -0.346371,0.05926 -0.674496,0.116229 -0.984375,0.170899 -0.309912,0.0547 -0.524105,0.09572 -0.642578,0.123047 l 0.01367,0 c -0.0547,0.0091 -0.184586,0.04331 -0.389649,0.102539 -0.205093,0.05926 -0.453465,0.127621 -0.745117,0.205078 -0.291681,0.07749 -0.608413,0.166358 -0.950195,0.266602 -0.341811,0.100276 -0.67905,0.198258 -1.011719,0.293945 -0.332695,0.09572 -0.640312,0.186865 -0.922852,0.273437 -0.282563,0.0866 -0.510428,0.157243 -0.683593,0.211914 -0.556001,0.218766 -0.991221,0.508154 -1.305664,0.868164 -0.314463,0.360041 -0.562835,0.763361 -0.745118,1.209961 -0.03647,0.08205 -0.09115,0.221042 -0.164062,0.416993 -0.07293,0.195976 -0.152678,0.419283 -0.239258,0.669921 -0.0866,0.250664 -0.180021,0.517265 -0.280273,0.799805 -0.100269,0.282564 -0.195972,0.551444 -0.28711,0.806641 -0.09115,0.255219 -0.170906,0.48764 -0.239257,0.697265 -0.06837,0.209646 -0.116219,0.364594 -0.143555,0.464844 -0.02735,0.09116 -0.04558,0.173187 -0.05469,0.246094 -0.0091,0.07293 -0.01368,0.127613 -0.01367,0.164062 -7e-6,0.0547 0.01366,0.08204 0.04102,0.08203 0.136711,9e-6 0.421541,-0.06151 0.854492,-0.184571 0.432934,-0.123037 0.938793,-0.275706 1.517578,-0.458007 0.578766,-0.182282 1.198557,-0.378245 1.859375,-0.587891 0.660795,-0.209625 1.294258,-0.405588 1.900391,-0.587891 0.606105,-0.18228 1.146144,-0.334949 1.620117,-0.458008 0.473943,-0.123035 0.815739,-0.184558 1.025391,-0.18457 0.318993,1.2e-5 0.533186,0.05242 0.642578,0.157227 0.109358,0.104829 0.164045,0.22104 0.164062,0.348633 -1.7e-5,0.328135 -0.116228,0.615244 -0.348632,0.861328 -0.232439,0.246103 -0.521827,0.460296 -0.868164,0.642578 -0.109391,0.0547 -0.312191,0.134449 -0.608399,0.239258 -0.296239,0.104827 -0.615249,0.211923 -0.957031,0.321289 -0.341811,0.109384 -0.667657,0.214201 -0.977539,0.314453 -0.309909,0.100269 -0.533216,0.173185 -0.669922,0.21875 -0.893241,0.346362 -1.620129,0.631193 -2.180664,0.854492 -0.560557,0.223315 -1.014007,0.405606 -1.360352,0.546875 -0.346363,0.141283 -0.612964,0.248379 -0.799804,0.321289 -0.186858,0.07292 -0.360035,0.134447 -0.519532,0.18457 -0.159513,0.05014 -0.334968,0.09799 -0.526367,0.143555 -0.191413,0.04558 -0.455736,0.109381 -0.792969,0.191406 -0.08204,0.191413 -0.177741,0.4808 -0.287109,0.868164 -0.109381,0.387375 -0.214199,0.788416 -0.314453,1.203125 -0.100267,0.414718 -0.184576,0.799808 -0.25293,1.155274 -0.06837,0.355471 -0.102545,0.601565 -0.102539,0.738281 -6e-6,0.164065 0.02278,0.284833 0.06836,0.362305 0.04557,0.07748 0.100254,0.129884 0.164062,0.157226 0.0638,0.02735 0.127598,0.04102 0.191406,0.04102 0.0638,2e-6 0.113926,2e-6 0.150391,0 0.437493,2e-6 0.96386,-0.0638 1.579102,-0.191406 0.615225,-0.127602 1.223623,-0.296222 1.825195,-0.50586 0.574208,-0.200518 1.07551,-0.419268 1.503906,-0.65625 0.428374,-0.236975 0.831694,-0.458004 1.209961,-0.663086 0.378242,-0.205074 0.747383,-0.378251 1.107422,-0.519531 0.360012,-0.141271 0.754217,-0.216467 1.182617,-0.225586 0.09113,5e-6 0.198227,0.0091 0.321289,0.02734 0.123032,0.01823 0.239243,0.05241 0.348633,0.102539 0.109359,0.05014 0.198226,0.116215 0.266602,0.198242 0.06834,0.08204 0.09341,0.186853 0.0752,0.314453 -0.03647,0.264327 -0.168636,0.524092 -0.396485,0.779297 -0.227879,0.255211 -0.514988,0.501305 -0.861328,0.738281 -0.346368,0.236982 -0.733737,0.464846 -1.162109,0.683594 -0.428398,0.218752 -0.865898,0.426108 -1.3125,0.62207 -0.446626,0.195965 -0.884126,0.373699 -1.3125,0.533204 -0.428396,0.159505 -0.811208,0.298502 -1.148438,0.416992 -0.83855,0.291666 -1.654304,0.505859 -2.447265,0.642578 -0.792975,0.136718 -1.503912,0.205077 -2.132813,0.205078 -0.692712,-10e-7 -1.223636,-0.129883 -1.592773,-0.389648 -0.369144,-0.259766 -0.553714,-0.69043 -0.553711,-1.291993 z"
       style="font-size:28px;fill:#e64b00;font-family:MV Boli;-inkscape-font-specification:MV Boli"
       id="path3055"
       inkscape:connector-curvature="0" />
    <path
       d="m 64.134766,-13.269531 c -0.191421,0 -0.360041,-0.03646 -0.50586,-0.109375 -0.145847,-0.07292 -0.266615,-0.16862 -0.362304,-0.28711 -0.09572,-0.118489 -0.168634,-0.255207 -0.21875,-0.410156 -0.05014,-0.154947 -0.07521,-0.309895 -0.0752,-0.464844 -1.4e-5,-0.136717 0.03645,-0.325845 0.109375,-0.567382 0.0729,-0.241535 0.166327,-0.512694 0.280274,-0.813477 0.113918,-0.300778 0.239243,-0.615231 0.375976,-0.943359 0.136704,-0.328122 0.268866,-0.642574 0.396485,-0.94336 0.127589,-0.300776 0.236964,-0.578771 0.328125,-0.833984 0.09113,-0.255203 0.154932,-0.455724 0.191406,-0.601563 0.03644,-0.164056 0.08202,-0.360019 0.136719,-0.58789 0.05467,-0.227858 0.116195,-0.47623 0.18457,-0.745117 0.06834,-0.268873 0.136703,-0.551425 0.205078,-0.847657 0.06834,-0.296215 0.138981,-0.594718 0.211914,-0.895507 -0.12762,0.02735 -0.284847,0.05242 -0.47168,0.0752 -0.186864,0.0228 -0.385106,0.0433 -0.594726,0.06152 -0.300796,0.02735 -0.59702,0.06837 -0.888672,0.123047 -0.291681,0.0547 -0.590183,0.11622 -0.895508,0.18457 -0.305351,0.06837 -0.622083,0.141285 -0.950195,0.21875 -0.328137,0.07748 -0.679048,0.157235 -1.052735,0.239258 -0.546885,0.118498 -1.09376,0.250659 -1.640625,0.396485 -0.546884,0.14584 -1.116545,0.218757 -1.708984,0.21875 -0.182299,7e-6 -0.350919,-0.04784 -0.505859,-0.143555 -0.154956,-0.0957 -0.328132,-0.166334 -0.519532,-0.211914 -0.182298,0.291674 -0.355475,0.603848 -0.519531,0.936523 -0.164069,0.332689 -0.314459,0.674486 -0.451172,1.025391 -0.136724,0.350917 -0.259771,0.697271 -0.36914,1.039062 -0.109381,0.341802 -0.205084,0.66309 -0.28711,0.963868 -0.04558,0.164066 -0.08432,0.37598 -0.116211,0.635742 -0.03191,0.259768 -0.06153,0.524091 -0.08887,0.792969 -0.02735,0.268882 -0.05469,0.526369 -0.08203,0.77246 -0.02735,0.246096 -0.05469,0.442059 -0.08203,0.587891 -0.02735,0.13672 -0.08204,0.27116 -0.164063,0.40332 -0.08204,0.132162 -0.182296,0.25293 -0.300781,0.362305 -0.118494,0.109375 -0.250655,0.198242 -0.396484,0.266602 -0.145838,0.06836 -0.291671,0.102539 -0.4375,0.102539 -0.255212,0 -0.462569,-0.0752 -0.622071,-0.225586 -0.159508,-0.150391 -0.287112,-0.337239 -0.382812,-0.560547 -0.09571,-0.223306 -0.161787,-0.467121 -0.198242,-0.731445 -0.03646,-0.264322 -0.05469,-0.505858 -0.05469,-0.72461 -2e-6,-0.555987 0.06836,-1.132484 0.205078,-1.729492 0.136716,-0.597001 0.321286,-1.20312 0.553711,-1.818359 0.232419,-0.615228 0.505856,-1.235019 0.820313,-1.859375 0.314448,-0.624341 0.653966,-1.246411 1.018554,-1.866211 0.300776,-0.55598 0.674474,-1.198557 1.121094,-1.927735 0.446608,-0.729154 0.945631,-1.478828 1.49707,-2.249023 0.551425,-0.770168 1.148429,-1.524399 1.791016,-2.262695 0.642568,-0.738265 1.310211,-1.396793 2.00293,-1.975586 0.692696,-0.578758 1.403633,-1.04588 2.132812,-1.401367 0.729153,-0.35545 1.453761,-0.533184 2.173828,-0.533204 0.756494,2e-5 1.387679,0.136739 1.893555,0.410157 0.505841,0.273456 0.909161,0.642596 1.209961,1.107422 0.300762,0.464861 0.512676,1.007178 0.635742,1.626953 0.123027,0.619807 0.184551,1.276057 0.18457,1.96875 -1.9e-5,0.610691 -0.03876,1.239596 -0.11621,1.886718 -0.07749,0.647148 -0.173197,1.280611 -0.28711,1.900391 -0.113951,0.619802 -0.236998,1.216806 -0.36914,1.791016 -0.132181,0.574227 -0.252949,1.093758 -0.362305,1.558593 l -0.478516,1.859375 c -0.01825,0.05469 -0.05243,0.164068 -0.102539,0.328125 -0.05015,0.164068 -0.11395,0.36231 -0.191406,0.594727 -0.07749,0.232426 -0.16408,0.483077 -0.259766,0.751953 -0.09572,0.268884 -0.191423,0.533207 -0.287109,0.792969 -0.09572,0.259768 -0.186866,0.499026 -0.273438,0.717773 -0.0866,0.218752 -0.1618,0.396487 -0.225586,0.533203 l 0.01367,-0.01367 c -0.06382,0.236981 -0.132178,0.478518 -0.205078,0.72461 -0.07293,0.246095 -0.173193,0.467123 -0.300781,0.663086 -0.12762,0.195964 -0.291683,0.355469 -0.492188,0.478515 -0.200536,0.123047 -0.460301,0.184571 -0.779296,0.184571 z m 0.697265,-17.117188 c -0.410171,1.7e-5 -0.818048,0.08433 -1.223633,0.25293 -0.405613,0.168636 -0.804375,0.389665 -1.196289,0.663086 -0.39194,0.273453 -0.772473,0.592463 -1.141601,0.957031 -0.369153,0.364598 -0.720064,0.738296 -1.052735,1.121094 -0.332693,0.382826 -0.644867,0.767917 -0.936523,1.155273 -0.291676,0.387383 -0.555999,0.74513 -0.792969,1.073243 -0.03647,0.0547 -0.08432,0.125337 -0.143554,0.211914 -0.05925,0.0866 -0.118499,0.182303 -0.177735,0.287109 -0.05925,0.104829 -0.11622,0.214204 -0.170898,0.328125 -0.0547,0.113943 -0.100269,0.216482 -0.136719,0.307617 l 1.408203,0 c 0.510406,1.1e-5 1.093739,-0.03645 1.75,-0.109375 0.656238,-0.07291 1.305651,-0.159494 1.948242,-0.259765 0.642564,-0.10025 1.232733,-0.202789 1.770508,-0.307618 0.537744,-0.104806 0.943343,-0.184559 1.216797,-0.239257 0.03644,-0.118478 0.07062,-0.277983 0.102539,-0.478516 0.03188,-0.200509 0.06151,-0.423816 0.08887,-0.669922 0.02733,-0.246081 0.04784,-0.508125 0.06152,-0.786133 0.01365,-0.277981 0.02049,-0.562811 0.02051,-0.854492 -1.7e-5,-0.236965 -0.0091,-0.508123 -0.02734,-0.813477 -0.01825,-0.305323 -0.07293,-0.59471 -0.164063,-0.868164 -0.09116,-0.273421 -0.23016,-0.503564 -0.416992,-0.690429 -0.186865,-0.186832 -0.448909,-0.280257 -0.786133,-0.280274 z"
       style="font-size:28px;fill:#e64b00;font-family:MV Boli;-inkscape-font-specification:MV Boli"
       id="path3057"
       inkscape:connector-curvature="0" />
    <path
       d="m 71.804687,-15.142578 c 0.519528,-2.087236 1.057288,-4.149408 1.613282,-6.186524 0.555984,-2.037099 1.093744,-4.099271 1.613281,-6.186523 0.0638,-0.273423 0.127598,-0.533188 0.191406,-0.779297 0.0638,-0.246079 0.12304,-0.492172 0.177735,-0.738281 0.05468,-0.246078 0.09797,-0.49445 0.129882,-0.745117 0.03189,-0.250635 0.04785,-0.512679 0.04785,-0.786133 -7e-6,-0.209618 -0.01368,-0.401024 -0.04102,-0.574219 -0.02735,-0.173159 -0.04102,-0.369122 -0.04102,-0.58789 -7e-6,-0.209617 0.02734,-0.432924 0.08203,-0.669922 0.136712,-0.55597 0.330396,-0.970684 0.581055,-1.244141 0.250643,-0.273417 0.631176,-0.410136 1.141601,-0.410156 0.209627,2e-5 0.412426,0.02053 0.608399,0.06152 0.195954,0.04104 0.389638,0.08889 0.581054,0.143555 0.209626,0.06382 0.426097,0.11851 0.649414,0.164062 0.223297,0.04559 0.448883,0.06838 0.676758,0.06836 0.18228,2e-5 0.360015,-0.0091 0.533203,-0.02734 0.173165,-0.01821 0.371407,-0.03644 0.594727,-0.05469 0.223295,-0.01821 0.487617,-0.03644 0.792969,-0.05469 0.305325,-0.01821 0.690415,-0.02732 1.155273,-0.02734 0.255194,2.1e-5 0.555975,0.0091 0.902344,0.02734 0.346338,0.01825 0.706364,0.05927 1.080078,0.123047 0.373681,0.06382 0.751936,0.157246 1.134766,0.280273 0.382794,0.123067 0.740541,0.289408 1.073242,0.499024 0.332663,0.209654 0.626608,0.467141 0.881836,0.772461 0.255188,0.305357 0.446594,0.672218 0.574218,1.100586 0.06378,0.209652 0.107077,0.401058 0.129883,0.574218 0.02277,0.173194 0.03416,0.341814 0.03418,0.50586 -2e-5,0.556005 -0.141296,1.10288 -0.423828,1.640625 -0.31903,0.610691 -0.749694,1.182631 -1.291992,1.71582 -0.542336,0.533216 -1.17352,1.036796 -1.893555,1.510742 -0.282568,0.191418 -0.610693,0.38966 -0.984375,0.594727 -0.373713,0.205089 -0.740575,0.401052 -1.100586,0.58789 -0.36004,0.18686 -0.683607,0.357758 -0.970703,0.512696 -0.287123,0.154957 -0.485365,0.273447 -0.594727,0.355469 0.318998,0.154957 0.638008,0.316741 0.957032,0.485351 0.318996,0.168629 0.644842,0.371428 0.977539,0.608399 0.332667,0.236987 0.669906,0.524096 1.011718,0.861328 0.341781,0.337246 0.69725,0.749681 1.066407,1.237304 0.369123,0.487636 0.751935,1.064133 1.148437,1.729493 0.396466,0.665368 0.808901,1.449221 1.237305,2.351562 0.109355,0.218752 0.164043,0.451174 0.164062,0.697266 -1.9e-5,0.191407 -0.03876,0.382813 -0.116211,0.574218 -0.07749,0.191407 -0.18231,0.364584 -0.314453,0.519532 -0.13218,0.154948 -0.289406,0.280273 -0.471679,0.375976 -0.18231,0.0957 -0.378274,0.143555 -0.587891,0.143555 -0.319028,0 -0.583351,-0.11849 -0.792969,-0.355469 -0.209652,-0.236978 -0.410173,-0.546874 -0.601562,-0.929687 -0.191423,-0.382811 -0.389665,-0.815754 -0.594727,-1.298829 -0.205094,-0.483069 -0.458023,-0.970699 -0.758789,-1.46289 -0.32814,-0.528641 -0.690444,-1.029943 -1.086914,-1.503906 -0.396498,-0.473953 -0.818047,-0.884109 -1.264648,-1.230469 -0.446627,-0.346347 -0.906913,-0.622063 -1.38086,-0.827149 -0.473969,-0.20507 -0.947927,-0.307609 -1.421875,-0.307617 l -0.205078,0 c -0.282562,8e-6 -0.535491,0.02507 -0.758789,0.0752 -0.223316,0.05014 -0.439787,0.09343 -0.649414,0.129882 -0.28256,-0.100252 -0.487638,-0.264315 -0.615234,-0.492187 -0.127612,-0.227856 -0.191414,-0.483064 -0.191407,-0.765625 l 0,-0.191406 -1.09375,4.30664 c -0.03646,0.136724 -0.0866,0.323572 -0.15039,0.560547 -0.06381,0.236983 -0.136725,0.496749 -0.21875,0.779297 -0.08204,0.282555 -0.166347,0.578779 -0.25293,0.888672 -0.08659,0.309898 -0.168625,0.601564 -0.246094,0.875 -0.07748,0.273439 -0.145839,0.519532 -0.205078,0.738281 -0.05925,0.218751 -0.102544,0.382813 -0.129883,0.492188 -0.127609,0.227864 -0.289393,0.407877 -0.485351,0.540039 -0.195968,0.132161 -0.407882,0.198242 -0.635742,0.198242 -0.401046,0 -0.67904,-0.120768 -0.833985,-0.362305 -0.154951,-0.241536 -0.232425,-0.521809 -0.232422,-0.84082 -3e-6,-0.127603 0.0091,-0.257486 0.02734,-0.389649 0.01823,-0.13216 0.04101,-0.257485 0.06836,-0.375976 z m 6.712891,-15.421875 c -0.0547,0.182309 -0.13445,0.446631 -0.239258,0.792969 -0.104827,0.34637 -0.221038,0.738296 -0.348633,1.175781 -0.127613,0.437515 -0.264332,0.906915 -0.410156,1.408203 -0.145842,0.501315 -0.291675,1.004896 -0.4375,1.510742 -0.145841,0.505871 -0.287117,0.99578 -0.423828,1.469727 -0.136727,0.473968 -0.259773,0.897796 -0.369141,1.271484 0.182284,-0.236969 0.455721,-0.448883 0.820313,-0.635742 0.364574,-0.186839 0.77473,-0.362294 1.230469,-0.526367 0.355458,-0.127594 0.792958,-0.307606 1.3125,-0.540039 0.519519,-0.232411 1.064115,-0.499012 1.633789,-0.799805 0.569648,-0.300769 1.139309,-0.626615 1.708984,-0.977539 0.569647,-0.350898 1.080063,-0.710924 1.53125,-1.080078 0.451156,-0.369126 0.818017,-0.738267 1.100586,-1.107422 0.282535,-0.369125 0.423811,-0.726872 0.423828,-1.073242 -1.7e-5,-0.337223 -0.118507,-0.603825 -0.355469,-0.799805 -0.236996,-0.195946 -0.533219,-0.344058 -0.888671,-0.444336 -0.355485,-0.100243 -0.745133,-0.166323 -1.168946,-0.198242 -0.423842,-0.03188 -0.818048,-0.04783 -1.182617,-0.04785 -0.656263,1.8e-5 -1.312512,0.04103 -1.96875,0.123047 -0.656261,0.08205 -1.31251,0.241554 -1.96875,0.478516 z"
       style="font-size:28px;fill:#e64b00;font-family:MV Boli;-inkscape-font-specification:MV Boli"
       id="path3059"
       inkscape:connector-curvature="0" />
    <path
       d="m 91.300781,-19.244141 c -3e-6,-0.528639 0.0638,-1.127922 0.191406,-1.797851 0.127601,-0.669914 0.350908,-1.319327 0.669922,-1.948242 0.437496,-0.87499 0.925126,-1.720367 1.462891,-2.536133 0.537754,-0.815742 1.089186,-1.567695 1.654297,-2.25586 0.565096,-0.688136 1.1302,-1.298812 1.695312,-1.832031 0.565095,-0.533186 1.102855,-0.950178 1.613282,-1.250976 l -0.01367,0.01367 c 0.318999,-0.200504 0.656239,-0.410139 1.011718,-0.628907 0.355457,-0.218731 0.720041,-0.419252 1.093751,-0.601562 0.37368,-0.182273 0.75194,-0.332664 1.13476,-0.451172 0.3828,-0.11847 0.76106,-0.177715 1.13477,-0.177734 0.3828,1.9e-5 0.74738,0.07749 1.09375,0.232421 0.34634,0.154967 0.6494,0.366881 0.90918,0.635743 0.25975,0.268898 0.46482,0.581072 0.61523,0.936523 0.15038,0.355486 0.22557,0.733741 0.22559,1.134766 -2e-5,0.282568 -0.016,0.503596 -0.0478,0.663086 -0.0319,0.15952 -0.082,0.280288 -0.15039,0.362304 -0.0684,0.08205 -0.15497,0.132177 -0.25977,0.150391 -0.10483,0.01824 -0.2256,0.02736 -0.3623,0.02734 -0.20054,1.5e-5 -0.35777,-0.04328 -0.47168,-0.129883 -0.11395,-0.08657 -0.2051,-0.191391 -0.27344,-0.314453 -0.0684,-0.123031 -0.12079,-0.25975 -0.15723,-0.410157 -0.0365,-0.150374 -0.0798,-0.287093 -0.12988,-0.410156 -0.0502,-0.12303 -0.11395,-0.227848 -0.19141,-0.314453 -0.0775,-0.08657 -0.18458,-0.129866 -0.32129,-0.129883 -0.36459,1.7e-5 -0.7588,0.08205 -1.18261,0.246094 -0.42384,0.164079 -0.85679,0.382829 -1.29883,0.65625 -0.44207,0.273453 -0.88413,0.585627 -1.326171,0.936523 -0.442068,0.350927 -0.863617,0.708674 -1.264648,1.073243 -0.401052,0.364597 -0.772471,0.724622 -1.114258,1.080078 -0.341806,0.355481 -0.635751,0.674491 -0.881836,0.957031 -0.364591,0.464855 -0.697273,0.936534 -0.998047,1.415039 -0.300788,0.478526 -0.560553,0.966155 -0.779297,1.462891 -0.218756,0.496753 -0.387376,1.007169 -0.505859,1.53125 -0.118496,0.524095 -0.17774,1.068691 -0.177735,1.633789 -5e-6,0.437505 0.06152,0.820317 0.184571,1.148437 0.123041,0.32813 0.257481,0.610681 0.40332,0.847657 0.173171,0.273441 0.387363,0.462568 0.642578,0.567382 0.255201,0.104821 0.56054,0.15723 0.916016,0.157227 0.774731,3e-6 1.490225,-0.07291 2.146484,-0.21875 0.656239,-0.14583 1.285145,-0.341793 1.886722,-0.587891 0.60154,-0.246089 1.18943,-0.537756 1.76367,-0.875 0.5742,-0.337234 1.16665,-0.69726 1.77734,-1.080078 l 0.35547,0 c 0.11847,6e-6 0.23924,0.03191 0.3623,0.0957 0.12303,0.06381 0.23241,0.145839 0.32813,0.246094 0.0957,0.100266 0.17316,0.214198 0.23242,0.341797 0.0592,0.127609 0.0889,0.25977 0.0889,0.396484 -2e-5,0.300786 -0.11851,0.599288 -0.35547,0.895508 -0.237,0.296228 -0.54006,0.578779 -0.90918,0.847656 -0.36916,0.268883 -0.78615,0.521813 -1.25098,0.758789 -0.46485,0.236982 -0.92286,0.446617 -1.37402,0.628907 -0.45118,0.182293 -0.87273,0.337241 -1.264647,0.464843 -0.391938,0.127606 -0.706391,0.214194 -0.943359,0.259766 -0.200532,0.04557 -0.394216,0.08887 -0.581055,0.129883 -0.186859,0.04102 -0.407887,0.08203 -0.663086,0.123047 -0.255217,0.04102 -0.560556,0.07292 -0.916015,0.0957 -0.355477,0.02279 -0.802092,0.03418 -1.339844,0.03418 -0.328132,10e-7 -0.628913,-0.05241 -0.902344,-0.157226 -0.273444,-0.104817 -0.517258,-0.227864 -0.731445,-0.369141 -0.214198,-0.141274 -0.39649,-0.289386 -0.546875,-0.444336 -0.150396,-0.154946 -0.271164,-0.287107 -0.362305,-0.396484 -0.537765,-0.628904 -0.929691,-1.248695 -1.175781,-1.859375 -0.246097,-0.610673 -0.369144,-1.280594 -0.369141,-2.009766 z"
       style="font-size:28px;fill:#e64b00;font-family:MV Boli;-inkscape-font-specification:MV Boli"
       id="path3061"
       inkscape:connector-curvature="0" />
    <path
       d="m 107.02344,-13.830078 c 0,-0.10026 0.016,-0.2347 0.0479,-0.40332 0.0319,-0.168619 0.0706,-0.341796 0.11621,-0.519532 0.0456,-0.177733 0.0934,-0.348631 0.14355,-0.512695 0.0501,-0.16406 0.0889,-0.296222 0.11622,-0.396484 l 5.53711,-18.169922 c 0.0456,-0.06378 0.0957,-0.118469 0.15039,-0.164063 0.0456,-0.04555 0.10708,-0.08429 0.18457,-0.116211 0.0775,-0.03188 0.17089,-0.04783 0.28027,-0.04785 l 0.23242,0 c 0.20051,2e-5 0.36913,0.0342 0.50586,0.102539 0.13671,0.06838 0.24608,0.159525 0.32813,0.273437 0.082,0.113953 0.13898,0.246114 0.17089,0.396485 0.0319,0.15041 0.0478,0.312194 0.0479,0.485351 -1e-5,0.145853 -0.0114,0.298522 -0.0342,0.458008 -0.0228,0.159524 -0.0479,0.314472 -0.0752,0.464844 -0.0273,0.150409 -0.057,0.289406 -0.0889,0.416992 -0.0319,0.127622 -0.057,0.227882 -0.0752,0.300781 l -2.84375,9.707032 1.29883,-0.123047 c 1.44921,-0.319002 2.92804,-0.649406 4.43652,-0.991211 1.50845,-0.341788 2.98729,-0.672191 4.43652,-0.991211 0.16405,-0.08202 0.30988,-0.250641 0.4375,-0.50586 0.12759,-0.255197 0.25291,-0.587879 0.37598,-0.998046 0.12303,-0.410145 0.25747,-0.890938 0.40332,-1.442383 0.14581,-0.551419 0.32355,-1.164374 0.5332,-1.838867 l 0.28711,-0.94336 c 0.11847,-0.455713 0.22557,-0.922835 0.32129,-1.401367 0.0957,-0.478498 0.2119,-0.913719 0.34863,-1.305664 0.1367,-0.391908 0.30988,-0.713197 0.51954,-0.963867 0.20961,-0.250631 0.47849,-0.375957 0.80664,-0.375977 0.46482,2e-5 0.82484,0.148132 1.08007,0.444336 0.25519,0.296243 0.38279,0.667662 0.38282,1.114258 -3e-5,0.28257 -0.10712,0.756528 -0.32129,1.421875 -0.21422,0.665381 -0.48082,1.476578 -0.79981,2.433594 -0.11851,0.355483 -0.24611,0.720066 -0.38281,1.09375 -0.13674,0.373711 -0.26206,0.731458 -0.37598,1.073242 -0.11395,0.341809 -0.20737,0.656262 -0.28027,0.943359 -0.0729,0.287121 -0.10939,0.517264 -0.10937,0.69043 -2e-5,0.164073 0.0228,0.325857 0.0684,0.485351 0.0455,0.159516 0.0683,0.330414 0.0683,0.512696 -2e-5,0.410165 -0.10939,0.751962 -0.32812,1.02539 -0.21877,0.273446 -0.51955,0.551441 -0.90234,0.833985 -0.0183,0.07292 -0.0433,0.186856 -0.0752,0.341797 -0.0319,0.154955 -0.0707,0.31446 -0.11621,0.478515 l -0.17773,0.697266 c -0.12763,0.501308 -0.23472,1.002609 -0.32129,1.503906 -0.0866,0.501307 -0.16409,0.998051 -0.23243,1.490235 -0.0684,0.49219 -0.14129,0.984377 -0.21875,1.476562 -0.0775,0.492189 -0.17547,0.979819 -0.29394,1.462891 -0.0456,0.182292 -0.12534,0.344075 -0.23926,0.485351 -0.11395,0.141276 -0.24611,0.262044 -0.39648,0.362305 -0.15041,0.10026 -0.30764,0.177734 -0.47168,0.232422 -0.16408,0.05469 -0.31903,0.08203 -0.46485,0.08203 -0.21876,-10e-7 -0.3965,-0.05013 -0.5332,-0.150391 -0.13673,-0.10026 -0.24383,-0.21875 -0.32129,-0.355468 -0.0775,-0.136719 -0.1299,-0.277995 -0.15723,-0.423829 -0.0273,-0.145832 -0.041,-0.268879 -0.041,-0.36914 -2e-5,-0.109374 0.0159,-0.289387 0.0478,-0.540039 0.0319,-0.25065 0.0752,-0.544595 0.12988,-0.881836 0.0547,-0.337237 0.11848,-0.70182 0.19141,-1.09375 0.0729,-0.391924 0.14582,-0.788408 0.21875,-1.189453 0.17316,-0.929682 0.37368,-1.945958 0.60156,-3.048828 l -0.0957,0 c -0.237,7e-6 -0.4922,0.02507 -0.76563,0.0752 -0.27345,0.05014 -0.60157,0.120775 -0.98437,0.211914 -0.17319,0.05469 -0.43068,0.127611 -0.77246,0.21875 -0.34181,0.09115 -0.73146,0.19597 -1.16895,0.314453 -0.43751,0.118496 -0.90919,0.2461 -1.41504,0.382813 -0.50587,0.136724 -1.00945,0.273443 -1.51074,0.410156 l -3.70508,1.011719 c -0.17318,0.355473 -0.33496,0.740564 -0.48535,1.155273 -0.15039,0.414717 -0.28939,0.833987 -0.41699,1.257813 -0.12761,0.42383 -0.24382,0.840821 -0.34863,1.250976 -0.10483,0.410157 -0.20281,0.797526 -0.29395,1.162109 -0.0273,0.100261 -0.0843,0.209636 -0.1709,0.328125 -0.0866,0.11849 -0.18685,0.227864 -0.30078,0.328125 -0.11393,0.10026 -0.23242,0.182291 -0.35547,0.246094 -0.12305,0.0638 -0.23926,0.0957 -0.34863,0.0957 -0.20052,-10e-7 -0.36686,-0.04329 -0.49902,-0.129882 -0.13217,-0.08659 -0.23926,-0.200522 -0.32129,-0.341797 -0.082,-0.141277 -0.139,-0.300782 -0.1709,-0.478516 -0.0319,-0.177734 -0.0479,-0.35319 -0.0479,-0.526367 z"
       style="font-size:28px;fill:#e64b00;font-family:MV Boli;-inkscape-font-specification:MV Boli"
       id="path3063"
       inkscape:connector-curvature="0" />
  </g>
  <g
     style="font-size:40px;font-style:normal;font-variant:normal;font-weight:normal;font-stretch:normal;line-height:125%;letter-spacing:0px;word-spacing:0px;fill:#e64b00;fill-opacity:1;stroke:none;font-family:Calibri;-inkscape-font-specification:Calibri"
     id="text3005-1"
     transform="translate(338,33.5)">
    <path
       d="m -168.52148,-4.578125 c 0.30989,0.109378 0.62662,0.2369821 0.95019,0.3828125 0.32356,0.145836 0.65853,0.2848332 1.00488,0.4169922 0.34635,0.1321637 0.70866,0.2438172 1.08692,0.3349609 0.37825,0.091148 0.78157,0.1367207 1.20996,0.1367188 0.50129,1.9e-6 1.00715,-0.059243 1.51758,-0.1777344 0.5104,-0.1184874 1.00943,-0.293943 1.49707,-0.5263672 0.48762,-0.232419 0.95474,-0.5149708 1.40136,-0.8476562 0.44661,-0.3326786 0.85676,-0.7177693 1.23047,-1.1552735 0.41015,-0.4648387 0.75194,-0.8863877 1.02539,-1.2646484 0.27343,-0.378249 0.49446,-0.7154882 0.66309,-1.0117188 0.1686,-0.2962168 0.28937,-0.5514248 0.3623,-0.765625 0.0729,-0.2141848 0.10936,-0.3987549 0.10938,-0.5537109 -2e-5,-0.2278562 -0.0775,-0.426098 -0.23242,-0.594727 -0.15496,-0.16861 -0.36232,-0.307608 -0.62207,-0.416992 -0.25978,-0.109365 -0.55373,-0.189118 -0.88184,-0.239258 -0.32814,-0.05012 -0.66993,-0.07518 -1.02539,-0.07519 -0.20965,10e-6 -0.45574,0.0068 -0.73828,0.02051 -0.28256,0.01368 -0.56967,0.02735 -0.86133,0.04102 -0.29168,0.01368 -0.57423,0.02507 -0.84765,0.03418 -0.27345,0.0091 -0.51043,0.01368 -0.71094,0.01367 -0.30079,10e-6 -0.61297,-0.03417 -0.93653,-0.102539 -0.32357,-0.06835 -0.6403,-0.180003 -0.95019,-0.334961 -0.3099,-0.154938 -0.59701,-0.364573 -0.86133,-0.628906 -0.26433,-0.264312 -0.48308,-0.592437 -0.65625,-0.984375 -0.0547,-0.127593 -0.10482,-0.277983 -0.15039,-0.451172 -0.0456,-0.173165 -0.0684,-0.360014 -0.0684,-0.560547 0,-0.218737 0.016,-0.426094 0.0479,-0.62207 0.0319,-0.19595 0.0706,-0.385078 0.11621,-0.567383 0.1276,-0.455715 0.33952,-0.91828 0.63575,-1.387695 0.29621,-0.469386 0.65168,-0.927393 1.0664,-1.374024 0.41471,-0.446597 0.86588,-0.87954 1.35352,-1.298828 0.48762,-0.419253 0.98892,-0.813458 1.5039,-1.182617 0.51497,-0.369121 1.02083,-0.701803 1.51758,-0.998047 0.49673,-0.296204 0.9593,-0.549133 1.3877,-0.758789 0.60155,-0.291646 1.2145,-0.50356 1.83886,-0.635742 0.62434,-0.13214 1.24185,-0.198221 1.85254,-0.198242 0.36457,2.1e-5 0.71092,0.04787 1.03907,0.143554 0.3281,0.09572 0.61749,0.234722 0.86816,0.416993 0.25063,0.182312 0.44887,0.407898 0.59473,0.676757 0.14581,0.268901 0.21873,0.576517 0.21875,0.922852 -2e-5,0.20054 -0.0228,0.369159 -0.0684,0.505859 -0.0456,0.136738 -0.10484,0.248391 -0.17774,0.334961 -0.0729,0.08661 -0.15269,0.148131 -0.23926,0.184571 -0.0866,0.03648 -0.17547,0.05471 -0.2666,0.05469 -0.24611,1.8e-5 -0.47169,-0.02733 -0.67675,-0.08203 -0.2051,-0.05467 -0.40334,-0.116193 -0.59473,-0.184571 -0.19142,-0.06834 -0.38283,-0.132142 -0.57422,-0.191406 -0.19142,-0.05923 -0.40106,-0.08885 -0.62891,-0.08887 -0.67449,1.9e-5 -1.36036,0.134459 -2.05761,0.40332 -0.69728,0.268899 -1.37632,0.610695 -2.03711,1.025391 -0.66082,0.41473 -1.28517,0.877295 -1.87305,1.387695 -0.5879,0.510432 -1.11427,1.007177 -1.5791,1.490235 -0.2461,0.255222 -0.42612,0.51043 -0.54004,0.765625 -0.11394,0.255221 -0.17091,0.496758 -0.1709,0.724609 -1e-5,0.337252 0.14583,0.601575 0.4375,0.792969 0.29166,0.191418 0.64713,0.287121 1.06641,0.287109 0.24608,1.2e-5 0.52408,-0.0045 0.83398,-0.01367 0.30989,-0.0091 0.62662,-0.0205 0.9502,-0.03418 0.32355,-0.01366 0.63801,-0.02733 0.94336,-0.04102 0.30532,-0.01366 0.57648,-0.0205 0.81347,-0.02051 0.56509,1.2e-5 1.10741,0.07977 1.62696,0.239258 0.51951,0.159517 0.9798,0.394217 1.38086,0.704101 0.40102,0.309907 0.72231,0.694998 0.96386,1.155274 0.24152,0.460296 0.36229,0.986663 0.36231,1.5791015 -2e-5,0.3645913 -0.0547,0.7337316 -0.16406,1.1074219 -0.1094,0.3737048 -0.25979,0.749681 -0.45118,1.1279297 -0.19142,0.3782609 -0.41017,0.7519585 -0.65625,1.1210937 -0.24611,0.3691453 -0.50587,0.7314496 -0.77929,1.0869141 -0.49221,0.6380241 -1.04136,1.239586 -1.64746,1.8046875 -0.60614,0.5651057 -1.25099,1.0572927 -1.93457,1.4765625 -0.68361,0.419271 -1.40594,0.751953 -2.167,0.9980469 -0.76107,0.24609308 -1.54265,0.36913984 -2.34472,0.36914058 -0.34636,-7.4e-7 -0.70183,-0.0319017 -1.06641,-0.0957031 -0.36459,-0.0638027 -0.72461,-0.15722705 -1.08008,-0.28027348 -0.35547,-0.1230471 -0.69043,-0.2779949 -1.00488,-0.4648437 -0.31446,-0.1868487 -0.59017,-0.3987626 -0.82715,-0.6357422 -0.23698,-0.2369782 -0.42611,-0.4990222 -0.56738,-0.7861328 -0.14128,-0.2871076 -0.21192,-0.5992818 -0.21192,-0.9365235 0,-0.1640599 0.0251,-0.3212863 0.0752,-0.4716797 0.0501,-0.1503875 0.17545,-0.2255827 0.37598,-0.2255859 z"
       style="font-size:28px;fill:#e64b00;font-family:MV Boli;-inkscape-font-specification:MV Boli"
       id="path3042"
       inkscape:connector-curvature="0" />
    <path
       d="m -139.26367,-1.2695312 c -0.19142,-2e-7 -0.36004,-0.036458 -0.50586,-0.109375 -0.14585,-0.072917 -0.26662,-0.1686197 -0.36231,-0.2871094 -0.0957,-0.1184892 -0.16863,-0.2552079 -0.21875,-0.4101563 -0.0501,-0.1549471 -0.0752,-0.3098948 -0.0752,-0.4648437 -2e-5,-0.1367175 0.0364,-0.3258449 0.10937,-0.5673828 0.0729,-0.2415346 0.16633,-0.5126931 0.28028,-0.8134766 0.11392,-0.3007784 0.23924,-0.6152313 0.37597,-0.9433594 0.13671,-0.3281212 0.26887,-0.642574 0.39649,-0.9433593 0.12759,-0.3007766 0.23696,-0.5787711 0.32812,-0.8339844 0.0911,-0.2552029 0.15494,-0.4557235 0.19141,-0.6015625 0.0364,-0.1640565 0.082,-0.3600199 0.13672,-0.5878906 0.0547,-0.227858 0.11619,-0.4762301 0.18457,-0.7451172 0.0683,-0.2688728 0.1367,-0.5514246 0.20508,-0.8476563 0.0683,-0.2962156 0.13898,-0.5947183 0.21191,-0.8955083 -0.12762,0.02735 -0.28485,0.05242 -0.47168,0.0752 -0.18686,0.0228 -0.38511,0.0433 -0.59473,0.06152 -0.30079,0.02735 -0.59702,0.06837 -0.88867,0.123047 -0.29168,0.0547 -0.59018,0.1162196 -0.89551,0.1845704 -0.30535,0.068368 -0.62208,0.1412844 -0.95019,0.21875 -0.32814,0.077482 -0.67905,0.1572347 -1.05273,0.2392578 -0.54689,0.1184975 -1.09377,0.2506588 -1.64063,0.3964844 -0.54688,0.1458408 -1.11655,0.2187574 -1.70898,0.21875 -0.1823,7.4e-6 -0.35092,-0.047844 -0.50586,-0.1435547 -0.15496,-0.095695 -0.32814,-0.1663334 -0.51953,-0.211914 -0.1823,0.2916741 -0.35548,0.6038483 -0.51954,0.9365234 -0.16407,0.3326888 -0.31446,0.6744853 -0.45117,1.0253906 -0.13672,0.3509169 -0.25977,0.6972707 -0.36914,1.0390625 -0.10938,0.3418013 -0.20508,0.66309 -0.28711,0.9638672 -0.0456,0.1640661 -0.0843,0.37598 -0.11621,0.6357422 -0.0319,0.2597685 -0.0615,0.5240912 -0.0889,0.7929688 -0.0274,0.2688822 -0.0547,0.526369 -0.082,0.7724609 -0.0274,0.2460951 -0.0547,0.4420584 -0.082,0.5878906 -0.0274,0.1367196 -0.082,0.2711596 -0.16406,0.4033203 -0.082,0.1321619 -0.1823,0.2529301 -0.30078,0.3623047 -0.1185,0.1093751 -0.25066,0.1982422 -0.39649,0.2666016 -0.14583,0.068359 -0.29167,0.1025389 -0.4375,0.1025391 -0.25521,-2e-7 -0.46257,-0.075195 -0.62207,-0.225586 -0.15951,-0.1503904 -0.28711,-0.3372392 -0.38281,-0.5605469 -0.0957,-0.2233064 -0.16179,-0.4671213 -0.19824,-0.7314453 -0.0365,-0.2643213 -0.0547,-0.5058575 -0.0547,-0.7246094 0,-0.5559869 0.0684,-1.1324837 0.20508,-1.7294921 0.13671,-0.5970008 0.32128,-1.20312 0.55371,-1.8183594 0.23242,-0.6152281 0.50586,-1.2350192 0.82031,-1.859375 0.31445,-0.6243408 0.65397,-1.2464107 1.01856,-1.8662107 0.30077,-0.55598 0.67447,-1.198557 1.12109,-1.927735 0.44661,-0.729154 0.94563,-1.478828 1.49707,-2.249023 0.55143,-0.770168 1.14843,-1.524399 1.79102,-2.262695 0.64256,-0.738265 1.31021,-1.396793 2.00293,-1.975586 0.69269,-0.578758 1.40363,-1.04588 2.13281,-1.401367 0.72915,-0.35545 1.45376,-0.533184 2.17383,-0.533204 0.75649,2e-5 1.38768,0.136739 1.89355,0.410157 0.50584,0.273456 0.90916,0.642596 1.20996,1.107422 0.30076,0.464861 0.51268,1.007178 0.63574,1.626953 0.12303,0.619807 0.18456,1.276057 0.18458,1.96875 -2e-5,0.610691 -0.0388,1.239596 -0.11622,1.886718 -0.0775,0.647148 -0.17319,1.280611 -0.28711,1.900391 -0.11395,0.619802 -0.23699,1.216806 -0.36914,1.791016 -0.13218,0.5742268 -0.25294,1.0937576 -0.3623,1.5585934 l -0.47852,1.859375 c -0.0182,0.054693 -0.0524,0.1640679 -0.10254,0.328125 -0.0501,0.1640676 -0.11395,0.3623096 -0.1914,0.5947265 -0.0775,0.2324264 -0.16408,0.4830772 -0.25977,0.7519532 -0.0957,0.2688838 -0.19142,0.5332065 -0.28711,0.7929687 -0.0957,0.2597685 -0.18686,0.4990261 -0.27343,0.7177734 -0.0866,0.2187523 -0.1618,0.3964864 -0.22559,0.5332032 l 0.0137,-0.013672 c -0.0638,0.2369808 -0.13218,0.478517 -0.20508,0.7246094 -0.0729,0.2460947 -0.17319,0.4671231 -0.30078,0.6630859 -0.12762,0.1959639 -0.29168,0.3554689 -0.49218,0.4785156 -0.20054,0.1230468 -0.46031,0.1845702 -0.7793,0.1845704 z m 0.69726,-17.1171878 c -0.41017,1.7e-5 -0.81804,0.08433 -1.22363,0.25293 -0.40561,0.168636 -0.80437,0.389665 -1.19629,0.663086 -0.39194,0.273453 -0.77247,0.592463 -1.1416,0.957031 -0.36915,0.364598 -0.72006,0.738296 -1.05273,1.121094 -0.3327,0.382826 -0.64487,0.767917 -0.93653,1.155273 -0.29167,0.387383 -0.556,0.74513 -0.79297,1.073242 -0.0365,0.0547 -0.0843,0.125338 -0.14355,0.211915 -0.0592,0.0866 -0.1185,0.182303 -0.17774,0.287109 -0.0592,0.104829 -0.11622,0.214204 -0.17089,0.328125 -0.0547,0.113943 -0.10027,0.216482 -0.13672,0.307617 l 1.4082,0 c 0.51041,1.1e-5 1.09374,-0.03645 1.75,-0.109375 0.65624,-0.07291 1.30565,-0.159494 1.94824,-0.259766 0.64257,-0.100249 1.23274,-0.202788 1.77051,-0.307617 0.53774,-0.104806 0.94334,-0.184559 1.2168,-0.239258 0.0364,-0.118477 0.0706,-0.277982 0.10254,-0.478515 0.0319,-0.200509 0.0615,-0.423816 0.0889,-0.669922 0.0273,-0.246081 0.0478,-0.508125 0.0615,-0.786133 0.0137,-0.277981 0.0205,-0.562811 0.0205,-0.854492 -2e-5,-0.236965 -0.009,-0.508123 -0.0273,-0.813477 -0.0182,-0.305323 -0.0729,-0.59471 -0.16406,-0.868164 -0.0912,-0.273421 -0.23016,-0.503564 -0.41699,-0.690429 -0.18687,-0.186832 -0.44891,-0.280257 -0.78614,-0.280274 z"
       style="font-size:28px;fill:#e64b00;font-family:MV Boli;-inkscape-font-specification:MV Boli"
       id="path3044"
       inkscape:connector-curvature="0" />
    <path
       d="m -129.41992,-16.896484 c -1e-5,-0.218735 -0.0114,-0.412419 -0.0342,-0.581055 -0.0228,-0.168604 -0.0479,-0.328109 -0.0752,-0.478516 -0.0273,-0.150374 -0.0524,-0.298485 -0.0752,-0.444336 -0.0228,-0.145816 -0.0342,-0.305321 -0.0342,-0.478515 -1e-5,-0.227847 0.0205,-0.448876 0.0615,-0.663086 0.041,-0.214175 0.10937,-0.405581 0.20508,-0.574219 0.0957,-0.168601 0.22558,-0.305319 0.38965,-0.410156 0.16405,-0.104799 0.37369,-0.157207 0.6289,-0.157227 0.36458,2e-5 0.65625,0.07749 0.875,0.232422 0.21875,0.154967 0.38737,0.353209 0.50586,0.594727 0.11849,0.241554 0.19824,0.514992 0.23926,0.820312 0.041,0.305356 0.0615,0.608416 0.0615,0.90918 0,0.264339 -0.0251,0.674495 -0.0752,1.230469 -0.0501,0.556004 -0.10255,1.248712 -0.15723,2.078125 -0.0547,0.829439 -0.1071,1.791027 -0.15722,2.884765 -0.0501,1.09376 -0.0752,2.3014408 -0.0752,3.6230471 -1e-5,0.4192773 0.0182,0.8863993 0.0547,1.4013672 0.0365,0.5149789 0.10937,1.0048873 0.21875,1.4697266 0.10937,0.4648473 0.26431,0.8727245 0.46484,1.2236328 0.20051,0.3509139 0.46939,0.5764996 0.80664,0.6767578 0.83853,-0.7838513 1.60644,-1.6315067 2.30371,-2.5429687 0.69726,-0.9114528 1.32844,-1.8320248 1.89356,-2.7617188 0.56509,-0.9296791 1.07551,-1.841137 1.53125,-2.734375 0.45571,-0.893218 0.86587,-1.708973 1.23047,-2.447266 0.34634,-0.720038 0.65851,-1.374009 0.93652,-1.961914 0.27798,-0.587875 0.52863,-1.132471 0.75195,-1.633789 0.22329,-0.501285 0.41926,-0.968407 0.58789,-1.401367 0.16861,-0.432925 0.32127,-0.849916 0.45801,-1.250976 0.0364,-0.09113 0.0957,-0.223289 0.17774,-0.396485 0.082,-0.173158 0.21417,-0.323548 0.39648,-0.451172 0.23696,-0.173157 0.61522,-0.259745 1.13477,-0.259765 0.31899,2e-5 0.55141,0.07066 0.69726,0.211914 0.14581,0.141295 0.21873,0.339537 0.21875,0.594726 -2e-5,0.09117 -0.002,0.198261 -0.007,0.321289 -0.005,0.123066 -0.0297,0.234719 -0.0752,0.334961 -0.20966,0.556008 -0.48765,1.191749 -0.83398,1.907227 -0.34638,0.71551 -0.7064,1.474299 -1.08008,2.276367 -0.35549,0.756524 -0.72463,1.528984 -1.10742,2.317383 -0.38283,0.788422 -0.77476,1.563161 -1.17578,2.324219 -0.40106,0.761076 -0.80438,1.4902421 -1.20997,2.1874996 -0.40561,0.6972724 -0.80437,1.3375712 -1.19628,1.9208984 -0.34637,0.5195363 -0.82033,1.1871789 -1.42188,2.0029297 -0.60157,0.8157579 -1.3991,1.793296 -2.39258,2.9326172 -0.15496,0.1731775 -0.3099,0.3395185 -0.46484,0.4990234 -0.15496,0.1595052 -0.31902,0.3030597 -0.49219,0.4306641 -0.17319,0.12760371 -0.36003,0.23014267 -0.56055,0.30761716 -0.20053,0.0774733 -0.41928,0.11621022 -0.65625,0.11621094 -0.36459,-7.2e-7 -0.6836,-0.0774746 -0.95703,-0.23242188 -0.27344,-0.15494822 -0.51726,-0.34863292 -0.73144,-0.58105472 -0.2142,-0.2324215 -0.39877,-0.4899082 -0.55371,-0.7724609 -0.15496,-0.2825509 -0.29623,-0.5559882 -0.42383,-0.8203125 -0.16407,-0.328123 -0.30307,-0.6881487 -0.41699,-1.0800781 -0.11394,-0.391924 -0.20737,-0.7998012 -0.28028,-1.2236328 -0.0729,-0.4238238 -0.12761,-0.856766 -0.16406,-1.2988282 -0.0365,-0.4420515 -0.0547,-0.8772724 -0.0547,-1.305664 0,-0.054681 0.002,-0.2164646 0.007,-0.4853516 0.005,-0.2688729 0.0114,-0.6152267 0.0205,-1.0390625 0.009,-0.4238196 0.0182,-0.9046133 0.0273,-1.4423833 0.009,-0.53775 0.0182,-1.100575 0.0273,-1.688476 0.009,-0.587879 0.016,-1.189441 0.0205,-1.804688 0.005,-0.61522 0.007,-1.205389 0.007,-1.770507 z"
       style="font-size:28px;fill:#e64b00;font-family:MV Boli;-inkscape-font-specification:MV Boli"
       id="path3046"
       inkscape:connector-curvature="0" />
    <path
       d="m -113.71094,-2.4316406 c 0,-0.3190091 0.0456,-0.6562484 0.13672,-1.0117188 0.30989,-1.23958 0.6722,-2.4540971 1.08692,-3.6435547 0.4147,-1.1894462 0.79068,-2.3720622 1.12792,-3.5478519 0.33724,-1.17577 0.61751,-2.16698 0.84083,-2.973632 0.2233,-0.806628 0.42154,-1.499336 0.59472,-2.078125 0.17317,-0.578762 0.33268,-1.077785 0.47852,-1.497071 0.14582,-0.419254 0.30533,-0.833968 0.47851,-1.24414 0.10937,-0.246077 0.23014,-0.501285 0.36231,-0.765625 0.13215,-0.264305 0.27571,-0.50812 0.43066,-0.731446 0.15494,-0.223288 0.31672,-0.40558 0.48535,-0.546875 0.16861,-0.141257 0.34407,-0.211894 0.52637,-0.211914 0.37369,2e-5 0.65852,0.06154 0.85449,0.184571 0.19596,0.123065 0.31672,0.234719 0.36231,0.334961 l 0.12304,0.560546 c 0.13671,-0.0091 0.31445,-0.03416 0.53321,-0.0752 0.21874,-0.041 0.43976,-0.08429 0.66308,-0.129883 0.2233,-0.04555 0.43066,-0.09113 0.62207,-0.136718 0.1914,-0.04556 0.33723,-0.08657 0.4375,-0.123047 0.60155,-0.164044 1.15754,-0.30532 1.66797,-0.423828 0.5104,-0.118471 0.99575,-0.216453 1.45606,-0.293946 0.460267,-0.07745 0.900045,-0.13442 1.319333,-0.170898 0.419253,-0.03644 0.843081,-0.05467 1.271485,-0.05469 0.419251,2e-5 0.761048,0.02281 1.02539,0.06836 0.264303,0.04559 0.473938,0.107115 0.628906,0.18457 0.154928,0.07749 0.262024,0.168639 0.321289,0.273437 0.05922,0.104837 0.08885,0.216491 0.08887,0.334961 -2.1e-5,0.109394 -0.02964,0.225605 -0.08887,0.348633 -0.05926,0.123065 -0.157247,0.239276 -0.293945,0.348633 -0.136739,0.109393 -0.314473,0.205096 -0.533203,0.287109 -0.21877,0.08205 -0.492207,0.136737 -0.820312,0.164063 -0.08205,0.01825 -0.271178,0.05243 -0.567383,0.102539 -0.296243,0.05015 -0.617531,0.104835 -0.963867,0.164062 -0.346372,0.05926 -0.674497,0.116229 -0.984373,0.170899 -0.30991,0.0547 -0.52411,0.09572 -0.64258,0.123047 l 0.0137,0 c -0.0547,0.0091 -0.18458,0.04331 -0.38965,0.102539 -0.20509,0.05926 -0.45346,0.127621 -0.74511,0.205078 -0.29169,0.07749 -0.60842,0.166358 -0.9502,0.266602 -0.34181,0.100276 -0.67905,0.198258 -1.01172,0.293945 -0.33269,0.09572 -0.64031,0.186865 -0.92285,0.273437 -0.28256,0.0866 -0.51043,0.157243 -0.68359,0.211914 -0.556,0.218766 -0.99122,0.508154 -1.30567,0.868164 -0.31446,0.360041 -0.56283,0.763361 -0.74512,1.209961 -0.0365,0.08205 -0.0911,0.221042 -0.16406,0.416993 -0.0729,0.195976 -0.15268,0.419283 -0.23926,0.669921 -0.0866,0.250664 -0.18002,0.517265 -0.28027,0.799805 -0.10027,0.282564 -0.19597,0.551444 -0.28711,0.806641 -0.0911,0.255219 -0.1709,0.48764 -0.23926,0.697265 -0.0684,0.209646 -0.11621,0.364594 -0.14355,0.464844 -0.0273,0.09116 -0.0456,0.173187 -0.0547,0.246094 -0.009,0.07293 -0.0137,0.127613 -0.0137,0.164062 -1e-5,0.0547 0.0137,0.08204 0.041,0.08203 0.13671,9e-6 0.42154,-0.06151 0.85449,-0.184571 0.43293,-0.123037 0.93879,-0.275706 1.51758,-0.458008 0.57876,-0.182281 1.19855,-0.378244 1.85937,-0.58789 0.6608,-0.209625 1.29426,-0.405588 1.90039,-0.587891 0.60611,-0.18228 1.14615,-0.334949 1.62012,-0.458008 0.47394,-0.123035 0.81574,-0.184558 1.02539,-0.18457 0.318993,1.2e-5 0.533185,0.05242 0.642578,0.157227 0.109357,0.104829 0.164045,0.22104 0.164062,0.348632 -1.7e-5,0.328136 -0.116228,0.615245 -0.348633,0.861329 -0.232439,0.246103 -0.521827,0.460296 -0.868167,0.642578 -0.10939,0.0547 -0.31219,0.134449 -0.6084,0.239258 -0.29623,0.104827 -0.61524,0.211923 -0.95703,0.321289 -0.34181,0.109384 -0.66765,0.214201 -0.97754,0.314453 -0.3099,0.100269 -0.53321,0.173185 -0.66992,0.21875 -0.89324,0.3463622 -1.62013,0.6311926 -2.18066,0.8544919 -0.56056,0.2233149 -1.01401,0.4056063 -1.36035,0.546875 -0.34637,0.1412831 -0.61297,0.2483794 -0.79981,0.3212891 -0.18686,0.072923 -0.36003,0.1344468 -0.51953,0.1845703 -0.15951,0.050137 -0.33497,0.097988 -0.52637,0.1435547 -0.19141,0.045579 -0.45573,0.1093814 -0.79297,0.1914063 -0.082,0.1914124 -0.17774,0.4808001 -0.2871,0.868164 -0.10939,0.3873749 -0.2142,0.7884162 -0.31446,1.203125 -0.10026,0.4147174 -0.18457,0.7998082 -0.25293,1.1552735 -0.0684,0.3554715 -0.10254,0.601565 -0.10254,0.7382812 0,0.1640647 0.0228,0.2848328 0.0684,0.3623047 0.0456,0.077476 0.10026,0.1298847 0.16407,0.1572265 0.0638,0.027346 0.12759,0.041018 0.1914,0.041016 0.0638,1.8e-6 0.11393,1.8e-6 0.15039,0 0.4375,1.8e-6 0.96386,-0.0638 1.5791,-0.1914063 0.61523,-0.127602 1.22363,-0.2962216 1.8252,-0.5058594 0.57421,-0.2005181 1.07551,-0.4192678 1.50391,-0.6562499 0.42837,-0.2369758 0.83169,-0.4580042 1.20996,-0.663086 0.37824,-0.2050741 0.74738,-0.378251 1.10742,-0.5195312 0.36001,-0.1412716 0.75422,-0.2164668 1.18262,-0.225586 0.0911,4.6e-6 0.19822,0.00912 0.32128,0.027344 0.12304,0.018234 0.23925,0.052413 0.34864,0.102539 0.10936,0.050135 0.19822,0.1162153 0.2666,0.1982422 0.0683,0.082035 0.0934,0.1868531 0.0752,0.3144532 -0.0365,0.2643266 -0.16863,0.5240919 -0.39648,0.7792968 -0.22788,0.2552113 -0.51499,0.5013048 -0.86133,0.7382813 -0.34637,0.2369813 -0.73374,0.4648457 -1.16211,0.6835937 -0.4284,0.2187516 -0.8659,0.4261081 -1.3125,0.6220703 -0.44662,0.1959645 -0.88412,0.3736987 -1.3125,0.5332032 -0.42839,0.1595056 -0.81121,0.2985029 -1.14844,0.4169922 -0.83855,0.2916665 -1.6543,0.505859 -2.44726,0.64257807 -0.79298,0.13671815 -1.50391,0.20507746 -2.13281,0.20507813 -0.69272,-6.7e-7 -1.22364,-0.12988335 -1.59278,-0.3896484 -0.36914,-0.2597657 -0.55371,-0.6904293 -0.55371,-1.2919922 z"
       style="font-size:28px;fill:#e64b00;font-family:MV Boli;-inkscape-font-specification:MV Boli"
       id="path3048"
       inkscape:connector-curvature="0" />
    <path
       d="m -97.714844,-3.4707031 c 0.419269,-0.3007789 0.845375,-0.4899063 1.278321,-0.5673828 0.432939,-0.077471 0.890946,-0.1389947 1.374023,-0.1845703 l 3.417969,-13.8359378 c -0.03647,1.7e-5 -0.139006,-0.0023 -0.307617,-0.0068 -0.168628,-0.0045 -0.355477,-0.01821 -0.560547,-0.04102 -0.205085,-0.02277 -0.407885,-0.06151 -0.608399,-0.116211 -0.200527,-0.05467 -0.350917,-0.132145 -0.451172,-0.232422 -0.04558,-0.06378 -0.102545,-0.148095 -0.170898,-0.25293 -0.06837,-0.1048 -0.134446,-0.218732 -0.198242,-0.341797 -0.06381,-0.123029 -0.118496,-0.248354 -0.164063,-0.375976 -0.04558,-0.127586 -0.06837,-0.25519 -0.06836,-0.382813 -6e-6,-0.209617 0.08886,-0.385072 0.266601,-0.526367 0.177729,-0.141257 0.396479,-0.255189 0.65625,-0.341797 0.259759,-0.08657 0.540032,-0.148092 0.840821,-0.18457 0.300773,-0.03644 0.574211,-0.05467 0.820312,-0.05469 1.148428,2e-5 2.212555,0.0342 3.192383,0.102539 0.979805,0.06838 1.89582,0.216491 2.748047,0.444336 0.852199,0.227884 1.654281,0.551451 2.40625,0.970704 0.751936,0.419288 1.469709,0.979834 2.15332,1.68164 0.25519,0.264339 0.499005,0.560563 0.731446,0.888672 0.232402,0.32814 0.43748,0.685887 0.615234,1.073242 0.177714,0.387384 0.321269,0.802097 0.430664,1.244141 0.109354,0.44207 0.164042,0.909192 0.164063,1.401367 -2.1e-5,0.264334 -0.01369,0.542329 -0.04102,0.833984 -0.02736,0.291678 -0.06382,0.542328 -0.109375,0.751953 -0.264343,1.057301 -0.635762,1.9938237 -1.114258,2.8095708 -0.478534,0.8157617 -1.034523,1.5403703 -1.667969,2.1738281 -0.63348,0.6334681 -1.328467,1.1826212 -2.084961,1.647461 -0.756525,0.4648467 -1.540378,0.8704453 -2.351562,1.2167968 -0.81121,0.3463561 -1.636079,0.6471371 -2.474609,0.9023438 -0.838552,0.2552094 -1.654306,0.4830738 -2.447266,0.6835937 l 0.01367,0 c -0.355477,0.1093756 -0.738289,0.2050786 -1.148438,0.2871094 -0.410163,0.082032 -0.824876,0.1503909 -1.24414,0.2050782 -0.419277,0.054688 -0.836268,0.097982 -1.250977,0.1298828 -0.414718,0.031901 -0.804366,0.047851 -1.168945,0.047851 -0.401045,0 -0.738284,-0.025065 -1.011719,-0.075195 -0.27344,-0.05013 -0.494468,-0.1184894 -0.663086,-0.2050781 -0.168621,-0.086588 -0.289389,-0.1845699 -0.362305,-0.2939453 -0.07292,-0.1093743 -0.109376,-0.2278638 -0.109375,-0.3554688 -10e-7,-0.1822905 0.05241,-0.3714179 0.157227,-0.5673828 0.104816,-0.1959618 0.275714,-0.380532 0.512695,-0.5537109 z m 6.015625,-3.9238281 c -0.109383,0.4648492 -0.223315,0.9433644 -0.341797,1.4355468 -0.118497,0.4921916 -0.232429,0.975264 -0.341796,1.4492188 l 0.314453,-0.068359 c 0.200513,-0.04557 0.471671,-0.113929 0.813476,-0.2050781 0.341788,-0.091142 0.735994,-0.2050746 1.182617,-0.3417969 0.446605,-0.1367149 0.916005,-0.3007772 1.408204,-0.4921875 0.492175,-0.1914019 1.013985,-0.4215449 1.565429,-0.6904297 0.551419,-0.268875 1.096015,-0.5742133 1.633789,-0.9160156 0.537746,-0.3417907 1.052719,-0.7132096 1.544922,-1.1142578 0.492171,-0.4010344 0.925114,-0.831698 1.298828,-1.2919922 0.373681,-0.4602786 0.672183,-0.9433506 0.895508,-1.4492196 0.223289,-0.505849 0.334943,-1.032215 0.334961,-1.579101 -1.8e-5,-0.555978 -0.109393,-1.082345 -0.328125,-1.579102 -0.218768,-0.496731 -0.512713,-0.957017 -0.881836,-1.380859 -0.369157,-0.423814 -0.797542,-0.802068 -1.285156,-1.134766 -0.487646,-0.332666 -0.995783,-0.617497 -1.524414,-0.854492 -0.52866,-0.236963 -1.064141,-0.416975 -1.606446,-0.540039 -0.542329,-0.12303 -1.055024,-0.184553 -1.538085,-0.18457 -0.683605,1.768244 -1.266937,3.563815 -1.75,5.386718 -0.483082,1.822927 -0.947926,3.6731858 -1.394532,5.5507822 z"
       style="font-size:28px;fill:#e64b00;font-family:MV Boli;-inkscape-font-specification:MV Boli"
       id="path3050"
       inkscape:connector-curvature="0" />
  </g>
</svg>
