<?xml version="1.0" encoding="UTF-8" standalone="no"?>
<!-- Created with Inkscape (http://www.inkscape.org/) -->

<svg
   xmlns:dc="http://purl.org/dc/elements/1.1/"
   xmlns:cc="http://creativecommons.org/ns#"
   xmlns:rdf="http://www.w3.org/1999/02/22-rdf-syntax-ns#"
   xmlns:svg="http://www.w3.org/2000/svg"
   xmlns="http://www.w3.org/2000/svg"
   xmlns:sodipodi="http://sodipodi.sourceforge.net/DTD/sodipodi-0.dtd"
   xmlns:inkscape="http://www.inkscape.org/namespaces/inkscape"
   id="svg3055"
   version="1.1"
   inkscape:version="0.48.4 r9939"
   width="453"
   height="50"
   sodipodi:docname="selecciona.svg">
  <metadata
     id="metadata3061">
    <rdf:RDF>
      <cc:Work
         rdf:about="">
        <dc:format>image/svg+xml</dc:format>
        <dc:type
           rdf:resource="http://purl.org/dc/dcmitype/StillImage" />
        <dc:title />
      </cc:Work>
    </rdf:RDF>
  </metadata>
  <defs
     id="defs3059" />
  <sodipodi:namedview
     pagecolor="#ffffff"
     bordercolor="#666666"
     borderopacity="1"
     objecttolerance="10"
     gridtolerance="10"
     guidetolerance="10"
     inkscape:pageopacity="0"
     inkscape:pageshadow="2"
     inkscape:window-width="1920"
     inkscape:window-height="1018"
     id="namedview3057"
     showgrid="false"
     inkscape:zoom="2"
     inkscape:cx="152.64317"
     inkscape:cy="-45.68404"
     inkscape:window-x="-8"
     inkscape:window-y="-8"
     inkscape:window-maximized="1"
     inkscape:current-layer="svg3055"
     showguides="true">
    <inkscape:grid
       type="xygrid"
       id="grid4709"
       empspacing="5"
       visible="true"
       enabled="true"
       snapvisiblegridlinesonly="true" />
  </sodipodi:namedview>
  <g
     inkscape:groupmode="layer"
     id="layer1"
     inkscape:label="Layer"
     style="display:inline"
     transform="translate(0,-138)" />
  <path
     style="fill:none;stroke:#e64b00;stroke-width:5.30000019000000040;stroke-linecap:round;stroke-linejoin:miter;stroke-miterlimit:4;stroke-opacity:1;stroke-dasharray:none;"
     d="m 444.61665,40.70041 c 0,0 -73.82248,-0.312712 -136.11802,-0.744676 C 260.15324,39.620502 207.08628,42.602877 151.99092,40.472895 97.40632,38.362658 54.745852,42.002533 49.17684,41.663 37.317734,40.939971 8.859443,40.703803 8.859443,40.703803"
     id="path3070"
     inkscape:connector-curvature="0"
     sodipodi:nodetypes="csssc" />
  <path
     inkscape:connector-curvature="0"
     id="path3172"
     style="font-size:24px;font-style:normal;font-variant:normal;font-weight:normal;font-stretch:normal;line-height:125%;letter-spacing:0px;word-spacing:0px;fill:#e64b00;fill-opacity:1;stroke:none;font-family:MV Boli;-inkscape-font-specification:MV Boli"
     d="m 16.097462,29.213883 c 0.297448,0.101263 0.603659,0.219939 0.918632,0.35602 0.314968,0.136087 0.639365,0.265476 0.973192,0.388167 0.33382,0.122695 0.67932,0.22552 1.036502,0.308473 0.357172,0.08296 0.730843,0.121885 1.121014,0.116779 0.45657,-0.006 0.909062,-0.06885 1.357476,-0.188628 0.4484,-0.119778 0.878512,-0.294087 1.290337,-0.522926 0.411808,-0.228832 0.797978,-0.505528 1.158512,-0.830086 0.360515,-0.324552 0.680548,-0.698963 0.960102,-1.123236 0.308936,-0.450935 0.561641,-0.859517 0.758116,-1.225745 0.196451,-0.366217 0.350883,-0.692458 0.463294,-0.978723 0.112387,-0.286253 0.186907,-0.532583 0.223556,-0.738994 0.03663,-0.206397 0.04418,-0.38394 0.02265,-0.532633 -0.03169,-0.218646 -0.129806,-0.407952 -0.294354,-0.567918 -0.164574,-0.15995 -0.372753,-0.29086 -0.624534,-0.392727 -0.251804,-0.101848 -0.53061,-0.174879 -0.836417,-0.219082 -0.305829,-0.04418 -0.620614,-0.06416 -0.944358,-0.05994 -0.190942,0.0025 -0.414124,0.01203 -0.669563,0.02847 -0.255451,0.0165 -0.515045,0.03303 -0.778779,0.04962 -0.263752,0.01661 -0.519512,0.0309 -0.767278,0.0429 -0.247786,0.01199 -0.462984,0.01921 -0.645608,0.02159 -0.273952,0.0036 -0.563026,-0.02549 -0.867222,-0.08724 -0.304207,-0.06174 -0.6082,-0.165101 -0.91198,-0.310103 -0.303791,-0.144984 -0.594424,-0.342725 -0.871902,-0.593225 -0.277486,-0.250479 -0.52233,-0.562735 -0.734532,-0.936768 -0.06755,-0.121784 -0.134113,-0.265498 -0.199687,-0.431144 -0.06558,-0.165623 -0.11231,-0.344647 -0.140174,-0.537076 -0.03041,-0.209895 -0.0447,-0.40906 -0.04288,-0.597495 0.0018,-0.18841 0.0108,-0.370354 0.02698,-0.545834 0.05287,-0.438814 0.181577,-0.885206 0.386128,-1.339177 0.204543,-0.453941 0.464633,-0.89767 0.780269,-1.331188 0.315628,-0.433486 0.666366,-0.854304 1.052215,-1.262453 0.385839,-0.408115 0.787619,-0.792357 1.205343,-1.15273 0.41771,-0.360336 0.832192,-0.685597 1.24345,-0.975783 0.411241,-0.290149 0.797378,-0.538365 1.158412,-0.74465 0.507341,-0.287023 1.036152,-0.497673 1.586436,-0.631951 0.550264,-0.134236 1.103498,-0.205002 1.659702,-0.212298 0.332043,-0.0043 0.654147,0.03746 0.966314,0.125375 0.312139,0.08795 0.595029,0.217878 0.84867,0.389795 0.253614,0.171958 0.465526,0.386063 0.635738,0.642318 0.170182,0.256294 0.279353,0.550609 0.327513,0.882944 0.02786,0.192434 0.03054,0.354509 0.0081,0.486227 -0.02252,0.131753 -0.06096,0.239599 -0.115316,0.323538 -0.05439,0.08397 -0.118476,0.143962 -0.192257,0.17996 -0.0738,0.03604 -0.152214,0.05458 -0.235214,0.05565 -0.224151,0.003 -0.433412,-0.0206 -0.62778,-0.07065 -0.194398,-0.05002 -0.383505,-0.106688 -0.567323,-0.170025 -0.183844,-0.0633 -0.367042,-0.122242 -0.549593,-0.17683 -0.182578,-0.05456 -0.377628,-0.08048 -0.585149,-0.07778 -0.614314,0.0081 -1.220306,0.14523 -1.817977,0.411529 -0.597691,0.266336 -1.168633,0.602406 -1.712829,1.008212 -0.544212,0.405838 -1.048558,0.857144 -1.513041,1.353916 -0.464497,0.496804 -0.874853,0.97974 -1.231069,1.448809 -0.188669,0.247839 -0.317146,0.494875 -0.385434,0.741111 -0.06829,0.246264 -0.08661,0.478715 -0.05493,0.697357 0.04687,0.32362 0.216436,0.575522 0.508692,0.755705 0.292245,0.180206 0.629302,0.267807 1.011173,0.2628 0.22413,-0.0029 0.476688,-0.01061 0.757676,-0.02306 0.280972,-0.01242 0.567861,-0.02713 0.860668,-0.04412 0.29279,-0.01696 0.577287,-0.03383 0.853493,-0.0506 0.276186,-0.01675 0.522202,-0.02654 0.738048,-0.02937 0.514676,-0.0067 1.019694,0.06335 1.515057,0.210207 0.495339,0.146879 0.947182,0.36661 1.355533,0.659191 0.408325,0.292603 0.754477,0.658301 1.03846,1.097095 0.283953,0.438813 0.467113,0.942465 0.54948,1.510957 0.05066,0.349855 0.05217,0.704726 0.0045,1.064614 -0.04768,0.359902 -0.132397,0.722474 -0.254133,1.087713 -0.121766,0.365251 -0.269054,0.72645 -0.441865,1.083596 -0.17284,0.357155 -0.359067,0.70791 -0.558685,1.052264 -0.359601,0.618098 -0.77614,1.201886 -1.249618,1.751366 -0.473504,0.549485 -0.992411,1.029459 -1.556724,1.439925 -0.564334,0.410467 -1.175975,0.738307 -1.834924,0.98352 -0.658968,0.245212 -1.353707,0.372595 -2.084222,0.382151 -0.31546,0.0041 -0.643647,-0.02225 -0.984566,-0.07913 -0.34093,-0.05688 -0.681821,-0.14224 -1.022674,-0.256079 -0.340862,-0.113839 -0.667476,-0.258533 -0.979844,-0.434084 -0.312373,-0.17555 -0.592947,-0.375614 -0.841721,-0.600191 -0.24878,-0.224577 -0.457459,-0.473775 -0.626037,-0.747598 -0.168582,-0.27382 -0.276312,-0.572534 -0.323187,-0.896145 -0.02281,-0.157428 -0.02184,-0.308598 0.0029,-0.453509 0.02475,-0.144906 0.128443,-0.218555 0.311075,-0.220947 z" />
  <path
     inkscape:connector-curvature="0"
     id="path3174"
     style="font-size:24px;font-style:normal;font-variant:normal;font-weight:normal;font-stretch:normal;line-height:125%;letter-spacing:0px;word-spacing:0px;fill:#e64b00;fill-opacity:1;stroke:none;font-family:MV Boli;-inkscape-font-specification:MV Boli"
     d="m 32.097916,31.068231 c -0.04435,-0.306114 -0.04972,-0.630266 -0.01611,-0.972454 0.109938,-1.193167 0.271097,-2.362908 0.483475,-3.509227 0.212371,-1.146309 0.390417,-2.285602 0.534134,-3.417883 0.14371,-1.132263 0.261196,-2.086746 0.352459,-2.863453 0.09125,-0.776683 0.17552,-1.443753 0.252799,-2.001211 0.07727,-0.55743 0.153178,-1.038182 0.227726,-1.442258 0.07454,-0.404045 0.162165,-0.803896 0.262883,-1.199553 0.0654,-0.237432 0.139923,-0.483763 0.223556,-0.738994 0.08362,-0.255196 0.180479,-0.490865 0.290567,-0.70701 0.110078,-0.216108 0.232088,-0.392959 0.366032,-0.530552 0.133932,-0.137555 0.283915,-0.207428 0.449949,-0.209618 0.340351,-0.0044 0.60832,0.05121 0.803911,0.166931 0.195577,0.115757 0.321091,0.221459 0.376542,0.317105 l 0.189985,0.536424 c 0.123246,-0.01036 0.28164,-0.03652 0.475181,-0.0785 0.193524,-0.04195 0.388815,-0.08612 0.585872,-0.132532 0.19704,-0.04638 0.379562,-0.09258 0.547565,-0.138604 0.167986,-0.046 0.295106,-0.08708 0.381363,-0.123285 0.525077,-0.164578 1.011823,-0.306767 1.460242,-0.426566 0.448395,-0.119762 0.876825,-0.219565 1.285287,-0.299409 0.408439,-0.07981 0.801063,-0.13971 1.177872,-0.179707 0.376783,-0.03996 0.760262,-0.0625 1.150444,-0.06762 0.381848,-0.005 0.696319,0.01282 0.943408,0.05338 0.247059,0.0406 0.446542,0.09714 0.598451,0.169619 0.151877,0.07251 0.262088,0.1587 0.330634,0.258558 0.06851,0.09989 0.111008,0.206681 0.127497,0.320362 0.01519,0.104977 0.0044,0.216838 -0.03248,0.3356 -0.03687,0.118796 -0.109957,0.231477 -0.219258,0.338042 -0.109333,0.106605 -0.257908,0.200553 -0.445722,0.281856 -0.187846,0.08134 -0.429287,0.137072 -0.72432,0.167203 -0.07219,0.01849 -0.239697,0.05354 -0.50251,0.105153 -0.262842,0.05165 -0.547863,0.107955 -0.855066,0.168913 -0.307231,0.061 -0.598164,0.119561 -0.872795,0.175717 -0.274658,0.05619 -0.464039,0.0981 -0.568145,0.125728 l 0.01245,-1.63e-4 c -0.04856,0.0094 -0.162098,0.04376 -0.340631,0.103036 -0.178557,0.05931 -0.395268,0.127865 -0.650132,0.205665 -0.254887,0.07783 -0.531007,0.166881 -0.828362,0.267144 -0.297376,0.100294 -0.590907,0.198334 -0.880595,0.294116 -0.289707,0.09582 -0.557209,0.18694 -0.802507,0.273379 -0.245317,0.08647 -0.443032,0.156967 -0.593148,0.211492 -0.475986,0.216546 -0.832151,0.499421 -1.068497,0.848627 -0.23636,0.349233 -0.406511,0.739208 -0.51045,1.169929 -0.02181,0.07916 -0.05229,0.213193 -0.09146,0.402092 -0.03918,0.188924 -0.08077,0.404154 -0.124791,0.645693 -0.04403,0.241563 -0.09206,0.498501 -0.144092,0.770814 -0.05205,0.272338 -0.101835,0.531489 -0.149368,0.777457 -0.04754,0.245989 -0.08787,0.469965 -0.120989,0.671932 -0.03313,0.201986 -0.05518,0.35124 -0.06613,0.447764 -0.01224,0.08779 -0.01744,0.16673 -0.0156,0.236798 0.0019,0.07009 0.0053,0.122619 0.01035,0.157594 0.0076,0.05248 0.02385,0.07856 0.04876,0.07822 0.124514,-0.0016 0.37538,-0.06405 0.7526,-0.187289 0.377205,-0.12322 0.81671,-0.275745 1.318517,-0.457572 0.50179,-0.181808 1.039045,-0.377234 1.611765,-0.586278 0.572701,-0.209023 1.122407,-0.404612 1.649121,-0.586766 0.526692,-0.182133 0.997328,-0.335065 1.411909,-0.458794 0.414555,-0.123709 0.717305,-0.186818 0.90825,-0.189326 0.290535,-0.0038 0.492903,0.04395 0.607104,0.143217 0.114177,0.09928 0.180135,0.210151 0.197886,0.332586 0.0456,0.314872 -0.02034,0.591761 -0.197801,0.830666 -0.177492,0.238926 -0.411287,0.447907 -0.701387,0.626947 -0.09202,0.05379 -0.265648,0.132734 -0.520861,0.236835 -0.255238,0.104117 -0.530899,0.210686 -0.826985,0.319702 -0.296111,0.109037 -0.578316,0.213498 -0.846615,0.313389 -0.268322,0.0999 -0.46157,0.172537 -0.579745,0.217888 -0.765402,0.343003 -1.387845,0.624979 -1.867331,0.845931 -0.479504,0.220965 -0.867158,0.40129 -1.162966,0.540975 -0.295823,0.139698 -0.523751,0.245641 -0.683787,0.31783 -0.160049,0.07221 -0.309223,0.133301 -0.447523,0.183298 -0.138312,0.05002 -0.291463,0.09802 -0.459451,0.144023 -0.168,0.04602 -0.399871,0.110394 -0.695615,0.193116 -0.04811,0.184652 -0.09505,0.463483 -0.140816,0.836492 -0.04578,0.373021 -0.0855,0.759101 -0.11916,1.15824 -0.03367,0.399149 -0.05693,0.769679 -0.06978,1.111591 -0.01286,0.341917 -0.0098,0.57847 0.0092,0.70966 0.0228,0.157433 0.06034,0.273049 0.112618,0.346846 0.05227,0.0738 0.109362,0.123441 0.17128,0.148917 0.0619,0.02548 0.121915,0.03784 0.180031,0.03708 0.0581,-7.59e-4 0.103761,-0.0014 0.136974,-0.0018 0.39846,-0.0052 0.868996,-0.07271 1.411609,-0.202481 0.5426,-0.129774 1.073278,-0.298825 1.592038,-0.507155 0.495106,-0.199253 0.921275,-0.415133 1.278509,-0.647639 0.357214,-0.2325 0.693827,-0.449399 1.009839,-0.650698 0.31599,-0.201291 0.628124,-0.371865 0.936403,-0.511723 0.308255,-0.13985 0.656837,-0.216702 1.045748,-0.230557 0.083,-0.0011 0.181807,0.0064 0.296425,0.02241 0.11459,0.01603 0.225184,0.04745 0.331782,0.09424 0.106575,0.0468 0.196695,0.109153 0.270372,0.187052 0.07365,0.07791 0.111043,0.178188 0.112193,0.300848 0.0035,0.254076 -0.08074,0.504916 -0.252785,0.75252 -0.172074,0.24761 -0.39936,0.487176 -0.681859,0.7187 -0.282524,0.231529 -0.603659,0.454797 -0.963405,0.669806 -0.35977,0.215014 -0.729414,0.4192 -1.108931,0.612562 -0.379539,0.193363 -0.7533,0.369126 -1.121283,0.527286 -0.368004,0.158161 -0.697341,0.2961 -0.988012,0.413818 -0.723194,0.289867 -1.436395,0.505118 -2.139605,0.645758 -0.703222,0.140638 -1.341228,0.214703 -1.914019,0.222195 -0.630909,0.0083 -1.132519,-0.110056 -1.504831,-0.354924 -0.372317,-0.244869 -0.600284,-0.655926 -0.6839,-1.233173 z" />
  <path
     inkscape:connector-curvature="0"
     id="path3176"
     style="font-size:24px;font-style:normal;font-variant:normal;font-weight:normal;font-stretch:normal;line-height:125%;letter-spacing:0px;word-spacing:0px;fill:#e64b00;fill-opacity:1;stroke:none;font-family:MV Boli;-inkscape-font-specification:MV Boli"
     d="m 48.030887,25.05014 c 0.198719,-1.211848 0.387807,-2.375384 0.567264,-3.490607 0.17945,-1.115204 0.331507,-2.146814 0.456174,-3.094833 0.124658,-0.947991 0.211199,-1.785964 0.259621,-2.51392 0.04841,-0.727924 0.04988,-1.306283 0.0044,-1.73508 0.04006,-0.412354 0.168958,-0.742643 0.38668,-0.990865 0.217713,-0.248185 0.4926,-0.374459 0.82466,-0.378821 0.199228,-0.0026 0.376373,0.04328 0.531441,0.137634 0.155053,0.09438 0.287569,0.219707 0.397545,0.37598 0.109961,0.156309 0.199955,0.332577 0.269975,0.528804 0.07,0.196264 0.119588,0.394967 0.148726,0.596112 0.02153,0.148702 0.03289,0.284376 0.03401,0.407023 0.0011,0.122681 -0.0025,0.241025 -0.01094,0.355034 -0.07438,0.80716 -0.182306,1.641032 -0.323782,2.501615 -0.141489,0.860612 -0.287614,1.732224 -0.438376,2.614839 -0.150772,0.882638 -0.299148,1.767424 -0.445125,2.654359 -0.145989,0.886955 -0.265452,1.756028 -0.358388,2.607222 l -0.09491,0.89504 c -0.05034,0.456326 -0.08725,0.890564 -0.110707,1.302715 -0.02347,0.412159 -0.01684,0.745057 0.01991,0.998692 0.02027,0.139942 0.06132,0.251129 0.123171,0.333563 0.06184,0.08244 0.163323,0.122736 0.304452,0.120887 0.340351,-0.0044 0.730265,-0.06869 1.169744,-0.192745 0.439466,-0.124042 0.89174,-0.274542 1.356825,-0.451501 0.465067,-0.176953 0.925533,-0.371375 1.381401,-0.583266 0.455848,-0.211882 0.873857,-0.41232 1.25403,-0.601314 0.201889,-0.09902 0.374558,-0.184531 0.51801,-0.256513 0.143428,-0.07198 0.322008,-0.159746 0.535737,-0.263318 0.213707,-0.103562 0.499462,-0.240931 0.857265,-0.412108 0.357779,-0.171166 0.851344,-0.409834 1.480693,-0.716005 0.10987,-0.04525 0.206177,-0.08375 0.288922,-0.115504 0.08272,-0.03175 0.161437,-0.04811 0.236164,-0.0491 0.132808,-0.0017 0.250752,0.02301 0.353834,0.07423 0.103054,0.05123 0.187901,0.120226 0.254545,0.206976 0.06662,0.08676 0.12062,0.186827 0.162005,0.300195 0.04136,0.11338 0.07028,0.226918 0.08677,0.340613 0.02786,0.19242 0.03772,0.360973 0.02958,0.505661 -0.0082,0.144696 -0.02187,0.265363 -0.04113,0.362 -0.07556,0.167484 -0.182377,0.320039 -0.32045,0.457663 -0.138104,0.137633 -0.287028,0.257878 -0.446772,0.360735 -0.159773,0.102868 -0.317599,0.190366 -0.473477,0.262503 -0.155907,0.07214 -0.285278,0.126413 -0.388114,0.162806 -0.125234,0.05422 -0.291503,0.126493 -0.498807,0.216829 -0.20733,0.09034 -0.432059,0.189672 -0.674185,0.297988 -0.242153,0.10832 -0.492276,0.218939 -0.750373,0.331846 -0.258121,0.112915 -0.500577,0.219046 -0.727369,0.318399 -0.226816,0.09936 -0.428223,0.18743 -0.604225,0.264214 -0.176022,0.07679 -0.299484,0.128787 -0.370386,0.156002 -0.336698,0.144609 -0.710284,0.307224 -1.120758,0.487847 -0.410493,0.180624 -0.820169,0.352475 -1.229028,0.51555 -0.408874,0.163078 -0.798396,0.301804 -1.168567,0.41618 -0.370183,0.11438 -0.683944,0.173247 -0.941282,0.176612 -0.315458,0.0041 -0.566226,-0.01889 -0.7523,-0.06902 -0.186087,-0.05014 -0.356341,-0.120208 -0.510763,-0.210197 -0.154431,-0.08999 -0.313784,-0.19963 -0.478059,-0.328923 -0.164283,-0.12929 -0.378194,-0.271078 -0.641736,-0.425361 -0.236111,-0.137114 -0.417559,-0.327521 -0.544347,-0.571221 -0.126793,-0.243697 -0.210459,-0.505483 -0.250999,-0.785363 -0.02027,-0.139937 -0.0333,-0.301877 -0.03918,-0.48582 -0.0059,-0.183938 -0.0067,-0.376707 -0.0027,-0.578306 0.0041,-0.201592 0.01291,-0.398869 0.02655,-0.591832 0.01363,-0.192954 0.03458,-0.364102 0.06286,-0.513442 z" />
  <path
     inkscape:connector-curvature="0"
     id="path3178"
     style="font-size:24px;font-style:normal;font-variant:normal;font-weight:normal;font-stretch:normal;line-height:125%;letter-spacing:0px;word-spacing:0px;fill:#e64b00;fill-opacity:1;stroke:none;font-family:MV Boli;-inkscape-font-specification:MV Boli"
     d="m 62.879481,30.665624 c -0.04435,-0.306114 -0.04972,-0.630266 -0.01611,-0.972454 0.109938,-1.193167 0.271097,-2.362908 0.483475,-3.509227 0.212371,-1.146309 0.390417,-2.285602 0.534134,-3.417882 0.14371,-1.132264 0.261196,-2.086747 0.352459,-2.863454 0.09125,-0.776683 0.17552,-1.443753 0.252799,-2.00121 0.07727,-0.557431 0.153178,-1.038183 0.227726,-1.442259 0.07454,-0.404045 0.162165,-0.803896 0.262883,-1.199553 0.0654,-0.237432 0.139923,-0.483763 0.223556,-0.738994 0.08362,-0.255195 0.180479,-0.490865 0.290567,-0.70701 0.110078,-0.216108 0.232089,-0.392959 0.366032,-0.530551 0.133932,-0.137556 0.283915,-0.207429 0.449949,-0.209619 0.340351,-0.0044 0.60832,0.05121 0.803912,0.166931 0.195576,0.115757 0.32109,0.221459 0.376541,0.317105 l 0.189986,0.536424 c 0.123245,-0.01036 0.281639,-0.03652 0.47518,-0.0785 0.193524,-0.04195 0.388815,-0.08612 0.585872,-0.132532 0.19704,-0.04638 0.379562,-0.09258 0.547565,-0.138603 0.167986,-0.046 0.295107,-0.08709 0.381363,-0.123286 0.525077,-0.164578 1.011823,-0.306767 1.460242,-0.426566 0.448396,-0.119762 0.876825,-0.219564 1.285287,-0.299409 0.408439,-0.07981 0.801063,-0.13971 1.177872,-0.179707 0.376783,-0.03996 0.760263,-0.0625 1.150444,-0.06762 0.381849,-0.005 0.696319,0.01282 0.943408,0.05338 0.247059,0.0406 0.446542,0.09714 0.598452,0.169619 0.151876,0.07251 0.262087,0.1587 0.330633,0.258558 0.06851,0.09989 0.111008,0.206681 0.127497,0.320362 0.01519,0.104977 0.0044,0.216839 -0.03248,0.3356 -0.03687,0.118796 -0.109958,0.231478 -0.219259,0.338042 -0.109333,0.106605 -0.257908,0.200553 -0.445722,0.281856 -0.187846,0.08134 -0.429287,0.137073 -0.72432,0.167204 -0.0722,0.01849 -0.239697,0.05354 -0.50251,0.105152 -0.262842,0.05165 -0.547863,0.107956 -0.855066,0.168913 -0.30723,0.061 -0.598163,0.119561 -0.872795,0.175717 -0.274658,0.05619 -0.464039,0.0981 -0.568145,0.125728 l 0.01245,-1.63e-4 c -0.04856,0.0094 -0.162098,0.04376 -0.340631,0.103036 -0.178557,0.05931 -0.395268,0.127865 -0.650132,0.205666 -0.254887,0.07783 -0.531007,0.16688 -0.828362,0.267143 -0.297376,0.100294 -0.590907,0.198335 -0.880595,0.294116 -0.289707,0.09582 -0.557209,0.18694 -0.802507,0.273379 -0.245316,0.08647 -0.443031,0.156967 -0.593148,0.211492 -0.475986,0.216546 -0.832151,0.499422 -1.068497,0.848627 -0.23636,0.349233 -0.40651,0.739208 -0.51045,1.169929 -0.02181,0.07916 -0.05229,0.213193 -0.09146,0.402092 -0.03918,0.188924 -0.08078,0.404155 -0.124792,0.645694 -0.04403,0.241562 -0.09206,0.4985 -0.144092,0.770814 -0.05204,0.272337 -0.101835,0.531488 -0.149368,0.777456 -0.04754,0.245989 -0.08787,0.469966 -0.120989,0.671932 -0.03313,0.201986 -0.05518,0.35124 -0.06613,0.447764 -0.01224,0.08779 -0.01744,0.16673 -0.0156,0.236799 0.0018,0.07009 0.0053,0.122618 0.01035,0.157594 0.0076,0.05248 0.02385,0.07856 0.04876,0.07822 0.124514,-0.0016 0.37538,-0.06405 0.7526,-0.187289 0.377205,-0.123221 0.81671,-0.275746 1.318517,-0.457573 0.50179,-0.181808 1.039045,-0.377234 1.611765,-0.586278 0.572701,-0.209023 1.122407,-0.404612 1.649122,-0.586766 0.526692,-0.182133 0.997327,-0.335064 1.411908,-0.458794 0.414555,-0.123708 0.717305,-0.186817 0.90825,-0.189326 0.290535,-0.0038 0.492903,0.04395 0.607104,0.143217 0.114177,0.09929 0.180135,0.210151 0.197886,0.332586 0.0456,0.314873 -0.02033,0.591762 -0.197801,0.830666 -0.177492,0.238926 -0.411287,0.447908 -0.701387,0.626948 -0.09202,0.05378 -0.265648,0.132733 -0.520861,0.236834 -0.255238,0.104117 -0.530899,0.210686 -0.826985,0.319702 -0.29611,0.109037 -0.578316,0.213498 -0.846615,0.313389 -0.268322,0.0999 -0.461569,0.172537 -0.579745,0.217888 -0.765402,0.343003 -1.387845,0.624979 -1.867331,0.845931 -0.479504,0.220965 -0.867158,0.40129 -1.162966,0.540975 -0.295823,0.139698 -0.523751,0.245641 -0.683787,0.31783 -0.160048,0.07221 -0.309223,0.133301 -0.447523,0.183298 -0.138312,0.05002 -0.291463,0.09802 -0.459451,0.144023 -0.168,0.04602 -0.399871,0.110394 -0.695614,0.193116 -0.04811,0.184652 -0.09505,0.463483 -0.140817,0.836492 -0.04578,0.373021 -0.0855,0.759101 -0.119159,1.15824 -0.03367,0.399149 -0.05693,0.769679 -0.06978,1.111591 -0.01286,0.341917 -0.0098,0.578471 0.0092,0.70966 0.0228,0.157434 0.06034,0.273049 0.112618,0.346846 0.05227,0.0738 0.109362,0.123441 0.17128,0.148918 0.0619,0.02548 0.121916,0.03784 0.180031,0.03708 0.0581,-7.58e-4 0.103761,-0.0014 0.136974,-0.0018 0.398461,-0.0052 0.868996,-0.07271 1.411609,-0.202481 0.5426,-0.129773 1.073278,-0.298825 1.592038,-0.507154 0.495106,-0.199254 0.921275,-0.415134 1.27851,-0.64764 0.357213,-0.2325 0.693826,-0.449399 1.009838,-0.650698 0.31599,-0.201291 0.628124,-0.371865 0.936403,-0.511723 0.308255,-0.13985 0.656837,-0.216702 1.045748,-0.230556 0.083,-0.0011 0.181807,0.0064 0.296425,0.02241 0.11459,0.01603 0.225184,0.04745 0.331783,0.09424 0.106574,0.0468 0.196694,0.109153 0.270371,0.187052 0.07365,0.07791 0.111054,0.178188 0.112193,0.300848 0.0035,0.254076 -0.08074,0.504916 -0.252785,0.75252 -0.172074,0.24761 -0.39936,0.487177 -0.681859,0.718701 -0.282524,0.231528 -0.603659,0.454796 -0.963405,0.669805 -0.35977,0.215014 -0.729414,0.4192 -1.10893,0.612562 -0.37954,0.193364 -0.753301,0.369126 -1.121284,0.527286 -0.368004,0.158161 -0.697341,0.2961 -0.988012,0.413818 -0.723194,0.289867 -1.436395,0.505119 -2.139605,0.645758 -0.703222,0.140638 -1.341228,0.214704 -1.914019,0.222195 -0.630909,0.0083 -1.132519,-0.110056 -1.50483,-0.354924 -0.372318,-0.244869 -0.600285,-0.655926 -0.683901,-1.233173 z" />
  <path
     inkscape:connector-curvature="0"
     id="path3180"
     style="font-size:24px;font-style:normal;font-variant:normal;font-weight:normal;font-stretch:normal;line-height:125%;letter-spacing:0px;word-spacing:0px;fill:#e64b00;fill-opacity:1;stroke:none;font-family:MV Boli;-inkscape-font-specification:MV Boli"
     d="m 77.875255,25.842761 c -0.07349,-0.507272 -0.09867,-1.083091 -0.07558,-1.727462 0.02309,-0.644354 0.136209,-1.270178 0.339339,-1.877473 0.276836,-0.844834 0.603451,-1.661848 0.979843,-2.451048 0.376386,-0.789175 0.774096,-1.517302 1.193131,-2.184382 0.419026,-0.667054 0.848826,-1.259778 1.2894,-1.778176 0.440563,-0.518367 0.872382,-0.924909 1.295457,-1.21963 l -0.01055,0.01328 c 0.262668,-0.196199 0.54068,-0.401377 0.834036,-0.615537 0.293338,-0.214126 0.597521,-0.410884 0.912548,-0.590276 0.315008,-0.179357 0.63861,-0.328175 0.970808,-0.446454 0.332178,-0.118242 0.66845,-0.179597 1.008818,-0.184068 0.348647,-0.0045 0.691475,0.06545 1.02848,0.209998 0.336978,0.144577 0.64245,0.344315 0.916427,0.599215 0.27395,0.254934 0.504134,0.552047 0.69053,0.891339 0.18637,0.339325 0.307431,0.701396 0.363196,1.08621 0.03926,0.271148 0.05545,0.483432 0.04861,0.636854 -0.0069,0.153454 -0.03574,0.269936 -0.08662,0.349452 -0.05086,0.07955 -0.122759,0.12868 -0.215679,0.147406 -0.09299,0.01876 -0.201678,0.02894 -0.326182,0.03056 -0.182645,0.0024 -0.331856,-0.03727 -0.447655,-0.119014 -0.115847,-0.08171 -0.213394,-0.181211 -0.292746,-0.298485 -0.07937,-0.117243 -0.146115,-0.247812 -0.200217,-0.391704 -0.05416,-0.143862 -0.112587,-0.274538 -0.175299,-0.392031 -0.06279,-0.11746 -0.135486,-0.21728 -0.218047,-0.299462 -0.08259,-0.08216 -0.186163,-0.122418 -0.310677,-0.120805 -0.332067,0.0044 -0.679699,0.08777 -1.042898,0.250234 -0.36322,0.162495 -0.727128,0.377561 -1.091727,0.645196 -0.364618,0.267667 -0.723842,0.572488 -1.077673,0.914467 -0.353847,0.342007 -0.688058,0.690316 -1.002634,1.044926 -0.31459,0.354638 -0.602827,0.704535 -0.864711,1.049695 -0.261896,0.345184 -0.485273,0.654801 -0.670128,0.928852 -0.267447,0.450408 -0.504883,0.906986 -0.712308,1.369732 -0.207436,0.462767 -0.376244,0.933781 -0.506423,1.413043 -0.130188,0.479281 -0.212814,0.971074 -0.247878,1.475382 -0.03507,0.504324 -0.01333,1.027612 0.06522,1.569868 0.06081,0.419821 0.170057,0.786427 0.32774,1.099819 0.157674,0.313399 0.319395,0.58293 0.485164,0.808588 0.195729,0.260326 0.417101,0.439257 0.664116,0.536794 0.247003,0.09755 0.532384,0.144198 0.856144,0.13996 0.705611,-0.0092 1.347134,-0.08772 1.924572,-0.235478 0.57742,-0.147753 1.122976,-0.343288 1.63667,-0.586603 0.513673,-0.243309 1.008569,-0.530189 1.484691,-0.860642 0.476097,-0.330443 0.965643,-0.682975 1.468633,-1.057594 l 0.323757,-0.0042 c 0.107906,-0.0014 0.222338,0.02777 0.343287,0.08752 0.120918,0.05976 0.231937,0.137175 0.333057,0.232238 0.101069,0.09507 0.187483,0.203476 0.259198,0.325212 0.07172,0.121745 0.117078,0.248211 0.136081,0.3794 0.0418,0.288627 -0.02463,0.576476 -0.199278,0.863545 -0.174676,0.287077 -0.411415,0.561818 -0.71023,0.824224 -0.29885,0.262412 -0.64348,0.510086 -1.033897,0.743021 -0.390443,0.23294 -0.778447,0.439558 -1.164016,0.619853 -0.38559,0.1803 -0.747991,0.334006 -1.087203,0.46112 -0.339232,0.127117 -0.613594,0.213952 -0.823086,0.260504 -0.176306,0.04612 -0.346692,0.08997 -0.51116,0.131554 -0.164485,0.04159 -0.360093,0.08357 -0.586822,0.125973 -0.226745,0.0424 -0.500408,0.07665 -0.820987,0.102745 -0.320595,0.0261 -0.725778,0.04236 -1.215553,0.04876 -0.298857,0.0039 -0.580087,-0.0428 -0.843693,-0.140122 -0.263616,-0.09732 -0.502784,-0.212491 -0.717498,-0.345507 -0.214726,-0.133012 -0.401342,-0.272965 -0.559848,-0.41986 -0.158516,-0.146892 -0.28688,-0.272273 -0.385093,-0.376143 -0.577206,-0.597077 -1.020319,-1.187147 -1.32934,-1.770212 -0.309026,-0.583057 -0.514216,-1.224434 -0.61557,-1.924132 z" />
  <path
     inkscape:connector-curvature="0"
     id="path3182"
     style="font-size:24px;font-style:normal;font-variant:normal;font-weight:normal;font-stretch:normal;line-height:125%;letter-spacing:0px;word-spacing:0px;fill:#e64b00;fill-opacity:1;stroke:none;font-family:MV Boli;-inkscape-font-specification:MV Boli"
     d="m 93.066809,25.644064 c -0.07349,-0.507272 -0.09866,-1.083092 -0.07558,-1.727462 0.02309,-0.644355 0.136211,-1.270179 0.339341,-1.877474 0.27683,-0.844834 0.603446,-1.661848 0.979836,-2.451048 0.376394,-0.789175 0.774098,-1.517302 1.193133,-2.184382 0.419027,-0.667053 0.848833,-1.259778 1.289405,-1.778176 0.440556,-0.518366 0.872378,-0.924908 1.295454,-1.21963 l -0.01053,0.01328 c 0.26267,-0.196199 0.540679,-0.401377 0.834037,-0.615537 0.293342,-0.214125 0.597525,-0.410884 0.912548,-0.590276 0.315009,-0.179357 0.638609,-0.328175 0.970799,-0.446454 0.33219,-0.118241 0.66846,-0.179597 1.00883,-0.184068 0.34864,-0.0045 0.69146,0.06546 1.02847,0.209998 0.33698,0.144578 0.64246,0.344315 0.91644,0.599215 0.27395,0.254934 0.50412,0.552048 0.69052,0.891339 0.18637,0.339325 0.30744,0.701396 0.36319,1.08621 0.0393,0.271148 0.0554,0.483432 0.0486,0.636854 -0.007,0.153454 -0.0357,0.269936 -0.0866,0.349452 -0.0509,0.07955 -0.12277,0.12868 -0.21569,0.147406 -0.093,0.01876 -0.20166,0.02894 -0.32617,0.03056 -0.18264,0.0024 -0.33186,-0.03727 -0.44765,-0.119013 -0.11585,-0.08171 -0.21341,-0.181211 -0.29276,-0.298485 -0.0794,-0.117244 -0.14611,-0.247812 -0.2002,-0.391704 -0.0542,-0.143862 -0.11259,-0.274539 -0.17531,-0.392031 -0.0628,-0.117461 -0.13549,-0.21728 -0.21804,-0.299463 -0.0826,-0.08216 -0.18617,-0.122418 -0.31068,-0.120805 -0.33207,0.0044 -0.6797,0.08777 -1.04289,0.250234 -0.36323,0.162496 -0.72714,0.377561 -1.09174,0.645196 -0.36461,0.267667 -0.723841,0.572488 -1.077665,0.914468 -0.353853,0.342007 -0.688066,0.690316 -1.00264,1.044925 -0.314592,0.354638 -0.60283,0.704535 -0.864713,1.049695 -0.26189,0.345184 -0.485274,0.654801 -0.67013,0.928852 -0.267439,0.450409 -0.504879,0.906986 -0.712309,1.369733 -0.207426,0.462766 -0.376238,0.93378 -0.506413,1.413042 -0.130193,0.479281 -0.212818,0.971074 -0.247885,1.475383 -0.03508,0.504323 -0.01333,1.027611 0.06523,1.569868 0.0608,0.41982 0.170025,0.786427 0.327737,1.099818 0.157681,0.3134 0.319398,0.58293 0.48516,0.808589 0.195738,0.260325 0.417106,0.439256 0.664126,0.536794 0.246999,0.09755 0.532382,0.144197 0.856138,0.139959 0.705616,-0.0092 1.347138,-0.08772 1.924578,-0.235478 0.577417,-0.147753 1.122977,-0.343287 1.636657,-0.586603 0.51368,-0.243309 1.00857,-0.530189 1.4847,-0.860642 0.4761,-0.330443 0.96564,-0.682975 1.46864,-1.057594 l 0.32375,-0.0042 c 0.10791,-0.0014 0.22233,0.02777 0.34328,0.08752 0.12093,0.05976 0.23195,0.137174 0.33306,0.232237 0.10107,0.09507 0.18749,0.203477 0.2592,0.325213 0.0717,0.121745 0.11707,0.248211 0.13608,0.379399 0.0418,0.288628 -0.0246,0.576476 -0.19927,0.863545 -0.17468,0.287077 -0.41143,0.561818 -0.71024,0.824224 -0.29885,0.262412 -0.64348,0.510086 -1.0339,0.743021 -0.39043,0.23294 -0.77844,0.439558 -1.16401,0.619853 -0.38559,0.180301 -0.74799,0.334007 -1.0872,0.461121 -0.33923,0.127116 -0.61359,0.213951 -0.82309,0.260503 -0.1763,0.04612 -0.34669,0.08997 -0.51115,0.131554 -0.164493,0.04159 -0.360098,0.08357 -0.586825,0.125973 -0.226747,0.0424 -0.500412,0.07665 -0.820991,0.102746 -0.32059,0.0261 -0.725782,0.04236 -1.215556,0.04876 -0.29885,0.0039 -0.580089,-0.0428 -0.843695,-0.140121 C 96.410596,30.382602 96.171434,30.26743 95.956717,30.134414 95.74199,30.001402 95.555375,29.861449 95.39687,29.714554 95.238355,29.567662 95.109996,29.442282 95.011773,29.338411 94.434569,28.741335 93.991464,28.151264 93.682437,27.5682 93.373411,26.985142 93.16822,26.343765 93.066873,25.644067 z" />
  <path
     inkscape:connector-curvature="0"
     id="path3184"
     style="font-size:24px;font-style:normal;font-variant:normal;font-weight:normal;font-stretch:normal;line-height:125%;letter-spacing:0px;word-spacing:0px;fill:#e64b00;fill-opacity:1;stroke:none;font-family:MV Boli;-inkscape-font-specification:MV Boli"
     d="m 109.30947,23.48629 c 0.0253,-0.34207 0.0597,-0.721508 0.10332,-1.138316 0.0436,-0.416793 0.0933,-0.849006 0.14902,-1.296644 0.0558,-0.447618 0.11295,-0.899647 0.17159,-1.356087 0.0586,-0.456418 0.11774,-0.895327 0.17729,-1.31673 0.0596,-0.421377 0.11285,-0.814206 0.15989,-1.178489 0.047,-0.364254 0.0895,-0.673697 0.12751,-0.928327 0.0754,-0.570549 0.14213,-1.14319 0.20028,-1.717926 0.0581,-0.574703 0.108,-1.177792 0.14961,-1.809271 0.11661,-0.343254 0.30559,-0.588892 0.56693,-0.736914 0.26134,-0.147984 0.55804,-0.224157 0.8901,-0.228519 0.28718,0.145229 0.52624,0.345836 0.7172,0.60182 0.19095,0.256022 0.30986,0.545827 0.35674,0.869417 0.0329,0.227418 0.0354,0.488078 0.007,0.781979 -0.0281,0.293937 -0.0718,0.609966 -0.13089,0.948088 -0.0592,0.338155 -0.1282,0.693948 -0.20718,1.067383 -0.079,0.373464 -0.15222,0.757792 -0.21973,1.152984 -0.12854,0.720238 -0.25709,1.440464 -0.38564,2.160677 -0.12855,0.720236 -0.24725,1.479765 -0.35609,2.278588 -0.0277,0.210678 -0.0596,0.421399 -0.0956,0.632167 -0.036,0.210785 -0.0715,0.439081 -0.10664,0.684888 -0.0351,0.245823 -0.0723,0.520146 -0.11159,0.822966 -0.0393,0.302836 -0.072,0.651581 -0.0979,1.046238 -0.0325,0.464856 -0.0522,0.931729 -0.0591,1.400621 -0.007,0.468901 -0.009,0.93993 -0.007,1.413087 0.002,0.473165 -0.004,0.950809 -0.017,1.432931 -0.0133,0.482126 -0.0426,0.968841 -0.0879,1.460145 -0.0162,0.175468 -0.0663,0.331661 -0.15044,0.468584 -0.0842,0.136924 -0.18565,0.254356 -0.30452,0.352302 -0.1189,0.09795 -0.24925,0.174133 -0.39107,0.228565 -0.14183,0.05443 -0.27915,0.08251 -0.41197,0.08425 -0.13282,0.0017 -0.26101,-0.0076 -0.38454,-0.02783 -0.12353,-0.02029 -0.22421,-0.06936 -0.30202,-0.147206 -0.11604,-0.112399 -0.21333,-0.238186 -0.29171,-0.377364 -0.0784,-0.139179 -0.12894,-0.287484 -0.15175,-0.444916 -0.006,-0.04373 -0.0102,-0.0853 -0.0117,-0.124716 -0.001,-0.03942 -0.001,-0.08105 6.4e-4,-0.124877 z" />
  <path
     inkscape:connector-curvature="0"
     id="path3186"
     style="font-size:24px;font-style:normal;font-variant:normal;font-weight:normal;font-stretch:normal;line-height:125%;letter-spacing:0px;word-spacing:0px;fill:#e64b00;fill-opacity:1;stroke:none;font-family:MV Boli;-inkscape-font-specification:MV Boli"
     d="m 115.48471,24.259889 c 0.0544,-0.65791 0.173,-1.332001 0.35578,-2.022274 0.1828,-0.690257 0.41508,-1.38336 0.69685,-2.079312 0.28178,-0.695931 0.60872,-1.381509 0.98083,-2.056737 0.3721,-0.675203 0.77643,-1.328934 1.21299,-1.961193 0.43654,-0.63223 0.89476,-1.229708 1.37466,-1.792434 0.47989,-0.562694 0.9685,-1.079515 1.46585,-1.550462 0.23777,-0.195872 0.46429,-0.325895 0.67957,-0.390068 0.21526,-0.06414 0.44741,-0.09784 0.69646,-0.101117 0.26564,-0.0035 0.50824,0.035 0.72783,0.11535 0.21956,0.0804 0.44895,0.228549 0.68816,0.444471 0.0778,0.07787 0.15851,0.146912 0.24209,0.207139 0.0836,0.06026 0.15858,0.08996 0.22499,0.08906 0.0166,-1.98e-4 0.0346,-0.02015 0.0537,-0.05985 0.0192,-0.03966 0.0395,-0.08594 0.061,-0.138811 0.0214,-0.05284 0.0488,-0.107967 0.0821,-0.165374 0.0333,-0.05738 0.077,-0.09958 0.13137,-0.126587 0.13097,-0.07179 0.29242,-0.119914 0.48435,-0.144349 0.19191,-0.0244 0.38748,-0.03791 0.58672,-0.04054 0.37356,-0.0049 0.74512,0.06257 1.11469,0.202298 0.36955,0.139771 0.70617,0.339101 1.00983,0.597993 0.72084,0.612744 1.30795,1.349897 1.76129,2.211462 0.45332,0.861596 0.7522,1.790917 0.89665,2.787967 0.12921,0.892121 0.14406,1.855827 0.0445,2.891121 -0.0841,0.912433 -0.26535,1.79984 -0.54379,2.662223 -0.27846,0.862396 -0.63509,1.673232 -1.06986,2.432509 -0.43479,0.759285 -0.94134,1.453785 -1.51963,2.083501 -0.57833,0.62972 -1.21289,1.172546 -1.90368,1.628479 -0.69082,0.455936 -1.4291,0.813912 -2.21482,1.073926 -0.78573,0.260015 -1.60197,0.39556 -2.4487,0.406634 -0.78864,0.01032 -1.5147,-0.107249 -2.17819,-0.352689 -0.66351,-0.245441 -1.24674,-0.597084 -1.74971,-1.054931 -0.50297,-0.457845 -0.91485,-1.00451 -1.23562,-1.639997 -0.32078,-0.63548 -0.53755,-1.342426 -0.65031,-2.120839 -0.0481,-0.33235 -0.0779,-0.667134 -0.0894,-1.004355 -0.0114,-0.337211 -9.6e-4,-0.681285 0.0314,-1.032223 z m 2.23173,0.851465 c -0.0279,0.438508 -0.0166,0.832682 0.0341,1.182523 0.0709,0.48979 0.21432,0.919479 0.43002,1.289071 0.21572,0.369598 0.48898,0.677101 0.81979,0.92251 0.3308,0.245413 0.71085,0.42884 1.14014,0.550284 0.42928,0.121447 0.88882,0.178965 1.37862,0.172558 0.58108,-0.0076 1.15862,-0.111547 1.73261,-0.311833 0.57397,-0.200285 1.12075,-0.487844 1.64034,-0.862677 0.51957,-0.374828 1.00763,-0.823729 1.46419,-1.346706 0.45652,-0.522968 0.86349,-1.115394 1.22091,-1.777279 0.35738,-0.661874 0.65675,-1.379952 0.89808,-2.154236 0.2413,-0.774269 0.40716,-1.595754 0.49758,-2.464457 0.0374,-0.315936 0.0501,-0.644704 0.038,-0.986305 -0.0121,-0.341577 -0.0409,-0.669802 -0.0865,-0.984676 -0.0735,-0.507265 -0.19778,-0.991971 -0.37283,-1.454119 -0.17507,-0.462121 -0.4131,-0.870856 -0.71408,-1.226207 -0.301,-0.35532 -0.6704,-0.637468 -1.10819,-0.846444 -0.43782,-0.208945 -0.95143,-0.309571 -1.54081,-0.301878 -0.083,0.0011 -0.14198,0.03912 -0.17685,0.114039 -0.0349,0.07496 -0.069,0.169602 -0.10235,0.283937 -0.0276,0.09676 -0.0607,0.197971 -0.0995,0.303615 -0.0388,0.105672 -0.0957,0.200621 -0.17082,0.284834 -0.0752,0.08424 -0.17324,0.153438 -0.2943,0.207582 -0.12108,0.05418 -0.27708,0.08251 -0.468,0.08498 -0.14114,0.0019 -0.27041,-0.0293 -0.38782,-0.09351 -0.11743,-0.06417 -0.23833,-0.152406 -0.36271,-0.26471 -0.0574,-0.05181 -0.10489,-0.09281 -0.14258,-0.123004 -0.0377,-0.03016 -0.0772,-0.04498 -0.11872,-0.04446 -0.0747,9.93e-4 -0.16719,0.03725 -0.27742,0.108782 -0.11024,0.07156 -0.22273,0.156276 -0.33745,0.254151 -0.11475,0.09791 -0.22469,0.200116 -0.32986,0.306629 -0.10517,0.106539 -0.18526,0.1996 -0.24026,0.279169 -0.47582,0.61963 -0.94162,1.29388 -1.39744,2.022755 -0.45583,0.728899 -0.86458,1.481268 -1.22626,2.257108 -0.36169,0.775862 -0.66224,1.557485 -0.90166,2.344873 -0.23941,0.787404 -0.38541,1.545098 -0.43797,2.273087 z" />
  <path
     inkscape:connector-curvature="0"
     id="path3188"
     style="font-size:24px;font-style:normal;font-variant:normal;font-weight:normal;font-stretch:normal;line-height:125%;letter-spacing:0px;word-spacing:0px;fill:#e64b00;fill-opacity:1;stroke:none;font-family:MV Boli;-inkscape-font-specification:MV Boli"
     d="m 136.00592,14.777462 c 0.0169,-0.228036 0.044,-0.471555 0.0813,-0.730561 0.0373,-0.258972 0.10273,-0.496422 0.19622,-0.712348 0.0935,-0.215893 0.22938,-0.397306 0.40772,-0.544242 0.17832,-0.146899 0.42106,-0.222366 0.72821,-0.226402 0.29055,-0.0038 0.56232,0.0781 0.81531,0.245646 0.253,0.167583 0.48348,0.337631 0.69145,0.510149 0.23737,0.145879 0.48862,0.444907 0.75374,0.897085 0.26511,0.452211 0.55165,1.009277 0.85964,1.671202 0.30796,0.661954 0.64521,1.411138 1.01173,2.247554 0.36652,0.83644 0.76363,1.7119 1.19138,2.626382 0.42772,0.914503 0.89358,1.848212 1.39758,2.801131 0.50399,0.952934 1.0543,1.881158 1.65095,2.784674 0.095,0.138966 0.20589,0.301816 0.33277,0.488552 0.1268,0.186743 0.25419,0.362522 0.38204,0.527339 0.12778,0.164824 0.24356,0.303513 0.34721,0.41607 0.1036,0.112564 0.17619,0.168572 0.21771,0.168026 0.0249,-3.23e-4 0.0445,-0.0663 0.0586,-0.197929 0.0141,-0.131623 0.0287,-0.289542 0.0436,-0.473759 0.0149,-0.184209 0.0313,-0.372821 0.049,-0.565837 0.0177,-0.193008 0.0386,-0.35101 0.0623,-0.474003 0.0994,-0.404382 0.20485,-0.867995 0.31627,-1.39084 0.11138,-0.522833 0.22769,-1.155272 0.34894,-1.897316 0.12122,-0.742028 0.24531,-1.622115 0.37231,-2.640262 0.12697,-1.018127 0.25576,-2.224688 0.38638,-3.619684 0.0336,-0.342171 0.0668,-0.730356 0.0995,-1.164555 0.0327,-0.434168 0.0601,-0.877044 0.082,-1.328628 0.0219,-0.451551 0.035,-0.892049 0.0394,-1.321497 0.004,-0.429414 -0.004,-0.801721 -0.0246,-1.116929 -0.008,-0.05246 -0.0167,-0.144348 -0.0275,-0.275667 -0.0105,-0.131284 -0.0177,-0.280156 -0.0211,-0.446623 -0.003,-0.166429 -0.001,-0.339519 0.006,-0.51927 0.007,-0.17971 0.027,-0.34427 0.0595,-0.493682 0.0325,-0.1493702 0.0832,-0.2727119 0.15225,-0.3700264 0.0691,-0.097274 0.16171,-0.1466787 0.27795,-0.1482203 0.1162,-0.0015 0.26193,0.014116 0.4372,0.046852 0.17523,0.032781 0.33848,0.083217 0.48975,0.1513235 0.19065,0.2253578 0.37344,0.4968027 0.54838,0.8143347 0.17489,0.317572 0.30163,0.747479 0.3802,1.289722 0.0494,0.341118 0.0754,0.750435 0.0781,1.227952 0.003,0.477551 -0.008,0.990315 -0.0329,1.538291 -0.0246,0.548008 -0.0594,1.111469 -0.10446,1.690384 -0.0451,0.578943 -0.0957,1.133848 -0.15184,1.664715 -0.0562,0.530893 -0.11247,1.01796 -0.16884,1.461204 -0.0564,0.443267 -0.10521,0.809749 -0.14639,1.099448 -0.076,0.509242 -0.15591,1.033861 -0.23984,1.573858 -0.084,0.540015 -0.18075,1.106477 -0.29029,1.699387 -0.10958,0.592924 -0.23068,1.221042 -0.3633,1.884358 -0.13265,0.663327 -0.28561,1.372917 -0.45888,2.128776 -0.0751,0.342732 -0.16891,0.685705 -0.28137,1.028921 -0.11248,0.343219 -0.25253,0.653937 -0.42013,0.932154 -0.16764,0.27822 -0.36985,0.504314 -0.60662,0.678284 -0.23681,0.173971 -0.51708,0.263074 -0.84081,0.267308 -0.19095,0.0025 -0.39223,-0.02335 -0.60383,-0.07754 -0.21163,-0.05419 -0.40067,-0.167824 -0.56712,-0.340901 -0.80109,-0.821982 -1.54361,-1.756454 -2.22755,-2.803421 -0.68397,-1.046959 -1.31887,-2.142759 -1.90468,-3.287403 -0.58584,-1.14463 -1.12583,-2.303009 -1.61997,-3.475143 -0.49417,-1.172115 -0.95199,-2.294328 -1.37347,-3.366644 l -0.11841,-0.300766 c -0.051,-0.121997 -0.10008,-0.246224 -0.14756,-0.372677 -0.0475,-0.126425 -0.0933,-0.241931 -0.1375,-0.34652 -0.0442,-0.104564 -0.0898,-0.189401 -0.13662,-0.254523 -0.0469,-0.06509 -0.0952,-0.09732 -0.145,-0.09668 -0.0498,6.66e-4 -0.0981,0.09769 -0.14497,0.291066 -0.0468,0.193407 -0.0902,0.410851 -0.13007,0.652335 -0.0399,0.241509 -0.0745,0.476365 -0.10378,0.704567 -0.0293,0.228227 -0.0478,0.373054 -0.0556,0.434482 -0.0252,0.228173 -0.0651,0.555108 -0.11992,0.980804 -0.0548,0.425722 -0.11616,0.906283 -0.18414,1.441688 -0.068,0.535427 -0.144,1.101617 -0.22802,1.698573 -0.084,0.596973 -0.16468,1.174178 -0.24195,1.731615 -0.0773,0.557451 -0.15227,1.073242 -0.22498,1.547375 -0.0727,0.474144 -0.13382,0.856122 -0.18331,1.145935 -0.0418,0.228382 -0.0907,0.522572 -0.14662,0.882573 -0.056,0.360007 -0.11163,0.722198 -0.16697,1.086572 -0.0553,0.364381 -0.10714,0.69585 -0.15537,0.994413 -0.0482,0.298565 -0.0778,0.496114 -0.0888,0.592647 -0.0515,0.333658 -0.16241,0.587036 -0.33278,0.760138 -0.17039,0.173101 -0.35518,0.260955 -0.55442,0.263561 -0.12452,0.0016 -0.2557,-0.04266 -0.39351,-0.132865 -0.13783,-0.09021 -0.26398,-0.200281 -0.37845,-0.330226 -0.11442,-0.129944 -0.21392,-0.271037 -0.29834,-0.423281 -0.0844,-0.152242 -0.13553,-0.289587 -0.15327,-0.412035 -0.0101,-0.06997 -0.006,-0.181752 0.0138,-0.335355 0.0194,-0.153599 0.0481,-0.414666 0.0862,-0.783201 l 0.12802,-1.355518 z" />
  <path
     inkscape:connector-curvature="0"
     id="path3190"
     style="font-size:24px;font-style:normal;font-variant:normal;font-weight:normal;font-stretch:normal;line-height:125%;letter-spacing:0px;word-spacing:0px;fill:#e64b00;fill-opacity:1;stroke:none;font-family:MV Boli;-inkscape-font-specification:MV Boli"
     d="m 165.53416,30.440204 c -0.17434,0.0023 -0.33298,-0.0307 -0.47593,-0.09893 -0.14296,-0.06823 -0.26627,-0.158629 -0.36989,-0.271189 -0.1036,-0.11256 -0.18906,-0.242883 -0.25625,-0.390972 -0.0672,-0.148085 -0.11161,-0.296472 -0.13304,-0.445159 -0.019,-0.131192 -0.0121,-0.313108 0.0207,-0.545751 0.0328,-0.23264 0.0802,-0.493951 0.14219,-0.783934 0.0619,-0.289978 0.13238,-0.593214 0.2113,-0.909708 0.0789,-0.316486 0.15556,-0.619803 0.22998,-0.90995 0.0744,-0.29014 0.13538,-0.558201 0.18292,-0.804184 0.0475,-0.245972 0.0778,-0.439148 0.0907,-0.579527 0.0103,-0.157859 0.0247,-0.346445 0.0428,-0.565756 0.0182,-0.2193 0.0396,-0.458366 0.0645,-0.717198 0.0249,-0.25882 0.0479,-0.530765 0.069,-0.815837 0.0211,-0.285057 0.0439,-0.572335 0.0685,-0.861835 -0.11243,0.02777 -0.25214,0.05369 -0.41915,0.07777 -0.16702,0.0241 -0.34473,0.04614 -0.53311,0.06613 -0.27016,0.02982 -0.53425,0.07272 -0.79228,0.128659 -0.25805,0.05596 -0.52137,0.118556 -0.78996,0.187779 -0.2686,0.06924 -0.54694,0.142983 -0.83501,0.221227 -0.28809,0.07826 -0.5966,0.158968 -0.92556,0.242128 -0.48162,0.120222 -0.96133,0.253556 -1.43914,0.400001 -0.47781,0.146461 -0.98652,0.223217 -1.5261,0.230266 -0.16603,0.0022 -0.32626,-0.04173 -0.48067,-0.131725 -0.15444,-0.08999 -0.32199,-0.155701 -0.50265,-0.197159 -0.12548,0.282055 -0.23982,0.583674 -0.34299,0.904857 -0.10319,0.321196 -0.19266,0.650969 -0.26839,0.989319 -0.0757,0.33836 -0.13967,0.67218 -0.19177,1.00146 -0.0522,0.329289 -0.0946,0.63873 -0.12752,0.928327 -0.0187,0.157978 -0.0246,0.361788 -0.0175,0.611429 0.007,0.24965 0.0169,0.50364 0.0293,0.761977 0.0125,0.258338 0.0233,0.505744 0.0327,0.742214 0.009,0.236473 0.0116,0.424842 0.007,0.565104 -0.006,0.13152 -0.037,0.261177 -0.0934,0.388974 -0.0563,0.127796 -0.13087,0.244878 -0.22358,0.351242 -0.0927,0.106365 -0.20074,0.193215 -0.32406,0.260549 -0.12332,0.06733 -0.25139,0.101868 -0.38421,0.103605 -0.23244,0.003 -0.43174,-0.06664 -0.59792,-0.209058 -0.16619,-0.142411 -0.30837,-0.320187 -0.42658,-0.533328 -0.11817,-0.213141 -0.21229,-0.446313 -0.28223,-0.699519 -0.0699,-0.253204 -0.12015,-0.484759 -0.15056,-0.694668 -0.0773,-0.533514 -0.0951,-1.087523 -0.0536,-1.662028 0.0415,-0.574499 0.12539,-1.158317 0.25156,-1.751457 0.12616,-0.593128 0.28905,-1.191125 0.48867,-1.79399 0.1996,-0.60285 0.42236,-1.20382 0.66826,-1.802911 0.19666,-0.53709 0.4477,-1.158146 0.75311,-1.86317 0.30541,-0.705002 0.6557,-1.430318 1.05088,-2.17595 0.39517,-0.745606 0.83408,-1.476463 1.31671,-2.192572 0.48261,-0.716078 0.99916,-1.355941 1.54962,-1.919592 0.55044,-0.563615 1.13302,-1.020325 1.74772,-1.37013 0.6147,-0.349768 1.24995,-0.52895 1.90577,-0.537547 0.68901,-0.009 1.28288,0.114681 1.78163,0.37102 0.49872,0.256379 0.91737,0.605793 1.25595,1.048246 0.33853,0.442489 0.60694,0.960361 0.80517,1.553618 0.1982,0.593289 0.34546,1.222279 0.44176,1.886973 0.0849,0.586007 0.13703,1.189954 0.15643,1.811841 0.0194,0.621913 0.0203,1.230911 0.003,1.826996 -0.0177,0.596107 -0.0467,1.170446 -0.0872,1.723019 -0.0406,0.552592 -0.0784,1.052561 -0.11333,1.499911 l -0.17737,1.789919 c -0.009,0.0527 -0.0249,0.15806 -0.0478,0.316083 -0.0229,0.158033 -0.0534,0.349023 -0.0916,0.572968 -0.0383,0.223954 -0.0823,0.465506 -0.13207,0.724653 -0.0498,0.259155 -0.10023,0.513934 -0.15127,0.764336 -0.051,0.250409 -0.10082,0.481082 -0.14927,0.692019 -0.0484,0.210942 -0.0923,0.382387 -0.13135,0.514338 l 0.0105,-0.01328 c -0.0252,0.228163 -0.0539,0.46075 -0.0861,0.697763 -0.0322,0.237016 -0.0928,0.450305 -0.18177,0.639867 -0.089,0.189563 -0.21626,0.344575 -0.38177,0.465037 -0.16553,0.120462 -0.39357,0.182594 -0.68411,0.186394 z m -1.74429,-16.433608 c -0.37356,0.0049 -0.73333,0.09066 -1.0793,0.257283 -0.34599,0.166651 -0.67844,0.383496 -0.99739,0.650534 -0.31896,0.267068 -0.6212,0.577718 -0.90671,0.931946 -0.28554,0.354259 -0.5532,0.717031 -0.80298,1.08832 -0.24979,0.371316 -0.48059,0.744559 -0.69238,1.119733 -0.21181,0.375198 -0.40282,0.721633 -0.57304,1.039307 -0.0256,0.05293 -0.0594,0.121276 -0.10129,0.205059 -0.0419,0.08381 -0.0826,0.176345 -0.12197,0.277622 -0.0394,0.101294 -0.0761,0.206929 -0.11003,0.316898 -0.034,0.109983 -0.0612,0.208925 -0.0818,0.296811 l 1.28257,-0.01678 c 0.46487,-0.0061 0.99109,-0.048 1.57866,-0.125801 0.58756,-0.07777 1.167,-0.1686 1.73832,-0.272474 0.5713,-0.103854 1.09456,-0.209276 1.56978,-0.316274 0.4752,-0.106972 0.83353,-0.188336 1.07498,-0.244082 0.0167,-0.114122 0.0257,-0.267588 0.0269,-0.460395 0.001,-0.192784 -0.003,-0.407418 -0.0122,-0.643903 -0.009,-0.236459 -0.0271,-0.488155 -0.0533,-0.755089 -0.0262,-0.266907 -0.0595,-0.540307 -0.10008,-0.820198 -0.0329,-0.227386 -0.0791,-0.487473 -0.13794,-0.78027 -0.059,-0.292765 -0.14908,-0.569804 -0.27011,-0.831118 -0.12099,-0.261284 -0.27962,-0.480469 -0.47576,-0.657555 -0.19616,-0.177054 -0.44781,-0.263581 -0.75495,-0.259579 z" />
  <path
     inkscape:connector-curvature="0"
     id="path3192"
     style="font-size:24px;font-style:normal;font-variant:normal;font-weight:normal;font-stretch:normal;line-height:125%;letter-spacing:0px;word-spacing:0px;fill:#e64b00;fill-opacity:1;stroke:none;font-family:MV Boli;-inkscape-font-specification:MV Boli"
     d="m 195.55793,25.217942 c 0.0547,-0.885744 0.13749,-1.677664 0.24845,-2.375761 0.11096,-0.69808 0.22681,-1.348037 0.34757,-1.949874 0.12074,-0.601816 0.23491,-1.177267 0.34251,-1.726358 0.10759,-0.549066 0.18951,-1.117524 0.24575,-1.705376 l 0.0582,-0.631678 c 0.0103,-0.157851 0.011,-0.35502 0.002,-0.591507 -0.009,-0.236456 -0.0181,-0.483887 -0.0264,-0.742296 -0.008,-0.258375 -0.006,-0.514716 0.007,-0.769024 0.0131,-0.254273 0.0528,-0.482623 0.11908,-0.685051 0.0663,-0.202392 0.16502,-0.367985 0.29608,-0.496776 0.13105,-0.128756 0.31279,-0.194663 0.54523,-0.197721 0.25734,-0.0033 0.48222,0.0419 0.67464,0.135761 0.19241,0.09389 0.35398,0.218838 0.48471,0.374839 0.13071,0.156037 0.23587,0.336489 0.31546,0.541355 0.0796,0.2049 0.1352,0.416669 0.16687,0.635306 0.0266,0.183686 0.0426,0.367495 0.0487,0.551416 0.006,0.183956 -5.4e-4,0.354914 -0.0193,0.512872 -0.0343,0.394787 -0.11722,0.855915 -0.24873,1.383385 -0.13152,0.527498 -0.27588,1.109918 -0.43305,1.747258 -0.15721,0.637367 -0.31094,1.327252 -0.46122,2.069658 -0.15029,0.742427 -0.26551,1.526007 -0.34564,2.350744 -0.0491,0.465074 -0.0773,0.973682 -0.0846,1.525823 -0.007,0.552154 0.0213,1.051256 0.0859,1.497304 0.0519,0.358598 0.13005,0.697132 0.23441,1.015604 0.10437,0.318478 0.24865,0.596998 0.43292,0.83556 0.18427,0.238568 0.41314,0.426163 0.6866,0.562788 0.27346,0.136629 0.60527,0.202391 0.99545,0.197285 0.29884,-0.0039 0.60426,-0.03418 0.91627,-0.09085 0.312,-0.05665 0.67342,-0.188441 1.08426,-0.395361 0.60315,-0.314582 1.15806,-0.718353 1.6647,-1.211315 0.50661,-0.492954 0.96192,-1.053152 1.3659,-1.680595 0.40397,-0.627432 0.76363,-1.302485 1.07897,-2.025161 0.31531,-0.72266 0.58741,-1.471051 0.81629,-2.245174 0.22885,-0.774105 0.41702,-1.556449 0.5645,-2.347035 0.14746,-0.790562 0.25739,-1.567502 0.32981,-2.33082 0.0278,-0.324572 0.0419,-0.629261 0.0423,-0.914068 2.7e-4,-0.284778 -0.0107,-0.575995 -0.033,-0.873652 -0.0224,-0.297625 -0.052,-0.617077 -0.0889,-0.958358 -0.037,-0.341245 -0.0705,-0.730748 -0.1006,-1.16851 -0.0258,-0.350153 0.0236,-0.655303 0.14809,-0.915452 0.12447,-0.260109 0.35276,-0.392346 0.68483,-0.396708 0.20752,-0.0027 0.40074,0.0824 0.57968,0.2553 0.17889,0.172934 0.33684,0.387745 0.47385,0.644435 0.13694,0.256728 0.25128,0.529069 0.34292,0.817022 0.0917,0.287989 0.15389,0.545676 0.18683,0.773059 0.0633,0.437325 0.0902,0.910161 0.0807,1.418507 -0.009,0.508379 -0.0388,0.995094 -0.0879,1.460146 -0.0951,1.008972 -0.23719,2.022926 -0.42642,3.041867 -0.18925,1.018963 -0.446,2.016891 -0.77023,2.993786 -0.32426,0.976912 -0.72941,1.926396 -1.21545,2.848453 -0.48607,0.922068 -1.07407,1.786315 -1.764,2.592744 -0.34146,0.398793 -0.71707,0.791457 -1.12682,1.177993 -0.40978,0.386539 -0.84568,0.736178 -1.30772,1.048916 -0.46205,0.31274 -0.94509,0.566605 -1.44913,0.761596 -0.50406,0.194991 -1.01758,0.295908 -1.54056,0.302748 -0.75543,0.0099 -1.42739,-0.09306 -2.01589,-0.308808 -0.58851,-0.215752 -1.0966,-0.522374 -1.52429,-0.919867 -0.42769,-0.397491 -0.77308,-0.872733 -1.03616,-1.425727 -0.26309,-0.55299 -0.44278,-1.161841 -0.53905,-1.826553 -0.0456,-0.314857 -0.0711,-0.662842 -0.0764,-1.043957 -0.005,-0.381104 0.003,-0.755816 0.0243,-1.124138 z" />
  <path
     inkscape:connector-curvature="0"
     id="path3194"
     style="font-size:24px;font-style:normal;font-variant:normal;font-weight:normal;font-stretch:normal;line-height:125%;letter-spacing:0px;word-spacing:0px;fill:#e64b00;fill-opacity:1;stroke:none;font-family:MV Boli;-inkscape-font-specification:MV Boli"
     d="m 214.69356,15.385604 c 0.0169,-0.228037 0.044,-0.471556 0.0813,-0.730562 0.0373,-0.258972 0.10275,-0.496422 0.19623,-0.712348 0.0935,-0.215893 0.22939,-0.397306 0.40771,-0.544241 0.17833,-0.1469 0.42107,-0.222367 0.72823,-0.226403 0.29054,-0.0038 0.56231,0.0781 0.81531,0.245646 0.25298,0.167583 0.48347,0.337631 0.69145,0.510149 0.23736,0.145879 0.48861,0.444907 0.75373,0.897085 0.2651,0.452211 0.55165,1.009277 0.85963,1.671202 0.30797,0.661954 0.64521,1.411139 1.01174,2.247554 0.36651,0.83644 0.76364,1.7119 1.19138,2.626382 0.42771,0.914503 0.89358,1.848213 1.39758,2.801132 0.50398,0.952934 1.05431,1.881158 1.65096,2.784673 0.095,0.138966 0.20589,0.301816 0.33275,0.488553 0.12681,0.186742 0.25419,0.362522 0.38205,0.527339 0.12778,0.164823 0.24356,0.303512 0.34721,0.41607 0.1036,0.112563 0.1762,0.168571 0.21771,0.168026 0.0249,-3.23e-4 0.0445,-0.0663 0.0586,-0.197929 0.0141,-0.131624 0.0287,-0.289543 0.0436,-0.473759 0.0149,-0.184209 0.0313,-0.372822 0.049,-0.565838 0.0177,-0.193007 0.0386,-0.35101 0.0623,-0.474003 0.0994,-0.404382 0.20485,-0.867995 0.31626,-1.39084 0.11138,-0.522833 0.22769,-1.155272 0.34894,-1.897315 0.12121,-0.742029 0.24532,-1.622116 0.37232,-2.640263 0.12695,-1.018127 0.25575,-2.224687 0.38638,-3.619684 0.0336,-0.342171 0.0668,-0.730356 0.0995,-1.164555 0.0327,-0.434168 0.0601,-0.877044 0.082,-1.328628 0.0219,-0.451551 0.035,-0.892049 0.0394,-1.321497 0.004,-0.429414 -0.004,-0.801721 -0.0246,-1.116928 -0.008,-0.05246 -0.0166,-0.144348 -0.0275,-0.275667 -0.0105,-0.131284 -0.0177,-0.280156 -0.021,-0.446624 -0.003,-0.166429 -0.001,-0.339519 0.006,-0.51927 0.007,-0.17971 0.027,-0.34427 0.0595,-0.493682 0.0324,-0.14937 0.0831,-0.272712 0.15225,-0.370026 0.0691,-0.09727 0.1617,-0.146679 0.27794,-0.148221 0.1162,-0.0015 0.26194,0.01412 0.43719,0.04685 0.17524,0.03278 0.33848,0.08322 0.48977,0.151324 0.19064,0.225358 0.37344,0.496803 0.54837,0.814334 0.1749,0.317573 0.30163,0.747479 0.3802,1.289722 0.0494,0.341118 0.0754,0.750436 0.0781,1.227952 0.003,0.477551 -0.008,0.990315 -0.0329,1.538291 -0.0246,0.548008 -0.0594,1.111469 -0.10445,1.690384 -0.0451,0.578944 -0.0957,1.133848 -0.15184,1.664716 -0.0562,0.530892 -0.11247,1.017959 -0.16884,1.461204 -0.0564,0.443267 -0.1052,0.809748 -0.14639,1.099448 -0.076,0.509241 -0.1559,1.03386 -0.23985,1.573857 -0.084,0.540015 -0.18074,1.106477 -0.29028,1.699387 -0.10958,0.592924 -0.23068,1.221043 -0.36329,1.884359 -0.13265,0.663326 -0.28562,1.372916 -0.45889,2.128775 -0.0751,0.342732 -0.16891,0.685705 -0.28136,1.028921 -0.11248,0.343219 -0.25253,0.653937 -0.42014,0.932155 -0.16764,0.278219 -0.36985,0.504314 -0.60662,0.678283 -0.2368,0.173971 -0.51708,0.263074 -0.84081,0.267308 -0.19095,0.0025 -0.39223,-0.02335 -0.60383,-0.07754 -0.21163,-0.05419 -0.40068,-0.167823 -0.56713,-0.340901 -0.80108,-0.821982 -1.5436,-1.756454 -2.22754,-2.803421 -0.68398,-1.046959 -1.31886,-2.142759 -1.90467,-3.287402 -0.58584,-1.144631 -1.12583,-2.30301 -1.61998,-3.475144 -0.49418,-1.172114 -0.95199,-2.294327 -1.37346,-3.366643 l -0.11841,-0.300767 c -0.051,-0.121997 -0.10019,-0.246222 -0.14757,-0.372677 -0.0475,-0.126425 -0.0933,-0.241931 -0.13749,-0.34652 -0.0443,-0.104562 -0.0898,-0.189401 -0.13662,-0.254523 -0.0469,-0.06509 -0.0952,-0.09732 -0.14501,-0.09668 -0.0498,6.66e-4 -0.0981,0.09769 -0.14497,0.291066 -0.0468,0.193407 -0.0902,0.410852 -0.13006,0.652335 -0.0399,0.241509 -0.0745,0.476365 -0.10379,0.704567 -0.0293,0.228227 -0.0478,0.373054 -0.0556,0.434482 -0.0252,0.228173 -0.0651,0.555108 -0.11991,0.980804 -0.0548,0.425722 -0.11616,0.906283 -0.18414,1.441689 -0.068,0.535427 -0.144,1.101616 -0.22802,1.698572 -0.084,0.596973 -0.16469,1.174178 -0.24196,1.731615 -0.0773,0.557451 -0.15227,1.073242 -0.22497,1.547375 -0.0727,0.474144 -0.13382,0.856122 -0.18333,1.145935 -0.0418,0.228382 -0.0906,0.522572 -0.14661,0.882573 -0.056,0.360007 -0.11164,0.722198 -0.16697,1.086573 -0.0553,0.36438 -0.10713,0.695849 -0.15537,0.994412 -0.0482,0.298565 -0.0778,0.496114 -0.0888,0.592647 -0.0514,0.333657 -0.16239,0.587036 -0.33277,0.760139 -0.17038,0.173101 -0.35519,0.260955 -0.55441,0.26356 -0.12452,0.0016 -0.2557,-0.04266 -0.39353,-0.132865 -0.13782,-0.0902 -0.26396,-0.200281 -0.37843,-0.330226 -0.11442,-0.129944 -0.21393,-0.271036 -0.29836,-0.42328 -0.0844,-0.152243 -0.13552,-0.289588 -0.15326,-0.412036 -0.0101,-0.06997 -0.006,-0.181752 0.0138,-0.335355 0.0194,-0.153599 0.0481,-0.414666 0.0862,-0.7832 l 0.12801,-1.355519 z" />
  <path
     inkscape:connector-curvature="0"
     id="path3196"
     style="font-size:24px;font-style:normal;font-variant:normal;font-weight:normal;font-stretch:normal;line-height:125%;letter-spacing:0px;word-spacing:0px;fill:#e64b00;fill-opacity:1;stroke:none;font-family:MV Boli;-inkscape-font-specification:MV Boli"
     d="m 244.22181,31.048345 c -0.17435,0.0023 -0.33299,-0.0307 -0.47593,-0.09893 -0.14298,-0.06823 -0.26627,-0.158629 -0.36989,-0.271188 -0.1036,-0.11256 -0.18906,-0.242884 -0.25625,-0.390973 -0.0672,-0.148085 -0.11161,-0.296472 -0.13304,-0.445159 -0.019,-0.131191 -0.0121,-0.313108 0.0207,-0.545751 0.0328,-0.23264 0.0802,-0.49395 0.14219,-0.783934 0.0619,-0.289977 0.13238,-0.593213 0.21131,-0.909708 0.0789,-0.316486 0.15555,-0.619802 0.22997,-0.90995 0.0744,-0.29014 0.13537,-0.5582 0.18293,-0.804184 0.0475,-0.245972 0.0778,-0.439148 0.0907,-0.579527 0.0104,-0.157859 0.0247,-0.346445 0.0428,-0.565756 0.0182,-0.2193 0.0396,-0.458366 0.0645,-0.717198 0.0249,-0.25882 0.0479,-0.530765 0.069,-0.815837 0.0211,-0.285057 0.0439,-0.572335 0.0685,-0.861835 -0.11243,0.02777 -0.25215,0.05369 -0.41914,0.07777 -0.16703,0.0241 -0.34473,0.04614 -0.53312,0.06613 -0.27015,0.02982 -0.53425,0.07272 -0.79228,0.128658 -0.25806,0.05596 -0.52137,0.118557 -0.78995,0.187779 -0.26861,0.06924 -0.54695,0.142983 -0.83502,0.221227 -0.28809,0.07826 -0.59661,0.158968 -0.92555,0.242128 -0.48162,0.120222 -0.96134,0.253556 -1.43914,0.400001 -0.47782,0.146462 -0.98652,0.223217 -1.52611,0.230267 -0.16603,0.0022 -0.32625,-0.04173 -0.48068,-0.131725 -0.15443,-0.08999 -0.32198,-0.155702 -0.50263,-0.19716 -0.1255,0.282055 -0.23982,0.583674 -0.343,0.904857 -0.10318,0.321196 -0.19265,0.650969 -0.26838,0.989319 -0.0758,0.338361 -0.13968,0.672181 -0.19178,1.001461 -0.0521,0.329287 -0.0946,0.638729 -0.12751,0.928326 -0.0187,0.157978 -0.0246,0.361788 -0.0175,0.61143 0.007,0.249648 0.0169,0.503639 0.0292,0.761976 0.0125,0.258338 0.0233,0.505744 0.0327,0.742214 0.009,0.236473 0.0116,0.424842 0.007,0.565104 -0.006,0.13152 -0.037,0.261177 -0.0934,0.388974 -0.0563,0.127796 -0.13088,0.244878 -0.22359,0.351242 -0.0927,0.106365 -0.20073,0.193215 -0.32405,0.260549 -0.12332,0.06733 -0.25139,0.101868 -0.38421,0.103605 -0.23244,0.003 -0.43176,-0.06664 -0.59793,-0.209058 -0.16618,-0.142411 -0.30837,-0.320187 -0.42658,-0.533328 -0.11817,-0.213141 -0.21228,-0.446313 -0.28223,-0.699519 -0.0699,-0.253204 -0.12015,-0.484759 -0.15055,-0.694668 -0.0773,-0.533514 -0.0952,-1.087523 -0.0536,-1.662028 0.0415,-0.574499 0.12538,-1.158317 0.25155,-1.751457 0.12616,-0.593128 0.28906,-1.191125 0.48866,-1.79399 0.19962,-0.60285 0.42237,-1.20382 0.66828,-1.802911 0.19666,-0.53709 0.44769,-1.158146 0.7531,-1.86317 0.30541,-0.705002 0.65571,-1.430318 1.05089,-2.17595 0.39517,-0.745606 0.83407,-1.476463 1.3167,-2.192572 0.48262,-0.716078 0.99915,-1.355941 1.54962,-1.919592 0.55044,-0.563615 1.13303,-1.020325 1.74773,-1.37013 0.61468,-0.349768 1.24995,-0.52895 1.90577,-0.537547 0.689,-0.009 1.28288,0.114681 1.78162,0.37102 0.49872,0.256379 0.91738,0.605793 1.25594,1.048246 0.33855,0.442489 0.60694,0.960361 0.80519,1.553617 0.1982,0.59329 0.34545,1.22228 0.44176,1.886974 0.0849,0.586007 0.13703,1.189953 0.15643,1.811841 0.0194,0.621913 0.0203,1.230911 0.003,1.826996 -0.0177,0.596107 -0.0467,1.170446 -0.0873,1.723019 -0.0406,0.552592 -0.0783,1.052561 -0.11333,1.499911 l -0.17736,1.789919 c -0.009,0.0527 -0.0249,0.15806 -0.0478,0.316083 -0.0229,0.158033 -0.0534,0.349023 -0.0917,0.572968 -0.0382,0.223954 -0.0823,0.465506 -0.13205,0.724653 -0.0498,0.259155 -0.10024,0.513934 -0.15128,0.764336 -0.051,0.250409 -0.10083,0.481082 -0.14926,0.692019 -0.0484,0.210942 -0.0923,0.382387 -0.13135,0.514338 l 0.0105,-0.01328 c -0.0252,0.228162 -0.0539,0.46075 -0.0861,0.697763 -0.0322,0.237016 -0.0928,0.450305 -0.18178,0.639867 -0.089,0.189563 -0.21625,0.344575 -0.38176,0.465037 -0.16554,0.120462 -0.39358,0.182594 -0.68411,0.186393 z m -1.74429,-16.433608 c -0.37358,0.0049 -0.73335,0.09066 -1.0793,0.257283 -0.34599,0.166651 -0.67846,0.383496 -0.99739,0.650534 -0.31896,0.267068 -0.6212,0.577718 -0.90672,0.931946 -0.28553,0.354259 -0.5532,0.717032 -0.80297,1.08832 -0.24981,0.371316 -0.4806,0.744559 -0.69239,1.119733 -0.2118,0.375198 -0.40282,0.721634 -0.57303,1.039307 -0.0257,0.05293 -0.0594,0.121276 -0.10129,0.205059 -0.042,0.08381 -0.0826,0.176345 -0.12197,0.277622 -0.0394,0.101294 -0.0761,0.20693 -0.11004,0.316898 -0.034,0.109983 -0.0612,0.208925 -0.0818,0.296811 l 1.28257,-0.01677 c 0.46487,-0.0061 0.9911,-0.048 1.57866,-0.125801 0.58755,-0.07778 1.16699,-0.168601 1.73832,-0.272475 0.5713,-0.103854 1.09456,-0.209275 1.56978,-0.316274 0.47521,-0.106972 0.83352,-0.188336 1.07498,-0.244082 0.0167,-0.114122 0.0256,-0.267587 0.0269,-0.460395 10e-4,-0.192784 -0.003,-0.407418 -0.0121,-0.643903 -0.009,-0.236458 -0.0271,-0.488155 -0.0533,-0.755089 -0.0262,-0.266907 -0.0595,-0.540307 -0.10007,-0.820198 -0.033,-0.227385 -0.0791,-0.487473 -0.13794,-0.780269 -0.059,-0.292766 -0.14908,-0.569805 -0.2701,-0.831119 -0.12099,-0.261284 -0.27962,-0.480468 -0.47577,-0.657555 -0.19616,-0.177054 -0.44781,-0.26358 -0.75494,-0.259579 z" />
  <g
     style="font-size:40px;font-style:normal;font-variant:normal;font-weight:normal;font-stretch:normal;line-height:125%;letter-spacing:0px;word-spacing:0px;fill:#e64b00;fill-opacity:1;stroke:none;font-family:Calibri;-inkscape-font-specification:Calibri"
     id="text3005">
    <path
       d="m 292.06055,24.455078 c -2e-5,0.656256 -0.1937,1.330734 -0.58106,2.023438 -0.38738,0.692711 -1.0049,1.339846 -1.85254,1.941406 -0.26433,0.182294 -0.58562,0.380536 -0.96386,0.594726 -0.37827,0.214194 -0.78843,0.430666 -1.23047,0.649414 -0.44207,0.218751 -0.90692,0.430665 -1.39453,0.635743 -0.48764,0.205078 -0.97983,0.385091 -1.47657,0.540039 -0.49675,0.154947 -0.9821,0.280273 -1.45605,0.375976 -0.47397,0.0957 -0.92058,0.143554 -1.33985,0.143555 -0.20964,-1e-6 -0.38965,-0.01595 -0.54003,-0.04785 -0.1504,-0.0319 -0.2894,-0.08887 -0.417,-0.170898 -0.12761,-0.08203 -0.25065,-0.195964 -0.36914,-0.341797 -0.11849,-0.145833 -0.2461,-0.328125 -0.38281,-0.546875 -0.21875,0.164063 -0.4489,0.284831 -0.69043,0.362305 -0.24154,0.07747 -0.48535,0.116211 -0.73144,0.116211 l -0.38282,0 c -0.0729,0 -0.14128,-0.02506 -0.20508,-0.0752 -0.0638,-0.05013 -0.12077,-0.111653 -0.17089,-0.18457 -0.0501,-0.07292 -0.0889,-0.152669 -0.11621,-0.239258 -0.0274,-0.08659 -0.041,-0.170898 -0.041,-0.252929 0,-0.464843 0.0661,-0.909179 0.19824,-1.333008 0.13216,-0.423826 0.28483,-0.845375 0.45801,-1.264649 0.2552,-0.774735 0.51497,-1.588211 0.7793,-2.440429 0.26432,-0.852207 0.51952,-1.706699 0.76562,-2.563477 0.24609,-0.856762 0.48079,-1.702138 0.7041,-2.536133 0.22331,-0.833972 0.43066,-1.624662 0.62207,-2.37207 l 0.38282,-1.585937 c -1e-5,-0.02733 -0.005,-0.104803 -0.0137,-0.232422 -0.009,-0.127589 -0.0205,-0.266587 -0.0342,-0.416993 -0.0137,-0.150375 -0.0251,-0.289372 -0.0342,-0.416992 l -0.0137,-0.177734 0.0684,-0.232422 -0.0137,0.01367 c 0.0456,-0.164046 0.10937,-0.350895 0.19141,-0.560547 0.082,-0.209618 0.18228,-0.405582 0.30078,-0.587891 0.11848,-0.182274 0.24836,-0.334943 0.38965,-0.458007 0.14127,-0.123029 0.29393,-0.184553 0.458,-0.184571 0.15494,1.8e-5 0.35319,0.01141 0.59473,0.03418 0.24153,0.0228 0.458,0.0342 0.64941,0.03418 0.0911,1.8e-5 0.18001,-0.0045 0.26661,-0.01367 0.0866,-0.0091 0.19595,-0.03188 0.32812,-0.06836 0.13215,-0.03644 0.30533,-0.08885 0.51953,-0.157226 0.21419,-0.06834 0.49446,-0.161766 0.84082,-0.280274 0.51952,-0.182273 0.99576,-0.334942 1.42871,-0.458007 0.43293,-0.123028 0.84309,-0.223289 1.23047,-0.300782 0.38736,-0.07745 0.76333,-0.13442 1.12793,-0.170898 0.36457,-0.03644 0.73827,-0.05467 1.1211,-0.05469 0.48305,2e-5 0.95017,0.04559 1.40136,0.136719 0.45116,0.09117 0.8522,0.239277 1.20313,0.444336 0.35089,0.205097 0.63116,0.473977 0.84082,0.806641 0.20961,0.3327 0.31443,0.73602 0.31445,1.209961 -2e-5,0.811214 -0.21421,1.540379 -0.64258,2.1875 -0.4284,0.647149 -1.03452,1.248711 -1.81836,1.804687 -0.78387,0.556002 -1.72495,1.073254 -2.82324,1.551758 -1.09832,0.478526 -2.32195,0.950206 -3.6709,1.415039 1.07551,0.164072 2.00292,0.357757 2.78223,0.581055 0.77928,0.223316 1.42414,0.48536 1.93457,0.786132 0.5104,0.30079 0.88866,0.642586 1.13477,1.025391 0.24607,0.38282 0.36912,0.820319 0.36914,1.3125 z m -4.64844,-1.257812 c -0.0912,-0.01822 -0.2575,-0.05012 -0.49902,-0.0957 -0.24155,-0.04556 -0.5241,-0.0957 -0.84766,-0.15039 -0.32358,-0.05468 -0.67221,-0.111646 -1.0459,-0.170899 -0.37371,-0.05924 -0.72917,-0.118481 -1.06641,-0.177734 -0.33724,-0.05924 -0.64486,-0.116203 -0.92285,-0.170898 -0.278,-0.05468 -0.4808,-0.100253 -0.6084,-0.136719 -0.34636,1.121101 -0.64942,2.194342 -0.90917,3.219726 -0.25978,1.025395 -0.52182,2.057621 -0.78614,3.09668 l 0.90235,0.0957 c 0.20963,0.01823 0.3942,0.03418 0.55371,0.04785 0.1595,0.01367 0.25292,0.02051 0.28027,0.02051 0.36458,-0.03646 0.76562,-0.107095 1.20313,-0.211914 0.43749,-0.104816 0.89094,-0.236977 1.36035,-0.396485 0.46939,-0.159502 0.94562,-0.346351 1.42871,-0.560547 0.48306,-0.214189 0.95702,-0.444332 1.42187,-0.690429 0.17317,-0.109372 0.35546,-0.241533 0.54688,-0.396485 0.19139,-0.154943 0.36457,-0.325842 0.51953,-0.512695 0.15493,-0.186844 0.28254,-0.385086 0.38281,-0.594727 0.10025,-0.20963 0.15038,-0.423822 0.15039,-0.642578 -1e-5,-0.364577 -0.19142,-0.681308 -0.57422,-0.950195 -0.38282,-0.268873 -0.87957,-0.47623 -1.49023,-0.62207 z m -4.32031,-3.171875 c 0.51041,-0.164052 1.04816,-0.357737 1.61328,-0.581055 0.56509,-0.223296 1.14615,-0.467111 1.74316,-0.731445 0.597,-0.264311 1.20311,-0.544584 1.81836,-0.840821 0.61522,-0.296211 1.22818,-0.594713 1.83887,-0.895508 l -0.0137,0 c 0.21873,-0.118475 0.4352,-0.26203 0.64941,-0.430664 0.21418,-0.168605 0.40558,-0.350897 0.57422,-0.546875 0.1686,-0.195948 0.30532,-0.401026 0.41016,-0.615234 0.1048,-0.214177 0.15721,-0.426091 0.15722,-0.635742 -1e-5,-0.136703 -0.0319,-0.273422 -0.0957,-0.410156 -0.0638,-0.136703 -0.16408,-0.259749 -0.30078,-0.369141 -0.13674,-0.109358 -0.31675,-0.195947 -0.54004,-0.259766 -0.22332,-0.06378 -0.49904,-0.09569 -0.82715,-0.0957 -0.45574,1.7e-5 -0.97072,0.05698 -1.54492,0.170899 -0.57423,0.113949 -1.13022,0.257503 -1.66797,0.430664 -0.53777,0.173193 -1.01629,0.364599 -1.43555,0.574219 -0.41928,0.20965 -0.69727,0.410171 -0.83398,0.601562 -0.0274,0.04559 -0.0661,0.145848 -0.11621,0.300781 -0.0501,0.154963 -0.10711,0.325861 -0.1709,0.512696 -0.0638,0.186863 -0.12989,0.366876 -0.19824,0.540039 -0.0684,0.17319 -0.13445,0.300794 -0.19825,0.382812 -0.0182,0.09116 -0.0547,0.230157 -0.10937,0.416992 -0.0547,0.186862 -0.12078,0.407891 -0.19824,0.663086 -0.0775,0.255221 -0.16407,0.537773 -0.25977,0.847656 -0.0957,0.309908 -0.19369,0.633475 -0.29394,0.970704 z"
       style="font-size:28px;fill:#e64b00;font-family:MV Boli;-inkscape-font-specification:MV Boli"
       id="path3045" />
    <path
       d="m 296.50391,24.003906 c 0.20051,-0.920565 0.41698,-1.743155 0.64941,-2.467773 0.23242,-0.7246 0.46256,-1.399078 0.69043,-2.023438 0.22786,-0.624337 0.44433,-1.221342 0.64941,-1.791015 0.20508,-0.569648 0.38509,-1.159817 0.54004,-1.770508 l 0.16407,-0.65625 c 0.0365,-0.164047 0.0684,-0.369125 0.0957,-0.615234 0.0273,-0.246078 0.057,-0.503565 0.0889,-0.772461 0.0319,-0.268864 0.0752,-0.535465 0.12988,-0.799805 0.0547,-0.264305 0.13443,-0.501284 0.23926,-0.710938 0.10481,-0.209617 0.23925,-0.380515 0.40332,-0.512695 0.16405,-0.132143 0.37369,-0.198223 0.6289,-0.198242 0.28255,1.9e-5 0.5218,0.05015 0.71778,0.150391 0.19595,0.100279 0.35318,0.23244 0.47168,0.396484 0.11848,0.164081 0.20506,0.353208 0.25976,0.567383 0.0547,0.21421 0.082,0.435238 0.082,0.663086 -1e-5,0.191423 -0.0114,0.382829 -0.0342,0.574218 -0.0228,0.191423 -0.057,0.369157 -0.10254,0.533204 -0.10027,0.410171 -0.26433,0.888686 -0.49218,1.435546 -0.22788,0.546889 -0.47853,1.15073 -0.75196,1.811524 -0.27344,0.660819 -0.55144,1.376313 -0.83398,2.146484 -0.28256,0.770192 -0.53321,1.583668 -0.75195,2.44043 -0.12762,0.48308 -0.23927,1.011726 -0.33496,1.585937 -0.0957,0.574225 -0.14357,1.093756 -0.14356,1.558594 -1e-5,0.373703 0.0319,0.726892 0.0957,1.05957 0.0638,0.332686 0.17773,0.624353 0.3418,0.875 0.16406,0.250654 0.38508,0.448896 0.66309,0.594727 0.27798,0.145836 0.63117,0.218752 1.05957,0.21875 0.32811,2e-6 0.66763,-0.02734 1.01855,-0.08203 0.3509,-0.05468 0.76789,-0.186847 1.25098,-0.396485 0.71092,-0.319007 1.38312,-0.731441 2.0166,-1.237304 0.63345,-0.505855 1.22134,-1.082352 1.76367,-1.729493 0.5423,-0.647129 1.04361,-1.344393 1.50391,-2.091796 0.46027,-0.747388 0.87726,-1.522126 1.25097,-2.324219 0.37368,-0.802073 0.70409,-1.61327 0.99122,-2.433594 0.28709,-0.820299 0.5309,-1.626939 0.73144,-2.419922 0.082,-0.337224 0.14581,-0.653955 0.19141,-0.950195 0.0456,-0.296208 0.0797,-0.599267 0.10254,-0.90918 0.0228,-0.309878 0.041,-0.64256 0.0547,-0.998047 0.0137,-0.35545 0.0387,-0.761049 0.0752,-1.216796 0.0273,-0.364564 0.12986,-0.681296 0.30762,-0.950196 0.17771,-0.26886 0.44887,-0.4033 0.81347,-0.40332 0.22785,2e-5 0.42609,0.09117 0.59473,0.273437 0.1686,0.182312 0.30759,0.407898 0.41699,0.676758 0.10935,0.2689 0.19139,0.55373 0.24609,0.854492 0.0547,0.3008 0.082,0.56968 0.082,0.806641 -3e-5,0.455747 -0.0456,0.947934 -0.13672,1.476563 -0.0912,0.528661 -0.20055,1.03452 -0.32813,1.517578 -0.26434,1.04819 -0.58107,2.100924 -0.95019,3.158203 -0.36916,1.057302 -0.80894,2.091806 -1.31934,3.103515 -0.51043,1.011727 -1.10516,1.993822 -1.78418,2.946289 -0.67905,0.952479 -1.46063,1.843429 -2.34473,2.672852 -0.43751,0.410159 -0.91147,0.813479 -1.42187,1.209961 -0.51043,0.396486 -1.04363,0.754233 -1.59961,1.073242 -0.556,0.319011 -1.12566,0.576498 -1.70898,0.772461 -0.58335,0.195963 -1.16212,0.293945 -1.73633,0.293945 -0.82944,0 -1.54949,-0.116211 -2.16016,-0.348632 -0.61068,-0.232422 -1.11882,-0.558268 -1.52441,-0.97754 -0.40561,-0.419269 -0.70867,-0.918292 -0.90918,-1.49707 -0.20053,-0.578773 -0.30079,-1.214514 -0.30078,-1.907226 -10e-6,-0.328121 0.0273,-0.690425 0.082,-1.086914 0.0547,-0.396479 0.12304,-0.786127 0.20508,-1.168946 z M 312.77344,4.4121094 c -0.10028,0.4010674 -0.27118,0.7246348 -0.5127,0.9707031 -0.24155,0.2461187 -0.54006,0.4603112 -0.89551,0.6425781 l -4.29296,2.1328125 c -0.16408,0.091168 -0.38283,0.1367411 -0.65625,0.1367188 -0.20965,2.23e-5 -0.36004,-0.047829 -0.45118,-0.1435547 -0.0912,-0.095681 -0.13673,-0.221006 -0.13672,-0.3759766 -1e-5,-0.1913832 0.0387,-0.3645601 0.11622,-0.5195312 0.0775,-0.1549245 0.17544,-0.2962004 0.29394,-0.4238282 0.11848,-0.1275802 0.24608,-0.2392338 0.38281,-0.3349609 0.13671,-0.095679 0.25975,-0.1799887 0.36914,-0.2529297 l 1.03907,-0.6152344 c 0.43748,-0.2551831 0.86587,-0.5126698 1.28515,-0.7724609 0.41926,-0.2597396 0.81118,-0.4921613 1.17578,-0.6972656 0.36457,-0.2050515 0.69269,-0.3736711 0.98438,-0.5058594 0.29165,-0.1321344 0.51951,-0.198215 0.68359,-0.1982422 0.18227,2.72e-5 0.33494,0.063829 0.45801,0.1914063 0.12303,0.1276309 0.18455,0.2962506 0.18457,0.5058593 -2e-5,0.045599 -2e-5,0.088894 0,0.1298829 -2e-5,0.041042 -0.009,0.084336 -0.0273,0.1298828 z"
       style="font-size:28px;fill:#e64b00;font-family:MV Boli;-inkscape-font-specification:MV Boli"
       id="path3047" />
    <path
       d="m 314.67383,27.421875 c 0.30989,0.109378 0.62662,0.236982 0.95019,0.382812 0.32357,0.145836 0.65853,0.284834 1.00489,0.416993 0.34635,0.132163 0.70865,0.243817 1.08691,0.334961 0.37825,0.09115 0.78157,0.13672 1.20996,0.136718 0.5013,2e-6 1.00715,-0.05924 1.51758,-0.177734 0.51041,-0.118487 1.00943,-0.293943 1.49707,-0.526367 0.48762,-0.232419 0.95474,-0.514971 1.40137,-0.847656 0.4466,-0.332679 0.85676,-0.71777 1.23047,-1.155274 0.41014,-0.464839 0.75194,-0.886388 1.02539,-1.264648 0.27342,-0.378249 0.49445,-0.715489 0.66308,-1.011719 0.16861,-0.296217 0.28938,-0.551425 0.36231,-0.765625 0.0729,-0.214185 0.10936,-0.398755 0.10937,-0.553711 -10e-6,-0.227856 -0.0775,-0.426098 -0.23242,-0.594727 -0.15496,-0.16861 -0.36232,-0.307608 -0.62207,-0.416992 -0.25978,-0.109365 -0.55372,-0.189118 -0.88184,-0.239258 -0.32813,-0.05012 -0.66993,-0.07519 -1.02539,-0.0752 -0.20964,10e-6 -0.45574,0.0068 -0.73828,0.02051 -0.28256,0.01368 -0.56967,0.02735 -0.86133,0.04102 -0.29167,0.01368 -0.57422,0.02507 -0.84765,0.03418 -0.27345,0.0091 -0.51043,0.01368 -0.71094,0.01367 -0.30079,10e-6 -0.61296,-0.03417 -0.93652,-0.102539 -0.32358,-0.06835 -0.64031,-0.180003 -0.9502,-0.334961 -0.3099,-0.154938 -0.59701,-0.364573 -0.86133,-0.628906 -0.26433,-0.264312 -0.48308,-0.592437 -0.65625,-0.984375 -0.0547,-0.127593 -0.10482,-0.277983 -0.15039,-0.451172 -0.0456,-0.173165 -0.0684,-0.360014 -0.0684,-0.560547 0,-0.218737 0.0159,-0.426094 0.0478,-0.62207 0.0319,-0.19595 0.0706,-0.385078 0.11622,-0.567383 0.12759,-0.455715 0.33951,-0.91828 0.63574,-1.387695 0.29622,-0.469386 0.65168,-0.927393 1.0664,-1.374024 0.41471,-0.446597 0.86588,-0.87954 1.35352,-1.298828 0.48762,-0.419253 0.98892,-0.813458 1.50391,-1.182617 0.51496,-0.369121 1.02082,-0.701803 1.51757,-0.998047 0.49674,-0.296204 0.9593,-0.549133 1.3877,-0.758789 0.60155,-0.2916457 1.2145,-0.5035596 1.83887,-0.6357422 0.62433,-0.13214 1.24184,-0.1982207 1.85254,-0.1982422 0.36456,2.15e-5 0.71092,0.047873 1.03906,0.1435547 0.32811,0.095724 0.61749,0.2347216 0.86816,0.4169922 0.25063,0.1823124 0.44888,0.4078985 0.59473,0.6767575 0.14581,0.268901 0.21873,0.576517 0.21875,0.922852 -2e-5,0.20054 -0.0228,0.369159 -0.0684,0.505859 -0.0456,0.136738 -0.10484,0.248391 -0.17774,0.334961 -0.0729,0.08661 -0.15268,0.148131 -0.23925,0.184571 -0.0866,0.03648 -0.17548,0.05471 -0.2666,0.05469 -0.24612,1.8e-5 -0.4717,-0.02732 -0.67676,-0.08203 -0.2051,-0.05467 -0.40334,-0.116193 -0.59473,-0.184571 -0.19142,-0.06834 -0.38283,-0.132142 -0.57422,-0.191406 -0.19142,-0.05923 -0.40106,-0.08885 -0.6289,-0.08887 -0.6745,1.9e-5 -1.36037,0.134459 -2.05762,0.40332 -0.69728,0.268899 -1.37632,0.610695 -2.03711,1.025391 -0.66082,0.41473 -1.28517,0.877295 -1.87305,1.387695 -0.5879,0.510432 -1.11426,1.007177 -1.5791,1.490235 -0.2461,0.255222 -0.42611,0.51043 -0.54004,0.765625 -0.11394,0.255221 -0.1709,0.496758 -0.1709,0.724609 0,0.337252 0.14583,0.601575 0.4375,0.792969 0.29166,0.191418 0.64713,0.287121 1.06641,0.287109 0.24608,1.2e-5 0.52408,-0.0045 0.83398,-0.01367 0.30989,-0.0091 0.62662,-0.0205 0.9502,-0.03418 0.32356,-0.01366 0.63801,-0.02733 0.94336,-0.04102 0.30533,-0.01366 0.57648,-0.0205 0.81348,-0.02051 0.56509,1.2e-5 1.1074,0.07976 1.62695,0.239258 0.51951,0.159517 0.9798,0.394217 1.38086,0.704101 0.40102,0.309907 0.72231,0.694998 0.96387,1.155274 0.24151,0.460296 0.36228,0.986663 0.3623,1.579101 -2e-5,0.364592 -0.0547,0.733732 -0.16406,1.107422 -0.10939,0.373705 -0.25978,0.749681 -0.45117,1.12793 -0.19143,0.378261 -0.41018,0.751959 -0.65625,1.121094 -0.24611,0.369145 -0.50588,0.731449 -0.7793,1.086914 -0.4922,0.638024 -1.04136,1.239586 -1.64746,1.804687 -0.60613,0.565106 -1.25099,1.057293 -1.93457,1.476563 -0.68361,0.419271 -1.40594,0.751953 -2.16699,0.998047 -0.76108,0.246093 -1.54266,0.36914 -2.34473,0.36914 -0.34636,0 -0.70183,-0.0319 -1.06641,-0.0957 -0.36459,-0.0638 -0.72461,-0.157227 -1.08008,-0.280273 -0.35547,-0.123047 -0.69043,-0.277995 -1.00488,-0.464844 -0.31446,-0.186849 -0.59017,-0.398762 -0.82715,-0.635742 -0.23698,-0.236978 -0.42611,-0.499022 -0.56738,-0.786133 -0.14128,-0.287108 -0.21192,-0.599282 -0.21191,-0.936523 -1e-5,-0.16406 0.0251,-0.321287 0.0752,-0.47168 0.0501,-0.150388 0.17545,-0.225583 0.37598,-0.225586 z"
       style="font-size:28px;fill:#e64b00;font-family:MV Boli;-inkscape-font-specification:MV Boli"
       id="path3049" />
    <path
       d="m 345.06641,32.535156 c 0.0729,0.07292 0.12531,0.159503 0.15722,0.259766 0.0319,0.100258 0.0478,0.200518 0.0478,0.300781 -10e-6,0.227862 -0.0752,0.43294 -0.22558,0.615234 -0.15041,0.182289 -0.32814,0.334958 -0.5332,0.458008 -0.2051,0.123043 -0.41701,0.216468 -0.63575,0.280274 -0.21876,0.0638 -0.3965,0.0957 -0.5332,0.0957 -0.14585,-4e-6 -0.28712,-0.03646 -0.42383,-0.109375 -0.13673,-0.07292 -0.25978,-0.159509 -0.36914,-0.259766 -0.10939,-0.100264 -0.20509,-0.200524 -0.28711,-0.300781 -0.082,-0.100264 -0.14129,-0.17318 -0.17773,-0.21875 -0.23699,-0.328128 -0.45347,-0.663088 -0.64942,-1.004883 -0.19597,-0.341798 -0.37599,-0.699545 -0.54004,-1.073242 -0.16407,-0.373699 -0.3213,-0.765625 -0.47168,-1.175781 -0.1504,-0.410156 -0.29851,-0.847655 -0.44433,-1.3125 -0.13673,0.01823 -0.29624,0.03646 -0.47852,0.05469 -0.1823,0.01823 -0.36915,0.03418 -0.56054,0.04785 -0.19142,0.01367 -0.37827,0.02507 -0.56055,0.03418 -0.1823,0.0091 -0.33725,0.01367 -0.46484,0.01367 -0.9935,2e-6 -1.85711,-0.159503 -2.59082,-0.478515 -0.73373,-0.319009 -1.36036,-0.847654 -1.87989,-1.585938 -0.33724,-0.473954 -0.59473,-1.013993 -0.77246,-1.620117 -0.17774,-0.606114 -0.2666,-1.273757 -0.2666,-2.00293 0,-0.683586 0.10026,-1.389965 0.30078,-2.11914 0.20052,-0.729157 0.47623,-1.458323 0.82715,-2.1875 0.35091,-0.729155 0.77018,-1.444649 1.25781,-2.146485 0.48763,-0.701808 1.01627,-1.369451 1.58594,-2.002929 0.56965,-0.633448 1.17122,-1.219059 1.80469,-1.756836 0.63345,-0.537743 1.27831,-1.000308 1.93457,-1.387696 0.65624,-0.38735 1.30793,-0.69041 1.95508,-0.909179 0.64712,-0.21873 1.27147,-0.328105 1.87304,-0.328125 0.24608,2e-5 0.44432,0.02964 0.59473,0.08887 0.15037,0.05926 0.31671,0.125345 0.49902,0.198242 l 0.45117,0.191406 c 0.2552,0.04559 0.4899,0.09344 0.70411,0.143555 0.21417,0.05015 0.42153,0.109394 0.62207,0.177734 0.2005,0.06838 0.4033,0.152689 0.60839,0.25293 0.20506,0.100279 0.42609,0.223326 0.66309,0.369141 0.38279,0.236997 0.7132,0.565122 0.99121,0.984375 0.27798,0.419288 0.50584,0.884131 0.6836,1.394531 0.17771,0.510432 0.30987,1.050471 0.39648,1.620117 0.0866,0.569676 0.12986,1.123386 0.12988,1.661133 -2e-5,1.057303 -0.20054,2.075857 -0.60156,3.055664 -0.40106,0.979827 -0.9411,1.909513 -1.62012,2.789063 -0.67905,0.879563 -1.46974,1.699875 -2.37207,2.460937 -0.90236,0.761071 -1.85027,1.446943 -2.84375,2.057617 -0.0912,0.04558 -0.15724,0.08659 -0.19824,0.123047 -0.041,0.03646 -0.0615,0.08659 -0.0615,0.150391 0.12759,0.483074 0.26431,0.906902 0.41015,1.271484 0.14582,0.364584 0.31444,0.701823 0.50586,1.011719 0.19139,0.309895 0.41242,0.608398 0.66309,0.895508 0.25063,0.287108 0.54914,0.594725 0.89551,0.922851 z M 334.83984,22.335937 c -0.0638,0.255217 -0.11393,0.505868 -0.15039,0.751954 -0.0365,0.246101 -0.0547,0.48308 -0.0547,0.710937 -10e-6,0.410163 0.0592,0.795254 0.17773,1.155274 0.11848,0.360031 0.2985,0.672205 0.54004,0.936523 0.24153,0.264327 0.54915,0.471684 0.92285,0.62207 0.37369,0.150395 0.82031,0.22559 1.33984,0.225586 0.20052,4e-6 0.38053,-0.0046 0.54004,-0.01367 0.1595,-0.0091 0.30761,-0.0205 0.44434,-0.03418 0.13671,-0.01367 0.27115,-0.03418 0.40332,-0.06152 0.13215,-0.02734 0.26659,-0.05468 0.40332,-0.08203 -0.0274,-0.164058 -0.0615,-0.3623 -0.10254,-0.594727 -0.041,-0.232417 -0.0798,-0.469396 -0.11621,-0.710937 -0.0365,-0.241531 -0.0661,-0.464838 -0.0889,-0.669922 -0.0228,-0.205072 -0.0342,-0.362298 -0.0342,-0.47168 -1e-5,-0.109368 0.009,-0.241529 0.0273,-0.396484 0.0182,-0.154941 0.0706,-0.303053 0.15722,-0.444336 0.0866,-0.141269 0.21646,-0.262037 0.38965,-0.362305 0.17317,-0.100252 0.4147,-0.150382 0.72461,-0.15039 0.34634,8e-6 0.60611,0.107104 0.7793,0.321289 0.17316,0.2142 0.3076,0.480801 0.40332,0.799804 0.0957,0.319017 0.17088,0.663092 0.22558,1.032227 0.0547,0.369146 0.13671,0.713221 0.2461,1.032227 0.61066,-0.364579 1.21906,-0.786128 1.82519,-1.264649 0.60611,-0.478509 1.17349,-1.01399 1.70215,-1.606445 0.52863,-0.59244 1.00031,-1.250968 1.41504,-1.975586 0.4147,-0.724599 0.73598,-1.524403 0.96387,-2.399414 0.0547,-0.227853 0.098,-0.455717 0.12988,-0.683594 0.0319,-0.227852 0.0478,-0.455716 0.0478,-0.683594 -2e-5,-0.46483 -0.0638,-0.931952 -0.1914,-1.401367 -0.12763,-0.469386 -0.32587,-0.890935 -0.59473,-1.264648 -0.2689,-0.373682 -0.61525,-0.67902 -1.03906,-0.916016 -0.42385,-0.236962 -0.92743,-0.355451 -1.51075,-0.355469 -0.41017,1.8e-5 -0.80437,0.02964 -1.18261,0.08887 -0.37827,0.05926 -0.75881,0.157243 -1.1416,0.293945 -0.38283,0.136735 -0.78159,0.316748 -1.19629,0.540039 -0.41473,0.223323 -0.85906,0.499039 -1.33301,0.827148 -0.58334,0.401057 -1.14389,0.877294 -1.68164,1.428711 -0.53777,0.551446 -1.02768,1.143893 -1.46973,1.777344 -0.44206,0.633475 -0.82943,1.292003 -1.16211,1.975586 -0.33269,0.683603 -0.58562,1.358082 -0.75879,2.023437 z"
       style="font-size:28px;fill:#e64b00;font-family:MV Boli;-inkscape-font-specification:MV Boli"
       id="path3051" />
    <path
       d="m 352.88672,24.003906 c 0.20052,-0.920565 0.41699,-1.743155 0.64941,-2.467773 0.23242,-0.7246 0.46256,-1.399078 0.69043,-2.023438 0.22786,-0.624337 0.44433,-1.221342 0.64942,-1.791015 0.20507,-0.569648 0.38508,-1.159817 0.54004,-1.770508 l 0.16406,-0.65625 c 0.0365,-0.164047 0.0684,-0.369125 0.0957,-0.615234 0.0273,-0.246078 0.057,-0.503565 0.0889,-0.772461 0.0319,-0.268864 0.0752,-0.535465 0.12988,-0.799805 0.0547,-0.264305 0.13443,-0.501284 0.23926,-0.710938 0.10481,-0.209617 0.23925,-0.380515 0.40332,-0.512695 0.16405,-0.132143 0.37369,-0.198223 0.62891,-0.198242 0.28254,1.9e-5 0.5218,0.05015 0.71777,0.150391 0.19595,0.100279 0.35318,0.23244 0.47168,0.396484 0.11848,0.164081 0.20507,0.353208 0.25976,0.567383 0.0547,0.21421 0.082,0.435238 0.082,0.663086 -10e-6,0.191423 -0.0114,0.382829 -0.0342,0.574218 -0.0228,0.191423 -0.057,0.369157 -0.10254,0.533204 -0.10027,0.410171 -0.26434,0.888686 -0.49219,1.435546 -0.22787,0.546889 -0.47853,1.15073 -0.75195,1.811524 -0.27345,0.660819 -0.55144,1.376313 -0.83399,2.146484 -0.28256,0.770192 -0.53321,1.583668 -0.75195,2.44043 -0.12761,0.48308 -0.23927,1.011726 -0.33496,1.585937 -0.0957,0.574225 -0.14356,1.093756 -0.14356,1.558594 0,0.373703 0.0319,0.726892 0.0957,1.05957 0.0638,0.332686 0.17772,0.624353 0.34179,0.875 0.16406,0.250654 0.38509,0.448896 0.66309,0.594727 0.27799,0.145836 0.63118,0.218752 1.05957,0.21875 0.32812,2e-6 0.66763,-0.02734 1.01855,-0.08203 0.35091,-0.05468 0.7679,-0.186847 1.25098,-0.396485 0.71093,-0.319007 1.38313,-0.731441 2.0166,-1.237304 0.63345,-0.505855 1.22134,-1.082352 1.76367,-1.729493 0.54231,-0.647129 1.04361,-1.344393 1.50391,-2.091796 0.46027,-0.747388 0.87726,-1.522126 1.25098,-2.324219 0.37368,-0.802073 0.70408,-1.61327 0.99121,-2.433594 0.28709,-0.820299 0.5309,-1.626939 0.73144,-2.419922 0.082,-0.337224 0.14582,-0.653955 0.19141,-0.950195 0.0455,-0.296208 0.0797,-0.599267 0.10254,-0.90918 0.0228,-0.309878 0.041,-0.64256 0.0547,-0.998047 0.0136,-0.35545 0.0387,-0.761049 0.0752,-1.216796 0.0273,-0.364564 0.12986,-0.681296 0.30762,-0.950196 0.17771,-0.26886 0.44887,-0.4033 0.81347,-0.40332 0.22785,2e-5 0.42609,0.09117 0.59473,0.273437 0.1686,0.182312 0.3076,0.407898 0.41699,0.676758 0.10936,0.2689 0.19139,0.55373 0.2461,0.854492 0.0547,0.3008 0.082,0.56968 0.082,0.806641 -2e-5,0.455747 -0.0456,0.947934 -0.13672,1.476563 -0.0912,0.528661 -0.20054,1.03452 -0.32813,1.517578 -0.26434,1.04819 -0.58107,2.100924 -0.95019,3.158203 -0.36916,1.057302 -0.80894,2.091806 -1.31934,3.103515 -0.51043,1.011727 -1.10516,1.993822 -1.78418,2.946289 -0.67905,0.952479 -1.46062,1.843429 -2.34472,2.672852 -0.43752,0.410159 -0.91148,0.813479 -1.42188,1.209961 -0.51043,0.396486 -1.04363,0.754233 -1.59961,1.073242 -0.556,0.319011 -1.12566,0.576498 -1.70898,0.772461 -0.58334,0.195963 -1.16212,0.293945 -1.73633,0.293945 -0.82943,0 -1.54949,-0.116211 -2.16016,-0.348632 -0.61068,-0.232422 -1.11882,-0.558268 -1.52441,-0.97754 -0.4056,-0.419269 -0.70866,-0.918292 -0.90918,-1.49707 -0.20052,-0.578773 -0.30078,-1.214514 -0.30078,-1.907226 0,-0.328121 0.0273,-0.690425 0.082,-1.086914 0.0547,-0.396479 0.12304,-0.786127 0.20508,-1.168946 z"
       style="font-size:28px;fill:#e64b00;font-family:MV Boli;-inkscape-font-specification:MV Boli"
       id="path3053" />
    <path
       d="m 371.17969,29.568359 c -10e-6,-0.319009 0.0456,-0.656248 0.13672,-1.011718 0.30989,-1.23958 0.67219,-2.454097 1.08691,-3.643555 0.41471,-1.189446 0.79069,-2.372062 1.12793,-3.547852 0.33723,-1.17577 0.61751,-2.16698 0.84082,-2.973632 0.2233,-0.806628 0.42154,-1.499336 0.59473,-2.078125 0.17317,-0.578762 0.33267,-1.077785 0.47851,-1.497071 0.14583,-0.419254 0.30533,-0.833968 0.47852,-1.24414 0.10937,-0.246077 0.23013,-0.501285 0.3623,-0.765625 0.13216,-0.264305 0.27571,-0.50812 0.43067,-0.731446 0.15494,-0.223288 0.31672,-0.40558 0.48535,-0.546875 0.16861,-0.141257 0.34406,-0.211894 0.52637,-0.211914 0.37368,2e-5 0.65851,0.06154 0.85449,0.184571 0.19595,0.123065 0.31672,0.234719 0.3623,0.334961 l 0.12305,0.560546 c 0.13671,-0.0091 0.31444,-0.03416 0.5332,-0.07519 0.21874,-0.041 0.43977,-0.08429 0.66309,-0.129883 0.22329,-0.04555 0.43065,-0.09113 0.62207,-0.136718 0.19139,-0.04556 0.33723,-0.08657 0.4375,-0.123047 0.60155,-0.164044 1.15754,-0.30532 1.66797,-0.423828 0.5104,-0.118471 0.99575,-0.216453 1.45605,-0.293946 0.46027,-0.07745 0.90005,-0.13442 1.31934,-0.170898 0.41925,-0.03644 0.84308,-0.05467 1.27148,-0.05469 0.41925,2e-5 0.76105,0.02281 1.02539,0.06836 0.26431,0.04559 0.47394,0.107115 0.62891,0.18457 0.15493,0.07749 0.26202,0.168639 0.32129,0.273437 0.0592,0.104837 0.0888,0.216491 0.0889,0.334961 -3e-5,0.109394 -0.0297,0.225605 -0.0889,0.348633 -0.0593,0.123065 -0.15725,0.239276 -0.29395,0.348633 -0.13674,0.109393 -0.31447,0.205096 -0.5332,0.287109 -0.21877,0.08205 -0.49221,0.136737 -0.82031,0.164063 -0.082,0.01825 -0.27118,0.05243 -0.56739,0.102539 -0.29624,0.05015 -0.61753,0.104835 -0.96386,0.164062 -0.34637,0.05926 -0.6745,0.116229 -0.98438,0.170899 -0.30991,0.0547 -0.5241,0.09572 -0.64258,0.123047 l 0.0137,0 c -0.0547,0.0091 -0.18459,0.04331 -0.38965,0.102539 -0.2051,0.05926 -0.45347,0.127621 -0.74512,0.205078 -0.29168,0.07749 -0.60841,0.166358 -0.95019,0.266602 -0.34182,0.100276 -0.67905,0.198258 -1.01172,0.293945 -0.3327,0.09572 -0.64032,0.186865 -0.92286,0.273437 -0.28256,0.0866 -0.51042,0.157243 -0.68359,0.211914 -0.556,0.218766 -0.99122,0.508154 -1.30566,0.868164 -0.31447,0.360041 -0.56284,0.763361 -0.74512,1.209961 -0.0365,0.08205 -0.0912,0.221042 -0.16406,0.416993 -0.0729,0.195976 -0.15268,0.419283 -0.23926,0.669921 -0.0866,0.250664 -0.18002,0.517265 -0.28027,0.799805 -0.10027,0.282564 -0.19598,0.551444 -0.28711,0.806641 -0.0912,0.255219 -0.17091,0.48764 -0.23926,0.697265 -0.0684,0.209646 -0.11622,0.364594 -0.14356,0.464844 -0.0274,0.09116 -0.0456,0.173187 -0.0547,0.246094 -0.009,0.07293 -0.0137,0.127613 -0.0137,0.164062 0,0.0547 0.0137,0.08204 0.041,0.08203 0.13671,9e-6 0.42154,-0.06151 0.85449,-0.184571 0.43294,-0.123037 0.9388,-0.275706 1.51758,-0.458008 0.57877,-0.182281 1.19856,-0.378244 1.85938,-0.58789 0.66079,-0.209625 1.29425,-0.405588 1.90039,-0.587891 0.6061,-0.18228 1.14614,-0.334949 1.62011,-0.458008 0.47395,-0.123035 0.81574,-0.184558 1.02539,-0.18457 0.319,1.2e-5 0.53319,0.05242 0.64258,0.157227 0.10936,0.104829 0.16405,0.22104 0.16406,0.348632 -1e-5,0.328136 -0.11622,0.615245 -0.34863,0.861329 -0.23244,0.246103 -0.52182,0.460296 -0.86816,0.642578 -0.10939,0.0547 -0.31219,0.134449 -0.6084,0.239258 -0.29624,0.104827 -0.61525,0.211923 -0.95703,0.321289 -0.34181,0.109384 -0.66766,0.214201 -0.97754,0.314453 -0.30991,0.100269 -0.53322,0.173185 -0.66992,0.21875 -0.89324,0.346362 -1.62013,0.631193 -2.18067,0.854492 -0.56055,0.223315 -1.014,0.405606 -1.36035,0.546875 -0.34636,0.141283 -0.61296,0.248379 -0.7998,0.321289 -0.18686,0.07292 -0.36004,0.134447 -0.51953,0.18457 -0.15952,0.05014 -0.33497,0.09799 -0.52637,0.143555 -0.19141,0.04558 -0.45574,0.109381 -0.79297,0.191406 -0.082,0.191413 -0.17774,0.4808 -0.28711,0.868164 -0.10938,0.387375 -0.2142,0.788416 -0.31445,1.203125 -0.10027,0.414718 -0.18458,0.799808 -0.25293,1.155274 -0.0684,0.355471 -0.10255,0.601565 -0.10254,0.738281 -1e-5,0.164065 0.0228,0.284833 0.0684,0.362305 0.0456,0.07748 0.10025,0.129884 0.16406,0.157226 0.0638,0.02735 0.1276,0.04102 0.19141,0.04102 0.0638,2e-6 0.11392,2e-6 0.15039,0 0.43749,2e-6 0.96386,-0.0638 1.5791,-0.191406 0.61522,-0.127602 1.22362,-0.296222 1.82519,-0.50586 0.57421,-0.200518 1.07551,-0.419268 1.50391,-0.65625 0.42837,-0.236975 0.83169,-0.458004 1.20996,-0.663086 0.37824,-0.205074 0.74738,-0.378251 1.10742,-0.519531 0.36002,-0.141271 0.75422,-0.216467 1.18262,-0.225586 0.0911,5e-6 0.19823,0.0091 0.32129,0.02734 0.12303,0.01823 0.23924,0.05241 0.34863,0.102539 0.10936,0.05014 0.19823,0.116215 0.2666,0.198242 0.0684,0.08204 0.0934,0.186853 0.0752,0.314453 -0.0365,0.264327 -0.16864,0.524092 -0.39649,0.779297 -0.22787,0.255211 -0.51498,0.501305 -0.86132,0.738281 -0.34637,0.236982 -0.73374,0.464846 -1.16211,0.683594 -0.4284,0.218752 -0.8659,0.426108 -1.3125,0.62207 -0.44663,0.195965 -0.88413,0.373699 -1.3125,0.533204 -0.4284,0.159505 -0.81121,0.298502 -1.14844,0.416992 -0.83855,0.291666 -1.6543,0.505859 -2.44727,0.642578 -0.79297,0.136718 -1.50391,0.205077 -2.13281,0.205078 -0.69271,-1e-6 -1.22363,-0.129883 -1.59277,-0.389648 -0.36915,-0.259766 -0.55372,-0.69043 -0.55371,-1.291993 z"
       style="font-size:28px;fill:#e64b00;font-family:MV Boli;-inkscape-font-specification:MV Boli"
       id="path3055" />
    <path
       d="m 387.17578,28.529297 c 0.41927,-0.300779 0.84538,-0.489906 1.27832,-0.567383 0.43294,-0.07747 0.89095,-0.138995 1.37402,-0.18457 l 3.41797,-13.835938 c -0.0365,1.7e-5 -0.139,-0.0023 -0.30761,-0.0068 -0.16863,-0.0045 -0.35548,-0.01821 -0.56055,-0.04102 -0.20509,-0.02277 -0.40788,-0.06151 -0.6084,-0.116211 -0.20053,-0.05467 -0.35092,-0.132145 -0.45117,-0.232422 -0.0456,-0.06378 -0.10255,-0.148095 -0.1709,-0.25293 -0.0684,-0.1048 -0.13445,-0.218732 -0.19824,-0.341797 -0.0638,-0.123029 -0.1185,-0.248354 -0.16406,-0.375976 -0.0456,-0.127586 -0.0684,-0.25519 -0.0684,-0.382813 -10e-6,-0.209617 0.0889,-0.385072 0.2666,-0.526367 0.17773,-0.141257 0.39648,-0.255189 0.65625,-0.341797 0.25976,-0.08657 0.54003,-0.148092 0.84082,-0.18457 0.30077,-0.03644 0.57421,-0.05467 0.82031,-0.05469 1.14843,2e-5 2.21256,0.0342 3.19238,0.102539 0.97981,0.06838 1.89582,0.216491 2.74805,0.444336 0.8522,0.227884 1.65428,0.551451 2.40625,0.970704 0.75194,0.419288 1.46971,0.979834 2.15332,1.68164 0.25519,0.264339 0.49901,0.560563 0.73145,0.888672 0.2324,0.32814 0.43748,0.685887 0.61523,1.073242 0.17772,0.387384 0.32127,0.802097 0.43066,1.244141 0.10936,0.44207 0.16405,0.909192 0.16407,1.401367 -2e-5,0.264334 -0.0137,0.542329 -0.041,0.833984 -0.0274,0.291678 -0.0638,0.542328 -0.10937,0.751953 -0.26435,1.057301 -0.63577,1.993824 -1.11426,2.809571 -0.47854,0.815761 -1.03452,1.54037 -1.66797,2.173828 -0.63348,0.633468 -1.32847,1.182621 -2.08496,1.647461 -0.75653,0.464847 -1.54038,0.870445 -2.35156,1.216797 -0.81121,0.346356 -1.63608,0.647137 -2.47461,0.902343 -0.83855,0.25521 -1.65431,0.483074 -2.44727,0.683594 l 0.0137,0 c -0.35547,0.109376 -0.73829,0.205079 -1.14843,0.28711 -0.41017,0.08203 -0.82488,0.15039 -1.24414,0.205078 -0.41928,0.05469 -0.83627,0.09798 -1.25098,0.129883 -0.41472,0.0319 -0.80437,0.04785 -1.16895,0.04785 -0.40104,0 -0.73828,-0.02507 -1.01172,-0.0752 -0.27343,-0.05013 -0.49446,-0.11849 -0.66308,-0.205078 -0.16862,-0.08659 -0.28939,-0.18457 -0.36231,-0.293946 -0.0729,-0.109374 -0.10937,-0.227863 -0.10937,-0.355468 0,-0.182291 0.0524,-0.371418 0.15723,-0.567383 0.10481,-0.195962 0.27571,-0.380532 0.51269,-0.553711 z m 6.01563,-3.923828 c -0.10939,0.464849 -0.22332,0.943364 -0.3418,1.435547 -0.1185,0.492191 -0.23243,0.975264 -0.3418,1.449218 l 0.31446,-0.06836 c 0.20051,-0.04557 0.47167,-0.113929 0.81347,-0.205078 0.34179,-0.09114 0.736,-0.205075 1.18262,-0.341797 0.4466,-0.136715 0.916,-0.300777 1.4082,-0.492188 0.49218,-0.191401 1.01399,-0.421544 1.56543,-0.690429 0.55142,-0.268875 1.09602,-0.574213 1.63379,-0.916016 0.53775,-0.341791 1.05272,-0.713209 1.54492,-1.114258 0.49217,-0.401034 0.92512,-0.831698 1.29883,-1.291992 0.37368,-0.460278 0.67218,-0.94335 0.89551,-1.449219 0.22329,-0.505849 0.33494,-1.032215 0.33496,-1.579101 -2e-5,-0.555978 -0.10939,-1.082345 -0.32813,-1.579102 -0.21876,-0.496731 -0.51271,-0.957017 -0.88183,-1.380859 -0.36916,-0.423814 -0.79754,-0.802068 -1.28516,-1.134766 -0.48764,-0.332666 -0.99578,-0.617497 -1.52441,-0.854492 -0.52866,-0.236963 -1.06414,-0.416975 -1.60645,-0.540039 -0.54233,-0.12303 -1.05502,-0.184553 -1.53808,-0.18457 -0.68361,1.768244 -1.26694,3.563815 -1.75,5.386718 -0.48308,1.822927 -0.94793,3.673185 -1.39453,5.550782 z"
       style="font-size:28px;fill:#e64b00;font-family:MV Boli;-inkscape-font-specification:MV Boli"
       id="path3057" />
    <path
       d="m 419.56445,30.730469 c -0.19142,0 -0.36004,-0.03646 -0.50586,-0.109375 -0.14584,-0.07292 -0.26661,-0.16862 -0.3623,-0.28711 -0.0957,-0.118489 -0.16863,-0.255207 -0.21875,-0.410156 -0.0501,-0.154947 -0.0752,-0.309895 -0.0752,-0.464844 -10e-6,-0.136717 0.0365,-0.325845 0.10938,-0.567382 0.0729,-0.241535 0.16633,-0.512694 0.28027,-0.813477 0.11392,-0.300778 0.23925,-0.615231 0.37598,-0.943359 0.1367,-0.328122 0.26886,-0.642574 0.39648,-0.94336 0.12759,-0.300776 0.23697,-0.578771 0.32813,-0.833984 0.0911,-0.255203 0.15493,-0.455724 0.1914,-0.601563 0.0365,-0.164056 0.082,-0.360019 0.13672,-0.58789 0.0547,-0.227858 0.1162,-0.47623 0.18457,-0.745117 0.0684,-0.268873 0.13671,-0.551425 0.20508,-0.847657 0.0683,-0.296215 0.13898,-0.594718 0.21192,-0.895508 -0.12762,0.02735 -0.28485,0.05242 -0.47168,0.0752 -0.18687,0.0228 -0.38511,0.0433 -0.59473,0.06152 -0.3008,0.02735 -0.59702,0.06837 -0.88867,0.123047 -0.29168,0.0547 -0.59019,0.11622 -0.89551,0.18457 -0.30535,0.06837 -0.62208,0.141285 -0.9502,0.21875 -0.32813,0.07748 -0.67904,0.157235 -1.05273,0.239258 -0.54689,0.118498 -1.09376,0.250659 -1.64063,0.396485 -0.54688,0.14584 -1.11654,0.218757 -1.70898,0.21875 -0.1823,7e-6 -0.35092,-0.04784 -0.50586,-0.143555 -0.15495,-0.0957 -0.32813,-0.166334 -0.51953,-0.211914 -0.1823,0.291674 -0.35548,0.603848 -0.51953,0.936523 -0.16407,0.332689 -0.31446,0.674486 -0.45117,1.025391 -0.13673,0.350917 -0.25977,0.697271 -0.36914,1.039062 -0.10938,0.341802 -0.20509,0.66309 -0.28711,0.963868 -0.0456,0.164066 -0.0843,0.37598 -0.11621,0.635742 -0.0319,0.259768 -0.0615,0.524091 -0.0889,0.792969 -0.0274,0.268882 -0.0547,0.526369 -0.082,0.77246 -0.0274,0.246096 -0.0547,0.442059 -0.082,0.587891 -0.0274,0.13672 -0.082,0.27116 -0.16407,0.40332 -0.082,0.132162 -0.18229,0.25293 -0.30078,0.362305 -0.11849,0.109375 -0.25065,0.198242 -0.39648,0.266602 -0.14584,0.06836 -0.29167,0.102539 -0.4375,0.102539 -0.25521,0 -0.46257,-0.0752 -0.62207,-0.225586 -0.15951,-0.150391 -0.28711,-0.337239 -0.38281,-0.560547 -0.0957,-0.223306 -0.16179,-0.467121 -0.19825,-0.731445 -0.0365,-0.264322 -0.0547,-0.505858 -0.0547,-0.72461 -10e-6,-0.555987 0.0684,-1.132484 0.20507,-1.729492 0.13672,-0.597001 0.32129,-1.20312 0.55371,-1.818359 0.23242,-0.615228 0.50586,-1.235019 0.82032,-1.859375 0.31445,-0.624341 0.65396,-1.246411 1.01855,-1.866211 0.30078,-0.55598 0.67448,-1.198557 1.1211,-1.927735 0.4466,-0.729154 0.94563,-1.478828 1.49707,-2.249023 0.55142,-0.770168 1.14842,-1.524399 1.79101,-2.262695 0.64257,-0.738265 1.31021,-1.396793 2.00293,-1.975586 0.6927,-0.578758 1.40363,-1.04588 2.13281,-1.401367 0.72916,-0.35545 1.45376,-0.533184 2.17383,-0.533204 0.7565,2e-5 1.38768,0.136739 1.89356,0.410157 0.50584,0.273456 0.90916,0.642596 1.20996,1.107422 0.30076,0.464861 0.51267,1.007178 0.63574,1.626953 0.12303,0.619807 0.18455,1.276057 0.18457,1.96875 -2e-5,0.610691 -0.0388,1.239596 -0.11621,1.886718 -0.0775,0.647148 -0.1732,1.280611 -0.28711,1.900391 -0.11395,0.619802 -0.237,1.216806 -0.36914,1.791016 -0.13218,0.574227 -0.25295,1.093758 -0.36231,1.558593 l -0.47851,1.859375 c -0.0183,0.05469 -0.0524,0.164068 -0.10254,0.328125 -0.0501,0.164068 -0.11395,0.36231 -0.19141,0.594727 -0.0775,0.232426 -0.16408,0.483077 -0.25976,0.751953 -0.0957,0.268884 -0.19143,0.533207 -0.28711,0.792969 -0.0957,0.259768 -0.18687,0.499026 -0.27344,0.717773 -0.0866,0.218752 -0.1618,0.396487 -0.22559,0.533203 l 0.0137,-0.01367 c -0.0638,0.236981 -0.13218,0.478518 -0.20508,0.72461 -0.0729,0.246095 -0.17319,0.467123 -0.30078,0.663086 -0.12762,0.195964 -0.29169,0.355469 -0.49219,0.478515 -0.20054,0.123047 -0.4603,0.184571 -0.7793,0.184571 z m 0.69727,-17.117188 c -0.41017,1.7e-5 -0.81805,0.08433 -1.22363,0.25293 -0.40562,0.168636 -0.80438,0.389665 -1.19629,0.663086 -0.39194,0.273453 -0.77248,0.592463 -1.1416,0.957031 -0.36916,0.364598 -0.72007,0.738296 -1.05274,1.121094 -0.33269,0.382826 -0.64487,0.767917 -0.93652,1.155273 -0.29168,0.387383 -0.556,0.74513 -0.79297,1.073242 -0.0365,0.0547 -0.0843,0.125338 -0.14356,0.211915 -0.0592,0.0866 -0.11849,0.182303 -0.17773,0.287109 -0.0593,0.104829 -0.11622,0.214204 -0.1709,0.328125 -0.0547,0.113943 -0.10027,0.216482 -0.13672,0.307617 l 1.40821,0 c 0.5104,1.1e-5 1.09373,-0.03645 1.75,-0.109375 0.65623,-0.07291 1.30565,-0.159494 1.94824,-0.259766 0.64256,-0.100249 1.23273,-0.202788 1.77051,-0.307617 0.53774,-0.104806 0.94334,-0.184559 1.21679,-0.239258 0.0364,-0.118477 0.0706,-0.277982 0.10254,-0.478515 0.0319,-0.200509 0.0615,-0.423816 0.0889,-0.669922 0.0273,-0.246081 0.0478,-0.508125 0.0615,-0.786133 0.0137,-0.277981 0.0205,-0.562811 0.0205,-0.854492 -2e-5,-0.236965 -0.009,-0.508123 -0.0273,-0.813477 -0.0183,-0.305323 -0.0729,-0.59471 -0.16407,-0.868164 -0.0912,-0.273421 -0.23016,-0.503564 -0.41699,-0.690429 -0.18686,-0.186832 -0.44891,-0.280257 -0.78613,-0.280274 z"
       style="font-size:28px;fill:#e64b00;font-family:MV Boli;-inkscape-font-specification:MV Boli"
       id="path3059" />
  </g>
</svg>
